<?xml version="1.0" encoding="utf-8" standalone="no"?>
<!DOCTYPE svg PUBLIC "-//W3C//DTD SVG 1.1//EN"
  "http://www.w3.org/Graphics/SVG/1.1/DTD/svg11.dtd">
<svg xmlns:xlink="http://www.w3.org/1999/xlink" width="416.386375pt" height="329.745625pt" viewBox="0 0 416.386375 329.745625" xmlns="http://www.w3.org/2000/svg" version="1.1">
 <metadata>
  <rdf:RDF xmlns:dc="http://purl.org/dc/elements/1.1/" xmlns:cc="http://creativecommons.org/ns#" xmlns:rdf="http://www.w3.org/1999/02/22-rdf-syntax-ns#">
   <cc:Work>
    <dc:type rdf:resource="http://purl.org/dc/dcmitype/StillImage"/>
    <dc:date>2022-01-27T21:19:56.418743</dc:date>
    <dc:format>image/svg+xml</dc:format>
    <dc:creator>
     <cc:Agent>
      <dc:title>Matplotlib v3.5.1, https://matplotlib.org/</dc:title>
     </cc:Agent>
    </dc:creator>
   </cc:Work>
  </rdf:RDF>
 </metadata>
 <defs>
  <style type="text/css">*{stroke-linejoin: round; stroke-linecap: butt}</style>
 </defs>
 <g id="figure_1">
  <g id="patch_1">
   <path d="M 0 329.745625 
L 416.386375 329.745625 
L 416.386375 0 
L 0 0 
z
" style="fill: #ffffff"/>
  </g>
  <g id="axes_1">
   <g id="patch_2">
    <path d="M 45.716875 290.25375 
L 402.836875 290.25375 
L 402.836875 24.14175 
L 45.716875 24.14175 
z
" style="fill: #e5e5e5"/>
   </g>
   <g id="matplotlib.axis_1">
    <g id="xtick_1">
     <g id="line2d_1">
      <path d="M 62.602831 290.25375 
L 62.602831 24.14175 
" clip-path="url(#pad70147cba)" style="fill: none; stroke: #ffffff; stroke-width: 0.8; stroke-linecap: square"/>
     </g>
     <g id="line2d_2">
      <defs>
       <path id="m13f411a5dc" d="M 0 0 
L 0 3.5 
" style="stroke: #555555; stroke-width: 0.8"/>
      </defs>
      <g>
       <use xlink:href="#m13f411a5dc" x="62.602831" y="290.25375" style="fill: #555555; stroke: #555555; stroke-width: 0.8"/>
      </g>
     </g>
     <g id="text_1">
      <!-- 0 -->
      <g style="fill: #555555" transform="translate(59.421581 304.852187)scale(0.1 -0.1)">
       <defs>
        <path id="DejaVuSans-30" d="M 2034 4250 
Q 1547 4250 1301 3770 
Q 1056 3291 1056 2328 
Q 1056 1369 1301 889 
Q 1547 409 2034 409 
Q 2525 409 2770 889 
Q 3016 1369 3016 2328 
Q 3016 3291 2770 3770 
Q 2525 4250 2034 4250 
z
M 2034 4750 
Q 2819 4750 3233 4129 
Q 3647 3509 3647 2328 
Q 3647 1150 3233 529 
Q 2819 -91 2034 -91 
Q 1250 -91 836 529 
Q 422 1150 422 2328 
Q 422 3509 836 4129 
Q 1250 4750 2034 4750 
z
" transform="scale(0.015625)"/>
       </defs>
       <use xlink:href="#DejaVuSans-30"/>
      </g>
     </g>
    </g>
    <g id="xtick_2">
     <g id="line2d_3">
      <path d="M 88.731969 290.25375 
L 88.731969 24.14175 
" clip-path="url(#pad70147cba)" style="fill: none; stroke: #ffffff; stroke-width: 0.8; stroke-linecap: square"/>
     </g>
     <g id="line2d_4">
      <g>
       <use xlink:href="#m13f411a5dc" x="88.731969" y="290.25375" style="fill: #555555; stroke: #555555; stroke-width: 0.8"/>
      </g>
     </g>
     <g id="text_2">
      <!-- 8 -->
      <g style="fill: #555555" transform="translate(85.550719 304.852187)scale(0.1 -0.1)">
       <defs>
        <path id="DejaVuSans-38" d="M 2034 2216 
Q 1584 2216 1326 1975 
Q 1069 1734 1069 1313 
Q 1069 891 1326 650 
Q 1584 409 2034 409 
Q 2484 409 2743 651 
Q 3003 894 3003 1313 
Q 3003 1734 2745 1975 
Q 2488 2216 2034 2216 
z
M 1403 2484 
Q 997 2584 770 2862 
Q 544 3141 544 3541 
Q 544 4100 942 4425 
Q 1341 4750 2034 4750 
Q 2731 4750 3128 4425 
Q 3525 4100 3525 3541 
Q 3525 3141 3298 2862 
Q 3072 2584 2669 2484 
Q 3125 2378 3379 2068 
Q 3634 1759 3634 1313 
Q 3634 634 3220 271 
Q 2806 -91 2034 -91 
Q 1263 -91 848 271 
Q 434 634 434 1313 
Q 434 1759 690 2068 
Q 947 2378 1403 2484 
z
M 1172 3481 
Q 1172 3119 1398 2916 
Q 1625 2713 2034 2713 
Q 2441 2713 2670 2916 
Q 2900 3119 2900 3481 
Q 2900 3844 2670 4047 
Q 2441 4250 2034 4250 
Q 1625 4250 1398 4047 
Q 1172 3844 1172 3481 
z
" transform="scale(0.015625)"/>
       </defs>
       <use xlink:href="#DejaVuSans-38"/>
      </g>
     </g>
    </g>
    <g id="xtick_3">
     <g id="line2d_5">
      <path d="M 114.861108 290.25375 
L 114.861108 24.14175 
" clip-path="url(#pad70147cba)" style="fill: none; stroke: #ffffff; stroke-width: 0.8; stroke-linecap: square"/>
     </g>
     <g id="line2d_6">
      <g>
       <use xlink:href="#m13f411a5dc" x="114.861108" y="290.25375" style="fill: #555555; stroke: #555555; stroke-width: 0.8"/>
      </g>
     </g>
     <g id="text_3">
      <!-- 16 -->
      <g style="fill: #555555" transform="translate(108.498608 304.852187)scale(0.1 -0.1)">
       <defs>
        <path id="DejaVuSans-31" d="M 794 531 
L 1825 531 
L 1825 4091 
L 703 3866 
L 703 4441 
L 1819 4666 
L 2450 4666 
L 2450 531 
L 3481 531 
L 3481 0 
L 794 0 
L 794 531 
z
" transform="scale(0.015625)"/>
        <path id="DejaVuSans-36" d="M 2113 2584 
Q 1688 2584 1439 2293 
Q 1191 2003 1191 1497 
Q 1191 994 1439 701 
Q 1688 409 2113 409 
Q 2538 409 2786 701 
Q 3034 994 3034 1497 
Q 3034 2003 2786 2293 
Q 2538 2584 2113 2584 
z
M 3366 4563 
L 3366 3988 
Q 3128 4100 2886 4159 
Q 2644 4219 2406 4219 
Q 1781 4219 1451 3797 
Q 1122 3375 1075 2522 
Q 1259 2794 1537 2939 
Q 1816 3084 2150 3084 
Q 2853 3084 3261 2657 
Q 3669 2231 3669 1497 
Q 3669 778 3244 343 
Q 2819 -91 2113 -91 
Q 1303 -91 875 529 
Q 447 1150 447 2328 
Q 447 3434 972 4092 
Q 1497 4750 2381 4750 
Q 2619 4750 2861 4703 
Q 3103 4656 3366 4563 
z
" transform="scale(0.015625)"/>
       </defs>
       <use xlink:href="#DejaVuSans-31"/>
       <use xlink:href="#DejaVuSans-36" x="63.623047"/>
      </g>
     </g>
    </g>
    <g id="xtick_4">
     <g id="line2d_7">
      <path d="M 140.990246 290.25375 
L 140.990246 24.14175 
" clip-path="url(#pad70147cba)" style="fill: none; stroke: #ffffff; stroke-width: 0.8; stroke-linecap: square"/>
     </g>
     <g id="line2d_8">
      <g>
       <use xlink:href="#m13f411a5dc" x="140.990246" y="290.25375" style="fill: #555555; stroke: #555555; stroke-width: 0.8"/>
      </g>
     </g>
     <g id="text_4">
      <!-- 24 -->
      <g style="fill: #555555" transform="translate(134.627746 304.852187)scale(0.1 -0.1)">
       <defs>
        <path id="DejaVuSans-32" d="M 1228 531 
L 3431 531 
L 3431 0 
L 469 0 
L 469 531 
Q 828 903 1448 1529 
Q 2069 2156 2228 2338 
Q 2531 2678 2651 2914 
Q 2772 3150 2772 3378 
Q 2772 3750 2511 3984 
Q 2250 4219 1831 4219 
Q 1534 4219 1204 4116 
Q 875 4013 500 3803 
L 500 4441 
Q 881 4594 1212 4672 
Q 1544 4750 1819 4750 
Q 2544 4750 2975 4387 
Q 3406 4025 3406 3419 
Q 3406 3131 3298 2873 
Q 3191 2616 2906 2266 
Q 2828 2175 2409 1742 
Q 1991 1309 1228 531 
z
" transform="scale(0.015625)"/>
        <path id="DejaVuSans-34" d="M 2419 4116 
L 825 1625 
L 2419 1625 
L 2419 4116 
z
M 2253 4666 
L 3047 4666 
L 3047 1625 
L 3713 1625 
L 3713 1100 
L 3047 1100 
L 3047 0 
L 2419 0 
L 2419 1100 
L 313 1100 
L 313 1709 
L 2253 4666 
z
" transform="scale(0.015625)"/>
       </defs>
       <use xlink:href="#DejaVuSans-32"/>
       <use xlink:href="#DejaVuSans-34" x="63.623047"/>
      </g>
     </g>
    </g>
    <g id="xtick_5">
     <g id="line2d_9">
      <path d="M 167.119385 290.25375 
L 167.119385 24.14175 
" clip-path="url(#pad70147cba)" style="fill: none; stroke: #ffffff; stroke-width: 0.8; stroke-linecap: square"/>
     </g>
     <g id="line2d_10">
      <g>
       <use xlink:href="#m13f411a5dc" x="167.119385" y="290.25375" style="fill: #555555; stroke: #555555; stroke-width: 0.8"/>
      </g>
     </g>
     <g id="text_5">
      <!-- 32 -->
      <g style="fill: #555555" transform="translate(160.756885 304.852187)scale(0.1 -0.1)">
       <defs>
        <path id="DejaVuSans-33" d="M 2597 2516 
Q 3050 2419 3304 2112 
Q 3559 1806 3559 1356 
Q 3559 666 3084 287 
Q 2609 -91 1734 -91 
Q 1441 -91 1130 -33 
Q 819 25 488 141 
L 488 750 
Q 750 597 1062 519 
Q 1375 441 1716 441 
Q 2309 441 2620 675 
Q 2931 909 2931 1356 
Q 2931 1769 2642 2001 
Q 2353 2234 1838 2234 
L 1294 2234 
L 1294 2753 
L 1863 2753 
Q 2328 2753 2575 2939 
Q 2822 3125 2822 3475 
Q 2822 3834 2567 4026 
Q 2313 4219 1838 4219 
Q 1578 4219 1281 4162 
Q 984 4106 628 3988 
L 628 4550 
Q 988 4650 1302 4700 
Q 1616 4750 1894 4750 
Q 2613 4750 3031 4423 
Q 3450 4097 3450 3541 
Q 3450 3153 3228 2886 
Q 3006 2619 2597 2516 
z
" transform="scale(0.015625)"/>
       </defs>
       <use xlink:href="#DejaVuSans-33"/>
       <use xlink:href="#DejaVuSans-32" x="63.623047"/>
      </g>
     </g>
    </g>
    <g id="xtick_6">
     <g id="line2d_11">
      <path d="M 193.248523 290.25375 
L 193.248523 24.14175 
" clip-path="url(#pad70147cba)" style="fill: none; stroke: #ffffff; stroke-width: 0.8; stroke-linecap: square"/>
     </g>
     <g id="line2d_12">
      <g>
       <use xlink:href="#m13f411a5dc" x="193.248523" y="290.25375" style="fill: #555555; stroke: #555555; stroke-width: 0.8"/>
      </g>
     </g>
     <g id="text_6">
      <!-- 40 -->
      <g style="fill: #555555" transform="translate(186.886023 304.852187)scale(0.1 -0.1)">
       <use xlink:href="#DejaVuSans-34"/>
       <use xlink:href="#DejaVuSans-30" x="63.623047"/>
      </g>
     </g>
    </g>
    <g id="xtick_7">
     <g id="line2d_13">
      <path d="M 219.377662 290.25375 
L 219.377662 24.14175 
" clip-path="url(#pad70147cba)" style="fill: none; stroke: #ffffff; stroke-width: 0.8; stroke-linecap: square"/>
     </g>
     <g id="line2d_14">
      <g>
       <use xlink:href="#m13f411a5dc" x="219.377662" y="290.25375" style="fill: #555555; stroke: #555555; stroke-width: 0.8"/>
      </g>
     </g>
     <g id="text_7">
      <!-- 48 -->
      <g style="fill: #555555" transform="translate(213.015162 304.852187)scale(0.1 -0.1)">
       <use xlink:href="#DejaVuSans-34"/>
       <use xlink:href="#DejaVuSans-38" x="63.623047"/>
      </g>
     </g>
    </g>
    <g id="xtick_8">
     <g id="line2d_15">
      <path d="M 245.5068 290.25375 
L 245.5068 24.14175 
" clip-path="url(#pad70147cba)" style="fill: none; stroke: #ffffff; stroke-width: 0.8; stroke-linecap: square"/>
     </g>
     <g id="line2d_16">
      <g>
       <use xlink:href="#m13f411a5dc" x="245.5068" y="290.25375" style="fill: #555555; stroke: #555555; stroke-width: 0.8"/>
      </g>
     </g>
     <g id="text_8">
      <!-- 56 -->
      <g style="fill: #555555" transform="translate(239.1443 304.852187)scale(0.1 -0.1)">
       <defs>
        <path id="DejaVuSans-35" d="M 691 4666 
L 3169 4666 
L 3169 4134 
L 1269 4134 
L 1269 2991 
Q 1406 3038 1543 3061 
Q 1681 3084 1819 3084 
Q 2600 3084 3056 2656 
Q 3513 2228 3513 1497 
Q 3513 744 3044 326 
Q 2575 -91 1722 -91 
Q 1428 -91 1123 -41 
Q 819 9 494 109 
L 494 744 
Q 775 591 1075 516 
Q 1375 441 1709 441 
Q 2250 441 2565 725 
Q 2881 1009 2881 1497 
Q 2881 1984 2565 2268 
Q 2250 2553 1709 2553 
Q 1456 2553 1204 2497 
Q 953 2441 691 2322 
L 691 4666 
z
" transform="scale(0.015625)"/>
       </defs>
       <use xlink:href="#DejaVuSans-35"/>
       <use xlink:href="#DejaVuSans-36" x="63.623047"/>
      </g>
     </g>
    </g>
    <g id="xtick_9">
     <g id="line2d_17">
      <path d="M 271.635938 290.25375 
L 271.635938 24.14175 
" clip-path="url(#pad70147cba)" style="fill: none; stroke: #ffffff; stroke-width: 0.8; stroke-linecap: square"/>
     </g>
     <g id="line2d_18">
      <g>
       <use xlink:href="#m13f411a5dc" x="271.635938" y="290.25375" style="fill: #555555; stroke: #555555; stroke-width: 0.8"/>
      </g>
     </g>
     <g id="text_9">
      <!-- 64 -->
      <g style="fill: #555555" transform="translate(265.273438 304.852187)scale(0.1 -0.1)">
       <use xlink:href="#DejaVuSans-36"/>
       <use xlink:href="#DejaVuSans-34" x="63.623047"/>
      </g>
     </g>
    </g>
    <g id="xtick_10">
     <g id="line2d_19">
      <path d="M 297.765077 290.25375 
L 297.765077 24.14175 
" clip-path="url(#pad70147cba)" style="fill: none; stroke: #ffffff; stroke-width: 0.8; stroke-linecap: square"/>
     </g>
     <g id="line2d_20">
      <g>
       <use xlink:href="#m13f411a5dc" x="297.765077" y="290.25375" style="fill: #555555; stroke: #555555; stroke-width: 0.8"/>
      </g>
     </g>
     <g id="text_10">
      <!-- 72 -->
      <g style="fill: #555555" transform="translate(291.402577 304.852187)scale(0.1 -0.1)">
       <defs>
        <path id="DejaVuSans-37" d="M 525 4666 
L 3525 4666 
L 3525 4397 
L 1831 0 
L 1172 0 
L 2766 4134 
L 525 4134 
L 525 4666 
z
" transform="scale(0.015625)"/>
       </defs>
       <use xlink:href="#DejaVuSans-37"/>
       <use xlink:href="#DejaVuSans-32" x="63.623047"/>
      </g>
     </g>
    </g>
    <g id="xtick_11">
     <g id="line2d_21">
      <path d="M 323.894215 290.25375 
L 323.894215 24.14175 
" clip-path="url(#pad70147cba)" style="fill: none; stroke: #ffffff; stroke-width: 0.8; stroke-linecap: square"/>
     </g>
     <g id="line2d_22">
      <g>
       <use xlink:href="#m13f411a5dc" x="323.894215" y="290.25375" style="fill: #555555; stroke: #555555; stroke-width: 0.8"/>
      </g>
     </g>
     <g id="text_11">
      <!-- 80 -->
      <g style="fill: #555555" transform="translate(317.531715 304.852187)scale(0.1 -0.1)">
       <use xlink:href="#DejaVuSans-38"/>
       <use xlink:href="#DejaVuSans-30" x="63.623047"/>
      </g>
     </g>
    </g>
    <g id="xtick_12">
     <g id="line2d_23">
      <path d="M 350.023354 290.25375 
L 350.023354 24.14175 
" clip-path="url(#pad70147cba)" style="fill: none; stroke: #ffffff; stroke-width: 0.8; stroke-linecap: square"/>
     </g>
     <g id="line2d_24">
      <g>
       <use xlink:href="#m13f411a5dc" x="350.023354" y="290.25375" style="fill: #555555; stroke: #555555; stroke-width: 0.8"/>
      </g>
     </g>
     <g id="text_12">
      <!-- 88 -->
      <g style="fill: #555555" transform="translate(343.660854 304.852187)scale(0.1 -0.1)">
       <use xlink:href="#DejaVuSans-38"/>
       <use xlink:href="#DejaVuSans-38" x="63.623047"/>
      </g>
     </g>
    </g>
    <g id="xtick_13">
     <g id="line2d_25">
      <path d="M 376.152492 290.25375 
L 376.152492 24.14175 
" clip-path="url(#pad70147cba)" style="fill: none; stroke: #ffffff; stroke-width: 0.8; stroke-linecap: square"/>
     </g>
     <g id="line2d_26">
      <g>
       <use xlink:href="#m13f411a5dc" x="376.152492" y="290.25375" style="fill: #555555; stroke: #555555; stroke-width: 0.8"/>
      </g>
     </g>
     <g id="text_13">
      <!-- 96 -->
      <g style="fill: #555555" transform="translate(369.789992 304.852187)scale(0.1 -0.1)">
       <defs>
        <path id="DejaVuSans-39" d="M 703 97 
L 703 672 
Q 941 559 1184 500 
Q 1428 441 1663 441 
Q 2288 441 2617 861 
Q 2947 1281 2994 2138 
Q 2813 1869 2534 1725 
Q 2256 1581 1919 1581 
Q 1219 1581 811 2004 
Q 403 2428 403 3163 
Q 403 3881 828 4315 
Q 1253 4750 1959 4750 
Q 2769 4750 3195 4129 
Q 3622 3509 3622 2328 
Q 3622 1225 3098 567 
Q 2575 -91 1691 -91 
Q 1453 -91 1209 -44 
Q 966 3 703 97 
z
M 1959 2075 
Q 2384 2075 2632 2365 
Q 2881 2656 2881 3163 
Q 2881 3666 2632 3958 
Q 2384 4250 1959 4250 
Q 1534 4250 1286 3958 
Q 1038 3666 1038 3163 
Q 1038 2656 1286 2365 
Q 1534 2075 1959 2075 
z
" transform="scale(0.015625)"/>
       </defs>
       <use xlink:href="#DejaVuSans-39"/>
       <use xlink:href="#DejaVuSans-36" x="63.623047"/>
      </g>
     </g>
    </g>
    <g id="xtick_14">
     <g id="line2d_27">
      <path d="M 402.281631 290.25375 
L 402.281631 24.14175 
" clip-path="url(#pad70147cba)" style="fill: none; stroke: #ffffff; stroke-width: 0.8; stroke-linecap: square"/>
     </g>
     <g id="line2d_28">
      <g>
       <use xlink:href="#m13f411a5dc" x="402.281631" y="290.25375" style="fill: #555555; stroke: #555555; stroke-width: 0.8"/>
      </g>
     </g>
    </g>
    <g id="text_14">
     <!-- cases -->
     <g style="fill: #555555" transform="translate(207.357813 320.05)scale(0.12 -0.12)">
      <defs>
       <path id="DejaVuSans-63" d="M 3122 3366 
L 3122 2828 
Q 2878 2963 2633 3030 
Q 2388 3097 2138 3097 
Q 1578 3097 1268 2742 
Q 959 2388 959 1747 
Q 959 1106 1268 751 
Q 1578 397 2138 397 
Q 2388 397 2633 464 
Q 2878 531 3122 666 
L 3122 134 
Q 2881 22 2623 -34 
Q 2366 -91 2075 -91 
Q 1284 -91 818 406 
Q 353 903 353 1747 
Q 353 2603 823 3093 
Q 1294 3584 2113 3584 
Q 2378 3584 2631 3529 
Q 2884 3475 3122 3366 
z
" transform="scale(0.015625)"/>
       <path id="DejaVuSans-61" d="M 2194 1759 
Q 1497 1759 1228 1600 
Q 959 1441 959 1056 
Q 959 750 1161 570 
Q 1363 391 1709 391 
Q 2188 391 2477 730 
Q 2766 1069 2766 1631 
L 2766 1759 
L 2194 1759 
z
M 3341 1997 
L 3341 0 
L 2766 0 
L 2766 531 
Q 2569 213 2275 61 
Q 1981 -91 1556 -91 
Q 1019 -91 701 211 
Q 384 513 384 1019 
Q 384 1609 779 1909 
Q 1175 2209 1959 2209 
L 2766 2209 
L 2766 2266 
Q 2766 2663 2505 2880 
Q 2244 3097 1772 3097 
Q 1472 3097 1187 3025 
Q 903 2953 641 2809 
L 641 3341 
Q 956 3463 1253 3523 
Q 1550 3584 1831 3584 
Q 2591 3584 2966 3190 
Q 3341 2797 3341 1997 
z
" transform="scale(0.015625)"/>
       <path id="DejaVuSans-73" d="M 2834 3397 
L 2834 2853 
Q 2591 2978 2328 3040 
Q 2066 3103 1784 3103 
Q 1356 3103 1142 2972 
Q 928 2841 928 2578 
Q 928 2378 1081 2264 
Q 1234 2150 1697 2047 
L 1894 2003 
Q 2506 1872 2764 1633 
Q 3022 1394 3022 966 
Q 3022 478 2636 193 
Q 2250 -91 1575 -91 
Q 1294 -91 989 -36 
Q 684 19 347 128 
L 347 722 
Q 666 556 975 473 
Q 1284 391 1588 391 
Q 1994 391 2212 530 
Q 2431 669 2431 922 
Q 2431 1156 2273 1281 
Q 2116 1406 1581 1522 
L 1381 1569 
Q 847 1681 609 1914 
Q 372 2147 372 2553 
Q 372 3047 722 3315 
Q 1072 3584 1716 3584 
Q 2034 3584 2315 3537 
Q 2597 3491 2834 3397 
z
" transform="scale(0.015625)"/>
       <path id="DejaVuSans-65" d="M 3597 1894 
L 3597 1613 
L 953 1613 
Q 991 1019 1311 708 
Q 1631 397 2203 397 
Q 2534 397 2845 478 
Q 3156 559 3463 722 
L 3463 178 
Q 3153 47 2828 -22 
Q 2503 -91 2169 -91 
Q 1331 -91 842 396 
Q 353 884 353 1716 
Q 353 2575 817 3079 
Q 1281 3584 2069 3584 
Q 2775 3584 3186 3129 
Q 3597 2675 3597 1894 
z
M 3022 2063 
Q 3016 2534 2758 2815 
Q 2500 3097 2075 3097 
Q 1594 3097 1305 2825 
Q 1016 2553 972 2059 
L 3022 2063 
z
" transform="scale(0.015625)"/>
      </defs>
      <use xlink:href="#DejaVuSans-63"/>
      <use xlink:href="#DejaVuSans-61" x="54.980469"/>
      <use xlink:href="#DejaVuSans-73" x="116.259766"/>
      <use xlink:href="#DejaVuSans-65" x="168.359375"/>
      <use xlink:href="#DejaVuSans-73" x="229.882812"/>
     </g>
    </g>
   </g>
   <g id="matplotlib.axis_2">
    <g id="ytick_1">
     <g id="line2d_29">
      <path d="M 45.716875 290.25375 
L 402.836875 290.25375 
" clip-path="url(#pad70147cba)" style="fill: none; stroke: #ffffff; stroke-width: 0.8; stroke-linecap: square"/>
     </g>
     <g id="line2d_30">
      <defs>
       <path id="mfed808ceae" d="M 0 0 
L -3.5 0 
" style="stroke: #555555; stroke-width: 0.8"/>
      </defs>
      <g>
       <use xlink:href="#mfed808ceae" x="45.716875" y="290.25375" style="fill: #555555; stroke: #555555; stroke-width: 0.8"/>
      </g>
     </g>
     <g id="text_15">
      <!-- 0.0 -->
      <g style="fill: #555555" transform="translate(22.81375 294.052969)scale(0.1 -0.1)">
       <defs>
        <path id="DejaVuSans-2e" d="M 684 794 
L 1344 794 
L 1344 0 
L 684 0 
L 684 794 
z
" transform="scale(0.015625)"/>
       </defs>
       <use xlink:href="#DejaVuSans-30"/>
       <use xlink:href="#DejaVuSans-2e" x="63.623047"/>
       <use xlink:href="#DejaVuSans-30" x="95.410156"/>
      </g>
     </g>
    </g>
    <g id="ytick_2">
     <g id="line2d_31">
      <path d="M 45.716875 258.468504 
L 402.836875 258.468504 
" clip-path="url(#pad70147cba)" style="fill: none; stroke: #ffffff; stroke-width: 0.8; stroke-linecap: square"/>
     </g>
     <g id="line2d_32">
      <g>
       <use xlink:href="#mfed808ceae" x="45.716875" y="258.468504" style="fill: #555555; stroke: #555555; stroke-width: 0.8"/>
      </g>
     </g>
     <g id="text_16">
      <!-- 0.5 -->
      <g style="fill: #555555" transform="translate(22.81375 262.267723)scale(0.1 -0.1)">
       <use xlink:href="#DejaVuSans-30"/>
       <use xlink:href="#DejaVuSans-2e" x="63.623047"/>
       <use xlink:href="#DejaVuSans-35" x="95.410156"/>
      </g>
     </g>
    </g>
    <g id="ytick_3">
     <g id="line2d_33">
      <path d="M 45.716875 226.683258 
L 402.836875 226.683258 
" clip-path="url(#pad70147cba)" style="fill: none; stroke: #ffffff; stroke-width: 0.8; stroke-linecap: square"/>
     </g>
     <g id="line2d_34">
      <g>
       <use xlink:href="#mfed808ceae" x="45.716875" y="226.683258" style="fill: #555555; stroke: #555555; stroke-width: 0.8"/>
      </g>
     </g>
     <g id="text_17">
      <!-- 1.0 -->
      <g style="fill: #555555" transform="translate(22.81375 230.482476)scale(0.1 -0.1)">
       <use xlink:href="#DejaVuSans-31"/>
       <use xlink:href="#DejaVuSans-2e" x="63.623047"/>
       <use xlink:href="#DejaVuSans-30" x="95.410156"/>
      </g>
     </g>
    </g>
    <g id="ytick_4">
     <g id="line2d_35">
      <path d="M 45.716875 194.898012 
L 402.836875 194.898012 
" clip-path="url(#pad70147cba)" style="fill: none; stroke: #ffffff; stroke-width: 0.8; stroke-linecap: square"/>
     </g>
     <g id="line2d_36">
      <g>
       <use xlink:href="#mfed808ceae" x="45.716875" y="194.898012" style="fill: #555555; stroke: #555555; stroke-width: 0.8"/>
      </g>
     </g>
     <g id="text_18">
      <!-- 1.5 -->
      <g style="fill: #555555" transform="translate(22.81375 198.69723)scale(0.1 -0.1)">
       <use xlink:href="#DejaVuSans-31"/>
       <use xlink:href="#DejaVuSans-2e" x="63.623047"/>
       <use xlink:href="#DejaVuSans-35" x="95.410156"/>
      </g>
     </g>
    </g>
    <g id="ytick_5">
     <g id="line2d_37">
      <path d="M 45.716875 163.112765 
L 402.836875 163.112765 
" clip-path="url(#pad70147cba)" style="fill: none; stroke: #ffffff; stroke-width: 0.8; stroke-linecap: square"/>
     </g>
     <g id="line2d_38">
      <g>
       <use xlink:href="#mfed808ceae" x="45.716875" y="163.112765" style="fill: #555555; stroke: #555555; stroke-width: 0.8"/>
      </g>
     </g>
     <g id="text_19">
      <!-- 2.0 -->
      <g style="fill: #555555" transform="translate(22.81375 166.911984)scale(0.1 -0.1)">
       <use xlink:href="#DejaVuSans-32"/>
       <use xlink:href="#DejaVuSans-2e" x="63.623047"/>
       <use xlink:href="#DejaVuSans-30" x="95.410156"/>
      </g>
     </g>
    </g>
    <g id="ytick_6">
     <g id="line2d_39">
      <path d="M 45.716875 131.327519 
L 402.836875 131.327519 
" clip-path="url(#pad70147cba)" style="fill: none; stroke: #ffffff; stroke-width: 0.8; stroke-linecap: square"/>
     </g>
     <g id="line2d_40">
      <g>
       <use xlink:href="#mfed808ceae" x="45.716875" y="131.327519" style="fill: #555555; stroke: #555555; stroke-width: 0.8"/>
      </g>
     </g>
     <g id="text_20">
      <!-- 2.5 -->
      <g style="fill: #555555" transform="translate(22.81375 135.126738)scale(0.1 -0.1)">
       <use xlink:href="#DejaVuSans-32"/>
       <use xlink:href="#DejaVuSans-2e" x="63.623047"/>
       <use xlink:href="#DejaVuSans-35" x="95.410156"/>
      </g>
     </g>
    </g>
    <g id="ytick_7">
     <g id="line2d_41">
      <path d="M 45.716875 99.542273 
L 402.836875 99.542273 
" clip-path="url(#pad70147cba)" style="fill: none; stroke: #ffffff; stroke-width: 0.8; stroke-linecap: square"/>
     </g>
     <g id="line2d_42">
      <g>
       <use xlink:href="#mfed808ceae" x="45.716875" y="99.542273" style="fill: #555555; stroke: #555555; stroke-width: 0.8"/>
      </g>
     </g>
     <g id="text_21">
      <!-- 3.0 -->
      <g style="fill: #555555" transform="translate(22.81375 103.341492)scale(0.1 -0.1)">
       <use xlink:href="#DejaVuSans-33"/>
       <use xlink:href="#DejaVuSans-2e" x="63.623047"/>
       <use xlink:href="#DejaVuSans-30" x="95.410156"/>
      </g>
     </g>
    </g>
    <g id="ytick_8">
     <g id="line2d_43">
      <path d="M 45.716875 67.757027 
L 402.836875 67.757027 
" clip-path="url(#pad70147cba)" style="fill: none; stroke: #ffffff; stroke-width: 0.8; stroke-linecap: square"/>
     </g>
     <g id="line2d_44">
      <g>
       <use xlink:href="#mfed808ceae" x="45.716875" y="67.757027" style="fill: #555555; stroke: #555555; stroke-width: 0.8"/>
      </g>
     </g>
     <g id="text_22">
      <!-- 3.5 -->
      <g style="fill: #555555" transform="translate(22.81375 71.556246)scale(0.1 -0.1)">
       <use xlink:href="#DejaVuSans-33"/>
       <use xlink:href="#DejaVuSans-2e" x="63.623047"/>
       <use xlink:href="#DejaVuSans-35" x="95.410156"/>
      </g>
     </g>
    </g>
    <g id="ytick_9">
     <g id="line2d_45">
      <path d="M 45.716875 35.971781 
L 402.836875 35.971781 
" clip-path="url(#pad70147cba)" style="fill: none; stroke: #ffffff; stroke-width: 0.8; stroke-linecap: square"/>
     </g>
     <g id="line2d_46">
      <g>
       <use xlink:href="#mfed808ceae" x="45.716875" y="35.971781" style="fill: #555555; stroke: #555555; stroke-width: 0.8"/>
      </g>
     </g>
     <g id="text_23">
      <!-- 4.0 -->
      <g style="fill: #555555" transform="translate(22.81375 39.770999)scale(0.1 -0.1)">
       <use xlink:href="#DejaVuSans-34"/>
       <use xlink:href="#DejaVuSans-2e" x="63.623047"/>
       <use xlink:href="#DejaVuSans-30" x="95.410156"/>
      </g>
     </g>
    </g>
    <g id="text_24">
     <!-- total duration -->
     <g style="fill: #555555" transform="translate(16.318125 198.071812)rotate(-90)scale(0.12 -0.12)">
      <defs>
       <path id="DejaVuSans-74" d="M 1172 4494 
L 1172 3500 
L 2356 3500 
L 2356 3053 
L 1172 3053 
L 1172 1153 
Q 1172 725 1289 603 
Q 1406 481 1766 481 
L 2356 481 
L 2356 0 
L 1766 0 
Q 1100 0 847 248 
Q 594 497 594 1153 
L 594 3053 
L 172 3053 
L 172 3500 
L 594 3500 
L 594 4494 
L 1172 4494 
z
" transform="scale(0.015625)"/>
       <path id="DejaVuSans-6f" d="M 1959 3097 
Q 1497 3097 1228 2736 
Q 959 2375 959 1747 
Q 959 1119 1226 758 
Q 1494 397 1959 397 
Q 2419 397 2687 759 
Q 2956 1122 2956 1747 
Q 2956 2369 2687 2733 
Q 2419 3097 1959 3097 
z
M 1959 3584 
Q 2709 3584 3137 3096 
Q 3566 2609 3566 1747 
Q 3566 888 3137 398 
Q 2709 -91 1959 -91 
Q 1206 -91 779 398 
Q 353 888 353 1747 
Q 353 2609 779 3096 
Q 1206 3584 1959 3584 
z
" transform="scale(0.015625)"/>
       <path id="DejaVuSans-6c" d="M 603 4863 
L 1178 4863 
L 1178 0 
L 603 0 
L 603 4863 
z
" transform="scale(0.015625)"/>
       <path id="DejaVuSans-20" transform="scale(0.015625)"/>
       <path id="DejaVuSans-64" d="M 2906 2969 
L 2906 4863 
L 3481 4863 
L 3481 0 
L 2906 0 
L 2906 525 
Q 2725 213 2448 61 
Q 2172 -91 1784 -91 
Q 1150 -91 751 415 
Q 353 922 353 1747 
Q 353 2572 751 3078 
Q 1150 3584 1784 3584 
Q 2172 3584 2448 3432 
Q 2725 3281 2906 2969 
z
M 947 1747 
Q 947 1113 1208 752 
Q 1469 391 1925 391 
Q 2381 391 2643 752 
Q 2906 1113 2906 1747 
Q 2906 2381 2643 2742 
Q 2381 3103 1925 3103 
Q 1469 3103 1208 2742 
Q 947 2381 947 1747 
z
" transform="scale(0.015625)"/>
       <path id="DejaVuSans-75" d="M 544 1381 
L 544 3500 
L 1119 3500 
L 1119 1403 
Q 1119 906 1312 657 
Q 1506 409 1894 409 
Q 2359 409 2629 706 
Q 2900 1003 2900 1516 
L 2900 3500 
L 3475 3500 
L 3475 0 
L 2900 0 
L 2900 538 
Q 2691 219 2414 64 
Q 2138 -91 1772 -91 
Q 1169 -91 856 284 
Q 544 659 544 1381 
z
M 1991 3584 
L 1991 3584 
z
" transform="scale(0.015625)"/>
       <path id="DejaVuSans-72" d="M 2631 2963 
Q 2534 3019 2420 3045 
Q 2306 3072 2169 3072 
Q 1681 3072 1420 2755 
Q 1159 2438 1159 1844 
L 1159 0 
L 581 0 
L 581 3500 
L 1159 3500 
L 1159 2956 
Q 1341 3275 1631 3429 
Q 1922 3584 2338 3584 
Q 2397 3584 2469 3576 
Q 2541 3569 2628 3553 
L 2631 2963 
z
" transform="scale(0.015625)"/>
       <path id="DejaVuSans-69" d="M 603 3500 
L 1178 3500 
L 1178 0 
L 603 0 
L 603 3500 
z
M 603 4863 
L 1178 4863 
L 1178 4134 
L 603 4134 
L 603 4863 
z
" transform="scale(0.015625)"/>
       <path id="DejaVuSans-6e" d="M 3513 2113 
L 3513 0 
L 2938 0 
L 2938 2094 
Q 2938 2591 2744 2837 
Q 2550 3084 2163 3084 
Q 1697 3084 1428 2787 
Q 1159 2491 1159 1978 
L 1159 0 
L 581 0 
L 581 3500 
L 1159 3500 
L 1159 2956 
Q 1366 3272 1645 3428 
Q 1925 3584 2291 3584 
Q 2894 3584 3203 3211 
Q 3513 2838 3513 2113 
z
" transform="scale(0.015625)"/>
      </defs>
      <use xlink:href="#DejaVuSans-74"/>
      <use xlink:href="#DejaVuSans-6f" x="39.208984"/>
      <use xlink:href="#DejaVuSans-74" x="100.390625"/>
      <use xlink:href="#DejaVuSans-61" x="139.599609"/>
      <use xlink:href="#DejaVuSans-6c" x="200.878906"/>
      <use xlink:href="#DejaVuSans-20" x="228.662109"/>
      <use xlink:href="#DejaVuSans-64" x="260.449219"/>
      <use xlink:href="#DejaVuSans-75" x="323.925781"/>
      <use xlink:href="#DejaVuSans-72" x="387.304688"/>
      <use xlink:href="#DejaVuSans-61" x="428.417969"/>
      <use xlink:href="#DejaVuSans-74" x="489.697266"/>
      <use xlink:href="#DejaVuSans-69" x="528.90625"/>
      <use xlink:href="#DejaVuSans-6f" x="556.689453"/>
      <use xlink:href="#DejaVuSans-6e" x="617.871094"/>
     </g>
    </g>
    <g id="text_25">
     <!-- 1e10 -->
     <g style="fill: #555555" transform="translate(45.716875 21.14175)scale(0.1 -0.1)">
      <use xlink:href="#DejaVuSans-31"/>
      <use xlink:href="#DejaVuSans-65" x="63.623047"/>
      <use xlink:href="#DejaVuSans-31" x="125.146484"/>
      <use xlink:href="#DejaVuSans-30" x="188.769531"/>
     </g>
    </g>
   </g>
   <g id="patch_3">
    <path d="M 61.949602 290.25375 
L 63.256059 290.25375 
L 63.256059 36.81375 
L 61.949602 36.81375 
z
" clip-path="url(#pad70147cba)" style="fill: #9932cc"/>
   </g>
   <g id="patch_4">
    <path d="M 65.215745 290.25375 
L 66.522202 290.25375 
L 66.522202 92.228764 
L 65.215745 92.228764 
z
" clip-path="url(#pad70147cba)" style="fill: #32cd32"/>
   </g>
   <g id="patch_5">
    <path d="M 68.481887 290.25375 
L 69.788344 290.25375 
L 69.788344 206.796163 
L 68.481887 206.796163 
z
" clip-path="url(#pad70147cba)" style="fill: #9932cc"/>
   </g>
   <g id="patch_6">
    <path d="M 71.748029 290.25375 
L 73.054486 290.25375 
L 73.054486 261.359156 
L 71.748029 261.359156 
z
" clip-path="url(#pad70147cba)" style="fill: #32cd32"/>
   </g>
   <g id="patch_7">
    <path d="M 75.014172 290.25375 
L 76.320628 290.25375 
L 76.320628 274.24816 
L 75.014172 274.24816 
z
" clip-path="url(#pad70147cba)" style="fill: #9932cc"/>
   </g>
   <g id="patch_8">
    <path d="M 78.280314 290.25375 
L 79.586771 290.25375 
L 79.586771 278.259171 
L 78.280314 278.259171 
z
" clip-path="url(#pad70147cba)" style="fill: #32cd32"/>
   </g>
   <g id="patch_9">
    <path d="M 81.546456 290.25375 
L 82.852913 290.25375 
L 82.852913 277.804511 
L 81.546456 277.804511 
z
" clip-path="url(#pad70147cba)" style="fill: #9932cc"/>
   </g>
   <g id="patch_10">
    <path d="M 84.812598 290.25375 
L 86.119055 290.25375 
L 86.119055 283.327542 
L 84.812598 283.327542 
z
" clip-path="url(#pad70147cba)" style="fill: #32cd32"/>
   </g>
   <g id="patch_11">
    <path d="M 88.078741 290.25375 
L 89.385198 290.25375 
L 89.385198 282.411878 
L 88.078741 282.411878 
z
" clip-path="url(#pad70147cba)" style="fill: #9932cc"/>
   </g>
   <g id="patch_12">
    <path d="M 91.344883 290.25375 
L 92.65134 290.25375 
L 92.65134 282.93488 
L 91.344883 282.93488 
z
" clip-path="url(#pad70147cba)" style="fill: #32cd32"/>
   </g>
   <g id="patch_13">
    <path d="M 94.611025 290.25375 
L 95.917482 290.25375 
L 95.917482 285.103771 
L 94.611025 285.103771 
z
" clip-path="url(#pad70147cba)" style="fill: #9932cc"/>
   </g>
   <g id="patch_14">
    <path d="M 97.877168 290.25375 
L 99.183625 290.25375 
L 99.183625 283.926399 
L 97.877168 283.926399 
z
" clip-path="url(#pad70147cba)" style="fill: #32cd32"/>
   </g>
   <g id="patch_15">
    <path d="M 101.14331 290.25375 
L 102.449767 290.25375 
L 102.449767 284.827299 
L 101.14331 284.827299 
z
" clip-path="url(#pad70147cba)" style="fill: #9932cc"/>
   </g>
   <g id="patch_16">
    <path d="M 104.409452 290.25375 
L 105.715909 290.25375 
L 105.715909 285.87711 
L 104.409452 285.87711 
z
" clip-path="url(#pad70147cba)" style="fill: #32cd32"/>
   </g>
   <g id="patch_17">
    <path d="M 107.675595 290.25375 
L 108.982052 290.25375 
L 108.982052 285.583576 
L 107.675595 285.583576 
z
" clip-path="url(#pad70147cba)" style="fill: #9932cc"/>
   </g>
   <g id="patch_18">
    <path d="M 110.941737 290.25375 
L 112.248194 290.25375 
L 112.248194 286.681081 
L 110.941737 286.681081 
z
" clip-path="url(#pad70147cba)" style="fill: #32cd32"/>
   </g>
   <g id="patch_19">
    <path d="M 114.207879 290.25375 
L 115.514336 290.25375 
L 115.514336 286.620031 
L 114.207879 286.620031 
z
" clip-path="url(#pad70147cba)" style="fill: #9932cc"/>
   </g>
   <g id="patch_20">
    <path d="M 117.474022 290.25375 
L 118.780478 290.25375 
L 118.780478 287.455464 
L 117.474022 287.455464 
z
" clip-path="url(#pad70147cba)" style="fill: #32cd32"/>
   </g>
   <g id="patch_21">
    <path d="M 120.740164 290.25375 
L 122.046621 290.25375 
L 122.046621 286.877863 
L 120.740164 286.877863 
z
" clip-path="url(#pad70147cba)" style="fill: #9932cc"/>
   </g>
   <g id="patch_22">
    <path d="M 124.006306 290.25375 
L 125.312763 290.25375 
L 125.312763 287.913238 
L 124.006306 287.913238 
z
" clip-path="url(#pad70147cba)" style="fill: #32cd32"/>
   </g>
   <g id="patch_23">
    <path d="M 127.272448 290.25375 
L 128.578905 290.25375 
L 128.578905 286.887888 
L 127.272448 286.887888 
z
" clip-path="url(#pad70147cba)" style="fill: #9932cc"/>
   </g>
   <g id="patch_24">
    <path d="M 130.538591 290.25375 
L 131.845048 290.25375 
L 131.845048 288.332438 
L 130.538591 288.332438 
z
" clip-path="url(#pad70147cba)" style="fill: #32cd32"/>
   </g>
   <g id="patch_25">
    <path d="M 133.804733 290.25375 
L 135.11119 290.25375 
L 135.11119 288.212015 
L 133.804733 288.212015 
z
" clip-path="url(#pad70147cba)" style="fill: #9932cc"/>
   </g>
   <g id="patch_26">
    <path d="M 137.070875 290.25375 
L 138.377332 290.25375 
L 138.377332 288.146044 
L 137.070875 288.146044 
z
" clip-path="url(#pad70147cba)" style="fill: #32cd32"/>
   </g>
   <g id="patch_27">
    <path d="M 140.337018 290.25375 
L 141.643475 290.25375 
L 141.643475 288.33592 
L 140.337018 288.33592 
z
" clip-path="url(#pad70147cba)" style="fill: #9932cc"/>
   </g>
   <g id="patch_28">
    <path d="M 143.60316 290.25375 
L 144.909617 290.25375 
L 144.909617 288.993494 
L 143.60316 288.993494 
z
" clip-path="url(#pad70147cba)" style="fill: #32cd32"/>
   </g>
   <g id="patch_29">
    <path d="M 146.869302 290.25375 
L 148.175759 290.25375 
L 148.175759 289.015337 
L 146.869302 289.015337 
z
" clip-path="url(#pad70147cba)" style="fill: #9932cc"/>
   </g>
   <g id="patch_30">
    <path d="M 150.135445 290.25375 
L 151.441902 290.25375 
L 151.441902 287.525269 
L 150.135445 287.525269 
z
" clip-path="url(#pad70147cba)" style="fill: #32cd32"/>
   </g>
   <g id="patch_31">
    <path d="M 153.401587 290.25375 
L 154.708044 290.25375 
L 154.708044 288.990413 
L 153.401587 288.990413 
z
" clip-path="url(#pad70147cba)" style="fill: #9932cc"/>
   </g>
   <g id="patch_32">
    <path d="M 156.667729 290.25375 
L 157.974186 290.25375 
L 157.974186 288.216516 
L 156.667729 288.216516 
z
" clip-path="url(#pad70147cba)" style="fill: #32cd32"/>
   </g>
   <g id="patch_33">
    <path d="M 159.933872 290.25375 
L 161.240328 290.25375 
L 161.240328 288.29048 
L 159.933872 288.29048 
z
" clip-path="url(#pad70147cba)" style="fill: #9932cc"/>
   </g>
   <g id="patch_34">
    <path d="M 163.200014 290.25375 
L 164.506471 290.25375 
L 164.506471 288.708108 
L 163.200014 288.708108 
z
" clip-path="url(#pad70147cba)" style="fill: #32cd32"/>
   </g>
   <g id="patch_35">
    <path d="M 166.466156 290.25375 
L 167.772613 290.25375 
L 167.772613 289.351535 
L 166.466156 289.351535 
z
" clip-path="url(#pad70147cba)" style="fill: #9932cc"/>
   </g>
   <g id="patch_36">
    <path d="M 169.732298 290.25375 
L 171.038755 290.25375 
L 171.038755 288.759276 
L 169.732298 288.759276 
z
" clip-path="url(#pad70147cba)" style="fill: #32cd32"/>
   </g>
   <g id="patch_37">
    <path d="M 172.998441 290.25375 
L 174.304898 290.25375 
L 174.304898 289.205551 
L 172.998441 289.205551 
z
" clip-path="url(#pad70147cba)" style="fill: #9932cc"/>
   </g>
   <g id="patch_38">
    <path d="M 176.264583 290.25375 
L 177.57104 290.25375 
L 177.57104 288.369638 
L 176.264583 288.369638 
z
" clip-path="url(#pad70147cba)" style="fill: #32cd32"/>
   </g>
   <g id="patch_39">
    <path d="M 179.530725 290.25375 
L 180.837182 290.25375 
L 180.837182 289.53108 
L 179.530725 289.53108 
z
" clip-path="url(#pad70147cba)" style="fill: #9932cc"/>
   </g>
   <g id="patch_40">
    <path d="M 182.796868 290.25375 
L 184.103325 290.25375 
L 184.103325 288.487616 
L 182.796868 288.487616 
z
" clip-path="url(#pad70147cba)" style="fill: #32cd32"/>
   </g>
   <g id="patch_41">
    <path d="M 186.06301 290.25375 
L 187.369467 290.25375 
L 187.369467 289.506391 
L 186.06301 289.506391 
z
" clip-path="url(#pad70147cba)" style="fill: #9932cc"/>
   </g>
   <g id="patch_42">
    <path d="M 189.329152 290.25375 
L 190.635609 290.25375 
L 190.635609 289.301261 
L 189.329152 289.301261 
z
" clip-path="url(#pad70147cba)" style="fill: #32cd32"/>
   </g>
   <g id="patch_43">
    <path d="M 192.595295 290.25375 
L 193.901752 290.25375 
L 193.901752 289.122487 
L 192.595295 289.122487 
z
" clip-path="url(#pad70147cba)" style="fill: #9932cc"/>
   </g>
   <g id="patch_44">
    <path d="M 195.861437 290.25375 
L 197.167894 290.25375 
L 197.167894 289.517268 
L 195.861437 289.517268 
z
" clip-path="url(#pad70147cba)" style="fill: #32cd32"/>
   </g>
   <g id="patch_45">
    <path d="M 199.127579 290.25375 
L 200.434036 290.25375 
L 200.434036 289.055773 
L 199.127579 289.055773 
z
" clip-path="url(#pad70147cba)" style="fill: #9932cc"/>
   </g>
   <g id="patch_46">
    <path d="M 202.393722 290.25375 
L 203.700178 290.25375 
L 203.700178 289.767226 
L 202.393722 289.767226 
z
" clip-path="url(#pad70147cba)" style="fill: #32cd32"/>
   </g>
   <g id="patch_47">
    <path d="M 205.659864 290.25375 
L 206.966321 290.25375 
L 206.966321 289.628122 
L 205.659864 289.628122 
z
" clip-path="url(#pad70147cba)" style="fill: #9932cc"/>
   </g>
   <g id="patch_48">
    <path d="M 208.926006 290.25375 
L 210.232463 290.25375 
L 210.232463 289.435579 
L 208.926006 289.435579 
z
" clip-path="url(#pad70147cba)" style="fill: #32cd32"/>
   </g>
   <g id="patch_49">
    <path d="M 212.192148 290.25375 
L 213.498605 290.25375 
L 213.498605 289.462301 
L 212.192148 289.462301 
z
" clip-path="url(#pad70147cba)" style="fill: #9932cc"/>
   </g>
   <g id="patch_50">
    <path d="M 215.458291 290.25375 
L 216.764748 290.25375 
L 216.764748 289.447331 
L 215.458291 289.447331 
z
" clip-path="url(#pad70147cba)" style="fill: #32cd32"/>
   </g>
   <g id="patch_51">
    <path d="M 218.724433 290.25375 
L 220.03089 290.25375 
L 220.03089 289.73207 
L 218.724433 289.73207 
z
" clip-path="url(#pad70147cba)" style="fill: #9932cc"/>
   </g>
   <g id="patch_52">
    <path d="M 221.990575 290.25375 
L 223.297032 290.25375 
L 223.297032 289.561747 
L 221.990575 289.561747 
z
" clip-path="url(#pad70147cba)" style="fill: #32cd32"/>
   </g>
   <g id="patch_53">
    <path d="M 225.256718 290.25375 
L 226.563175 290.25375 
L 226.563175 289.550289 
L 225.256718 289.550289 
z
" clip-path="url(#pad70147cba)" style="fill: #9932cc"/>
   </g>
   <g id="patch_54">
    <path d="M 228.52286 290.25375 
L 229.829317 290.25375 
L 229.829317 289.69053 
L 228.52286 289.69053 
z
" clip-path="url(#pad70147cba)" style="fill: #32cd32"/>
   </g>
   <g id="patch_55">
    <path d="M 231.789002 290.25375 
L 233.095459 290.25375 
L 233.095459 289.906695 
L 231.789002 289.906695 
z
" clip-path="url(#pad70147cba)" style="fill: #9932cc"/>
   </g>
   <g id="patch_56">
    <path d="M 235.055145 290.25375 
L 236.361602 290.25375 
L 236.361602 289.55171 
L 235.055145 289.55171 
z
" clip-path="url(#pad70147cba)" style="fill: #32cd32"/>
   </g>
   <g id="patch_57">
    <path d="M 238.321287 290.25375 
L 239.627744 290.25375 
L 239.627744 289.796547 
L 238.321287 289.796547 
z
" clip-path="url(#pad70147cba)" style="fill: #9932cc"/>
   </g>
   <g id="patch_58">
    <path d="M 241.587429 290.25375 
L 242.893886 290.25375 
L 242.893886 289.906591 
L 241.587429 289.906591 
z
" clip-path="url(#pad70147cba)" style="fill: #32cd32"/>
   </g>
   <g id="patch_59">
    <path d="M 244.853572 290.25375 
L 246.160028 290.25375 
L 246.160028 289.623245 
L 244.853572 289.623245 
z
" clip-path="url(#pad70147cba)" style="fill: #9932cc"/>
   </g>
   <g id="patch_60">
    <path d="M 248.119714 290.25375 
L 249.426171 290.25375 
L 249.426171 289.685222 
L 248.119714 289.685222 
z
" clip-path="url(#pad70147cba)" style="fill: #32cd32"/>
   </g>
   <g id="patch_61">
    <path d="M 251.385856 290.25375 
L 252.692313 290.25375 
L 252.692313 290.080255 
L 251.385856 290.080255 
z
" clip-path="url(#pad70147cba)" style="fill: #9932cc"/>
   </g>
   <g id="patch_62">
    <path d="M 254.651998 290.25375 
L 255.958455 290.25375 
L 255.958455 289.623266 
L 254.651998 289.623266 
z
" clip-path="url(#pad70147cba)" style="fill: #32cd32"/>
   </g>
   <g id="patch_63">
    <path d="M 257.918141 290.25375 
L 259.224598 290.25375 
L 259.224598 289.499641 
L 257.918141 289.499641 
z
" clip-path="url(#pad70147cba)" style="fill: #9932cc"/>
   </g>
   <g id="patch_64">
    <path d="M 261.184283 290.25375 
L 262.49074 290.25375 
L 262.49074 290.008492 
L 261.184283 290.008492 
z
" clip-path="url(#pad70147cba)" style="fill: #32cd32"/>
   </g>
   <g id="patch_65">
    <path d="M 264.450425 290.25375 
L 265.756882 290.25375 
L 265.756882 289.797899 
L 264.450425 289.797899 
z
" clip-path="url(#pad70147cba)" style="fill: #9932cc"/>
   </g>
   <g id="patch_66">
    <path d="M 267.716568 290.25375 
L 269.023025 290.25375 
L 269.023025 289.503982 
L 267.716568 289.503982 
z
" clip-path="url(#pad70147cba)" style="fill: #32cd32"/>
   </g>
   <g id="patch_67">
    <path d="M 270.98271 290.25375 
L 272.289167 290.25375 
L 272.289167 289.788836 
L 270.98271 289.788836 
z
" clip-path="url(#pad70147cba)" style="fill: #9932cc"/>
   </g>
   <g id="patch_68">
    <path d="M 274.248852 290.25375 
L 275.555309 290.25375 
L 275.555309 289.734421 
L 274.248852 289.734421 
z
" clip-path="url(#pad70147cba)" style="fill: #32cd32"/>
   </g>
   <g id="patch_69">
    <path d="M 277.514995 290.25375 
L 278.821452 290.25375 
L 278.821452 290.050151 
L 277.514995 290.050151 
z
" clip-path="url(#pad70147cba)" style="fill: #9932cc"/>
   </g>
   <g id="patch_70">
    <path d="M 280.781137 290.25375 
L 282.087594 290.25375 
L 282.087594 289.948839 
L 280.781137 289.948839 
z
" clip-path="url(#pad70147cba)" style="fill: #32cd32"/>
   </g>
   <g id="patch_71">
    <path d="M 284.047279 290.25375 
L 285.353736 290.25375 
L 285.353736 289.835564 
L 284.047279 289.835564 
z
" clip-path="url(#pad70147cba)" style="fill: #9932cc"/>
   </g>
   <g id="patch_72">
    <path d="M 287.313422 290.25375 
L 288.619878 290.25375 
L 288.619878 290.016694 
L 287.313422 290.016694 
z
" clip-path="url(#pad70147cba)" style="fill: #32cd32"/>
   </g>
   <g id="patch_73">
    <path d="M 290.579564 290.25375 
L 291.886021 290.25375 
L 291.886021 289.953899 
L 290.579564 289.953899 
z
" clip-path="url(#pad70147cba)" style="fill: #9932cc"/>
   </g>
   <g id="patch_74">
    <path d="M 293.845706 290.25375 
L 295.152163 290.25375 
L 295.152163 289.940207 
L 293.845706 289.940207 
z
" clip-path="url(#pad70147cba)" style="fill: #32cd32"/>
   </g>
   <g id="patch_75">
    <path d="M 297.111848 290.25375 
L 298.418305 290.25375 
L 298.418305 289.908654 
L 297.111848 289.908654 
z
" clip-path="url(#pad70147cba)" style="fill: #9932cc"/>
   </g>
   <g id="patch_76">
    <path d="M 300.377991 290.25375 
L 301.684448 290.25375 
L 301.684448 289.854589 
L 300.377991 289.854589 
z
" clip-path="url(#pad70147cba)" style="fill: #32cd32"/>
   </g>
   <g id="patch_77">
    <path d="M 303.644133 290.25375 
L 304.95059 290.25375 
L 304.95059 289.84228 
L 303.644133 289.84228 
z
" clip-path="url(#pad70147cba)" style="fill: #9932cc"/>
   </g>
   <g id="patch_78">
    <path d="M 306.910275 290.25375 
L 308.216732 290.25375 
L 308.216732 289.858455 
L 306.910275 289.858455 
z
" clip-path="url(#pad70147cba)" style="fill: #32cd32"/>
   </g>
   <g id="patch_79">
    <path d="M 310.176418 290.25375 
L 311.482875 290.25375 
L 311.482875 289.939364 
L 310.176418 289.939364 
z
" clip-path="url(#pad70147cba)" style="fill: #9932cc"/>
   </g>
   <g id="patch_80">
    <path d="M 313.44256 290.25375 
L 314.749017 290.25375 
L 314.749017 290.057095 
L 313.44256 290.057095 
z
" clip-path="url(#pad70147cba)" style="fill: #32cd32"/>
   </g>
   <g id="patch_81">
    <path d="M 316.708702 290.25375 
L 318.015159 290.25375 
L 318.015159 289.980284 
L 316.708702 289.980284 
z
" clip-path="url(#pad70147cba)" style="fill: #9932cc"/>
   </g>
   <g id="patch_82">
    <path d="M 319.974845 290.25375 
L 321.281302 290.25375 
L 321.281302 289.803267 
L 319.974845 289.803267 
z
" clip-path="url(#pad70147cba)" style="fill: #32cd32"/>
   </g>
   <g id="patch_83">
    <path d="M 323.240987 290.25375 
L 324.547444 290.25375 
L 324.547444 289.989253 
L 323.240987 289.989253 
z
" clip-path="url(#pad70147cba)" style="fill: #9932cc"/>
   </g>
   <g id="patch_84">
    <path d="M 326.507129 290.25375 
L 327.813586 290.25375 
L 327.813586 289.862185 
L 326.507129 289.862185 
z
" clip-path="url(#pad70147cba)" style="fill: #32cd32"/>
   </g>
   <g id="patch_85">
    <path d="M 329.773272 290.25375 
L 331.079728 290.25375 
L 331.079728 289.96334 
L 329.773272 289.96334 
z
" clip-path="url(#pad70147cba)" style="fill: #9932cc"/>
   </g>
   <g id="patch_86">
    <path d="M 333.039414 290.25375 
L 334.345871 290.25375 
L 334.345871 289.753271 
L 333.039414 289.753271 
z
" clip-path="url(#pad70147cba)" style="fill: #32cd32"/>
   </g>
   <g id="patch_87">
    <path d="M 336.305556 290.25375 
L 337.612013 290.25375 
L 337.612013 290.089738 
L 336.305556 290.089738 
z
" clip-path="url(#pad70147cba)" style="fill: #9932cc"/>
   </g>
   <g id="patch_88">
    <path d="M 339.571698 290.25375 
L 340.878155 290.25375 
L 340.878155 289.981905 
L 339.571698 289.981905 
z
" clip-path="url(#pad70147cba)" style="fill: #32cd32"/>
   </g>
   <g id="patch_89">
    <path d="M 342.837841 290.25375 
L 344.144298 290.25375 
L 344.144298 290.048757 
L 342.837841 290.048757 
z
" clip-path="url(#pad70147cba)" style="fill: #9932cc"/>
   </g>
   <g id="patch_90">
    <path d="M 346.103983 290.25375 
L 347.41044 290.25375 
L 347.41044 289.773117 
L 346.103983 289.773117 
z
" clip-path="url(#pad70147cba)" style="fill: #32cd32"/>
   </g>
   <g id="patch_91">
    <path d="M 349.370125 290.25375 
L 350.676582 290.25375 
L 350.676582 289.783765 
L 349.370125 289.783765 
z
" clip-path="url(#pad70147cba)" style="fill: #9932cc"/>
   </g>
   <g id="patch_92">
    <path d="M 352.636268 290.25375 
L 353.942725 290.25375 
L 353.942725 289.965227 
L 352.636268 289.965227 
z
" clip-path="url(#pad70147cba)" style="fill: #32cd32"/>
   </g>
   <g id="patch_93">
    <path d="M 355.90241 290.25375 
L 357.208867 290.25375 
L 357.208867 289.880399 
L 355.90241 289.880399 
z
" clip-path="url(#pad70147cba)" style="fill: #9932cc"/>
   </g>
   <g id="patch_94">
    <path d="M 359.168552 290.25375 
L 360.475009 290.25375 
L 360.475009 289.853674 
L 359.168552 289.853674 
z
" clip-path="url(#pad70147cba)" style="fill: #32cd32"/>
   </g>
   <g id="patch_95">
    <path d="M 362.434695 290.25375 
L 363.741152 290.25375 
L 363.741152 290.080943 
L 362.434695 290.080943 
z
" clip-path="url(#pad70147cba)" style="fill: #9932cc"/>
   </g>
   <g id="patch_96">
    <path d="M 365.700837 290.25375 
L 367.007294 290.25375 
L 367.007294 289.960908 
L 365.700837 289.960908 
z
" clip-path="url(#pad70147cba)" style="fill: #32cd32"/>
   </g>
   <g id="patch_97">
    <path d="M 368.966979 290.25375 
L 370.273436 290.25375 
L 370.273436 290.177521 
L 368.966979 290.177521 
z
" clip-path="url(#pad70147cba)" style="fill: #9932cc"/>
   </g>
   <g id="patch_98">
    <path d="M 372.233122 290.25375 
L 373.539578 290.25375 
L 373.539578 289.940187 
L 372.233122 289.940187 
z
" clip-path="url(#pad70147cba)" style="fill: #32cd32"/>
   </g>
   <g id="patch_99">
    <path d="M 375.499264 290.25375 
L 376.805721 290.25375 
L 376.805721 290.043431 
L 375.499264 290.043431 
z
" clip-path="url(#pad70147cba)" style="fill: #9932cc"/>
   </g>
   <g id="patch_100">
    <path d="M 378.765406 290.25375 
L 380.071863 290.25375 
L 380.071863 289.932928 
L 378.765406 289.932928 
z
" clip-path="url(#pad70147cba)" style="fill: #32cd32"/>
   </g>
   <g id="patch_101">
    <path d="M 382.031548 290.25375 
L 383.338005 290.25375 
L 383.338005 289.721505 
L 382.031548 289.721505 
z
" clip-path="url(#pad70147cba)" style="fill: #9932cc"/>
   </g>
   <g id="patch_102">
    <path d="M 385.297691 290.25375 
L 386.604148 290.25375 
L 386.604148 290.07123 
L 385.297691 290.07123 
z
" clip-path="url(#pad70147cba)" style="fill: #32cd32"/>
   </g>
   <g id="patch_103">
    <path d="M 45.716875 290.25375 
L 45.716875 24.14175 
" style="fill: none; stroke: #ffffff; stroke-linejoin: miter; stroke-linecap: square"/>
   </g>
   <g id="patch_104">
    <path d="M 402.836875 290.25375 
L 402.836875 24.14175 
" style="fill: none; stroke: #ffffff; stroke-linejoin: miter; stroke-linecap: square"/>
   </g>
   <g id="patch_105">
    <path d="M 45.716875 290.25375 
L 402.836875 290.25375 
" style="fill: none; stroke: #ffffff; stroke-linejoin: miter; stroke-linecap: square"/>
   </g>
   <g id="patch_106">
    <path d="M 45.716875 24.14175 
L 402.836875 24.14175 
" style="fill: none; stroke: #ffffff; stroke-linejoin: miter; stroke-linecap: square"/>
   </g>
   <g id="text_26">
    <!-- Top 100 values - bar chart of variants sum duration -->
    <g transform="translate(39.367375 18.14175)scale(0.144 -0.144)">
     <defs>
      <path id="DejaVuSans-54" d="M -19 4666 
L 3928 4666 
L 3928 4134 
L 2272 4134 
L 2272 0 
L 1638 0 
L 1638 4134 
L -19 4134 
L -19 4666 
z
" transform="scale(0.015625)"/>
      <path id="DejaVuSans-70" d="M 1159 525 
L 1159 -1331 
L 581 -1331 
L 581 3500 
L 1159 3500 
L 1159 2969 
Q 1341 3281 1617 3432 
Q 1894 3584 2278 3584 
Q 2916 3584 3314 3078 
Q 3713 2572 3713 1747 
Q 3713 922 3314 415 
Q 2916 -91 2278 -91 
Q 1894 -91 1617 61 
Q 1341 213 1159 525 
z
M 3116 1747 
Q 3116 2381 2855 2742 
Q 2594 3103 2138 3103 
Q 1681 3103 1420 2742 
Q 1159 2381 1159 1747 
Q 1159 1113 1420 752 
Q 1681 391 2138 391 
Q 2594 391 2855 752 
Q 3116 1113 3116 1747 
z
" transform="scale(0.015625)"/>
      <path id="DejaVuSans-76" d="M 191 3500 
L 800 3500 
L 1894 563 
L 2988 3500 
L 3597 3500 
L 2284 0 
L 1503 0 
L 191 3500 
z
" transform="scale(0.015625)"/>
      <path id="DejaVuSans-2d" d="M 313 2009 
L 1997 2009 
L 1997 1497 
L 313 1497 
L 313 2009 
z
" transform="scale(0.015625)"/>
      <path id="DejaVuSans-62" d="M 3116 1747 
Q 3116 2381 2855 2742 
Q 2594 3103 2138 3103 
Q 1681 3103 1420 2742 
Q 1159 2381 1159 1747 
Q 1159 1113 1420 752 
Q 1681 391 2138 391 
Q 2594 391 2855 752 
Q 3116 1113 3116 1747 
z
M 1159 2969 
Q 1341 3281 1617 3432 
Q 1894 3584 2278 3584 
Q 2916 3584 3314 3078 
Q 3713 2572 3713 1747 
Q 3713 922 3314 415 
Q 2916 -91 2278 -91 
Q 1894 -91 1617 61 
Q 1341 213 1159 525 
L 1159 0 
L 581 0 
L 581 4863 
L 1159 4863 
L 1159 2969 
z
" transform="scale(0.015625)"/>
      <path id="DejaVuSans-68" d="M 3513 2113 
L 3513 0 
L 2938 0 
L 2938 2094 
Q 2938 2591 2744 2837 
Q 2550 3084 2163 3084 
Q 1697 3084 1428 2787 
Q 1159 2491 1159 1978 
L 1159 0 
L 581 0 
L 581 4863 
L 1159 4863 
L 1159 2956 
Q 1366 3272 1645 3428 
Q 1925 3584 2291 3584 
Q 2894 3584 3203 3211 
Q 3513 2838 3513 2113 
z
" transform="scale(0.015625)"/>
      <path id="DejaVuSans-66" d="M 2375 4863 
L 2375 4384 
L 1825 4384 
Q 1516 4384 1395 4259 
Q 1275 4134 1275 3809 
L 1275 3500 
L 2222 3500 
L 2222 3053 
L 1275 3053 
L 1275 0 
L 697 0 
L 697 3053 
L 147 3053 
L 147 3500 
L 697 3500 
L 697 3744 
Q 697 4328 969 4595 
Q 1241 4863 1831 4863 
L 2375 4863 
z
" transform="scale(0.015625)"/>
      <path id="DejaVuSans-6d" d="M 3328 2828 
Q 3544 3216 3844 3400 
Q 4144 3584 4550 3584 
Q 5097 3584 5394 3201 
Q 5691 2819 5691 2113 
L 5691 0 
L 5113 0 
L 5113 2094 
Q 5113 2597 4934 2840 
Q 4756 3084 4391 3084 
Q 3944 3084 3684 2787 
Q 3425 2491 3425 1978 
L 3425 0 
L 2847 0 
L 2847 2094 
Q 2847 2600 2669 2842 
Q 2491 3084 2119 3084 
Q 1678 3084 1418 2786 
Q 1159 2488 1159 1978 
L 1159 0 
L 581 0 
L 581 3500 
L 1159 3500 
L 1159 2956 
Q 1356 3278 1631 3431 
Q 1906 3584 2284 3584 
Q 2666 3584 2933 3390 
Q 3200 3197 3328 2828 
z
" transform="scale(0.015625)"/>
     </defs>
     <use xlink:href="#DejaVuSans-54"/>
     <use xlink:href="#DejaVuSans-6f" x="44.083984"/>
     <use xlink:href="#DejaVuSans-70" x="105.265625"/>
     <use xlink:href="#DejaVuSans-20" x="168.742188"/>
     <use xlink:href="#DejaVuSans-31" x="200.529297"/>
     <use xlink:href="#DejaVuSans-30" x="264.152344"/>
     <use xlink:href="#DejaVuSans-30" x="327.775391"/>
     <use xlink:href="#DejaVuSans-20" x="391.398438"/>
     <use xlink:href="#DejaVuSans-76" x="423.185547"/>
     <use xlink:href="#DejaVuSans-61" x="482.365234"/>
     <use xlink:href="#DejaVuSans-6c" x="543.644531"/>
     <use xlink:href="#DejaVuSans-75" x="571.427734"/>
     <use xlink:href="#DejaVuSans-65" x="634.806641"/>
     <use xlink:href="#DejaVuSans-73" x="696.330078"/>
     <use xlink:href="#DejaVuSans-20" x="748.429688"/>
     <use xlink:href="#DejaVuSans-2d" x="780.216797"/>
     <use xlink:href="#DejaVuSans-20" x="816.300781"/>
     <use xlink:href="#DejaVuSans-62" x="848.087891"/>
     <use xlink:href="#DejaVuSans-61" x="911.564453"/>
     <use xlink:href="#DejaVuSans-72" x="972.84375"/>
     <use xlink:href="#DejaVuSans-20" x="1013.957031"/>
     <use xlink:href="#DejaVuSans-63" x="1045.744141"/>
     <use xlink:href="#DejaVuSans-68" x="1100.724609"/>
     <use xlink:href="#DejaVuSans-61" x="1164.103516"/>
     <use xlink:href="#DejaVuSans-72" x="1225.382812"/>
     <use xlink:href="#DejaVuSans-74" x="1266.496094"/>
     <use xlink:href="#DejaVuSans-20" x="1305.705078"/>
     <use xlink:href="#DejaVuSans-6f" x="1337.492188"/>
     <use xlink:href="#DejaVuSans-66" x="1398.673828"/>
     <use xlink:href="#DejaVuSans-20" x="1433.878906"/>
     <use xlink:href="#DejaVuSans-76" x="1465.666016"/>
     <use xlink:href="#DejaVuSans-61" x="1524.845703"/>
     <use xlink:href="#DejaVuSans-72" x="1586.125"/>
     <use xlink:href="#DejaVuSans-69" x="1627.238281"/>
     <use xlink:href="#DejaVuSans-61" x="1655.021484"/>
     <use xlink:href="#DejaVuSans-6e" x="1716.300781"/>
     <use xlink:href="#DejaVuSans-74" x="1779.679688"/>
     <use xlink:href="#DejaVuSans-73" x="1818.888672"/>
     <use xlink:href="#DejaVuSans-20" x="1870.988281"/>
     <use xlink:href="#DejaVuSans-73" x="1902.775391"/>
     <use xlink:href="#DejaVuSans-75" x="1954.875"/>
     <use xlink:href="#DejaVuSans-6d" x="2018.253906"/>
     <use xlink:href="#DejaVuSans-20" x="2115.666016"/>
     <use xlink:href="#DejaVuSans-64" x="2147.453125"/>
     <use xlink:href="#DejaVuSans-75" x="2210.929688"/>
     <use xlink:href="#DejaVuSans-72" x="2274.308594"/>
     <use xlink:href="#DejaVuSans-61" x="2315.421875"/>
     <use xlink:href="#DejaVuSans-74" x="2376.701172"/>
     <use xlink:href="#DejaVuSans-69" x="2415.910156"/>
     <use xlink:href="#DejaVuSans-6f" x="2443.693359"/>
     <use xlink:href="#DejaVuSans-6e" x="2504.875"/>
    </g>
   </g>
  </g>
 </g>
 <defs>
  <clipPath id="pad70147cba">
   <rect x="45.716875" y="24.14175" width="357.12" height="266.112"/>
  </clipPath>
 </defs>
</svg>
