<?xml version="1.0" encoding="UTF-8" standalone="no"?>
<!DOCTYPE svg PUBLIC "-//W3C//DTD SVG 1.1//EN"
 "http://www.w3.org/Graphics/SVG/1.1/DTD/svg11.dtd">
<!-- Generated by graphviz version 2.50.0 (20211204.2007)
 -->
<!-- Title: G Pages: 1 -->
<svg width="820pt" height="653pt"
 viewBox="0.00 0.00 819.67 653.00" xmlns="http://www.w3.org/2000/svg" xmlns:xlink="http://www.w3.org/1999/xlink">
<g id="graph0" class="graph" transform="scale(1 1) rotate(0) translate(4 649)">
<title>G</title>
<!-- Create Purchase Order Item -->
<g id="node1" class="node">
<title>Create Purchase Order Item</title>
<polygon fill="#4db1b1" stroke="black" points="271.67,-471 59.67,-471 59.67,-435 271.67,-435 271.67,-471"/>
<text text-anchor="middle" x="165.67" y="-449.3" font-family="Times New Roman,serif" font-size="14.00" fill="#000000">Create Purchase Order Item (5737)</text>
</g>
<!-- Change Price -->
<g id="node2" class="node">
<title>Change Price</title>
<polygon fill="#3ac4c4" stroke="black" points="254.67,-384 130.67,-384 130.67,-348 254.67,-348 254.67,-384"/>
<text text-anchor="middle" x="192.67" y="-362.3" font-family="Times New Roman,serif" font-size="14.00" fill="#000000">Change Price (674)</text>
</g>
<!-- Create Purchase Order Item&#45;&gt;Change Price -->
<g id="edge1" class="edge">
<title>Create Purchase Order Item&#45;&gt;Change Price</title>
<path fill="none" stroke="#000000" stroke-width="1.55" d="M171.14,-434.8C174.87,-423.05 179.89,-407.24 184.15,-393.84"/>
<polygon fill="#000000" stroke="#000000" stroke-width="1.55" points="187.53,-394.77 187.22,-384.18 180.85,-392.65 187.53,-394.77"/>
<text text-anchor="middle" x="192.17" y="-405.8" font-family="Times New Roman,serif" font-size="14.00" fill="#000000">411</text>
</g>
<!-- Record Goods Receipt -->
<g id="node3" class="node">
<title>Record Goods Receipt</title>
<polygon fill="#4fafaf" stroke="black" points="498.67,-384 310.67,-384 310.67,-348 498.67,-348 498.67,-384"/>
<text text-anchor="middle" x="404.67" y="-362.3" font-family="Times New Roman,serif" font-size="14.00" fill="#000000">Record Goods Receipt (6950)</text>
</g>
<!-- Create Purchase Order Item&#45;&gt;Record Goods Receipt -->
<g id="edge2" class="edge">
<title>Create Purchase Order Item&#45;&gt;Record Goods Receipt</title>
<path fill="none" stroke="#000000" stroke-width="1.66" d="M213.75,-434.9C252.24,-421.21 306.34,-401.97 347.13,-387.46"/>
<polygon fill="#000000" stroke="#000000" stroke-width="1.66" points="348.42,-390.72 356.67,-384.07 346.08,-384.12 348.42,-390.72"/>
<text text-anchor="middle" x="313.67" y="-405.8" font-family="Times New Roman,serif" font-size="14.00" fill="#000000">1347</text>
</g>
<!-- end_0 -->
<g id="node11" class="node">
<title>end_0</title>
<ellipse fill="#ffa500" stroke="#ffa500" cx="382.67" cy="-18" rx="27" ry="18"/>
<text text-anchor="middle" x="382.67" y="-16.1" font-family="Times New Roman,serif" font-size="8.00" fill="#ffa500">@@E</text>
</g>
<!-- Create Purchase Order Item&#45;&gt;end_0 -->
<g id="edge28" class="edge">
<title>Create Purchase Order Item&#45;&gt;end_0</title>
<path fill="none" stroke="#000000" stroke-width="1.56" d="M142.57,-434.83C124.59,-419.33 102.67,-394.74 102.67,-367 102.67,-367 102.67,-367 102.67,-104 102.67,-53.72 270.07,-30.38 346,-22.37"/>
<polygon fill="#000000" stroke="#000000" stroke-width="1.56" points="346.49,-25.84 356.08,-21.35 345.77,-18.88 346.49,-25.84"/>
<text text-anchor="middle" x="113.17" y="-231.8" font-family="Times New Roman,serif" font-size="14.00" fill="#000000">457</text>
</g>
<!-- Record Goods Receipt&#45;&gt;Create Purchase Order Item -->
<g id="edge7" class="edge">
<title>Record Goods Receipt&#45;&gt;Create Purchase Order Item</title>
<path fill="none" stroke="#000000" stroke-width="1.57" d="M384.56,-384C370.57,-394.99 351.02,-408.72 331.67,-417 316.05,-423.68 299.04,-429.13 282.07,-433.56"/>
<polygon fill="#000000" stroke="#000000" stroke-width="1.57" points="280.94,-430.23 272.08,-436.05 282.63,-437.02 280.94,-430.23"/>
<text text-anchor="middle" x="370.17" y="-405.8" font-family="Times New Roman,serif" font-size="14.00" fill="#000000">542</text>
</g>
<!-- Record Invoice Receipt -->
<g id="node4" class="node">
<title>Record Invoice Receipt</title>
<polygon fill="#4fafaf" stroke="black" points="479.67,-210 289.67,-210 289.67,-174 479.67,-174 479.67,-210"/>
<text text-anchor="middle" x="384.67" y="-188.3" font-family="Times New Roman,serif" font-size="14.00" fill="#000000">Record Invoice Receipt (6950)</text>
</g>
<!-- Record Goods Receipt&#45;&gt;Record Invoice Receipt -->
<g id="edge3" class="edge">
<title>Record Goods Receipt&#45;&gt;Record Invoice Receipt</title>
<path fill="none" stroke="#000000" stroke-width="1.72" d="M401.52,-347.72C399.1,-334.01 395.82,-314.33 393.67,-297 390.46,-271.12 388.02,-241.47 386.49,-220.47"/>
<polygon fill="#000000" stroke="#000000" stroke-width="1.72" points="389.97,-220.07 385.78,-210.34 382.99,-220.56 389.97,-220.07"/>
<text text-anchor="middle" x="407.67" y="-275.3" font-family="Times New Roman,serif" font-size="14.00" fill="#000000">2654</text>
</g>
<!-- Record Service Entry Sheet -->
<g id="node5" class="node">
<title>Record Service Entry Sheet</title>
<polygon fill="#44baba" stroke="black" points="642.67,-297 430.67,-297 430.67,-261 642.67,-261 642.67,-297"/>
<text text-anchor="middle" x="536.67" y="-275.3" font-family="Times New Roman,serif" font-size="14.00" fill="#000000">Record Service Entry Sheet (2057)</text>
</g>
<!-- Record Goods Receipt&#45;&gt;Record Service Entry Sheet -->
<g id="edge5" class="edge">
<title>Record Goods Receipt&#45;&gt;Record Service Entry Sheet</title>
<path fill="none" stroke="#000000" stroke-width="1.62" d="M428.74,-347.93C442.85,-338.08 461.1,-325.58 477.67,-315 484.31,-310.77 491.45,-306.38 498.39,-302.22"/>
<polygon fill="#000000" stroke="#000000" stroke-width="1.62" points="500.23,-305.2 507.03,-297.07 496.65,-299.18 500.23,-305.2"/>
<text text-anchor="middle" x="488.17" y="-318.8" font-family="Times New Roman,serif" font-size="14.00" fill="#000000">903</text>
</g>
<!-- Vendor creates invoice -->
<g id="node7" class="node">
<title>Vendor creates invoice</title>
<polygon fill="#4fafaf" stroke="black" points="769.17,-123 584.17,-123 584.17,-87 769.17,-87 769.17,-123"/>
<text text-anchor="middle" x="676.67" y="-101.3" font-family="Times New Roman,serif" font-size="14.00" fill="#000000">Vendor creates invoice (6740)</text>
</g>
<!-- Record Goods Receipt&#45;&gt;Vendor creates invoice -->
<g id="edge4" class="edge">
<title>Record Goods Receipt&#45;&gt;Vendor creates invoice</title>
<path fill="none" stroke="#000000" stroke-width="1.69" d="M498.96,-355.13C572.83,-345.22 666.94,-327.03 690.67,-297 700.59,-284.45 687.69,-182.9 680.67,-133.2"/>
<polygon fill="#000000" stroke="#000000" stroke-width="1.69" points="684.12,-132.55 679.23,-123.15 677.19,-133.55 684.12,-132.55"/>
<text text-anchor="middle" x="706.67" y="-231.8" font-family="Times New Roman,serif" font-size="14.00" fill="#000000">1947</text>
</g>
<!-- Clear Invoice -->
<g id="node8" class="node">
<title>Clear Invoice</title>
<polygon fill="#4fafaf" stroke="black" points="348.17,-297 217.17,-297 217.17,-261 348.17,-261 348.17,-297"/>
<text text-anchor="middle" x="282.67" y="-275.3" font-family="Times New Roman,serif" font-size="14.00" fill="#000000">Clear Invoice (6557)</text>
</g>
<!-- Record Goods Receipt&#45;&gt;Clear Invoice -->
<g id="edge6" class="edge">
<title>Record Goods Receipt&#45;&gt;Clear Invoice</title>
<path fill="none" stroke="#000000" stroke-width="1.57" d="M347.03,-347.82C336.3,-343.08 325.65,-337.2 316.67,-330 308.53,-323.47 301.58,-314.46 296.13,-305.9"/>
<polygon fill="#000000" stroke="#000000" stroke-width="1.57" points="299.11,-304.06 291,-297.25 293.09,-307.63 299.11,-304.06"/>
<text text-anchor="middle" x="327.17" y="-318.8" font-family="Times New Roman,serif" font-size="14.00" fill="#000000">512</text>
</g>
<!-- Record Invoice Receipt&#45;&gt;Record Invoice Receipt -->
<g id="edge8" class="edge">
<title>Record Invoice Receipt&#45;&gt;Record Invoice Receipt</title>
<path fill="none" stroke="#000000" stroke-width="1.56" d="M479.89,-198.67C490.68,-197.42 497.67,-195.2 497.67,-192 497.67,-189.95 494.8,-188.3 489.9,-187.05"/>
<polygon fill="#000000" stroke="#000000" stroke-width="1.56" points="490.34,-183.58 479.89,-185.33 489.15,-190.47 490.34,-183.58"/>
<text text-anchor="middle" x="508.17" y="-188.3" font-family="Times New Roman,serif" font-size="14.00" fill="#000000">470</text>
</g>
<!-- Record Invoice Receipt&#45;&gt;Vendor creates invoice -->
<g id="edge10" class="edge">
<title>Record Invoice Receipt&#45;&gt;Vendor creates invoice</title>
<path fill="none" stroke="#000000" stroke-width="1.53" d="M479.9,-183.39C517.18,-178.33 559.77,-169.94 596.67,-156 614.06,-149.43 631.74,-138.87 646.05,-129.14"/>
<polygon fill="#000000" stroke="#000000" stroke-width="1.53" points="648.31,-131.83 654.49,-123.23 644.29,-126.1 648.31,-131.83"/>
<text text-anchor="middle" x="637.17" y="-144.8" font-family="Times New Roman,serif" font-size="14.00" fill="#000000">328</text>
</g>
<!-- Record Invoice Receipt&#45;&gt;Clear Invoice -->
<g id="edge9" class="edge">
<title>Record Invoice Receipt&#45;&gt;Clear Invoice</title>
<path fill="none" stroke="#000000" stroke-width="1.73" d="M364.06,-210.18C348.86,-222.84 327.99,-240.23 311.19,-254.23"/>
<polygon fill="#000000" stroke="#000000" stroke-width="1.73" points="308.76,-251.71 303.31,-260.8 313.24,-257.09 308.76,-251.71"/>
<text text-anchor="middle" x="354.67" y="-231.8" font-family="Times New Roman,serif" font-size="14.00" fill="#000000">3232</text>
</g>
<!-- Remove Payment Block -->
<g id="node9" class="node">
<title>Remove Payment Block</title>
<polygon fill="#3fbfbf" stroke="black" points="474.17,-123 283.17,-123 283.17,-87 474.17,-87 474.17,-123"/>
<text text-anchor="middle" x="378.67" y="-101.3" font-family="Times New Roman,serif" font-size="14.00" fill="#000000">Remove Payment Block (1203)</text>
</g>
<!-- Record Invoice Receipt&#45;&gt;Remove Payment Block -->
<g id="edge11" class="edge">
<title>Record Invoice Receipt&#45;&gt;Remove Payment Block</title>
<path fill="none" stroke="#000000" stroke-width="1.6" d="M356.33,-173.98C350.42,-168.98 344.98,-162.95 341.67,-156 337.59,-147.41 340.7,-138.8 346.54,-131.22"/>
<polygon fill="#000000" stroke="#000000" stroke-width="1.6" points="349.51,-133.15 353.73,-123.43 344.37,-128.4 349.51,-133.15"/>
<text text-anchor="middle" x="352.17" y="-144.8" font-family="Times New Roman,serif" font-size="14.00" fill="#000000">697</text>
</g>
<!-- Record Invoice Receipt&#45;&gt;end_0 -->
<g id="edge26" class="edge">
<title>Record Invoice Receipt&#45;&gt;end_0</title>
<path fill="none" stroke="#000000" stroke-width="1.66" d="M426.38,-173.92C447.65,-162.82 471.53,-146.06 483.67,-123 491.12,-108.84 491.19,-101.12 483.67,-87 469.36,-60.1 439.14,-41.94 415.47,-31.2"/>
<polygon fill="#000000" stroke="#000000" stroke-width="1.66" points="416.69,-27.91 406.12,-27.18 413.92,-34.34 416.69,-27.91"/>
<text text-anchor="middle" x="502.67" y="-101.3" font-family="Times New Roman,serif" font-size="14.00" fill="#000000">1353</text>
</g>
<!-- Record Service Entry Sheet&#45;&gt;Record Goods Receipt -->
<g id="edge13" class="edge">
<title>Record Service Entry Sheet&#45;&gt;Record Goods Receipt</title>
<path fill="none" stroke="#000000" stroke-width="1.63" d="M527,-297.31C520.26,-308 510.4,-321.29 498.67,-330 491.56,-335.28 483.57,-339.84 475.32,-343.77"/>
<polygon fill="#000000" stroke="#000000" stroke-width="1.63" points="473.66,-340.67 465.93,-347.93 476.49,-347.07 473.66,-340.67"/>
<text text-anchor="middle" x="526.67" y="-318.8" font-family="Times New Roman,serif" font-size="14.00" fill="#000000">1006</text>
</g>
<!-- Record Service Entry Sheet&#45;&gt;Record Service Entry Sheet -->
<g id="edge12" class="edge">
<title>Record Service Entry Sheet&#45;&gt;Record Service Entry Sheet</title>
<path fill="none" stroke="#000000" stroke-width="1.53" d="M642.95,-285.47C653.77,-284.19 660.67,-282.04 660.67,-279 660.67,-277.06 657.84,-275.47 652.96,-274.25"/>
<polygon fill="#000000" stroke="#000000" stroke-width="1.53" points="653.39,-270.77 642.95,-272.53 652.21,-277.67 653.39,-270.77"/>
<text text-anchor="middle" x="671.17" y="-275.3" font-family="Times New Roman,serif" font-size="14.00" fill="#000000">339</text>
</g>
<!-- Create Purchase Requisition Item -->
<g id="node6" class="node">
<title>Create Purchase Requisition Item</title>
<polygon fill="#38c6c6" stroke="black" points="281.67,-558 45.67,-558 45.67,-522 281.67,-522 281.67,-558"/>
<text text-anchor="middle" x="163.67" y="-536.3" font-family="Times New Roman,serif" font-size="14.00" fill="#000000">Create Purchase Requisition Item (521)</text>
</g>
<!-- Create Purchase Requisition Item&#45;&gt;Create Purchase Order Item -->
<g id="edge14" class="edge">
<title>Create Purchase Requisition Item&#45;&gt;Create Purchase Order Item</title>
<path fill="none" stroke="#000000" stroke-width="1.56" d="M164.08,-521.8C164.35,-510.16 164.72,-494.55 165.03,-481.24"/>
<polygon fill="#000000" stroke="#000000" stroke-width="1.56" points="168.53,-481.26 165.27,-471.18 161.53,-481.09 168.53,-481.26"/>
<text text-anchor="middle" x="176.17" y="-492.8" font-family="Times New Roman,serif" font-size="14.00" fill="#000000">496</text>
</g>
<!-- Vendor creates invoice&#45;&gt;Record Goods Receipt -->
<g id="edge15" class="edge">
<title>Vendor creates invoice&#45;&gt;Record Goods Receipt</title>
<path fill="none" stroke="#000000" stroke-width="1.72" d="M687.37,-123.08C690.62,-128.66 694.02,-134.98 696.67,-141 724.69,-204.55 747.34,-241.44 705.67,-297 690.58,-317.13 683.05,-320.68 659.67,-330 612.2,-348.93 556.25,-357.93 508.87,-362.09"/>
<polygon fill="#000000" stroke="#000000" stroke-width="1.72" points="508.58,-358.61 498.9,-362.91 509.15,-365.58 508.58,-358.61"/>
<text text-anchor="middle" x="741.67" y="-231.8" font-family="Times New Roman,serif" font-size="14.00" fill="#000000">2633</text>
</g>
<!-- Vendor creates invoice&#45;&gt;Record Invoice Receipt -->
<g id="edge16" class="edge">
<title>Vendor creates invoice&#45;&gt;Record Invoice Receipt</title>
<path fill="none" stroke="#000000" stroke-width="1.69" d="M620.07,-123.01C602.27,-128.54 582.59,-134.85 564.67,-141 546.72,-147.17 542.8,-150.36 524.67,-156 506.93,-161.52 487.72,-166.79 469.38,-171.47"/>
<polygon fill="#000000" stroke="#000000" stroke-width="1.69" points="468.42,-168.1 459.58,-173.94 470.14,-174.89 468.42,-168.1"/>
<text text-anchor="middle" x="578.67" y="-144.8" font-family="Times New Roman,serif" font-size="14.00" fill="#000000">1999</text>
</g>
<!-- Vendor creates invoice&#45;&gt;end_0 -->
<g id="edge27" class="edge">
<title>Vendor creates invoice&#45;&gt;end_0</title>
<path fill="none" stroke="#000000" stroke-width="1.53" d="M628.02,-86.95C598.33,-76.81 559.52,-64.01 524.67,-54 488.59,-43.64 446.83,-33.57 417.97,-26.91"/>
<polygon fill="#000000" stroke="#000000" stroke-width="1.53" points="418.49,-23.44 407.96,-24.62 416.93,-30.26 418.49,-23.44"/>
<text text-anchor="middle" x="581.17" y="-57.8" font-family="Times New Roman,serif" font-size="14.00" fill="#000000">348</text>
</g>
<!-- Clear Invoice&#45;&gt;Record Goods Receipt -->
<g id="edge17" class="edge">
<title>Clear Invoice&#45;&gt;Record Goods Receipt</title>
<path fill="none" stroke="#000000" stroke-width="1.52" d="M310.35,-297.05C319.17,-302.63 328.92,-308.96 337.67,-315 349.98,-323.49 363.23,-333.24 374.67,-341.87"/>
<polygon fill="#000000" stroke="#000000" stroke-width="1.52" points="372.56,-344.66 382.64,-347.91 376.79,-339.08 372.56,-344.66"/>
<text text-anchor="middle" x="369.17" y="-318.8" font-family="Times New Roman,serif" font-size="14.00" fill="#000000">296</text>
</g>
<!-- Clear Invoice&#45;&gt;Record Invoice Receipt -->
<g id="edge18" class="edge">
<title>Clear Invoice&#45;&gt;Record Invoice Receipt</title>
<path fill="none" stroke="#000000" stroke-width="1.62" d="M286,-260.86C288.85,-250.24 293.92,-236.96 302.67,-228 307.47,-223.09 313.07,-218.83 319.04,-215.15"/>
<polygon fill="#000000" stroke="#000000" stroke-width="1.62" points="320.98,-218.07 328.01,-210.15 317.57,-211.96 320.98,-218.07"/>
<text text-anchor="middle" x="313.17" y="-231.8" font-family="Times New Roman,serif" font-size="14.00" fill="#000000">927</text>
</g>
<!-- Clear Invoice&#45;&gt;end_0 -->
<g id="edge25" class="edge">
<title>Clear Invoice&#45;&gt;end_0</title>
<path fill="none" stroke="#000000" stroke-width="1.73" d="M276.22,-260.82C264.15,-225.63 242.11,-143.9 273.67,-87 289.6,-58.29 323.25,-40.12 348.97,-29.85"/>
<polygon fill="#000000" stroke="#000000" stroke-width="1.73" points="350.27,-33.1 358.39,-26.3 347.8,-26.55 350.27,-33.1"/>
<text text-anchor="middle" x="272.67" y="-144.8" font-family="Times New Roman,serif" font-size="14.00" fill="#000000">3124</text>
</g>
<!-- Remove Payment Block&#45;&gt;Record Invoice Receipt -->
<g id="edge19" class="edge">
<title>Remove Payment Block&#45;&gt;Record Invoice Receipt</title>
<path fill="none" stroke="#000000" stroke-width="1.34" d="M379.89,-123.18C380.71,-134.81 381.81,-150.42 382.75,-163.73"/>
<polygon fill="#000000" stroke="#000000" stroke-width="1.34" points="379.26,-164.07 383.46,-173.8 386.25,-163.58 379.26,-164.07"/>
<text text-anchor="middle" x="389.67" y="-144.8" font-family="Times New Roman,serif" font-size="14.00" fill="#000000">40</text>
</g>
<!-- start_0 -->
<g id="node10" class="node">
<title>start_0</title>
<ellipse fill="#32cd32" stroke="#000000" cx="309.67" cy="-627" rx="27" ry="18"/>
<text text-anchor="middle" x="309.67" y="-625.1" font-family="Times New Roman,serif" font-size="8.00" fill="#32cd32">@@S</text>
</g>
<!-- start_0&#45;&gt;Create Purchase Order Item -->
<g id="edge21" class="edge">
<title>start_0&#45;&gt;Create Purchase Order Item</title>
<path fill="none" stroke="#000000" stroke-width="1.71" d="M282.68,-624.09C215.35,-618.7 42.96,-600.89 8.67,-558 -21.32,-520.48 34.83,-491.77 88.12,-474.11"/>
<polygon fill="#000000" stroke="#000000" stroke-width="1.71" points="89.22,-477.44 97.67,-471.06 87.08,-470.77 89.22,-477.44"/>
<text text-anchor="middle" x="22.67" y="-536.3" font-family="Times New Roman,serif" font-size="14.00" fill="#000000">2550</text>
</g>
<!-- start_0&#45;&gt;Record Goods Receipt -->
<g id="edge22" class="edge">
<title>start_0&#45;&gt;Record Goods Receipt</title>
<path fill="none" stroke="#000000" stroke-width="1.63" d="M316.48,-609.31C318.8,-603.53 321.39,-596.99 323.67,-591 350.65,-520.13 380.54,-435.85 395.33,-393.74"/>
<polygon fill="#000000" stroke="#000000" stroke-width="1.63" points="398.66,-394.81 398.67,-384.21 392.06,-392.49 398.66,-394.81"/>
<text text-anchor="middle" x="375.67" y="-492.8" font-family="Times New Roman,serif" font-size="14.00" fill="#000000">1004</text>
</g>
<!-- start_0&#45;&gt;Create Purchase Requisition Item -->
<g id="edge24" class="edge">
<title>start_0&#45;&gt;Create Purchase Requisition Item</title>
<path fill="none" stroke="#000000" stroke-width="1.53" d="M289.98,-614.54C267.51,-601.45 230.21,-579.74 201.96,-563.29"/>
<polygon fill="#000000" stroke="#000000" stroke-width="1.53" points="203.53,-560.16 193.13,-558.15 200.01,-566.21 203.53,-560.16"/>
<text text-anchor="middle" x="256.17" y="-579.8" font-family="Times New Roman,serif" font-size="14.00" fill="#000000">327</text>
</g>
<!-- start_0&#45;&gt;Vendor creates invoice -->
<g id="edge20" class="edge">
<title>start_0&#45;&gt;Vendor creates invoice</title>
<path fill="none" stroke="#000000" stroke-width="1.61" d="M336.56,-624.12C437.86,-616.69 790.67,-587.48 790.67,-541 790.67,-541 790.67,-541 790.67,-191 790.67,-161.39 765.65,-140.87 739.05,-127.42"/>
<polygon fill="#000000" stroke="#000000" stroke-width="1.61" points="740.54,-124.25 730,-123.12 737.53,-130.57 740.54,-124.25"/>
<text text-anchor="middle" x="801.17" y="-362.3" font-family="Times New Roman,serif" font-size="14.00" fill="#000000">794</text>
</g>
<!-- start_0&#45;&gt;Clear Invoice -->
<g id="edge23" class="edge">
<title>start_0&#45;&gt;Clear Invoice</title>
<path fill="none" stroke="#000000" stroke-width="1.57" d="M308.33,-608.84C303.97,-552.93 290.14,-375.64 284.8,-307.27"/>
<polygon fill="#000000" stroke="#000000" stroke-width="1.57" points="288.29,-306.96 284.02,-297.26 281.31,-307.5 288.29,-306.96"/>
<text text-anchor="middle" x="308.17" y="-449.3" font-family="Times New Roman,serif" font-size="14.00" fill="#000000">544</text>
</g>
</g>
</svg>
