<?xml version="1.0" encoding="UTF-8" standalone="no"?>
<!DOCTYPE svg PUBLIC "-//W3C//DTD SVG 1.1//EN"
 "http://www.w3.org/Graphics/SVG/1.1/DTD/svg11.dtd">
<!-- Generated by graphviz version 2.50.0 (20211204.2007)
 -->
<!-- Pages: 1 -->
<svg width="492pt" height="1619pt"
 viewBox="0.00 0.00 492.00 1619.00" xmlns="http://www.w3.org/2000/svg" xmlns:xlink="http://www.w3.org/1999/xlink">
<g id="graph0" class="graph" transform="scale(1 1) rotate(0) translate(4 1615)">
<!-- 2011427960192 -->
<g id="node1" class="node">
<title>2011427960192</title>
<polygon fill="none" stroke="black" points="353,-1332 231,-1332 231,-1296 353,-1296 353,-1332"/>
<text text-anchor="middle" x="292" y="-1310.9" font-family="Times New Roman,serif" font-size="12.00">Record Goods Receipt</text>
</g>
<!-- 2011427959520 -->
<g id="node39" class="node">
<title>2011427959520</title>
<ellipse fill="none" stroke="black" cx="453" cy="-639" rx="27" ry="27"/>
<ellipse fill="none" stroke="black" cx="453" cy="-639" rx="31" ry="31"/>
<text text-anchor="start" x="443" y="-630.9" font-family="Times New Roman,serif" font-size="32.00">■</text>
</g>
<!-- 2011427960192&#45;&gt;2011427959520 -->
<g id="edge12" class="edge">
<title>2011427960192&#45;&gt;2011427959520</title>
<path fill="none" stroke="black" d="M353.18,-1307.6C365.69,-1303.51 377.6,-1297.07 386,-1287 424.86,-1240.38 444.96,-816.23 450.43,-680.54"/>
<polygon fill="black" stroke="black" points="453.95,-680.3 450.85,-670.16 446.95,-680.02 453.95,-680.3"/>
</g>
<!-- 2011427962496 -->
<g id="node2" class="node">
<title>2011427962496</title>
<polygon fill="none" stroke="black" points="330.5,-1278 253.5,-1278 253.5,-1242 330.5,-1242 330.5,-1278"/>
<text text-anchor="middle" x="292" y="-1256.9" font-family="Times New Roman,serif" font-size="12.00">Change Price</text>
</g>
<!-- 2011427962496&#45;&gt;2011427959520 -->
<g id="edge5" class="edge">
<title>2011427962496&#45;&gt;2011427959520</title>
<path fill="none" stroke="black" d="M330.51,-1258.66C349.98,-1255.9 372.47,-1249.08 386,-1233 421.57,-1190.72 443.64,-807.54 450.05,-680.05"/>
<polygon fill="black" stroke="black" points="453.55,-680.08 450.55,-669.91 446.56,-679.73 453.55,-680.08"/>
</g>
<!-- 2011428118656 -->
<g id="node3" class="node">
<title>2011428118656</title>
<polygon fill="none" stroke="black" points="382.5,-522 201.5,-522 201.5,-486 382.5,-486 382.5,-522"/>
<text text-anchor="middle" x="292" y="-500.9" font-family="Times New Roman,serif" font-size="12.00">SRM: In Transfer to Execution Syst.</text>
</g>
<!-- 2011428118656&#45;&gt;2011427959520 -->
<g id="edge19" class="edge">
<title>2011428118656&#45;&gt;2011427959520</title>
<path fill="none" stroke="black" d="M371.73,-522.1C376.77,-524.68 381.59,-527.63 386,-531 409.33,-548.82 426.28,-577.45 437.16,-600.76"/>
<polygon fill="black" stroke="black" points="434.04,-602.35 441.31,-610.05 440.43,-599.49 434.04,-602.35"/>
</g>
<!-- 2011428119424 -->
<g id="node4" class="node">
<title>2011428119424</title>
<polygon fill="none" stroke="black" points="147,-1017 15,-1017 15,-981 147,-981 147,-1017"/>
<text text-anchor="middle" x="81" y="-995.9" font-family="Times New Roman,serif" font-size="12.00">SRM: Awaiting Approval</text>
</g>
<!-- 2011428118272 -->
<g id="node5" class="node">
<title>2011428118272</title>
<polygon fill="none" stroke="black" points="363.5,-1224 220.5,-1224 220.5,-1188 363.5,-1188 363.5,-1224"/>
<text text-anchor="middle" x="292" y="-1202.9" font-family="Times New Roman,serif" font-size="12.00">Vendor creates debit memo</text>
</g>
<!-- 2011428118272&#45;&gt;2011427959520 -->
<g id="edge23" class="edge">
<title>2011428118272&#45;&gt;2011427959520</title>
<path fill="none" stroke="black" d="M363.89,-1195.23C372.3,-1191.31 380.01,-1186.04 386,-1179 449.73,-1104.08 453.45,-793.62 452.62,-680.48"/>
<polygon fill="black" stroke="black" points="456.12,-680.13 452.53,-670.17 449.12,-680.2 456.12,-680.13"/>
</g>
<!-- 2011411698816 -->
<g id="node6" class="node">
<title>2011411698816</title>
<polygon fill="none" stroke="black" points="364.5,-1170 219.5,-1170 219.5,-1134 364.5,-1134 364.5,-1170"/>
<text text-anchor="middle" x="292" y="-1148.9" font-family="Times New Roman,serif" font-size="12.00">Receive Order Confirmation</text>
</g>
<!-- 2011411698816&#45;&gt;2011427959520 -->
<g id="edge11" class="edge">
<title>2011411698816&#45;&gt;2011427959520</title>
<path fill="none" stroke="black" d="M364.71,-1140.72C372.79,-1136.86 380.18,-1131.75 386,-1125 443.19,-1058.68 451.09,-785.19 451.98,-680.25"/>
<polygon fill="black" stroke="black" points="455.48,-680.08 452.05,-670.05 448.48,-680.03 455.48,-680.08"/>
</g>
<!-- 2011427838208 -->
<g id="node7" class="node">
<title>2011427838208</title>
<polygon fill="none" stroke="black" points="122,-1071 40,-1071 40,-1035 122,-1035 122,-1071"/>
<text text-anchor="middle" x="81" y="-1049.9" font-family="Times New Roman,serif" font-size="12.00">SRM: Deleted</text>
</g>
<!-- 2011427835136 -->
<g id="node8" class="node">
<title>2011427835136</title>
<polygon fill="none" stroke="black" points="147,-1125 15,-1125 15,-1089 147,-1089 147,-1125"/>
<text text-anchor="middle" x="81" y="-1103.9" font-family="Times New Roman,serif" font-size="12.00">Change Storage Location</text>
</g>
<!-- 2011428118032 -->
<g id="node9" class="node">
<title>2011428118032</title>
<polygon fill="none" stroke="black" points="365,-468 219,-468 219,-432 365,-432 365,-468"/>
<text text-anchor="middle" x="292" y="-446.9" font-family="Times New Roman,serif" font-size="12.00">SRM: Document Completed</text>
</g>
<!-- 2011428118032&#45;&gt;2011427959520 -->
<g id="edge18" class="edge">
<title>2011428118032&#45;&gt;2011427959520</title>
<path fill="none" stroke="black" d="M365.08,-463.6C372.69,-467.09 379.88,-471.49 386,-477 421.06,-508.58 437.88,-561.51 445.68,-598.24"/>
<polygon fill="black" stroke="black" points="442.26,-599.01 447.65,-608.13 449.13,-597.64 442.26,-599.01"/>
</g>
<!-- 2011427838352 -->
<g id="node10" class="node">
<title>2011427838352</title>
<polygon fill="none" stroke="black" points="152,-1179 10,-1179 10,-1143 152,-1143 152,-1179"/>
<text text-anchor="middle" x="81" y="-1157.9" font-family="Times New Roman,serif" font-size="12.00">Record Subsequent Invoice</text>
</g>
<!-- 2011427960096 -->
<g id="node11" class="node">
<title>2011427960096</title>
<polygon fill="none" stroke="black" points="365,-1116 219,-1116 219,-1080 365,-1080 365,-1116"/>
<text text-anchor="middle" x="292" y="-1094.9" font-family="Times New Roman,serif" font-size="12.00">Create Purchase Order Item</text>
</g>
<!-- 2011427960096&#45;&gt;2011427959520 -->
<g id="edge8" class="edge">
<title>2011427960096&#45;&gt;2011427959520</title>
<path fill="none" stroke="black" d="M365.07,-1086.41C372.98,-1082.59 380.24,-1077.57 386,-1071 436.63,-1013.27 448.46,-776.76 451.19,-680.27"/>
<polygon fill="black" stroke="black" points="454.7,-680.12 451.46,-670.03 447.7,-679.93 454.7,-680.12"/>
</g>
<!-- 2011427962400 -->
<g id="node12" class="node">
<title>2011427962400</title>
<polygon fill="none" stroke="black" points="330.5,-1062 253.5,-1062 253.5,-1026 330.5,-1026 330.5,-1062"/>
<text text-anchor="middle" x="292" y="-1040.9" font-family="Times New Roman,serif" font-size="12.00">Clear Invoice</text>
</g>
<!-- 2011427962400&#45;&gt;2011427959520 -->
<g id="edge7" class="edge">
<title>2011427962400&#45;&gt;2011427959520</title>
<path fill="none" stroke="black" d="M330.58,-1042.25C349.83,-1039.35 372.09,-1032.53 386,-1017 430.1,-967.77 445.49,-767.75 450.18,-680.28"/>
<polygon fill="black" stroke="black" points="453.68,-680.35 450.7,-670.19 446.69,-679.99 453.68,-680.35"/>
</g>
<!-- 2011427962016 -->
<g id="node13" class="node">
<title>2011427962016</title>
<polygon fill="none" stroke="black" points="335,-414 249,-414 249,-378 335,-378 335,-414"/>
<text text-anchor="middle" x="292" y="-392.9" font-family="Times New Roman,serif" font-size="12.00">SRM: Ordered</text>
</g>
<!-- 2011427962016&#45;&gt;2011427959520 -->
<g id="edge20" class="edge">
<title>2011427962016&#45;&gt;2011427959520</title>
<path fill="none" stroke="black" d="M335.45,-399.47C353.12,-402.96 372.59,-409.78 386,-423 433.34,-469.68 446.92,-549.28 450.7,-597.72"/>
<polygon fill="black" stroke="black" points="447.22,-598.11 451.38,-607.85 454.2,-597.64 447.22,-598.11"/>
</g>
<!-- 2011428118944 -->
<g id="node14" class="node">
<title>2011428118944</title>
<polygon fill="none" stroke="black" points="363.5,-1008 220.5,-1008 220.5,-972 363.5,-972 363.5,-1008"/>
<text text-anchor="middle" x="292" y="-986.9" font-family="Times New Roman,serif" font-size="12.00">Record Service Entry Sheet</text>
</g>
<!-- 2011428118944&#45;&gt;2011427959520 -->
<g id="edge14" class="edge">
<title>2011428118944&#45;&gt;2011427959520</title>
<path fill="none" stroke="black" d="M363.84,-978.57C372.15,-974.74 379.85,-969.68 386,-963 423.62,-922.18 442.07,-758.11 448.84,-680.32"/>
<polygon fill="black" stroke="black" points="452.36,-680.2 449.72,-669.94 445.39,-679.61 452.36,-680.2"/>
</g>
<!-- 2011428119328 -->
<g id="node15" class="node">
<title>2011428119328</title>
<polygon fill="none" stroke="black" points="338,-954 246,-954 246,-918 338,-918 338,-954"/>
<text text-anchor="middle" x="292" y="-932.9" font-family="Times New Roman,serif" font-size="12.00">Change Quantity</text>
</g>
<!-- 2011428119328&#45;&gt;2011427959520 -->
<g id="edge6" class="edge">
<title>2011428119328&#45;&gt;2011427959520</title>
<path fill="none" stroke="black" d="M338.19,-932.41C355.27,-928.84 373.55,-921.99 386,-909 417.21,-876.42 438.04,-747.38 447,-680.17"/>
<polygon fill="black" stroke="black" points="450.51,-680.31 448.34,-669.94 443.57,-679.41 450.51,-680.31"/>
</g>
<!-- 2011427847712 -->
<g id="node16" class="node">
<title>2011427847712</title>
<polygon fill="none" stroke="black" points="140.5,-1233 21.5,-1233 21.5,-1197 140.5,-1197 140.5,-1233"/>
<text text-anchor="middle" x="81" y="-1211.9" font-family="Times New Roman,serif" font-size="12.00">Cancel Goods Receipt</text>
</g>
<!-- 2011427839264 -->
<g id="node17" class="node">
<title>2011427839264</title>
<polygon fill="none" stroke="black" points="362,-360 222,-360 222,-324 362,-324 362,-360"/>
<text text-anchor="middle" x="292" y="-338.9" font-family="Times New Roman,serif" font-size="12.00">Cancel Subsequent Invoice</text>
</g>
<!-- 2011427839264&#45;&gt;2011427959520 -->
<g id="edge2" class="edge">
<title>2011427839264&#45;&gt;2011427959520</title>
<path fill="none" stroke="black" d="M362.2,-353.04C371.08,-356.9 379.37,-362.08 386,-369 417.21,-401.58 438.04,-530.62 447,-597.83"/>
<polygon fill="black" stroke="black" points="443.57,-598.59 448.34,-608.06 450.51,-597.69 443.57,-598.59"/>
</g>
<!-- 2011427840800 -->
<g id="node18" class="node">
<title>2011427840800</title>
<polygon fill="none" stroke="black" points="129.5,-1287 32.5,-1287 32.5,-1251 129.5,-1251 129.5,-1287"/>
<text text-anchor="middle" x="81" y="-1265.9" font-family="Times New Roman,serif" font-size="12.00">SRM: Incomplete</text>
</g>
<!-- 2011427959088 -->
<g id="node19" class="node">
<title>2011427959088</title>
<polygon fill="none" stroke="black" points="352.5,-900 231.5,-900 231.5,-864 352.5,-864 352.5,-900"/>
<text text-anchor="middle" x="292" y="-878.9" font-family="Times New Roman,serif" font-size="12.00">Vendor creates invoice</text>
</g>
<!-- 2011427959088&#45;&gt;2011427959520 -->
<g id="edge24" class="edge">
<title>2011427959088&#45;&gt;2011427959520</title>
<path fill="none" stroke="black" d="M352.78,-874.03C365.01,-870 376.9,-863.97 386,-855 433.34,-808.32 446.92,-728.72 450.7,-680.28"/>
<polygon fill="black" stroke="black" points="454.2,-680.36 451.38,-670.15 447.22,-679.89 454.2,-680.36"/>
</g>
<!-- 2011427835184 -->
<g id="node20" class="node">
<title>2011427835184</title>
<polygon fill="none" stroke="black" points="364,-306 220,-306 220,-270 364,-270 364,-306"/>
<text text-anchor="middle" x="292" y="-284.9" font-family="Times New Roman,serif" font-size="12.00">Delete Purchase Order Item</text>
</g>
<!-- 2011427835184&#45;&gt;2011427959520 -->
<g id="edge10" class="edge">
<title>2011427835184&#45;&gt;2011427959520</title>
<path fill="none" stroke="black" d="M364.3,-299.65C372.44,-303.45 379.96,-308.45 386,-315 423.62,-355.82 442.07,-519.89 448.84,-597.68"/>
<polygon fill="black" stroke="black" points="445.39,-598.39 449.72,-608.06 452.36,-597.8 445.39,-598.39"/>
</g>
<!-- 2011427839024 -->
<g id="node21" class="node">
<title>2011427839024</title>
<polygon fill="none" stroke="black" points="386,-846 198,-846 198,-810 386,-810 386,-846"/>
<text text-anchor="middle" x="292" y="-824.9" font-family="Times New Roman,serif" font-size="12.00">Change Approval for Purchase Order</text>
</g>
<!-- 2011427839024&#45;&gt;2011427959520 -->
<g id="edge3" class="edge">
<title>2011427839024&#45;&gt;2011427959520</title>
<path fill="none" stroke="black" d="M373.71,-809.92C378.11,-807.33 382.25,-804.38 386,-801 421.06,-769.42 437.88,-716.49 445.68,-679.76"/>
<polygon fill="black" stroke="black" points="449.13,-680.36 447.65,-669.87 442.26,-678.99 449.13,-680.36"/>
</g>
<!-- 2011427960000 -->
<g id="node22" class="node">
<title>2011427960000</title>
<polygon fill="none" stroke="black" points="354,-252 230,-252 230,-216 354,-216 354,-252"/>
<text text-anchor="middle" x="292" y="-230.9" font-family="Times New Roman,serif" font-size="12.00">Record Invoice Receipt</text>
</g>
<!-- 2011427960000&#45;&gt;2011427959520 -->
<g id="edge13" class="edge">
<title>2011427960000&#45;&gt;2011427959520</title>
<path fill="none" stroke="black" d="M354.11,-241.32C366.12,-245.4 377.59,-251.61 386,-261 430.1,-310.23 445.49,-510.25 450.18,-597.72"/>
<polygon fill="black" stroke="black" points="446.69,-598.01 450.7,-607.81 453.68,-597.65 446.69,-598.01"/>
</g>
<!-- 2011427838400 -->
<g id="node23" class="node">
<title>2011427838400</title>
<polygon fill="none" stroke="black" points="369.5,-198 214.5,-198 214.5,-162 369.5,-162 369.5,-198"/>
<text text-anchor="middle" x="292" y="-176.9" font-family="Times New Roman,serif" font-size="12.00">SRM: Transfer Failed (E.Sys.)</text>
</g>
<!-- 2011427838400&#45;&gt;2011427959520 -->
<g id="edge21" class="edge">
<title>2011427838400&#45;&gt;2011427959520</title>
<path fill="none" stroke="black" d="M369.55,-193.93C375.71,-197.4 381.34,-201.69 386,-207 436.63,-264.73 448.46,-501.24 451.19,-597.73"/>
<polygon fill="black" stroke="black" points="447.7,-598.07 451.46,-607.97 454.7,-597.88 447.7,-598.07"/>
</g>
<!-- 2011427841088 -->
<g id="node24" class="node">
<title>2011427841088</title>
<polygon fill="none" stroke="black" points="162,-1341 0,-1341 0,-1305 162,-1305 162,-1341"/>
<text text-anchor="middle" x="81" y="-1319.9" font-family="Times New Roman,serif" font-size="12.00">Reactivate Purchase Order Item</text>
</g>
<!-- 2011427840704 -->
<g id="node25" class="node">
<title>2011427840704</title>
<polygon fill="none" stroke="black" points="157,-1395 5,-1395 5,-1359 157,-1359 157,-1395"/>
<text text-anchor="middle" x="81" y="-1373.9" font-family="Times New Roman,serif" font-size="12.00">SRM: Transaction Completed</text>
</g>
<!-- 2011427838016 -->
<g id="node26" class="node">
<title>2011427838016</title>
<polygon fill="none" stroke="black" points="151,-1449 11,-1449 11,-1413 151,-1413 151,-1449"/>
<text text-anchor="middle" x="81" y="-1427.9" font-family="Times New Roman,serif" font-size="12.00">Change Rejection Indicator</text>
</g>
<!-- 2011428119760 -->
<g id="node27" class="node">
<title>2011428119760</title>
<polygon fill="none" stroke="black" points="371,-144 213,-144 213,-108 371,-108 371,-144"/>
<text text-anchor="middle" x="292" y="-122.9" font-family="Times New Roman,serif" font-size="12.00">SRM: Change was Transmitted</text>
</g>
<!-- 2011428119760&#45;&gt;2011427959520 -->
<g id="edge16" class="edge">
<title>2011428119760&#45;&gt;2011427959520</title>
<path fill="none" stroke="black" d="M371.38,-140.87C376.85,-144.16 381.83,-148.16 386,-153 443.19,-219.32 451.09,-492.81 451.98,-597.75"/>
<polygon fill="black" stroke="black" points="448.48,-597.97 452.05,-607.95 455.48,-597.92 448.48,-597.97"/>
</g>
<!-- 2011427960288 -->
<g id="node28" class="node">
<title>2011427960288</title>
<polygon fill="none" stroke="black" points="333.5,-792 250.5,-792 250.5,-756 333.5,-756 333.5,-792"/>
<text text-anchor="middle" x="292" y="-770.9" font-family="Times New Roman,serif" font-size="12.00">SRM: Created</text>
</g>
<!-- 2011428118368 -->
<g id="node29" class="node">
<title>2011428118368</title>
<polygon fill="none" stroke="black" points="337.5,-90 246.5,-90 246.5,-54 337.5,-54 337.5,-90"/>
<text text-anchor="middle" x="292" y="-68.9" font-family="Times New Roman,serif" font-size="12.00">SRM: Complete</text>
</g>
<!-- 2011428118368&#45;&gt;2011427959520 -->
<g id="edge17" class="edge">
<title>2011428118368&#45;&gt;2011427959520</title>
<path fill="none" stroke="black" d="M337.55,-74.58C355.16,-77.95 374.02,-84.91 386,-99 449.73,-173.92 453.45,-484.38 452.62,-597.52"/>
<polygon fill="black" stroke="black" points="449.12,-597.8 452.53,-607.83 456.12,-597.87 449.12,-597.8"/>
</g>
<!-- 2011428118752 -->
<g id="node30" class="node">
<title>2011428118752</title>
<polygon fill="none" stroke="black" points="353,-738 231,-738 231,-702 353,-702 353,-738"/>
<text text-anchor="middle" x="292" y="-716.9" font-family="Times New Roman,serif" font-size="12.00">Cancel Invoice Receipt</text>
</g>
<!-- 2011428118752&#45;&gt;2011427959520 -->
<g id="edge1" class="edge">
<title>2011428118752&#45;&gt;2011427959520</title>
<path fill="none" stroke="black" d="M353.43,-706.31C364.58,-702.72 375.88,-698.32 386,-693 399.07,-686.12 411.98,-676.4 422.87,-667.1"/>
<polygon fill="black" stroke="black" points="425.23,-669.69 430.41,-660.45 420.6,-664.44 425.23,-669.69"/>
</g>
<!-- 2011385577824 -->
<g id="node31" class="node">
<title>2011385577824</title>
<polygon fill="none" stroke="black" points="359.5,-684 224.5,-684 224.5,-648 359.5,-648 359.5,-684"/>
<text text-anchor="middle" x="292" y="-662.9" font-family="Times New Roman,serif" font-size="12.00">Change Delivery Indicator</text>
</g>
<!-- 2011385577824&#45;&gt;2011427959520 -->
<g id="edge4" class="edge">
<title>2011385577824&#45;&gt;2011427959520</title>
<path fill="none" stroke="black" d="M359.51,-654.71C377.38,-651.67 396.15,-648.48 412.08,-645.78"/>
<polygon fill="black" stroke="black" points="412.82,-649.2 422.09,-644.08 411.65,-642.3 412.82,-649.2"/>
</g>
<!-- 2011385578592 -->
<g id="node32" class="node">
<title>2011385578592</title>
<polygon fill="none" stroke="black" points="375.5,-630 208.5,-630 208.5,-594 375.5,-594 375.5,-630"/>
<text text-anchor="middle" x="292" y="-608.9" font-family="Times New Roman,serif" font-size="12.00">Create Purchase Requisition Item</text>
</g>
<!-- 2011385578592&#45;&gt;2011427959520 -->
<g id="edge9" class="edge">
<title>2011385578592&#45;&gt;2011427959520</title>
<path fill="none" stroke="black" d="M375.76,-626.05C388.34,-628.19 400.81,-630.31 411.91,-632.19"/>
<polygon fill="black" stroke="black" points="411.65,-635.7 422.09,-633.92 412.82,-628.8 411.65,-635.7"/>
</g>
<!-- 2011427840608 -->
<g id="node33" class="node">
<title>2011427840608</title>
<polygon fill="none" stroke="black" points="115,-1503 47,-1503 47,-1467 115,-1467 115,-1503"/>
<text text-anchor="middle" x="81" y="-1481.9" font-family="Times New Roman,serif" font-size="12.00">SRM: Held</text>
</g>
<!-- 2011427839072 -->
<g id="node34" class="node">
<title>2011427839072</title>
<polygon fill="none" stroke="black" points="144.5,-1557 17.5,-1557 17.5,-1521 144.5,-1521 144.5,-1557"/>
<text text-anchor="middle" x="81" y="-1535.9" font-family="Times New Roman,serif" font-size="12.00">Release Purchase Order</text>
</g>
<!-- 2011428123120 -->
<g id="node35" class="node">
<title>2011428123120</title>
<polygon fill="none" stroke="black" points="355,-576 229,-576 229,-540 355,-540 355,-576"/>
<text text-anchor="middle" x="292" y="-554.9" font-family="Times New Roman,serif" font-size="12.00">Remove Payment Block</text>
</g>
<!-- 2011428123120&#45;&gt;2011427959520 -->
<g id="edge15" class="edge">
<title>2011428123120&#45;&gt;2011427959520</title>
<path fill="none" stroke="black" d="M355.4,-572.33C365.9,-575.8 376.48,-579.99 386,-585 399.07,-591.88 411.98,-601.6 422.87,-610.9"/>
<polygon fill="black" stroke="black" points="420.6,-613.56 430.41,-617.55 425.23,-608.31 420.6,-613.56"/>
</g>
<!-- 2011427841136 -->
<g id="node36" class="node">
<title>2011427841136</title>
<polygon fill="none" stroke="black" points="158.5,-1611 3.5,-1611 3.5,-1575 158.5,-1575 158.5,-1611"/>
<text text-anchor="middle" x="81" y="-1589.9" font-family="Times New Roman,serif" font-size="12.00">Change Final Invoice Indicator</text>
</g>
<!-- 2011427838448 -->
<g id="node37" class="node">
<title>2011427838448</title>
<polygon fill="none" stroke="black" points="344,-36 240,-36 240,0 344,0 344,-36"/>
<text text-anchor="middle" x="292" y="-14.9" font-family="Times New Roman,serif" font-size="12.00">Set Payment Block</text>
</g>
<!-- 2011427838448&#45;&gt;2011427959520 -->
<g id="edge22" class="edge">
<title>2011427838448&#45;&gt;2011427959520</title>
<path fill="none" stroke="black" d="M344.4,-21.98C359.93,-25.77 375.61,-32.65 386,-45 421.57,-87.28 443.64,-470.46 450.05,-597.95"/>
<polygon fill="black" stroke="black" points="446.56,-598.27 450.55,-608.09 453.55,-597.92 446.56,-598.27"/>
</g>
<!-- 2011427959040 -->
<g id="node38" class="node">
<title>2011427959040</title>
<ellipse fill="none" stroke="black" cx="81" cy="-936" rx="27" ry="27"/>
<text text-anchor="start" x="70" y="-927.3" font-family="Times New Roman,serif" font-size="34.00">●</text>
</g>
<!-- 2011427959040&#45;&gt;2011427960192 -->
<g id="edge34" class="edge">
<title>2011427959040&#45;&gt;2011427960192</title>
<path fill="none" stroke="black" d="M107.87,-940.67C126.02,-945.37 149.24,-954.54 162,-972 245.12,-1085.79 107.11,-1179.32 198,-1287 204.28,-1294.44 212.47,-1299.89 221.39,-1303.88"/>
<polygon fill="black" stroke="black" points="220.32,-1307.22 230.91,-1307.53 222.82,-1300.68 220.32,-1307.22"/>
</g>
<!-- 2011427959040&#45;&gt;2011427962496 -->
<g id="edge28" class="edge">
<title>2011427959040&#45;&gt;2011427962496</title>
<path fill="none" stroke="black" d="M107.75,-940.76C125.84,-945.5 149.04,-954.69 162,-972 232.17,-1065.75 121.44,-1144.4 198,-1233 209.29,-1246.06 226.48,-1252.99 243.03,-1256.6"/>
<polygon fill="black" stroke="black" points="242.73,-1260.1 253.19,-1258.45 243.98,-1253.22 242.73,-1260.1"/>
</g>
<!-- 2011427959040&#45;&gt;2011428118272 -->
<g id="edge38" class="edge">
<title>2011427959040&#45;&gt;2011428118272</title>
<path fill="none" stroke="black" d="M107.57,-940.89C125.58,-945.71 148.74,-954.92 162,-972 219.26,-1045.77 135.71,-1109.43 198,-1179 201.95,-1183.41 206.58,-1187.12 211.62,-1190.24"/>
<polygon fill="black" stroke="black" points="209.97,-1193.33 220.44,-1194.94 213.26,-1187.15 209.97,-1193.33"/>
</g>
<!-- 2011427959040&#45;&gt;2011411698816 -->
<g id="edge33" class="edge">
<title>2011427959040&#45;&gt;2011411698816</title>
<path fill="none" stroke="black" d="M107.66,-941.24C125.46,-946.19 148.34,-955.43 162,-972 206.44,-1025.9 149.89,-1074.35 198,-1125 201.67,-1128.86 205.85,-1132.18 210.37,-1135.04"/>
<polygon fill="black" stroke="black" points="208.97,-1138.26 219.42,-1139.97 212.31,-1132.11 208.97,-1138.26"/>
</g>
<!-- 2011427959040&#45;&gt;2011427960096 -->
<g id="edge31" class="edge">
<title>2011427959040&#45;&gt;2011427960096</title>
<path fill="none" stroke="black" d="M107.45,-941.85C124.93,-947.07 147.49,-956.37 162,-972 193.86,-1006.31 163.82,-1039.01 198,-1071 201.57,-1074.34 205.53,-1077.27 209.75,-1079.84"/>
<polygon fill="black" stroke="black" points="208.25,-1083.01 218.72,-1084.63 211.54,-1076.83 208.25,-1083.01"/>
</g>
<!-- 2011427959040&#45;&gt;2011427962400 -->
<g id="edge30" class="edge">
<title>2011427959040&#45;&gt;2011427962400</title>
<path fill="none" stroke="black" d="M107.1,-943.82C123.76,-949.8 145.51,-959.22 162,-972 182.24,-987.69 176.71,-1002.76 198,-1017 211.53,-1026.04 228.12,-1032.11 243.53,-1036.16"/>
<polygon fill="black" stroke="black" points="242.9,-1039.6 253.44,-1038.53 244.53,-1032.8 242.9,-1039.6"/>
</g>
<!-- 2011427959040&#45;&gt;2011428118944 -->
<g id="edge35" class="edge">
<title>2011427959040&#45;&gt;2011428118944</title>
<path fill="none" stroke="black" d="M107.21,-942.51C133.02,-949.18 174.49,-959.9 211.51,-969.46"/>
<polygon fill="black" stroke="black" points="210.76,-972.88 221.32,-972 212.51,-966.11 210.76,-972.88"/>
</g>
<!-- 2011427959040&#45;&gt;2011428119328 -->
<g id="edge29" class="edge">
<title>2011427959040&#45;&gt;2011428119328</title>
<path fill="none" stroke="black" d="M108.05,-936C139.82,-936 194.41,-936 235.71,-936"/>
<polygon fill="black" stroke="black" points="235.9,-939.5 245.9,-936 235.9,-932.5 235.9,-939.5"/>
</g>
<!-- 2011427959040&#45;&gt;2011427959088 -->
<g id="edge39" class="edge">
<title>2011427959040&#45;&gt;2011427959088</title>
<path fill="none" stroke="black" d="M107.21,-929.49C135.33,-922.22 182.05,-910.15 221.34,-900"/>
<polygon fill="black" stroke="black" points="222.35,-903.35 231.15,-897.46 220.6,-896.58 222.35,-903.35"/>
</g>
<!-- 2011427959040&#45;&gt;2011427839024 -->
<g id="edge26" class="edge">
<title>2011427959040&#45;&gt;2011427839024</title>
<path fill="none" stroke="black" d="M102.1,-918.87C124.27,-900.73 161.66,-872.38 198,-855 201.84,-853.16 205.83,-851.43 209.9,-849.79"/>
<polygon fill="black" stroke="black" points="211.41,-852.96 219.52,-846.14 208.93,-846.41 211.41,-852.96"/>
</g>
<!-- 2011427959040&#45;&gt;2011427960288 -->
<g id="edge37" class="edge">
<title>2011427959040&#45;&gt;2011427960288</title>
<path fill="none" stroke="black" d="M95.67,-913.05C114.8,-882.9 152.39,-830.35 198,-801 210.75,-792.8 226.06,-787.02 240.54,-782.98"/>
<polygon fill="black" stroke="black" points="241.58,-786.33 250.4,-780.45 239.84,-779.55 241.58,-786.33"/>
</g>
<!-- 2011427959040&#45;&gt;2011428118752 -->
<g id="edge25" class="edge">
<title>2011427959040&#45;&gt;2011428118752</title>
<path fill="none" stroke="black" d="M90.63,-910.75C105.81,-870.09 141.21,-790.3 198,-747 204.99,-741.67 213.01,-737.39 221.35,-733.95"/>
<polygon fill="black" stroke="black" points="222.7,-737.18 230.85,-730.42 220.26,-730.62 222.7,-737.18"/>
</g>
<!-- 2011427959040&#45;&gt;2011385577824 -->
<g id="edge27" class="edge">
<title>2011427959040&#45;&gt;2011385577824</title>
<path fill="none" stroke="black" d="M87.21,-909.32C98.38,-859.3 129.4,-751.25 198,-693 203.17,-688.61 209.01,-684.94 215.19,-681.86"/>
<polygon fill="black" stroke="black" points="216.72,-685.01 224.45,-677.76 213.89,-678.61 216.72,-685.01"/>
</g>
<!-- 2011427959040&#45;&gt;2011385578592 -->
<g id="edge32" class="edge">
<title>2011427959040&#45;&gt;2011385578592</title>
<path fill="none" stroke="black" d="M84.65,-909C91.82,-850.87 116.89,-713.13 198,-639 199.16,-637.94 200.37,-636.91 201.6,-635.93"/>
<polygon fill="black" stroke="black" points="203.97,-638.56 210.24,-630.02 200.01,-632.78 203.97,-638.56"/>
</g>
<!-- 2011427959040&#45;&gt;2011428123120 -->
<g id="edge36" class="edge">
<title>2011427959040&#45;&gt;2011428123120</title>
<path fill="none" stroke="black" d="M82.8,-908.72C86.22,-843.15 104.2,-675.42 198,-585 204.18,-579.05 211.59,-574.39 219.49,-570.76"/>
<polygon fill="black" stroke="black" points="220.99,-573.93 228.96,-566.94 218.37,-567.43 220.99,-573.93"/>
</g>
</g>
</svg>
