<?xml version="1.0" encoding="UTF-8" standalone="no"?>
<!DOCTYPE svg PUBLIC "-//W3C//DTD SVG 1.1//EN"
 "http://www.w3.org/Graphics/SVG/1.1/DTD/svg11.dtd">
<!-- Generated by graphviz version 2.50.0 (20211204.2007)
 -->
<!-- Title: pt Pages: 1 -->
<svg width="6927pt" height="764pt"
 viewBox="0.00 0.00 6926.85 764.00" xmlns="http://www.w3.org/2000/svg" xmlns:xlink="http://www.w3.org/1999/xlink">
<g id="graph0" class="graph" transform="scale(1 1) rotate(0) translate(4 760)">
<title>pt</title>
<!-- 2011489866640 -->
<g id="node1" class="node">
<title>2011489866640</title>
<ellipse fill="none" stroke="black" cx="3873.88" cy="-738" rx="27" ry="18"/>
<text text-anchor="middle" x="3873.88" y="-734.5" font-family="Times New Roman,serif" font-size="15.00">seq</text>
</g>
<!-- 2011433436400 -->
<g id="node2" class="node">
<title>2011433436400</title>
<ellipse fill="none" stroke="black" cx="3827.88" cy="-666" rx="46.61" ry="18"/>
<text text-anchor="middle" x="3827.88" y="-662.5" font-family="Times New Roman,serif" font-size="15.00">xor loop</text>
</g>
<!-- 2011489866640&#45;&#45;2011433436400 -->
<g id="edge75" class="edge">
<title>2011489866640&#45;&#45;2011433436400</title>
<path fill="none" stroke="black" d="M3863.44,-721.12C3856.12,-709.98 3846.36,-695.13 3838.92,-683.8"/>
</g>
<!-- 2011433436448 -->
<g id="node77" class="node">
<title>2011433436448</title>
<ellipse fill="none" stroke="black" cx="3919.88" cy="-666" rx="27" ry="18"/>
<text text-anchor="middle" x="3919.88" y="-662.5" font-family="Times New Roman,serif" font-size="15.00">xor</text>
</g>
<!-- 2011489866640&#45;&#45;2011433436448 -->
<g id="edge78" class="edge">
<title>2011489866640&#45;&#45;2011433436448</title>
<path fill="none" stroke="black" d="M3884.32,-721.12C3891.84,-709.66 3901.96,-694.26 3909.48,-682.82"/>
</g>
<!-- 2011433436064 -->
<g id="node3" class="node">
<title>2011433436064</title>
<ellipse fill="none" stroke="black" cx="3803.88" cy="-594" rx="27" ry="18"/>
<text text-anchor="middle" x="3803.88" y="-590.5" font-family="Times New Roman,serif" font-size="15.00">seq</text>
</g>
<!-- 2011433436400&#45;&#45;2011433436064 -->
<g id="edge73" class="edge">
<title>2011433436400&#45;&#45;2011433436064</title>
<path fill="none" stroke="black" d="M3822.07,-648.05C3818.29,-637.05 3813.4,-622.76 3809.63,-611.79"/>
</g>
<!-- 2011433435824 -->
<g id="node76" class="node">
<title>2011433435824</title>
<ellipse fill="black" stroke="black" cx="3851.88" cy="-594" rx="2.7" ry="2.7"/>
</g>
<!-- 2011433436400&#45;&#45;2011433435824 -->
<g id="edge74" class="edge">
<title>2011433436400&#45;&#45;2011433435824</title>
<path fill="none" stroke="black" d="M3833.69,-648.05C3839.79,-630.25 3848.84,-603.87 3851.26,-596.8"/>
</g>
<!-- 2011433436016 -->
<g id="node4" class="node">
<title>2011433436016</title>
<ellipse fill="none" stroke="black" cx="3767.88" cy="-522" rx="27" ry="18"/>
<text text-anchor="middle" x="3767.88" y="-518.5" font-family="Times New Roman,serif" font-size="15.00">xor</text>
</g>
<!-- 2011433436064&#45;&#45;2011433436016 -->
<g id="edge43" class="edge">
<title>2011433436064&#45;&#45;2011433436016</title>
<path fill="none" stroke="black" d="M3795.53,-576.76C3789.71,-565.46 3781.99,-550.44 3776.18,-539.15"/>
</g>
<!-- 2011433435968 -->
<g id="node47" class="node">
<title>2011433435968</title>
<ellipse fill="none" stroke="black" cx="4539.88" cy="-522" rx="27" ry="18"/>
<text text-anchor="middle" x="4539.88" y="-518.5" font-family="Times New Roman,serif" font-size="15.00">xor</text>
</g>
<!-- 2011433436064&#45;&#45;2011433435968 -->
<g id="edge72" class="edge">
<title>2011433436064&#45;&#45;2011433435968</title>
<path fill="none" stroke="black" d="M3830.51,-590.47C3945.45,-579.54 4398.41,-536.45 4513.28,-525.53"/>
</g>
<!-- 2011433436688 -->
<g id="node5" class="node">
<title>2011433436688</title>
<ellipse fill="black" stroke="black" cx="3719.88" cy="-450" rx="2.7" ry="2.7"/>
</g>
<!-- 2011433436016&#45;&#45;2011433436688 -->
<g id="edge1" class="edge">
<title>2011433436016&#45;&#45;2011433436688</title>
<path fill="none" stroke="black" d="M3756.99,-505.12C3744.82,-487.37 3726.16,-460.16 3721.15,-452.86"/>
</g>
<!-- 2011433436784 -->
<g id="node6" class="node">
<title>2011433436784</title>
<ellipse fill="none" stroke="black" cx="3767.88" cy="-450" rx="27" ry="18"/>
<text text-anchor="middle" x="3767.88" y="-446.5" font-family="Times New Roman,serif" font-size="15.00">seq</text>
</g>
<!-- 2011433436016&#45;&#45;2011433436784 -->
<g id="edge42" class="edge">
<title>2011433436016&#45;&#45;2011433436784</title>
<path fill="none" stroke="black" d="M3767.88,-503.7C3767.88,-492.85 3767.88,-478.92 3767.88,-468.1"/>
</g>
<!-- 2011433437024 -->
<g id="node7" class="node">
<title>2011433437024</title>
<ellipse fill="none" stroke="black" cx="3587.88" cy="-378" rx="27" ry="18"/>
<text text-anchor="middle" x="3587.88" y="-374.5" font-family="Times New Roman,serif" font-size="15.00">xor</text>
</g>
<!-- 2011433436784&#45;&#45;2011433437024 -->
<g id="edge4" class="edge">
<title>2011433436784&#45;&#45;2011433437024</title>
<path fill="none" stroke="black" d="M3745.08,-440.13C3710.55,-426.71 3645.36,-401.35 3610.77,-387.9"/>
</g>
<!-- 2011433437120 -->
<g id="node10" class="node">
<title>2011433437120</title>
<ellipse fill="none" stroke="black" cx="3767.88" cy="-378" rx="46.61" ry="18"/>
<text text-anchor="middle" x="3767.88" y="-374.5" font-family="Times New Roman,serif" font-size="15.00">xor loop</text>
</g>
<!-- 2011433436784&#45;&#45;2011433437120 -->
<g id="edge41" class="edge">
<title>2011433436784&#45;&#45;2011433437120</title>
<path fill="none" stroke="black" d="M3767.88,-431.7C3767.88,-420.85 3767.88,-406.92 3767.88,-396.1"/>
</g>
<!-- 2011433437264 -->
<g id="node8" class="node">
<title>2011433437264</title>
<ellipse fill="black" stroke="black" cx="3455.88" cy="-306" rx="2.7" ry="2.7"/>
</g>
<!-- 2011433437024&#45;&#45;2011433437264 -->
<g id="edge2" class="edge">
<title>2011433437024&#45;&#45;2011433437264</title>
<path fill="none" stroke="black" d="M3567.25,-366.06C3533.61,-348.22 3469.47,-314.21 3457.74,-307.99"/>
</g>
<!-- 2011433437360 -->
<g id="node9" class="node">
<title>2011433437360</title>
<ellipse fill="none" stroke="black" cx="3587.88" cy="-306" rx="111.36" ry="18"/>
<text text-anchor="middle" x="3587.88" y="-302.5" font-family="Times New Roman,serif" font-size="15.00">Release Purchase Order</text>
</g>
<!-- 2011433437024&#45;&#45;2011433437360 -->
<g id="edge3" class="edge">
<title>2011433437024&#45;&#45;2011433437360</title>
<path fill="none" stroke="black" d="M3587.88,-359.7C3587.88,-348.85 3587.88,-334.92 3587.88,-324.1"/>
</g>
<!-- 2011433437552 -->
<g id="node11" class="node">
<title>2011433437552</title>
<ellipse fill="none" stroke="black" cx="3743.88" cy="-306" rx="27" ry="18"/>
<text text-anchor="middle" x="3743.88" y="-302.5" font-family="Times New Roman,serif" font-size="15.00">seq</text>
</g>
<!-- 2011433437120&#45;&#45;2011433437552 -->
<g id="edge39" class="edge">
<title>2011433437120&#45;&#45;2011433437552</title>
<path fill="none" stroke="black" d="M3762.07,-360.05C3758.29,-349.05 3753.4,-334.76 3749.63,-323.79"/>
</g>
<!-- 2011433437648 -->
<g id="node46" class="node">
<title>2011433437648</title>
<ellipse fill="black" stroke="black" cx="3791.88" cy="-306" rx="2.7" ry="2.7"/>
</g>
<!-- 2011433437120&#45;&#45;2011433437648 -->
<g id="edge40" class="edge">
<title>2011433437120&#45;&#45;2011433437648</title>
<path fill="none" stroke="black" d="M3773.69,-360.05C3779.79,-342.25 3788.84,-315.87 3791.26,-308.8"/>
</g>
<!-- 2011433437792 -->
<g id="node12" class="node">
<title>2011433437792</title>
<ellipse fill="none" stroke="black" cx="3308.88" cy="-234" rx="27" ry="18"/>
<text text-anchor="middle" x="3308.88" y="-230.5" font-family="Times New Roman,serif" font-size="15.00">xor</text>
</g>
<!-- 2011433437552&#45;&#45;2011433437792 -->
<g id="edge32" class="edge">
<title>2011433437552&#45;&#45;2011433437792</title>
<path fill="none" stroke="black" d="M3717.97,-300.83C3640.69,-288.4 3412.38,-251.66 3334.93,-239.19"/>
</g>
<!-- 2011433437888 -->
<g id="node40" class="node">
<title>2011433437888</title>
<ellipse fill="none" stroke="black" cx="3743.88" cy="-234" rx="27" ry="18"/>
<text text-anchor="middle" x="3743.88" y="-230.5" font-family="Times New Roman,serif" font-size="15.00">xor</text>
</g>
<!-- 2011433437552&#45;&#45;2011433437888 -->
<g id="edge38" class="edge">
<title>2011433437552&#45;&#45;2011433437888</title>
<path fill="none" stroke="black" d="M3743.88,-287.7C3743.88,-276.85 3743.88,-262.92 3743.88,-252.1"/>
</g>
<!-- 2011433438032 -->
<g id="node13" class="node">
<title>2011433438032</title>
<ellipse fill="black" stroke="black" cx="3241.88" cy="-162" rx="2.7" ry="2.7"/>
</g>
<!-- 2011433437792&#45;&#45;2011433438032 -->
<g id="edge5" class="edge">
<title>2011433437792&#45;&#45;2011433438032</title>
<path fill="none" stroke="black" d="M3295,-218.5C3277.82,-200.56 3250.03,-171.52 3243.36,-164.54"/>
</g>
<!-- 2011433438128 -->
<g id="node14" class="node">
<title>2011433438128</title>
<ellipse fill="none" stroke="black" cx="3308.88" cy="-162" rx="46.61" ry="18"/>
<text text-anchor="middle" x="3308.88" y="-158.5" font-family="Times New Roman,serif" font-size="15.00">xor loop</text>
</g>
<!-- 2011433437792&#45;&#45;2011433438128 -->
<g id="edge31" class="edge">
<title>2011433437792&#45;&#45;2011433438128</title>
<path fill="none" stroke="black" d="M3308.88,-215.7C3308.88,-204.85 3308.88,-190.92 3308.88,-180.1"/>
</g>
<!-- 2011433438368 -->
<g id="node15" class="node">
<title>2011433438368</title>
<ellipse fill="none" stroke="black" cx="2939.88" cy="-90" rx="27" ry="18"/>
<text text-anchor="middle" x="2939.88" y="-86.5" font-family="Times New Roman,serif" font-size="15.00">xor</text>
</g>
<!-- 2011433438128&#45;&#45;2011433438368 -->
<g id="edge29" class="edge">
<title>2011433438128&#45;&#45;2011433438368</title>
<path fill="none" stroke="black" d="M3267.98,-153.24C3191.42,-138.72 3028.53,-107.82 2965.51,-95.86"/>
</g>
<!-- 2011433438512 -->
<g id="node39" class="node">
<title>2011433438512</title>
<ellipse fill="black" stroke="black" cx="3308.88" cy="-90" rx="2.7" ry="2.7"/>
</g>
<!-- 2011433438128&#45;&#45;2011433438512 -->
<g id="edge30" class="edge">
<title>2011433438128&#45;&#45;2011433438512</title>
<path fill="none" stroke="black" d="M3308.88,-143.7C3308.88,-125.88 3308.88,-99.77 3308.88,-92.78"/>
</g>
<!-- 2011433438608 -->
<g id="node16" class="node">
<title>2011433438608</title>
<ellipse fill="none" stroke="black" cx="70.88" cy="-18" rx="70.76" ry="18"/>
<text text-anchor="middle" x="70.88" y="-14.5" font-family="Times New Roman,serif" font-size="15.00">SRM: Deleted</text>
</g>
<!-- 2011433438368&#45;&#45;2011433438608 -->
<g id="edge6" class="edge">
<title>2011433438368&#45;&#45;2011433438608</title>
<path fill="none" stroke="black" d="M2912.86,-88.34C2650.25,-81.93 553.17,-30.77 141.04,-20.71"/>
</g>
<!-- 2011433438704 -->
<g id="node17" class="node">
<title>2011433438704</title>
<ellipse fill="none" stroke="black" cx="273.88" cy="-18" rx="113.92" ry="18"/>
<text text-anchor="middle" x="273.88" y="-14.5" font-family="Times New Roman,serif" font-size="15.00">Change Storage Location</text>
</g>
<!-- 2011433438368&#45;&#45;2011433438704 -->
<g id="edge7" class="edge">
<title>2011433438368&#45;&#45;2011433438704</title>
<path fill="none" stroke="black" d="M2912.62,-88.28C2668.54,-81.88 856.42,-34.3 385.46,-21.93"/>
</g>
<!-- 2011433438800 -->
<g id="node18" class="node">
<title>2011433438800</title>
<ellipse fill="none" stroke="black" cx="511.88" cy="-18" rx="105.74" ry="18"/>
<text text-anchor="middle" x="511.88" y="-14.5" font-family="Times New Roman,serif" font-size="15.00">Record Goods Receipt</text>
</g>
<!-- 2011433438368&#45;&#45;2011433438800 -->
<g id="edge8" class="edge">
<title>2011433438368&#45;&#45;2011433438800</title>
<path fill="none" stroke="black" d="M2912.61,-88.21C2681.22,-81.54 1044.86,-34.37 615.07,-21.97"/>
</g>
<!-- 2011433438896 -->
<g id="node19" class="node">
<title>2011433438896</title>
<ellipse fill="none" stroke="black" cx="760.88" cy="-18" rx="125.55" ry="18"/>
<text text-anchor="middle" x="760.88" y="-14.5" font-family="Times New Roman,serif" font-size="15.00">Create Purchase Order Item</text>
</g>
<!-- 2011433438368&#45;&#45;2011433438896 -->
<g id="edge9" class="edge">
<title>2011433438368&#45;&#45;2011433438896</title>
<path fill="none" stroke="black" d="M2912.72,-88.13C2700.5,-81.31 1305.06,-36.48 882.15,-22.9"/>
</g>
<!-- 2011433438992 -->
<g id="node20" class="node">
<title>2011433438992</title>
<ellipse fill="none" stroke="black" cx="1023.88" cy="-18" rx="118.65" ry="18"/>
<text text-anchor="middle" x="1023.88" y="-14.5" font-family="Times New Roman,serif" font-size="15.00">SRM: Awaiting Approval</text>
</g>
<!-- 2011433438368&#45;&#45;2011433438992 -->
<g id="edge10" class="edge">
<title>2011433438368&#45;&#45;2011433438992</title>
<path fill="none" stroke="black" d="M2912.79,-88.01C2717.1,-80.86 1516.43,-37 1138,-23.17"/>
</g>
<!-- 2011433439088 -->
<g id="node21" class="node">
<title>2011433439088</title>
<ellipse fill="none" stroke="black" cx="1302.88" cy="-18" rx="142.4" ry="18"/>
<text text-anchor="middle" x="1302.88" y="-14.5" font-family="Times New Roman,serif" font-size="15.00">Reactivate Purchase Order Item</text>
</g>
<!-- 2011433438368&#45;&#45;2011433439088 -->
<g id="edge11" class="edge">
<title>2011433438368&#45;&#45;2011433439088</title>
<path fill="none" stroke="black" d="M2912.83,-87.84C2740.26,-80.46 1789.17,-39.79 1435.44,-24.67"/>
</g>
<!-- 2011433439184 -->
<g id="node22" class="node">
<title>2011433439184</title>
<ellipse fill="none" stroke="black" cx="1587.88" cy="-18" rx="124.27" ry="18"/>
<text text-anchor="middle" x="1587.88" y="-14.5" font-family="Times New Roman,serif" font-size="15.00">Record Subsequent Invoice</text>
</g>
<!-- 2011433438368&#45;&#45;2011433439184 -->
<g id="edge12" class="edge">
<title>2011433438368&#45;&#45;2011433439184</title>
<path fill="none" stroke="black" d="M2912.87,-87.6C2759.63,-79.67 1995.94,-40.13 1702.75,-24.95"/>
</g>
<!-- 2011433439280 -->
<g id="node23" class="node">
<title>2011433439280</title>
<ellipse fill="none" stroke="black" cx="1868.88" cy="-18" rx="138.95" ry="18"/>
<text text-anchor="middle" x="1868.88" y="-14.5" font-family="Times New Roman,serif" font-size="15.00">Change Final Invoice Indicator</text>
</g>
<!-- 2011433438368&#45;&#45;2011433439280 -->
<g id="edge13" class="edge">
<title>2011433438368&#45;&#45;2011433439280</title>
<path fill="none" stroke="black" d="M2913.14,-87.25C2785.78,-78.93 2236.71,-43.04 1989.87,-26.91"/>
</g>
<!-- 2011433439376 -->
<g id="node24" class="node">
<title>2011433439376</title>
<ellipse fill="none" stroke="black" cx="2093.88" cy="-18" rx="68.2" ry="18"/>
<text text-anchor="middle" x="2093.88" y="-14.5" font-family="Times New Roman,serif" font-size="15.00">Clear Invoice</text>
</g>
<!-- 2011433438368&#45;&#45;2011433439376 -->
<g id="edge14" class="edge">
<title>2011433438368&#45;&#45;2011433439376</title>
<path fill="none" stroke="black" d="M2913.16,-86.79C2796.46,-77.13 2329.62,-38.51 2157.78,-24.29"/>
</g>
<!-- 2011433439472 -->
<g id="node25" class="node">
<title>2011433439472</title>
<ellipse fill="none" stroke="black" cx="2305.88" cy="-18" rx="125.55" ry="18"/>
<text text-anchor="middle" x="2305.88" y="-14.5" font-family="Times New Roman,serif" font-size="15.00">Record Service Entry Sheet</text>
</g>
<!-- 2011433438368&#45;&#45;2011433439472 -->
<g id="edge15" class="edge">
<title>2011433438368&#45;&#45;2011433439472</title>
<path fill="none" stroke="black" d="M2913.44,-86.08C2827.14,-76.55 2550.69,-46.03 2402.25,-29.64"/>
</g>
<!-- 2011433439568 -->
<g id="node26" class="node">
<title>2011433439568</title>
<ellipse fill="none" stroke="black" cx="2559.88" cy="-18" rx="109.58" ry="18"/>
<text text-anchor="middle" x="2559.88" y="-14.5" font-family="Times New Roman,serif" font-size="15.00">Remove Payment Block</text>
</g>
<!-- 2011433438368&#45;&#45;2011433439568 -->
<g id="edge16" class="edge">
<title>2011433438368&#45;&#45;2011433439568</title>
<path fill="none" stroke="black" d="M2914.06,-84.24C2856.43,-73.63 2715.65,-47.69 2629.95,-31.91"/>
</g>
<!-- 2011433439664 -->
<g id="node27" class="node">
<title>2011433439664</title>
<ellipse fill="none" stroke="black" cx="2794.88" cy="-18" rx="107.02" ry="18"/>
<text text-anchor="middle" x="2794.88" y="-14.5" font-family="Times New Roman,serif" font-size="15.00">Vendor creates invoice</text>
</g>
<!-- 2011433438368&#45;&#45;2011433439664 -->
<g id="edge17" class="edge">
<title>2011433438368&#45;&#45;2011433439664</title>
<path fill="none" stroke="black" d="M2918.48,-78.67C2894.77,-67.22 2856.22,-48.61 2828.47,-35.22"/>
</g>
<!-- 2011433439760 -->
<g id="node28" class="node">
<title>2011433439760</title>
<ellipse fill="none" stroke="black" cx="3084.88" cy="-18" rx="165.26" ry="18"/>
<text text-anchor="middle" x="3084.88" y="-14.5" font-family="Times New Roman,serif" font-size="15.00">Change Approval for Purchase Order</text>
</g>
<!-- 2011433438368&#45;&#45;2011433439760 -->
<g id="edge18" class="edge">
<title>2011433438368&#45;&#45;2011433439760</title>
<path fill="none" stroke="black" d="M2961.27,-78.67C2984.75,-67.34 3022.77,-48.98 3050.45,-35.62"/>
</g>
<!-- 2011433439856 -->
<g id="node29" class="node">
<title>2011433439856</title>
<ellipse fill="none" stroke="black" cx="3397.88" cy="-18" rx="129.5" ry="18"/>
<text text-anchor="middle" x="3397.88" y="-14.5" font-family="Times New Roman,serif" font-size="15.00">Receive Order Confirmation</text>
</g>
<!-- 2011433438368&#45;&#45;2011433439856 -->
<g id="edge19" class="edge">
<title>2011433438368&#45;&#45;2011433439856</title>
<path fill="none" stroke="black" d="M2966.15,-84.99C3032.39,-74.86 3208.48,-47.95 3314.18,-31.79"/>
</g>
<!-- 2011433439952 -->
<g id="node30" class="node">
<title>2011433439952</title>
<ellipse fill="none" stroke="black" cx="3610.88" cy="-18" rx="66.03" ry="18"/>
<text text-anchor="middle" x="3610.88" y="-14.5" font-family="Times New Roman,serif" font-size="15.00">Change Price</text>
</g>
<!-- 2011433438368&#45;&#45;2011433439952 -->
<g id="edge20" class="edge">
<title>2011433438368&#45;&#45;2011433439952</title>
<path fill="none" stroke="black" d="M2966.6,-86.21C3065.13,-75.93 3409.71,-39.99 3550.38,-25.31"/>
</g>
<!-- 2011433440048 -->
<g id="node31" class="node">
<title>2011433440048</title>
<ellipse fill="none" stroke="black" cx="3818.88" cy="-18" rx="124.27" ry="18"/>
<text text-anchor="middle" x="3818.88" y="-14.5" font-family="Times New Roman,serif" font-size="15.00">Vendor creates debit memo</text>
</g>
<!-- 2011433438368&#45;&#45;2011433440048 -->
<g id="edge21" class="edge">
<title>2011433438368&#45;&#45;2011433440048</title>
<path fill="none" stroke="black" d="M2966.66,-86.87C3078.3,-77.98 3510.15,-43.59 3712.77,-27.45"/>
</g>
<!-- 2011433440144 -->
<g id="node32" class="node">
<title>2011433440144</title>
<ellipse fill="none" stroke="black" cx="4039.88" cy="-18" rx="78.54" ry="18"/>
<text text-anchor="middle" x="4039.88" y="-14.5" font-family="Times New Roman,serif" font-size="15.00">Change Quantity</text>
</g>
<!-- 2011433438368&#45;&#45;2011433440144 -->
<g id="edge22" class="edge">
<title>2011433438368&#45;&#45;2011433440144</title>
<path fill="none" stroke="black" d="M2966.8,-87.29C3105.92,-78.43 3745.42,-37.74 3965.34,-23.74"/>
</g>
<!-- 2011433440240 -->
<g id="node33" class="node">
<title>2011433440240</title>
<ellipse fill="none" stroke="black" cx="4256.88" cy="-18" rx="120.43" ry="18"/>
<text text-anchor="middle" x="4256.88" y="-14.5" font-family="Times New Roman,serif" font-size="15.00">Change Delivery Indicator</text>
</g>
<!-- 2011433438368&#45;&#45;2011433440240 -->
<g id="edge23" class="edge">
<title>2011433438368&#45;&#45;2011433440240</title>
<path fill="none" stroke="black" d="M2966.78,-87.57C3117.56,-79.56 3861.05,-40.04 4145.72,-24.91"/>
</g>
<!-- 2011433440336 -->
<g id="node34" class="node">
<title>2011433440336</title>
<ellipse fill="none" stroke="black" cx="4502.88" cy="-18" rx="107.91" ry="18"/>
<text text-anchor="middle" x="4502.88" y="-14.5" font-family="Times New Roman,serif" font-size="15.00">Cancel Invoice Receipt</text>
</g>
<!-- 2011433438368&#45;&#45;2011433440336 -->
<g id="edge24" class="edge">
<title>2011433438368&#45;&#45;2011433440336</title>
<path fill="none" stroke="black" d="M2966.68,-87.8C3138.17,-80.12 4084.52,-37.74 4400.29,-23.59"/>
</g>
<!-- 2011433440432 -->
<g id="node35" class="node">
<title>2011433440432</title>
<ellipse fill="none" stroke="black" cx="4751.88" cy="-18" rx="123.88" ry="18"/>
<text text-anchor="middle" x="4751.88" y="-14.5" font-family="Times New Roman,serif" font-size="15.00">Change Rejection Indicator</text>
</g>
<!-- 2011433438368&#45;&#45;2011433440432 -->
<g id="edge25" class="edge">
<title>2011433438368&#45;&#45;2011433440432</title>
<path fill="none" stroke="black" d="M2966.9,-87.96C3154.5,-80.71 4266.25,-37.76 4633.91,-23.56"/>
</g>
<!-- 2011433440528 -->
<g id="node36" class="node">
<title>2011433440528</title>
<ellipse fill="none" stroke="black" cx="4964.88" cy="-18" rx="70.76" ry="18"/>
<text text-anchor="middle" x="4964.88" y="-14.5" font-family="Times New Roman,serif" font-size="15.00">SRM: Created</text>
</g>
<!-- 2011433438368&#45;&#45;2011433440528 -->
<g id="edge26" class="edge">
<title>2011433438368&#45;&#45;2011433440528</title>
<path fill="none" stroke="black" d="M2966.97,-88.06C3178.52,-80.75 4566.07,-32.79 4895.02,-21.41"/>
</g>
<!-- 2011433440624 -->
<g id="node37" class="node">
<title>2011433440624</title>
<ellipse fill="none" stroke="black" cx="5202.88" cy="-18" rx="148.91" ry="18"/>
<text text-anchor="middle" x="5202.88" y="-14.5" font-family="Times New Roman,serif" font-size="15.00">Create Purchase Requisition Item</text>
</g>
<!-- 2011433438368&#45;&#45;2011433440624 -->
<g id="edge27" class="edge">
<title>2011433438368&#45;&#45;2011433440624</title>
<path fill="none" stroke="black" d="M2966.87,-88.17C3180.55,-81.56 4602.72,-37.56 5060.91,-23.39"/>
</g>
<!-- 2011433440720 -->
<g id="node38" class="node">
<title>2011433440720</title>
<ellipse fill="none" stroke="black" cx="5504.88" cy="-18" rx="134.61" ry="18"/>
<text text-anchor="middle" x="5504.88" y="-14.5" font-family="Times New Roman,serif" font-size="15.00">SRM: Transaction Completed</text>
</g>
<!-- 2011433438368&#45;&#45;2011433440720 -->
<g id="edge28" class="edge">
<title>2011433438368&#45;&#45;2011433440720</title>
<path fill="none" stroke="black" d="M2966.95,-88.26C3201.19,-81.87 4888.2,-35.83 5374.19,-22.57"/>
</g>
<!-- 2011433438464 -->
<g id="node41" class="node">
<title>2011433438464</title>
<ellipse fill="black" stroke="black" cx="3695.88" cy="-162" rx="2.7" ry="2.7"/>
</g>
<!-- 2011433437888&#45;&#45;2011433438464 -->
<g id="edge33" class="edge">
<title>2011433437888&#45;&#45;2011433438464</title>
<path fill="none" stroke="black" d="M3732.99,-217.12C3720.82,-199.37 3702.16,-172.16 3697.15,-164.86"/>
</g>
<!-- 2011433440816 -->
<g id="node42" class="node">
<title>2011433440816</title>
<ellipse fill="none" stroke="black" cx="3743.88" cy="-162" rx="27" ry="18"/>
<text text-anchor="middle" x="3743.88" y="-158.5" font-family="Times New Roman,serif" font-size="15.00">and</text>
</g>
<!-- 2011433437888&#45;&#45;2011433440816 -->
<g id="edge36" class="edge">
<title>2011433437888&#45;&#45;2011433440816</title>
<path fill="none" stroke="black" d="M3743.88,-215.7C3743.88,-204.85 3743.88,-190.92 3743.88,-180.1"/>
</g>
<!-- 2011433440864 -->
<g id="node45" class="node">
<title>2011433440864</title>
<ellipse fill="none" stroke="black" cx="3892.88" cy="-162" rx="104.47" ry="18"/>
<text text-anchor="middle" x="3892.88" y="-158.5" font-family="Times New Roman,serif" font-size="15.00">Cancel Goods Receipt</text>
</g>
<!-- 2011433437888&#45;&#45;2011433440864 -->
<g id="edge37" class="edge">
<title>2011433437888&#45;&#45;2011433440864</title>
<path fill="none" stroke="black" d="M3765.23,-222.97C3789.61,-211.52 3829.84,-192.62 3858.62,-179.09"/>
</g>
<!-- 2011433441104 -->
<g id="node43" class="node">
<title>2011433441104</title>
<ellipse fill="none" stroke="black" cx="3738.88" cy="-90" rx="84.16" ry="18"/>
<text text-anchor="middle" x="3738.88" y="-86.5" font-family="Times New Roman,serif" font-size="15.00">SRM: Incomplete</text>
</g>
<!-- 2011433440816&#45;&#45;2011433441104 -->
<g id="edge34" class="edge">
<title>2011433440816&#45;&#45;2011433441104</title>
<path fill="none" stroke="black" d="M3742.64,-143.7C3741.87,-132.85 3740.87,-118.92 3740.1,-108.1"/>
</g>
<!-- 2011433441200 -->
<g id="node44" class="node">
<title>2011433441200</title>
<ellipse fill="none" stroke="black" cx="3899.88" cy="-90" rx="59.13" ry="18"/>
<text text-anchor="middle" x="3899.88" y="-86.5" font-family="Times New Roman,serif" font-size="15.00">SRM: Held</text>
</g>
<!-- 2011433440816&#45;&#45;2011433441200 -->
<g id="edge35" class="edge">
<title>2011433440816&#45;&#45;2011433441200</title>
<path fill="none" stroke="black" d="M3765.57,-151.27C3792.19,-139.32 3837.55,-118.97 3868.11,-105.26"/>
</g>
<!-- 2011433437168 -->
<g id="node48" class="node">
<title>2011433437168</title>
<ellipse fill="black" stroke="black" cx="4539.88" cy="-450" rx="2.7" ry="2.7"/>
</g>
<!-- 2011433435968&#45;&#45;2011433437168 -->
<g id="edge44" class="edge">
<title>2011433435968&#45;&#45;2011433437168</title>
<path fill="none" stroke="black" d="M4539.88,-503.7C4539.88,-485.88 4539.88,-459.77 4539.88,-452.78"/>
</g>
<!-- 2011433437456 -->
<g id="node49" class="node">
<title>2011433437456</title>
<ellipse fill="none" stroke="black" cx="5353.88" cy="-450" rx="27" ry="18"/>
<text text-anchor="middle" x="5353.88" y="-446.5" font-family="Times New Roman,serif" font-size="15.00">seq</text>
</g>
<!-- 2011433435968&#45;&#45;2011433437456 -->
<g id="edge71" class="edge">
<title>2011433435968&#45;&#45;2011433437456</title>
<path fill="none" stroke="black" d="M4566.5,-518.71C4689.66,-508.12 5203.45,-463.94 5327.05,-453.31"/>
</g>
<!-- 2011433441008 -->
<g id="node50" class="node">
<title>2011433441008</title>
<ellipse fill="none" stroke="black" cx="5353.88" cy="-378" rx="27" ry="18"/>
<text text-anchor="middle" x="5353.88" y="-374.5" font-family="Times New Roman,serif" font-size="15.00">xor</text>
</g>
<!-- 2011433437456&#45;&#45;2011433441008 -->
<g id="edge66" class="edge">
<title>2011433437456&#45;&#45;2011433441008</title>
<path fill="none" stroke="black" d="M5353.88,-431.7C5353.88,-420.85 5353.88,-406.92 5353.88,-396.1"/>
</g>
<!-- 2011433441296 -->
<g id="node72" class="node">
<title>2011433441296</title>
<ellipse fill="none" stroke="black" cx="5508.88" cy="-378" rx="27" ry="18"/>
<text text-anchor="middle" x="5508.88" y="-374.5" font-family="Times New Roman,serif" font-size="15.00">xor</text>
</g>
<!-- 2011433437456&#45;&#45;2011433441296 -->
<g id="edge70" class="edge">
<title>2011433437456&#45;&#45;2011433441296</title>
<path fill="none" stroke="black" d="M5375.76,-439.12C5405.3,-425.78 5457.63,-402.15 5487.11,-388.83"/>
</g>
<!-- 2011433441440 -->
<g id="node51" class="node">
<title>2011433441440</title>
<ellipse fill="black" stroke="black" cx="5341.88" cy="-306" rx="2.7" ry="2.7"/>
</g>
<!-- 2011433441008&#45;&#45;2011433441440 -->
<g id="edge45" class="edge">
<title>2011433441008&#45;&#45;2011433441440</title>
<path fill="none" stroke="black" d="M5350.97,-360.05C5347.92,-342.25 5343.4,-315.87 5342.19,-308.8"/>
</g>
<!-- 2011433441536 -->
<g id="node52" class="node">
<title>2011433441536</title>
<ellipse fill="none" stroke="black" cx="5389.88" cy="-306" rx="27" ry="18"/>
<text text-anchor="middle" x="5389.88" y="-302.5" font-family="Times New Roman,serif" font-size="15.00">and</text>
</g>
<!-- 2011433441008&#45;&#45;2011433441536 -->
<g id="edge65" class="edge">
<title>2011433441008&#45;&#45;2011433441536</title>
<path fill="none" stroke="black" d="M5362.23,-360.76C5368.04,-349.46 5375.77,-334.44 5381.57,-323.15"/>
</g>
<!-- 2011433441776 -->
<g id="node53" class="node">
<title>2011433441776</title>
<ellipse fill="none" stroke="black" cx="5389.88" cy="-234" rx="46.61" ry="18"/>
<text text-anchor="middle" x="5389.88" y="-230.5" font-family="Times New Roman,serif" font-size="15.00">xor loop</text>
</g>
<!-- 2011433441536&#45;&#45;2011433441776 -->
<g id="edge48" class="edge">
<title>2011433441536&#45;&#45;2011433441776</title>
<path fill="none" stroke="black" d="M5389.88,-287.7C5389.88,-276.85 5389.88,-262.92 5389.88,-252.1"/>
</g>
<!-- 2011433441872 -->
<g id="node56" class="node">
<title>2011433441872</title>
<ellipse fill="none" stroke="black" cx="6399.88" cy="-234" rx="27" ry="18"/>
<text text-anchor="middle" x="6399.88" y="-230.5" font-family="Times New Roman,serif" font-size="15.00">seq</text>
</g>
<!-- 2011433441536&#45;&#45;2011433441872 -->
<g id="edge64" class="edge">
<title>2011433441536&#45;&#45;2011433441872</title>
<path fill="none" stroke="black" d="M5416.63,-303.15C5559.28,-293.26 6229.19,-246.83 6372.75,-236.88"/>
</g>
<!-- 2011433442016 -->
<g id="node54" class="node">
<title>2011433442016</title>
<ellipse fill="black" stroke="black" cx="5299.88" cy="-162" rx="2.7" ry="2.7"/>
</g>
<!-- 2011433441776&#45;&#45;2011433442016 -->
<g id="edge46" class="edge">
<title>2011433441776&#45;&#45;2011433442016</title>
<path fill="none" stroke="black" d="M5369.9,-217.46C5346.7,-199.42 5310.49,-171.25 5301.8,-164.49"/>
</g>
<!-- 2011433442112 -->
<g id="node55" class="node">
<title>2011433442112</title>
<ellipse fill="none" stroke="black" cx="5480.88" cy="-162" rx="159.65" ry="18"/>
<text text-anchor="middle" x="5480.88" y="-158.5" font-family="Times New Roman,serif" font-size="15.00">SRM: In Transfer to Execution Syst.</text>
</g>
<!-- 2011433441776&#45;&#45;2011433442112 -->
<g id="edge47" class="edge">
<title>2011433441776&#45;&#45;2011433442112</title>
<path fill="none" stroke="black" d="M5410.07,-217.46C5424.53,-206.35 5443.97,-191.39 5458.83,-179.96"/>
</g>
<!-- 2011433442304 -->
<g id="node57" class="node">
<title>2011433442304</title>
<ellipse fill="none" stroke="black" cx="6345.88" cy="-162" rx="46.61" ry="18"/>
<text text-anchor="middle" x="6345.88" y="-158.5" font-family="Times New Roman,serif" font-size="15.00">xor loop</text>
</g>
<!-- 2011433441872&#45;&#45;2011433442304 -->
<g id="edge55" class="edge">
<title>2011433441872&#45;&#45;2011433442304</title>
<path fill="none" stroke="black" d="M6387.89,-217.46C6379.19,-206.19 6367.44,-190.96 6358.58,-179.47"/>
</g>
<!-- 2011433442400 -->
<g id="node64" class="node">
<title>2011433442400</title>
<ellipse fill="none" stroke="black" cx="6453.88" cy="-162" rx="27" ry="18"/>
<text text-anchor="middle" x="6453.88" y="-158.5" font-family="Times New Roman,serif" font-size="15.00">xor</text>
</g>
<!-- 2011433441872&#45;&#45;2011433442400 -->
<g id="edge60" class="edge">
<title>2011433441872&#45;&#45;2011433442400</title>
<path fill="none" stroke="black" d="M6411.86,-217.46C6420.81,-205.86 6432.99,-190.08 6441.93,-178.49"/>
</g>
<!-- 2011433442688 -->
<g id="node69" class="node">
<title>2011433442688</title>
<ellipse fill="none" stroke="black" cx="6619.88" cy="-162" rx="27" ry="18"/>
<text text-anchor="middle" x="6619.88" y="-158.5" font-family="Times New Roman,serif" font-size="15.00">xor</text>
</g>
<!-- 2011433441872&#45;&#45;2011433442688 -->
<g id="edge63" class="edge">
<title>2011433441872&#45;&#45;2011433442688</title>
<path fill="none" stroke="black" d="M6423.84,-225.38C6466.16,-211.91 6553.65,-184.07 6595.94,-170.62"/>
</g>
<!-- 2011433442544 -->
<g id="node58" class="node">
<title>2011433442544</title>
<ellipse fill="none" stroke="black" cx="6233.88" cy="-90" rx="27" ry="18"/>
<text text-anchor="middle" x="6233.88" y="-86.5" font-family="Times New Roman,serif" font-size="15.00">xor</text>
</g>
<!-- 2011433442304&#45;&#45;2011433442544 -->
<g id="edge53" class="edge">
<title>2011433442304&#45;&#45;2011433442544</title>
<path fill="none" stroke="black" d="M6322.4,-146.33C6301.74,-133.42 6272.06,-114.86 6252.87,-102.87"/>
</g>
<!-- 2011433442640 -->
<g id="node63" class="node">
<title>2011433442640</title>
<ellipse fill="black" stroke="black" cx="6345.88" cy="-90" rx="2.7" ry="2.7"/>
</g>
<!-- 2011433442304&#45;&#45;2011433442640 -->
<g id="edge54" class="edge">
<title>2011433442304&#45;&#45;2011433442640</title>
<path fill="none" stroke="black" d="M6345.88,-143.7C6345.88,-125.88 6345.88,-99.77 6345.88,-92.78"/>
</g>
<!-- 2011433442784 -->
<g id="node59" class="node">
<title>2011433442784</title>
<ellipse fill="none" stroke="black" cx="5730.88" cy="-18" rx="72.93" ry="18"/>
<text text-anchor="middle" x="5730.88" y="-14.5" font-family="Times New Roman,serif" font-size="15.00">SRM: Ordered</text>
</g>
<!-- 2011433442544&#45;&#45;2011433442784 -->
<g id="edge49" class="edge">
<title>2011433442544&#45;&#45;2011433442784</title>
<path fill="none" stroke="black" d="M6207.54,-85.34C6130.43,-74.6 5903.59,-43.04 5792.96,-27.64"/>
</g>
<!-- 2011433442880 -->
<g id="node60" class="node">
<title>2011433442880</title>
<ellipse fill="none" stroke="black" cx="5948.88" cy="-18" rx="127.33" ry="18"/>
<text text-anchor="middle" x="5948.88" y="-14.5" font-family="Times New Roman,serif" font-size="15.00">SRM: Document Completed</text>
</g>
<!-- 2011433442544&#45;&#45;2011433442880 -->
<g id="edge50" class="edge">
<title>2011433442544&#45;&#45;2011433442880</title>
<path fill="none" stroke="black" d="M6208.59,-82.79C6164.24,-71.9 6071.32,-49.07 6009.5,-33.89"/>
</g>
<!-- 2011433442976 -->
<g id="node61" class="node">
<title>2011433442976</title>
<ellipse fill="none" stroke="black" cx="6233.88" cy="-18" rx="139.84" ry="18"/>
<text text-anchor="middle" x="6233.88" y="-14.5" font-family="Times New Roman,serif" font-size="15.00">SRM: Change was Transmitted</text>
</g>
<!-- 2011433442544&#45;&#45;2011433442976 -->
<g id="edge51" class="edge">
<title>2011433442544&#45;&#45;2011433442976</title>
<path fill="none" stroke="black" d="M6233.88,-71.7C6233.88,-60.85 6233.88,-46.92 6233.88,-36.1"/>
</g>
<!-- 2011433443072 -->
<g id="node62" class="node">
<title>2011433443072</title>
<ellipse fill="none" stroke="black" cx="6469.88" cy="-18" rx="78.54" ry="18"/>
<text text-anchor="middle" x="6469.88" y="-14.5" font-family="Times New Roman,serif" font-size="15.00">SRM: Complete</text>
</g>
<!-- 2011433442544&#45;&#45;2011433443072 -->
<g id="edge52" class="edge">
<title>2011433442544&#45;&#45;2011433443072</title>
<path fill="none" stroke="black" d="M6258.25,-81.77C6297.23,-70.21 6374.26,-47.36 6423.85,-32.65"/>
</g>
<!-- 2011433443216 -->
<g id="node65" class="node">
<title>2011433443216</title>
<ellipse fill="black" stroke="black" cx="6453.88" cy="-90" rx="2.7" ry="2.7"/>
</g>
<!-- 2011433442400&#45;&#45;2011433443216 -->
<g id="edge56" class="edge">
<title>2011433442400&#45;&#45;2011433443216</title>
<path fill="none" stroke="black" d="M6453.88,-143.7C6453.88,-125.88 6453.88,-99.77 6453.88,-92.78"/>
</g>
<!-- 2011433443312 -->
<g id="node66" class="node">
<title>2011433443312</title>
<ellipse fill="none" stroke="black" cx="6552.88" cy="-90" rx="46.61" ry="18"/>
<text text-anchor="middle" x="6552.88" y="-86.5" font-family="Times New Roman,serif" font-size="15.00">xor loop</text>
</g>
<!-- 2011433442400&#45;&#45;2011433443312 -->
<g id="edge59" class="edge">
<title>2011433442400&#45;&#45;2011433443312</title>
<path fill="none" stroke="black" d="M6472.04,-148.16C6488.78,-136.32 6513.66,-118.73 6531.39,-106.19"/>
</g>
<!-- 2011433443552 -->
<g id="node67" class="node">
<title>2011433443552</title>
<ellipse fill="black" stroke="black" cx="6568.88" cy="-18" rx="2.7" ry="2.7"/>
</g>
<!-- 2011433443312&#45;&#45;2011433443552 -->
<g id="edge57" class="edge">
<title>2011433443312&#45;&#45;2011433443552</title>
<path fill="none" stroke="black" d="M6556.75,-72.05C6560.82,-54.25 6566.85,-27.87 6568.47,-20.8"/>
</g>
<!-- 2011433443648 -->
<g id="node68" class="node">
<title>2011433443648</title>
<ellipse fill="none" stroke="black" cx="6698.88" cy="-18" rx="109.58" ry="18"/>
<text text-anchor="middle" x="6698.88" y="-14.5" font-family="Times New Roman,serif" font-size="15.00">Record Invoice Receipt</text>
</g>
<!-- 2011433443312&#45;&#45;2011433443648 -->
<g id="edge58" class="edge">
<title>2011433443312&#45;&#45;2011433443648</title>
<path fill="none" stroke="black" d="M6581.03,-75.5C6605.06,-63.98 6639.68,-47.38 6665.18,-35.16"/>
</g>
<!-- 2011433443696 -->
<g id="node70" class="node">
<title>2011433443696</title>
<ellipse fill="black" stroke="black" cx="6619.88" cy="-90" rx="2.7" ry="2.7"/>
</g>
<!-- 2011433442688&#45;&#45;2011433443696 -->
<g id="edge61" class="edge">
<title>2011433442688&#45;&#45;2011433443696</title>
<path fill="none" stroke="black" d="M6619.88,-143.7C6619.88,-125.88 6619.88,-99.77 6619.88,-92.78"/>
</g>
<!-- 2011433443792 -->
<g id="node71" class="node">
<title>2011433443792</title>
<ellipse fill="none" stroke="black" cx="6779.88" cy="-90" rx="138.95" ry="18"/>
<text text-anchor="middle" x="6779.88" y="-86.5" font-family="Times New Roman,serif" font-size="15.00">SRM: Transfer Failed (E.Sys.)</text>
</g>
<!-- 2011433442688&#45;&#45;2011433443792 -->
<g id="edge62" class="edge">
<title>2011433442688&#45;&#45;2011433443792</title>
<path fill="none" stroke="black" d="M6641.79,-151.41C6667.64,-140.11 6711.04,-121.12 6742.29,-107.45"/>
</g>
<!-- 2011433441920 -->
<g id="node73" class="node">
<title>2011433441920</title>
<ellipse fill="black" stroke="black" cx="5437.88" cy="-306" rx="2.7" ry="2.7"/>
</g>
<!-- 2011433441296&#45;&#45;2011433441920 -->
<g id="edge67" class="edge">
<title>2011433441296&#45;&#45;2011433441920</title>
<path fill="none" stroke="black" d="M5494.17,-362.5C5475.97,-344.56 5446.52,-315.52 5439.44,-308.54"/>
</g>
<!-- 2011433442160 -->
<g id="node74" class="node">
<title>2011433442160</title>
<ellipse fill="none" stroke="black" cx="5580.88" cy="-306" rx="122.1" ry="18"/>
<text text-anchor="middle" x="5580.88" y="-302.5" font-family="Times New Roman,serif" font-size="15.00">Cancel Subsequent Invoice</text>
</g>
<!-- 2011433441296&#45;&#45;2011433442160 -->
<g id="edge68" class="edge">
<title>2011433441296&#45;&#45;2011433442160</title>
<path fill="none" stroke="black" d="M5523.45,-362.83C5535.04,-351.57 5551.28,-335.77 5563.54,-323.86"/>
</g>
<!-- 2011433443360 -->
<g id="node75" class="node">
<title>2011433443360</title>
<ellipse fill="none" stroke="black" cx="5846.88" cy="-306" rx="125.55" ry="18"/>
<text text-anchor="middle" x="5846.88" y="-302.5" font-family="Times New Roman,serif" font-size="15.00">Delete Purchase Order Item</text>
</g>
<!-- 2011433441296&#45;&#45;2011433443360 -->
<g id="edge69" class="edge">
<title>2011433441296&#45;&#45;2011433443360</title>
<path fill="none" stroke="black" d="M5534.28,-371.74C5585.56,-361.12 5702.96,-336.8 5778.4,-321.18"/>
</g>
<!-- 2011433436880 -->
<g id="node78" class="node">
<title>2011433436880</title>
<ellipse fill="black" stroke="black" cx="3896.88" cy="-594" rx="2.7" ry="2.7"/>
</g>
<!-- 2011433436448&#45;&#45;2011433436880 -->
<g id="edge76" class="edge">
<title>2011433436448&#45;&#45;2011433436880</title>
<path fill="none" stroke="black" d="M3914.31,-648.05C3908.46,-630.25 3899.79,-603.87 3897.47,-596.8"/>
</g>
<!-- 2011433437936 -->
<g id="node79" class="node">
<title>2011433437936</title>
<ellipse fill="none" stroke="black" cx="4006.88" cy="-594" rx="88.89" ry="18"/>
<text text-anchor="middle" x="4006.88" y="-590.5" font-family="Times New Roman,serif" font-size="15.00">Set Payment Block</text>
</g>
<!-- 2011433436448&#45;&#45;2011433437936 -->
<g id="edge77" class="edge">
<title>2011433436448&#45;&#45;2011433437936</title>
<path fill="none" stroke="black" d="M3936.65,-651.5C3950.77,-640.14 3971.03,-623.84 3986.16,-611.67"/>
</g>
</g>
</svg>
