<?xml version="1.0" encoding="utf-8" standalone="no"?>
<!DOCTYPE svg PUBLIC "-//W3C//DTD SVG 1.1//EN"
  "http://www.w3.org/Graphics/SVG/1.1/DTD/svg11.dtd">
<svg xmlns:xlink="http://www.w3.org/1999/xlink" width="447.495pt" height="197.66175pt" viewBox="0 0 447.495 197.66175" xmlns="http://www.w3.org/2000/svg" version="1.1">
 <metadata>
  <rdf:RDF xmlns:dc="http://purl.org/dc/elements/1.1/" xmlns:cc="http://creativecommons.org/ns#" xmlns:rdf="http://www.w3.org/1999/02/22-rdf-syntax-ns#">
   <cc:Work>
    <dc:type rdf:resource="http://purl.org/dc/dcmitype/StillImage"/>
    <dc:date>2022-01-29T18:53:56.399278</dc:date>
    <dc:format>image/svg+xml</dc:format>
    <dc:creator>
     <cc:Agent>
      <dc:title>Matplotlib v3.5.1, https://matplotlib.org/</dc:title>
     </cc:Agent>
    </dc:creator>
   </cc:Work>
  </rdf:RDF>
 </metadata>
 <defs>
  <style type="text/css">*{stroke-linejoin: round; stroke-linecap: butt}</style>
 </defs>
 <g id="figure_1">
  <g id="patch_1">
   <path d="M 0 197.66175 
L 447.495 197.66175 
L 447.495 0 
L 0 0 
z
" style="fill: #ffffff"/>
  </g>
  <g id="axes_1">
   <g id="matplotlib.axis_1"/>
   <g id="matplotlib.axis_2"/>
   <g id="patch_2">
    <path d="M 243.316125 107.30175 
C 243.316125 95.435152 240.141158 83.781883 234.1218 73.555277 
C 228.102443 63.32867 219.455117 54.896419 209.08018 49.136486 
L 176.788125 107.30175 
L 243.316125 107.30175 
z
" style="fill: #e24a33"/>
   </g>
   <g id="patch_3">
    <path d="M 209.08018 49.136486 
C 198.705243 43.376553 186.97572 40.496033 175.112885 40.794845 
C 163.250051 41.093658 151.680425 44.561059 141.608635 50.836024 
L 176.788125 107.30175 
L 209.08018 49.136486 
z
" style="fill: #348abd"/>
   </g>
   <g id="patch_4">
    <path d="M 141.608635 50.836024 
C 131.844537 56.919289 123.823249 65.432425 118.33113 75.540854 
C 112.839011 85.649284 110.061595 97.011524 110.271165 108.513689 
L 176.788125 107.30175 
L 141.608635 50.836024 
z
" style="fill: #988ed5"/>
   </g>
   <g id="patch_5">
    <path d="M 110.271165 108.513689 
C 110.474985 119.700289 113.497536 130.656787 119.058109 140.365627 
C 124.618681 150.074468 132.539634 158.225491 142.085331 164.06169 
L 176.788125 107.30175 
L 110.271165 108.513689 
z
" style="fill: #777777"/>
   </g>
   <g id="patch_6">
    <path d="M 142.085331 164.06169 
C 150.427149 169.161844 159.791636 172.36089 169.510354 173.430479 
C 179.229071 174.500069 189.065141 173.414133 198.316461 170.250185 
L 176.788125 107.30175 
L 142.085331 164.06169 
z
" style="fill: #fbc15e"/>
   </g>
   <g id="patch_7">
    <path d="M 198.316461 170.250185 
C 201.622009 169.119689 204.833381 167.730576 207.920771 166.095739 
C 211.00816 164.460902 213.961987 162.585414 216.754833 160.486682 
L 176.788125 107.30175 
L 198.316461 170.250185 
z
" style="fill: #8eba42"/>
   </g>
   <g id="patch_8">
    <path d="M 216.754833 160.486682 
C 225.002732 154.288661 231.696893 146.25615 236.306527 137.02606 
C 240.916161 127.79597 243.316126 117.618878 243.316125 107.301742 
L 176.788125 107.30175 
L 216.754833 160.486682 
z
" style="fill: #ffb5b8"/>
   </g>
   <g id="text_1">
    <!-- 16.9% -->
    <g style="fill: #ffffff" transform="translate(200.780674 88.709491)scale(0.06 -0.06)">
     <defs>
      <path id="DejaVuSans-Bold-31" d="M 750 831 
L 1813 831 
L 1813 3847 
L 722 3622 
L 722 4441 
L 1806 4666 
L 2950 4666 
L 2950 831 
L 4013 831 
L 4013 0 
L 750 0 
L 750 831 
z
" transform="scale(0.015625)"/>
      <path id="DejaVuSans-Bold-36" d="M 2316 2303 
Q 2000 2303 1842 2098 
Q 1684 1894 1684 1484 
Q 1684 1075 1842 870 
Q 2000 666 2316 666 
Q 2634 666 2792 870 
Q 2950 1075 2950 1484 
Q 2950 1894 2792 2098 
Q 2634 2303 2316 2303 
z
M 3803 4544 
L 3803 3681 
Q 3506 3822 3243 3889 
Q 2981 3956 2731 3956 
Q 2194 3956 1894 3657 
Q 1594 3359 1544 2772 
Q 1750 2925 1990 3001 
Q 2231 3078 2516 3078 
Q 3231 3078 3670 2659 
Q 4109 2241 4109 1563 
Q 4109 813 3618 361 
Q 3128 -91 2303 -91 
Q 1394 -91 895 523 
Q 397 1138 397 2266 
Q 397 3422 980 4083 
Q 1563 4744 2578 4744 
Q 2900 4744 3203 4694 
Q 3506 4644 3803 4544 
z
" transform="scale(0.015625)"/>
      <path id="DejaVuSans-Bold-2e" d="M 653 1209 
L 1778 1209 
L 1778 0 
L 653 0 
L 653 1209 
z
" transform="scale(0.015625)"/>
      <path id="DejaVuSans-Bold-39" d="M 641 103 
L 641 966 
Q 928 831 1190 764 
Q 1453 697 1709 697 
Q 2247 697 2547 995 
Q 2847 1294 2900 1881 
Q 2688 1725 2447 1647 
Q 2206 1569 1925 1569 
Q 1209 1569 770 1986 
Q 331 2403 331 3084 
Q 331 3838 820 4291 
Q 1309 4744 2131 4744 
Q 3044 4744 3544 4128 
Q 4044 3513 4044 2388 
Q 4044 1231 3459 570 
Q 2875 -91 1856 -91 
Q 1528 -91 1228 -42 
Q 928 6 641 103 
z
M 2125 2350 
Q 2441 2350 2600 2554 
Q 2759 2759 2759 3169 
Q 2759 3575 2600 3781 
Q 2441 3988 2125 3988 
Q 1809 3988 1650 3781 
Q 1491 3575 1491 3169 
Q 1491 2759 1650 2554 
Q 1809 2350 2125 2350 
z
" transform="scale(0.015625)"/>
      <path id="DejaVuSans-Bold-25" d="M 4959 1925 
Q 4738 1925 4616 1733 
Q 4494 1541 4494 1184 
Q 4494 825 4614 633 
Q 4734 441 4959 441 
Q 5184 441 5303 633 
Q 5422 825 5422 1184 
Q 5422 1541 5301 1733 
Q 5181 1925 4959 1925 
z
M 4959 2450 
Q 5541 2450 5875 2112 
Q 6209 1775 6209 1184 
Q 6209 594 5875 251 
Q 5541 -91 4959 -91 
Q 4378 -91 4042 251 
Q 3706 594 3706 1184 
Q 3706 1772 4042 2111 
Q 4378 2450 4959 2450 
z
M 2094 -91 
L 1403 -91 
L 4319 4750 
L 5013 4750 
L 2094 -91 
z
M 1453 4750 
Q 2034 4750 2367 4411 
Q 2700 4072 2700 3481 
Q 2700 2891 2367 2550 
Q 2034 2209 1453 2209 
Q 872 2209 539 2550 
Q 206 2891 206 3481 
Q 206 4072 539 4411 
Q 872 4750 1453 4750 
z
M 1453 4225 
Q 1228 4225 1106 4031 
Q 984 3838 984 3481 
Q 984 3122 1106 2926 
Q 1228 2731 1453 2731 
Q 1678 2731 1798 2926 
Q 1919 3122 1919 3481 
Q 1919 3838 1797 4031 
Q 1675 4225 1453 4225 
z
" transform="scale(0.015625)"/>
     </defs>
     <use xlink:href="#DejaVuSans-Bold-31"/>
     <use xlink:href="#DejaVuSans-Bold-36" x="69.580078"/>
     <use xlink:href="#DejaVuSans-Bold-2e" x="139.160156"/>
     <use xlink:href="#DejaVuSans-Bold-39" x="177.148438"/>
     <use xlink:href="#DejaVuSans-Bold-25" x="246.728516"/>
    </g>
   </g>
   <g id="text_2">
    <!-- 16.9% -->
    <g style="fill: #ffffff" transform="translate(165.375325 69.053232)scale(0.06 -0.06)">
     <use xlink:href="#DejaVuSans-Bold-31"/>
     <use xlink:href="#DejaVuSans-Bold-36" x="69.580078"/>
     <use xlink:href="#DejaVuSans-Bold-2e" x="139.160156"/>
     <use xlink:href="#DejaVuSans-Bold-39" x="177.148438"/>
     <use xlink:href="#DejaVuSans-Bold-25" x="246.728516"/>
    </g>
   </g>
   <g id="text_3">
    <!-- 16.4% -->
    <g style="fill: #ffffff" transform="translate(131.306272 89.900838)scale(0.06 -0.06)">
     <defs>
      <path id="DejaVuSans-Bold-34" d="M 2356 3675 
L 1038 1722 
L 2356 1722 
L 2356 3675 
z
M 2156 4666 
L 3494 4666 
L 3494 1722 
L 4159 1722 
L 4159 850 
L 3494 850 
L 3494 0 
L 2356 0 
L 2356 850 
L 288 850 
L 288 1881 
L 2156 4666 
z
" transform="scale(0.015625)"/>
     </defs>
     <use xlink:href="#DejaVuSans-Bold-31"/>
     <use xlink:href="#DejaVuSans-Bold-36" x="69.580078"/>
     <use xlink:href="#DejaVuSans-Bold-2e" x="139.160156"/>
     <use xlink:href="#DejaVuSans-Bold-34" x="177.148438"/>
     <use xlink:href="#DejaVuSans-Bold-25" x="246.728516"/>
    </g>
   </g>
   <g id="text_4">
    <!-- 16.0% -->
    <g style="fill: #ffffff" transform="translate(131.742459 128.795701)scale(0.06 -0.06)">
     <defs>
      <path id="DejaVuSans-Bold-30" d="M 2944 2338 
Q 2944 3213 2780 3570 
Q 2616 3928 2228 3928 
Q 1841 3928 1675 3570 
Q 1509 3213 1509 2338 
Q 1509 1453 1675 1090 
Q 1841 728 2228 728 
Q 2613 728 2778 1090 
Q 2944 1453 2944 2338 
z
M 4147 2328 
Q 4147 1169 3647 539 
Q 3147 -91 2228 -91 
Q 1306 -91 806 539 
Q 306 1169 306 2328 
Q 306 3491 806 4120 
Q 1306 4750 2228 4750 
Q 3147 4750 3647 4120 
Q 4147 3491 4147 2328 
z
" transform="scale(0.015625)"/>
     </defs>
     <use xlink:href="#DejaVuSans-Bold-31"/>
     <use xlink:href="#DejaVuSans-Bold-36" x="69.580078"/>
     <use xlink:href="#DejaVuSans-Bold-2e" x="139.160156"/>
     <use xlink:href="#DejaVuSans-Bold-30" x="177.148438"/>
     <use xlink:href="#DejaVuSans-Bold-25" x="246.728516"/>
    </g>
   </g>
   <g id="text_5">
    <!-- 14.0% -->
    <g style="fill: #ffffff" transform="translate(162.013806 148.634613)scale(0.06 -0.06)">
     <use xlink:href="#DejaVuSans-Bold-31"/>
     <use xlink:href="#DejaVuSans-Bold-34" x="69.580078"/>
     <use xlink:href="#DejaVuSans-Bold-2e" x="139.160156"/>
     <use xlink:href="#DejaVuSans-Bold-30" x="177.148438"/>
     <use xlink:href="#DejaVuSans-Bold-25" x="246.728516"/>
    </g>
   </g>
   <g id="text_6">
    <!-- 5.0% -->
    <g style="fill: #ffffff" transform="translate(187.1474 144.233768)scale(0.06 -0.06)">
     <defs>
      <path id="DejaVuSans-Bold-35" d="M 678 4666 
L 3669 4666 
L 3669 3781 
L 1638 3781 
L 1638 3059 
Q 1775 3097 1914 3117 
Q 2053 3138 2203 3138 
Q 3056 3138 3531 2711 
Q 4006 2284 4006 1522 
Q 4006 766 3489 337 
Q 2972 -91 2053 -91 
Q 1656 -91 1267 -14 
Q 878 63 494 219 
L 494 1166 
Q 875 947 1217 837 
Q 1559 728 1863 728 
Q 2300 728 2551 942 
Q 2803 1156 2803 1522 
Q 2803 1891 2551 2103 
Q 2300 2316 1863 2316 
Q 1603 2316 1309 2248 
Q 1016 2181 678 2041 
L 678 4666 
z
" transform="scale(0.015625)"/>
     </defs>
     <use xlink:href="#DejaVuSans-Bold-35"/>
     <use xlink:href="#DejaVuSans-Bold-2e" x="69.580078"/>
     <use xlink:href="#DejaVuSans-Bold-30" x="107.568359"/>
     <use xlink:href="#DejaVuSans-Bold-25" x="177.148438"/>
    </g>
   </g>
   <g id="text_7">
    <!-- 14.7% -->
    <g style="fill: #ffffff" transform="translate(202.09151 126.791961)scale(0.06 -0.06)">
     <defs>
      <path id="DejaVuSans-Bold-37" d="M 428 4666 
L 3944 4666 
L 3944 3988 
L 2125 0 
L 953 0 
L 2675 3781 
L 428 3781 
L 428 4666 
z
" transform="scale(0.015625)"/>
     </defs>
     <use xlink:href="#DejaVuSans-Bold-31"/>
     <use xlink:href="#DejaVuSans-Bold-34" x="69.580078"/>
     <use xlink:href="#DejaVuSans-Bold-2e" x="139.160156"/>
     <use xlink:href="#DejaVuSans-Bold-37" x="177.148438"/>
     <use xlink:href="#DejaVuSans-Bold-25" x="246.728516"/>
    </g>
   </g>
   <g id="text_8">
    <!-- 3-way_match,_invoice_after_GR_concept:name -->
    <g transform="translate(7.2 18.14175)scale(0.144 -0.144)">
     <defs>
      <path id="DejaVuSans-33" d="M 2597 2516 
Q 3050 2419 3304 2112 
Q 3559 1806 3559 1356 
Q 3559 666 3084 287 
Q 2609 -91 1734 -91 
Q 1441 -91 1130 -33 
Q 819 25 488 141 
L 488 750 
Q 750 597 1062 519 
Q 1375 441 1716 441 
Q 2309 441 2620 675 
Q 2931 909 2931 1356 
Q 2931 1769 2642 2001 
Q 2353 2234 1838 2234 
L 1294 2234 
L 1294 2753 
L 1863 2753 
Q 2328 2753 2575 2939 
Q 2822 3125 2822 3475 
Q 2822 3834 2567 4026 
Q 2313 4219 1838 4219 
Q 1578 4219 1281 4162 
Q 984 4106 628 3988 
L 628 4550 
Q 988 4650 1302 4700 
Q 1616 4750 1894 4750 
Q 2613 4750 3031 4423 
Q 3450 4097 3450 3541 
Q 3450 3153 3228 2886 
Q 3006 2619 2597 2516 
z
" transform="scale(0.015625)"/>
      <path id="DejaVuSans-2d" d="M 313 2009 
L 1997 2009 
L 1997 1497 
L 313 1497 
L 313 2009 
z
" transform="scale(0.015625)"/>
      <path id="DejaVuSans-77" d="M 269 3500 
L 844 3500 
L 1563 769 
L 2278 3500 
L 2956 3500 
L 3675 769 
L 4391 3500 
L 4966 3500 
L 4050 0 
L 3372 0 
L 2619 2869 
L 1863 0 
L 1184 0 
L 269 3500 
z
" transform="scale(0.015625)"/>
      <path id="DejaVuSans-61" d="M 2194 1759 
Q 1497 1759 1228 1600 
Q 959 1441 959 1056 
Q 959 750 1161 570 
Q 1363 391 1709 391 
Q 2188 391 2477 730 
Q 2766 1069 2766 1631 
L 2766 1759 
L 2194 1759 
z
M 3341 1997 
L 3341 0 
L 2766 0 
L 2766 531 
Q 2569 213 2275 61 
Q 1981 -91 1556 -91 
Q 1019 -91 701 211 
Q 384 513 384 1019 
Q 384 1609 779 1909 
Q 1175 2209 1959 2209 
L 2766 2209 
L 2766 2266 
Q 2766 2663 2505 2880 
Q 2244 3097 1772 3097 
Q 1472 3097 1187 3025 
Q 903 2953 641 2809 
L 641 3341 
Q 956 3463 1253 3523 
Q 1550 3584 1831 3584 
Q 2591 3584 2966 3190 
Q 3341 2797 3341 1997 
z
" transform="scale(0.015625)"/>
      <path id="DejaVuSans-79" d="M 2059 -325 
Q 1816 -950 1584 -1140 
Q 1353 -1331 966 -1331 
L 506 -1331 
L 506 -850 
L 844 -850 
Q 1081 -850 1212 -737 
Q 1344 -625 1503 -206 
L 1606 56 
L 191 3500 
L 800 3500 
L 1894 763 
L 2988 3500 
L 3597 3500 
L 2059 -325 
z
" transform="scale(0.015625)"/>
      <path id="DejaVuSans-5f" d="M 3263 -1063 
L 3263 -1509 
L -63 -1509 
L -63 -1063 
L 3263 -1063 
z
" transform="scale(0.015625)"/>
      <path id="DejaVuSans-6d" d="M 3328 2828 
Q 3544 3216 3844 3400 
Q 4144 3584 4550 3584 
Q 5097 3584 5394 3201 
Q 5691 2819 5691 2113 
L 5691 0 
L 5113 0 
L 5113 2094 
Q 5113 2597 4934 2840 
Q 4756 3084 4391 3084 
Q 3944 3084 3684 2787 
Q 3425 2491 3425 1978 
L 3425 0 
L 2847 0 
L 2847 2094 
Q 2847 2600 2669 2842 
Q 2491 3084 2119 3084 
Q 1678 3084 1418 2786 
Q 1159 2488 1159 1978 
L 1159 0 
L 581 0 
L 581 3500 
L 1159 3500 
L 1159 2956 
Q 1356 3278 1631 3431 
Q 1906 3584 2284 3584 
Q 2666 3584 2933 3390 
Q 3200 3197 3328 2828 
z
" transform="scale(0.015625)"/>
      <path id="DejaVuSans-74" d="M 1172 4494 
L 1172 3500 
L 2356 3500 
L 2356 3053 
L 1172 3053 
L 1172 1153 
Q 1172 725 1289 603 
Q 1406 481 1766 481 
L 2356 481 
L 2356 0 
L 1766 0 
Q 1100 0 847 248 
Q 594 497 594 1153 
L 594 3053 
L 172 3053 
L 172 3500 
L 594 3500 
L 594 4494 
L 1172 4494 
z
" transform="scale(0.015625)"/>
      <path id="DejaVuSans-63" d="M 3122 3366 
L 3122 2828 
Q 2878 2963 2633 3030 
Q 2388 3097 2138 3097 
Q 1578 3097 1268 2742 
Q 959 2388 959 1747 
Q 959 1106 1268 751 
Q 1578 397 2138 397 
Q 2388 397 2633 464 
Q 2878 531 3122 666 
L 3122 134 
Q 2881 22 2623 -34 
Q 2366 -91 2075 -91 
Q 1284 -91 818 406 
Q 353 903 353 1747 
Q 353 2603 823 3093 
Q 1294 3584 2113 3584 
Q 2378 3584 2631 3529 
Q 2884 3475 3122 3366 
z
" transform="scale(0.015625)"/>
      <path id="DejaVuSans-68" d="M 3513 2113 
L 3513 0 
L 2938 0 
L 2938 2094 
Q 2938 2591 2744 2837 
Q 2550 3084 2163 3084 
Q 1697 3084 1428 2787 
Q 1159 2491 1159 1978 
L 1159 0 
L 581 0 
L 581 4863 
L 1159 4863 
L 1159 2956 
Q 1366 3272 1645 3428 
Q 1925 3584 2291 3584 
Q 2894 3584 3203 3211 
Q 3513 2838 3513 2113 
z
" transform="scale(0.015625)"/>
      <path id="DejaVuSans-2c" d="M 750 794 
L 1409 794 
L 1409 256 
L 897 -744 
L 494 -744 
L 750 256 
L 750 794 
z
" transform="scale(0.015625)"/>
      <path id="DejaVuSans-69" d="M 603 3500 
L 1178 3500 
L 1178 0 
L 603 0 
L 603 3500 
z
M 603 4863 
L 1178 4863 
L 1178 4134 
L 603 4134 
L 603 4863 
z
" transform="scale(0.015625)"/>
      <path id="DejaVuSans-6e" d="M 3513 2113 
L 3513 0 
L 2938 0 
L 2938 2094 
Q 2938 2591 2744 2837 
Q 2550 3084 2163 3084 
Q 1697 3084 1428 2787 
Q 1159 2491 1159 1978 
L 1159 0 
L 581 0 
L 581 3500 
L 1159 3500 
L 1159 2956 
Q 1366 3272 1645 3428 
Q 1925 3584 2291 3584 
Q 2894 3584 3203 3211 
Q 3513 2838 3513 2113 
z
" transform="scale(0.015625)"/>
      <path id="DejaVuSans-76" d="M 191 3500 
L 800 3500 
L 1894 563 
L 2988 3500 
L 3597 3500 
L 2284 0 
L 1503 0 
L 191 3500 
z
" transform="scale(0.015625)"/>
      <path id="DejaVuSans-6f" d="M 1959 3097 
Q 1497 3097 1228 2736 
Q 959 2375 959 1747 
Q 959 1119 1226 758 
Q 1494 397 1959 397 
Q 2419 397 2687 759 
Q 2956 1122 2956 1747 
Q 2956 2369 2687 2733 
Q 2419 3097 1959 3097 
z
M 1959 3584 
Q 2709 3584 3137 3096 
Q 3566 2609 3566 1747 
Q 3566 888 3137 398 
Q 2709 -91 1959 -91 
Q 1206 -91 779 398 
Q 353 888 353 1747 
Q 353 2609 779 3096 
Q 1206 3584 1959 3584 
z
" transform="scale(0.015625)"/>
      <path id="DejaVuSans-65" d="M 3597 1894 
L 3597 1613 
L 953 1613 
Q 991 1019 1311 708 
Q 1631 397 2203 397 
Q 2534 397 2845 478 
Q 3156 559 3463 722 
L 3463 178 
Q 3153 47 2828 -22 
Q 2503 -91 2169 -91 
Q 1331 -91 842 396 
Q 353 884 353 1716 
Q 353 2575 817 3079 
Q 1281 3584 2069 3584 
Q 2775 3584 3186 3129 
Q 3597 2675 3597 1894 
z
M 3022 2063 
Q 3016 2534 2758 2815 
Q 2500 3097 2075 3097 
Q 1594 3097 1305 2825 
Q 1016 2553 972 2059 
L 3022 2063 
z
" transform="scale(0.015625)"/>
      <path id="DejaVuSans-66" d="M 2375 4863 
L 2375 4384 
L 1825 4384 
Q 1516 4384 1395 4259 
Q 1275 4134 1275 3809 
L 1275 3500 
L 2222 3500 
L 2222 3053 
L 1275 3053 
L 1275 0 
L 697 0 
L 697 3053 
L 147 3053 
L 147 3500 
L 697 3500 
L 697 3744 
Q 697 4328 969 4595 
Q 1241 4863 1831 4863 
L 2375 4863 
z
" transform="scale(0.015625)"/>
      <path id="DejaVuSans-72" d="M 2631 2963 
Q 2534 3019 2420 3045 
Q 2306 3072 2169 3072 
Q 1681 3072 1420 2755 
Q 1159 2438 1159 1844 
L 1159 0 
L 581 0 
L 581 3500 
L 1159 3500 
L 1159 2956 
Q 1341 3275 1631 3429 
Q 1922 3584 2338 3584 
Q 2397 3584 2469 3576 
Q 2541 3569 2628 3553 
L 2631 2963 
z
" transform="scale(0.015625)"/>
      <path id="DejaVuSans-47" d="M 3809 666 
L 3809 1919 
L 2778 1919 
L 2778 2438 
L 4434 2438 
L 4434 434 
Q 4069 175 3628 42 
Q 3188 -91 2688 -91 
Q 1594 -91 976 548 
Q 359 1188 359 2328 
Q 359 3472 976 4111 
Q 1594 4750 2688 4750 
Q 3144 4750 3555 4637 
Q 3966 4525 4313 4306 
L 4313 3634 
Q 3963 3931 3569 4081 
Q 3175 4231 2741 4231 
Q 1884 4231 1454 3753 
Q 1025 3275 1025 2328 
Q 1025 1384 1454 906 
Q 1884 428 2741 428 
Q 3075 428 3337 486 
Q 3600 544 3809 666 
z
" transform="scale(0.015625)"/>
      <path id="DejaVuSans-52" d="M 2841 2188 
Q 3044 2119 3236 1894 
Q 3428 1669 3622 1275 
L 4263 0 
L 3584 0 
L 2988 1197 
Q 2756 1666 2539 1819 
Q 2322 1972 1947 1972 
L 1259 1972 
L 1259 0 
L 628 0 
L 628 4666 
L 2053 4666 
Q 2853 4666 3247 4331 
Q 3641 3997 3641 3322 
Q 3641 2881 3436 2590 
Q 3231 2300 2841 2188 
z
M 1259 4147 
L 1259 2491 
L 2053 2491 
Q 2509 2491 2742 2702 
Q 2975 2913 2975 3322 
Q 2975 3731 2742 3939 
Q 2509 4147 2053 4147 
L 1259 4147 
z
" transform="scale(0.015625)"/>
      <path id="DejaVuSans-70" d="M 1159 525 
L 1159 -1331 
L 581 -1331 
L 581 3500 
L 1159 3500 
L 1159 2969 
Q 1341 3281 1617 3432 
Q 1894 3584 2278 3584 
Q 2916 3584 3314 3078 
Q 3713 2572 3713 1747 
Q 3713 922 3314 415 
Q 2916 -91 2278 -91 
Q 1894 -91 1617 61 
Q 1341 213 1159 525 
z
M 3116 1747 
Q 3116 2381 2855 2742 
Q 2594 3103 2138 3103 
Q 1681 3103 1420 2742 
Q 1159 2381 1159 1747 
Q 1159 1113 1420 752 
Q 1681 391 2138 391 
Q 2594 391 2855 752 
Q 3116 1113 3116 1747 
z
" transform="scale(0.015625)"/>
      <path id="DejaVuSans-3a" d="M 750 794 
L 1409 794 
L 1409 0 
L 750 0 
L 750 794 
z
M 750 3309 
L 1409 3309 
L 1409 2516 
L 750 2516 
L 750 3309 
z
" transform="scale(0.015625)"/>
     </defs>
     <use xlink:href="#DejaVuSans-33"/>
     <use xlink:href="#DejaVuSans-2d" x="63.623047"/>
     <use xlink:href="#DejaVuSans-77" x="99.707031"/>
     <use xlink:href="#DejaVuSans-61" x="181.494141"/>
     <use xlink:href="#DejaVuSans-79" x="242.773438"/>
     <use xlink:href="#DejaVuSans-5f" x="301.953125"/>
     <use xlink:href="#DejaVuSans-6d" x="351.953125"/>
     <use xlink:href="#DejaVuSans-61" x="449.365234"/>
     <use xlink:href="#DejaVuSans-74" x="510.644531"/>
     <use xlink:href="#DejaVuSans-63" x="549.853516"/>
     <use xlink:href="#DejaVuSans-68" x="604.833984"/>
     <use xlink:href="#DejaVuSans-2c" x="668.212891"/>
     <use xlink:href="#DejaVuSans-5f" x="700"/>
     <use xlink:href="#DejaVuSans-69" x="750"/>
     <use xlink:href="#DejaVuSans-6e" x="777.783203"/>
     <use xlink:href="#DejaVuSans-76" x="841.162109"/>
     <use xlink:href="#DejaVuSans-6f" x="900.341797"/>
     <use xlink:href="#DejaVuSans-69" x="961.523438"/>
     <use xlink:href="#DejaVuSans-63" x="989.306641"/>
     <use xlink:href="#DejaVuSans-65" x="1044.287109"/>
     <use xlink:href="#DejaVuSans-5f" x="1105.810547"/>
     <use xlink:href="#DejaVuSans-61" x="1155.810547"/>
     <use xlink:href="#DejaVuSans-66" x="1217.089844"/>
     <use xlink:href="#DejaVuSans-74" x="1250.544922"/>
     <use xlink:href="#DejaVuSans-65" x="1289.753906"/>
     <use xlink:href="#DejaVuSans-72" x="1351.277344"/>
     <use xlink:href="#DejaVuSans-5f" x="1392.390625"/>
     <use xlink:href="#DejaVuSans-47" x="1442.390625"/>
     <use xlink:href="#DejaVuSans-52" x="1519.880859"/>
     <use xlink:href="#DejaVuSans-5f" x="1589.363281"/>
     <use xlink:href="#DejaVuSans-63" x="1639.363281"/>
     <use xlink:href="#DejaVuSans-6f" x="1694.34375"/>
     <use xlink:href="#DejaVuSans-6e" x="1755.525391"/>
     <use xlink:href="#DejaVuSans-63" x="1818.904297"/>
     <use xlink:href="#DejaVuSans-65" x="1873.884766"/>
     <use xlink:href="#DejaVuSans-70" x="1935.408203"/>
     <use xlink:href="#DejaVuSans-74" x="1998.884766"/>
     <use xlink:href="#DejaVuSans-3a" x="2038.09375"/>
     <use xlink:href="#DejaVuSans-6e" x="2071.785156"/>
     <use xlink:href="#DejaVuSans-61" x="2135.164062"/>
     <use xlink:href="#DejaVuSans-6d" x="2196.443359"/>
     <use xlink:href="#DejaVuSans-65" x="2293.855469"/>
    </g>
   </g>
   <g id="legend_1">
    <g id="patch_9">
     <path d="M 266.948125 149.56675 
L 438.295 149.56675 
Q 440.295 149.56675 440.295 147.56675 
L 440.295 31.14175 
Q 440.295 29.14175 438.295 29.14175 
L 266.948125 29.14175 
Q 264.948125 29.14175 264.948125 31.14175 
L 264.948125 147.56675 
Q 264.948125 149.56675 266.948125 149.56675 
z
" style="fill: #e5e5e5; opacity: 0.8; stroke: #cccccc; stroke-width: 0.5; stroke-linejoin: miter"/>
    </g>
    <g id="text_9">
     <!-- Ingredients -->
     <g transform="translate(324.410625 40.740187)scale(0.1 -0.1)">
      <defs>
       <path id="DejaVuSans-49" d="M 628 4666 
L 1259 4666 
L 1259 0 
L 628 0 
L 628 4666 
z
" transform="scale(0.015625)"/>
       <path id="DejaVuSans-67" d="M 2906 1791 
Q 2906 2416 2648 2759 
Q 2391 3103 1925 3103 
Q 1463 3103 1205 2759 
Q 947 2416 947 1791 
Q 947 1169 1205 825 
Q 1463 481 1925 481 
Q 2391 481 2648 825 
Q 2906 1169 2906 1791 
z
M 3481 434 
Q 3481 -459 3084 -895 
Q 2688 -1331 1869 -1331 
Q 1566 -1331 1297 -1286 
Q 1028 -1241 775 -1147 
L 775 -588 
Q 1028 -725 1275 -790 
Q 1522 -856 1778 -856 
Q 2344 -856 2625 -561 
Q 2906 -266 2906 331 
L 2906 616 
Q 2728 306 2450 153 
Q 2172 0 1784 0 
Q 1141 0 747 490 
Q 353 981 353 1791 
Q 353 2603 747 3093 
Q 1141 3584 1784 3584 
Q 2172 3584 2450 3431 
Q 2728 3278 2906 2969 
L 2906 3500 
L 3481 3500 
L 3481 434 
z
" transform="scale(0.015625)"/>
       <path id="DejaVuSans-64" d="M 2906 2969 
L 2906 4863 
L 3481 4863 
L 3481 0 
L 2906 0 
L 2906 525 
Q 2725 213 2448 61 
Q 2172 -91 1784 -91 
Q 1150 -91 751 415 
Q 353 922 353 1747 
Q 353 2572 751 3078 
Q 1150 3584 1784 3584 
Q 2172 3584 2448 3432 
Q 2725 3281 2906 2969 
z
M 947 1747 
Q 947 1113 1208 752 
Q 1469 391 1925 391 
Q 2381 391 2643 752 
Q 2906 1113 2906 1747 
Q 2906 2381 2643 2742 
Q 2381 3103 1925 3103 
Q 1469 3103 1208 2742 
Q 947 2381 947 1747 
z
" transform="scale(0.015625)"/>
       <path id="DejaVuSans-73" d="M 2834 3397 
L 2834 2853 
Q 2591 2978 2328 3040 
Q 2066 3103 1784 3103 
Q 1356 3103 1142 2972 
Q 928 2841 928 2578 
Q 928 2378 1081 2264 
Q 1234 2150 1697 2047 
L 1894 2003 
Q 2506 1872 2764 1633 
Q 3022 1394 3022 966 
Q 3022 478 2636 193 
Q 2250 -91 1575 -91 
Q 1294 -91 989 -36 
Q 684 19 347 128 
L 347 722 
Q 666 556 975 473 
Q 1284 391 1588 391 
Q 1994 391 2212 530 
Q 2431 669 2431 922 
Q 2431 1156 2273 1281 
Q 2116 1406 1581 1522 
L 1381 1569 
Q 847 1681 609 1914 
Q 372 2147 372 2553 
Q 372 3047 722 3315 
Q 1072 3584 1716 3584 
Q 2034 3584 2315 3537 
Q 2597 3491 2834 3397 
z
" transform="scale(0.015625)"/>
      </defs>
      <use xlink:href="#DejaVuSans-49"/>
      <use xlink:href="#DejaVuSans-6e" x="29.492188"/>
      <use xlink:href="#DejaVuSans-67" x="92.871094"/>
      <use xlink:href="#DejaVuSans-72" x="156.347656"/>
      <use xlink:href="#DejaVuSans-65" x="195.210938"/>
      <use xlink:href="#DejaVuSans-64" x="256.734375"/>
      <use xlink:href="#DejaVuSans-69" x="320.210938"/>
      <use xlink:href="#DejaVuSans-65" x="347.994141"/>
      <use xlink:href="#DejaVuSans-6e" x="409.517578"/>
      <use xlink:href="#DejaVuSans-74" x="472.896484"/>
      <use xlink:href="#DejaVuSans-73" x="512.105469"/>
     </g>
    </g>
    <g id="patch_10">
     <path d="M 268.948125 55.418313 
L 288.948125 55.418313 
L 288.948125 48.418313 
L 268.948125 48.418313 
z
" style="fill: #e24a33"/>
    </g>
    <g id="text_10">
     <!-- Record Goods Receipt -->
     <g transform="translate(296.948125 55.418313)scale(0.1 -0.1)">
      <defs>
       <path id="DejaVuSans-20" transform="scale(0.015625)"/>
      </defs>
      <use xlink:href="#DejaVuSans-52"/>
      <use xlink:href="#DejaVuSans-65" x="64.982422"/>
      <use xlink:href="#DejaVuSans-63" x="126.505859"/>
      <use xlink:href="#DejaVuSans-6f" x="181.486328"/>
      <use xlink:href="#DejaVuSans-72" x="242.667969"/>
      <use xlink:href="#DejaVuSans-64" x="282.03125"/>
      <use xlink:href="#DejaVuSans-20" x="345.507812"/>
      <use xlink:href="#DejaVuSans-47" x="377.294922"/>
      <use xlink:href="#DejaVuSans-6f" x="454.785156"/>
      <use xlink:href="#DejaVuSans-6f" x="515.966797"/>
      <use xlink:href="#DejaVuSans-64" x="577.148438"/>
      <use xlink:href="#DejaVuSans-73" x="640.625"/>
      <use xlink:href="#DejaVuSans-20" x="692.724609"/>
      <use xlink:href="#DejaVuSans-52" x="724.511719"/>
      <use xlink:href="#DejaVuSans-65" x="789.494141"/>
      <use xlink:href="#DejaVuSans-63" x="851.017578"/>
      <use xlink:href="#DejaVuSans-65" x="905.998047"/>
      <use xlink:href="#DejaVuSans-69" x="967.521484"/>
      <use xlink:href="#DejaVuSans-70" x="995.304688"/>
      <use xlink:href="#DejaVuSans-74" x="1058.78125"/>
     </g>
    </g>
    <g id="patch_11">
     <path d="M 268.948125 70.096438 
L 288.948125 70.096438 
L 288.948125 63.096438 
L 268.948125 63.096438 
z
" style="fill: #348abd"/>
    </g>
    <g id="text_11">
     <!-- Record Invoice Receipt -->
     <g transform="translate(296.948125 70.096438)scale(0.1 -0.1)">
      <use xlink:href="#DejaVuSans-52"/>
      <use xlink:href="#DejaVuSans-65" x="64.982422"/>
      <use xlink:href="#DejaVuSans-63" x="126.505859"/>
      <use xlink:href="#DejaVuSans-6f" x="181.486328"/>
      <use xlink:href="#DejaVuSans-72" x="242.667969"/>
      <use xlink:href="#DejaVuSans-64" x="282.03125"/>
      <use xlink:href="#DejaVuSans-20" x="345.507812"/>
      <use xlink:href="#DejaVuSans-49" x="377.294922"/>
      <use xlink:href="#DejaVuSans-6e" x="406.787109"/>
      <use xlink:href="#DejaVuSans-76" x="470.166016"/>
      <use xlink:href="#DejaVuSans-6f" x="529.345703"/>
      <use xlink:href="#DejaVuSans-69" x="590.527344"/>
      <use xlink:href="#DejaVuSans-63" x="618.310547"/>
      <use xlink:href="#DejaVuSans-65" x="673.291016"/>
      <use xlink:href="#DejaVuSans-20" x="734.814453"/>
      <use xlink:href="#DejaVuSans-52" x="766.601562"/>
      <use xlink:href="#DejaVuSans-65" x="831.583984"/>
      <use xlink:href="#DejaVuSans-63" x="893.107422"/>
      <use xlink:href="#DejaVuSans-65" x="948.087891"/>
      <use xlink:href="#DejaVuSans-69" x="1009.611328"/>
      <use xlink:href="#DejaVuSans-70" x="1037.394531"/>
      <use xlink:href="#DejaVuSans-74" x="1100.871094"/>
     </g>
    </g>
    <g id="patch_12">
     <path d="M 268.948125 84.774563 
L 288.948125 84.774563 
L 288.948125 77.774563 
L 268.948125 77.774563 
z
" style="fill: #988ed5"/>
    </g>
    <g id="text_12">
     <!-- Vendor creates invoice -->
     <g transform="translate(296.948125 84.774563)scale(0.1 -0.1)">
      <defs>
       <path id="DejaVuSans-56" d="M 1831 0 
L 50 4666 
L 709 4666 
L 2188 738 
L 3669 4666 
L 4325 4666 
L 2547 0 
L 1831 0 
z
" transform="scale(0.015625)"/>
      </defs>
      <use xlink:href="#DejaVuSans-56"/>
      <use xlink:href="#DejaVuSans-65" x="60.658203"/>
      <use xlink:href="#DejaVuSans-6e" x="122.181641"/>
      <use xlink:href="#DejaVuSans-64" x="185.560547"/>
      <use xlink:href="#DejaVuSans-6f" x="249.037109"/>
      <use xlink:href="#DejaVuSans-72" x="310.21875"/>
      <use xlink:href="#DejaVuSans-20" x="351.332031"/>
      <use xlink:href="#DejaVuSans-63" x="383.119141"/>
      <use xlink:href="#DejaVuSans-72" x="438.099609"/>
      <use xlink:href="#DejaVuSans-65" x="476.962891"/>
      <use xlink:href="#DejaVuSans-61" x="538.486328"/>
      <use xlink:href="#DejaVuSans-74" x="599.765625"/>
      <use xlink:href="#DejaVuSans-65" x="638.974609"/>
      <use xlink:href="#DejaVuSans-73" x="700.498047"/>
      <use xlink:href="#DejaVuSans-20" x="752.597656"/>
      <use xlink:href="#DejaVuSans-69" x="784.384766"/>
      <use xlink:href="#DejaVuSans-6e" x="812.167969"/>
      <use xlink:href="#DejaVuSans-76" x="875.546875"/>
      <use xlink:href="#DejaVuSans-6f" x="934.726562"/>
      <use xlink:href="#DejaVuSans-69" x="995.908203"/>
      <use xlink:href="#DejaVuSans-63" x="1023.691406"/>
      <use xlink:href="#DejaVuSans-65" x="1078.671875"/>
     </g>
    </g>
    <g id="patch_13">
     <path d="M 268.948125 99.452688 
L 288.948125 99.452688 
L 288.948125 92.452688 
L 268.948125 92.452688 
z
" style="fill: #777777"/>
    </g>
    <g id="text_13">
     <!-- Clear Invoice -->
     <g transform="translate(296.948125 99.452688)scale(0.1 -0.1)">
      <defs>
       <path id="DejaVuSans-43" d="M 4122 4306 
L 4122 3641 
Q 3803 3938 3442 4084 
Q 3081 4231 2675 4231 
Q 1875 4231 1450 3742 
Q 1025 3253 1025 2328 
Q 1025 1406 1450 917 
Q 1875 428 2675 428 
Q 3081 428 3442 575 
Q 3803 722 4122 1019 
L 4122 359 
Q 3791 134 3420 21 
Q 3050 -91 2638 -91 
Q 1578 -91 968 557 
Q 359 1206 359 2328 
Q 359 3453 968 4101 
Q 1578 4750 2638 4750 
Q 3056 4750 3426 4639 
Q 3797 4528 4122 4306 
z
" transform="scale(0.015625)"/>
       <path id="DejaVuSans-6c" d="M 603 4863 
L 1178 4863 
L 1178 0 
L 603 0 
L 603 4863 
z
" transform="scale(0.015625)"/>
      </defs>
      <use xlink:href="#DejaVuSans-43"/>
      <use xlink:href="#DejaVuSans-6c" x="69.824219"/>
      <use xlink:href="#DejaVuSans-65" x="97.607422"/>
      <use xlink:href="#DejaVuSans-61" x="159.130859"/>
      <use xlink:href="#DejaVuSans-72" x="220.410156"/>
      <use xlink:href="#DejaVuSans-20" x="261.523438"/>
      <use xlink:href="#DejaVuSans-49" x="293.310547"/>
      <use xlink:href="#DejaVuSans-6e" x="322.802734"/>
      <use xlink:href="#DejaVuSans-76" x="386.181641"/>
      <use xlink:href="#DejaVuSans-6f" x="445.361328"/>
      <use xlink:href="#DejaVuSans-69" x="506.542969"/>
      <use xlink:href="#DejaVuSans-63" x="534.326172"/>
      <use xlink:href="#DejaVuSans-65" x="589.306641"/>
     </g>
    </g>
    <g id="patch_14">
     <path d="M 268.948125 114.130813 
L 288.948125 114.130813 
L 288.948125 107.130813 
L 268.948125 107.130813 
z
" style="fill: #fbc15e"/>
    </g>
    <g id="text_14">
     <!-- Create Purchase Order Item -->
     <g transform="translate(296.948125 114.130813)scale(0.1 -0.1)">
      <defs>
       <path id="DejaVuSans-50" d="M 1259 4147 
L 1259 2394 
L 2053 2394 
Q 2494 2394 2734 2622 
Q 2975 2850 2975 3272 
Q 2975 3691 2734 3919 
Q 2494 4147 2053 4147 
L 1259 4147 
z
M 628 4666 
L 2053 4666 
Q 2838 4666 3239 4311 
Q 3641 3956 3641 3272 
Q 3641 2581 3239 2228 
Q 2838 1875 2053 1875 
L 1259 1875 
L 1259 0 
L 628 0 
L 628 4666 
z
" transform="scale(0.015625)"/>
       <path id="DejaVuSans-75" d="M 544 1381 
L 544 3500 
L 1119 3500 
L 1119 1403 
Q 1119 906 1312 657 
Q 1506 409 1894 409 
Q 2359 409 2629 706 
Q 2900 1003 2900 1516 
L 2900 3500 
L 3475 3500 
L 3475 0 
L 2900 0 
L 2900 538 
Q 2691 219 2414 64 
Q 2138 -91 1772 -91 
Q 1169 -91 856 284 
Q 544 659 544 1381 
z
M 1991 3584 
L 1991 3584 
z
" transform="scale(0.015625)"/>
       <path id="DejaVuSans-4f" d="M 2522 4238 
Q 1834 4238 1429 3725 
Q 1025 3213 1025 2328 
Q 1025 1447 1429 934 
Q 1834 422 2522 422 
Q 3209 422 3611 934 
Q 4013 1447 4013 2328 
Q 4013 3213 3611 3725 
Q 3209 4238 2522 4238 
z
M 2522 4750 
Q 3503 4750 4090 4092 
Q 4678 3434 4678 2328 
Q 4678 1225 4090 567 
Q 3503 -91 2522 -91 
Q 1538 -91 948 565 
Q 359 1222 359 2328 
Q 359 3434 948 4092 
Q 1538 4750 2522 4750 
z
" transform="scale(0.015625)"/>
      </defs>
      <use xlink:href="#DejaVuSans-43"/>
      <use xlink:href="#DejaVuSans-72" x="69.824219"/>
      <use xlink:href="#DejaVuSans-65" x="108.6875"/>
      <use xlink:href="#DejaVuSans-61" x="170.210938"/>
      <use xlink:href="#DejaVuSans-74" x="231.490234"/>
      <use xlink:href="#DejaVuSans-65" x="270.699219"/>
      <use xlink:href="#DejaVuSans-20" x="332.222656"/>
      <use xlink:href="#DejaVuSans-50" x="364.009766"/>
      <use xlink:href="#DejaVuSans-75" x="422.5625"/>
      <use xlink:href="#DejaVuSans-72" x="485.941406"/>
      <use xlink:href="#DejaVuSans-63" x="524.804688"/>
      <use xlink:href="#DejaVuSans-68" x="579.785156"/>
      <use xlink:href="#DejaVuSans-61" x="643.164062"/>
      <use xlink:href="#DejaVuSans-73" x="704.443359"/>
      <use xlink:href="#DejaVuSans-65" x="756.542969"/>
      <use xlink:href="#DejaVuSans-20" x="818.066406"/>
      <use xlink:href="#DejaVuSans-4f" x="849.853516"/>
      <use xlink:href="#DejaVuSans-72" x="928.564453"/>
      <use xlink:href="#DejaVuSans-64" x="967.927734"/>
      <use xlink:href="#DejaVuSans-65" x="1031.404297"/>
      <use xlink:href="#DejaVuSans-72" x="1092.927734"/>
      <use xlink:href="#DejaVuSans-20" x="1134.041016"/>
      <use xlink:href="#DejaVuSans-49" x="1165.828125"/>
      <use xlink:href="#DejaVuSans-74" x="1195.320312"/>
      <use xlink:href="#DejaVuSans-65" x="1234.529297"/>
      <use xlink:href="#DejaVuSans-6d" x="1296.052734"/>
     </g>
    </g>
    <g id="patch_15">
     <path d="M 268.948125 128.808938 
L 288.948125 128.808938 
L 288.948125 121.808938 
L 268.948125 121.808938 
z
" style="fill: #8eba42"/>
    </g>
    <g id="text_15">
     <!-- Record Service Entry Sheet -->
     <g transform="translate(296.948125 128.808938)scale(0.1 -0.1)">
      <defs>
       <path id="DejaVuSans-53" d="M 3425 4513 
L 3425 3897 
Q 3066 4069 2747 4153 
Q 2428 4238 2131 4238 
Q 1616 4238 1336 4038 
Q 1056 3838 1056 3469 
Q 1056 3159 1242 3001 
Q 1428 2844 1947 2747 
L 2328 2669 
Q 3034 2534 3370 2195 
Q 3706 1856 3706 1288 
Q 3706 609 3251 259 
Q 2797 -91 1919 -91 
Q 1588 -91 1214 -16 
Q 841 59 441 206 
L 441 856 
Q 825 641 1194 531 
Q 1563 422 1919 422 
Q 2459 422 2753 634 
Q 3047 847 3047 1241 
Q 3047 1584 2836 1778 
Q 2625 1972 2144 2069 
L 1759 2144 
Q 1053 2284 737 2584 
Q 422 2884 422 3419 
Q 422 4038 858 4394 
Q 1294 4750 2059 4750 
Q 2388 4750 2728 4690 
Q 3069 4631 3425 4513 
z
" transform="scale(0.015625)"/>
       <path id="DejaVuSans-45" d="M 628 4666 
L 3578 4666 
L 3578 4134 
L 1259 4134 
L 1259 2753 
L 3481 2753 
L 3481 2222 
L 1259 2222 
L 1259 531 
L 3634 531 
L 3634 0 
L 628 0 
L 628 4666 
z
" transform="scale(0.015625)"/>
      </defs>
      <use xlink:href="#DejaVuSans-52"/>
      <use xlink:href="#DejaVuSans-65" x="64.982422"/>
      <use xlink:href="#DejaVuSans-63" x="126.505859"/>
      <use xlink:href="#DejaVuSans-6f" x="181.486328"/>
      <use xlink:href="#DejaVuSans-72" x="242.667969"/>
      <use xlink:href="#DejaVuSans-64" x="282.03125"/>
      <use xlink:href="#DejaVuSans-20" x="345.507812"/>
      <use xlink:href="#DejaVuSans-53" x="377.294922"/>
      <use xlink:href="#DejaVuSans-65" x="440.771484"/>
      <use xlink:href="#DejaVuSans-72" x="502.294922"/>
      <use xlink:href="#DejaVuSans-76" x="543.408203"/>
      <use xlink:href="#DejaVuSans-69" x="602.587891"/>
      <use xlink:href="#DejaVuSans-63" x="630.371094"/>
      <use xlink:href="#DejaVuSans-65" x="685.351562"/>
      <use xlink:href="#DejaVuSans-20" x="746.875"/>
      <use xlink:href="#DejaVuSans-45" x="778.662109"/>
      <use xlink:href="#DejaVuSans-6e" x="841.845703"/>
      <use xlink:href="#DejaVuSans-74" x="905.224609"/>
      <use xlink:href="#DejaVuSans-72" x="944.433594"/>
      <use xlink:href="#DejaVuSans-79" x="985.546875"/>
      <use xlink:href="#DejaVuSans-20" x="1044.726562"/>
      <use xlink:href="#DejaVuSans-53" x="1076.513672"/>
      <use xlink:href="#DejaVuSans-68" x="1139.990234"/>
      <use xlink:href="#DejaVuSans-65" x="1203.369141"/>
      <use xlink:href="#DejaVuSans-65" x="1264.892578"/>
      <use xlink:href="#DejaVuSans-74" x="1326.416016"/>
     </g>
    </g>
    <g id="patch_16">
     <path d="M 268.948125 143.487063 
L 288.948125 143.487063 
L 288.948125 136.487063 
L 268.948125 136.487063 
z
" style="fill: #ffb5b8"/>
    </g>
    <g id="text_16">
     <!-- others -->
     <g transform="translate(296.948125 143.487063)scale(0.1 -0.1)">
      <use xlink:href="#DejaVuSans-6f"/>
      <use xlink:href="#DejaVuSans-74" x="61.181641"/>
      <use xlink:href="#DejaVuSans-68" x="100.390625"/>
      <use xlink:href="#DejaVuSans-65" x="163.769531"/>
      <use xlink:href="#DejaVuSans-72" x="225.292969"/>
      <use xlink:href="#DejaVuSans-73" x="266.40625"/>
     </g>
    </g>
   </g>
  </g>
 </g>
</svg>
