<?xml version="1.0" encoding="utf-8" standalone="no"?>
<!DOCTYPE svg PUBLIC "-//W3C//DTD SVG 1.1//EN"
  "http://www.w3.org/Graphics/SVG/1.1/DTD/svg11.dtd">
<svg xmlns:xlink="http://www.w3.org/1999/xlink" width="406.84575pt" height="329.745625pt" viewBox="0 0 406.84575 329.745625" xmlns="http://www.w3.org/2000/svg" version="1.1">
 <metadata>
  <rdf:RDF xmlns:dc="http://purl.org/dc/elements/1.1/" xmlns:cc="http://creativecommons.org/ns#" xmlns:rdf="http://www.w3.org/1999/02/22-rdf-syntax-ns#">
   <cc:Work>
    <dc:type rdf:resource="http://purl.org/dc/dcmitype/StillImage"/>
    <dc:date>2022-01-23T23:56:56.593548</dc:date>
    <dc:format>image/svg+xml</dc:format>
    <dc:creator>
     <cc:Agent>
      <dc:title>Matplotlib v3.5.1, https://matplotlib.org/</dc:title>
     </cc:Agent>
    </dc:creator>
   </cc:Work>
  </rdf:RDF>
 </metadata>
 <defs>
  <style type="text/css">*{stroke-linejoin: round; stroke-linecap: butt}</style>
 </defs>
 <g id="figure_1">
  <g id="patch_1">
   <path d="M 0 329.745625 
L 406.84575 329.745625 
L 406.84575 0 
L 0 0 
z
" style="fill: #ffffff"/>
  </g>
  <g id="axes_1">
   <g id="patch_2">
    <path d="M 36.17625 290.25375 
L 393.29625 290.25375 
L 393.29625 24.14175 
L 36.17625 24.14175 
z
" style="fill: #e5e5e5"/>
   </g>
   <g id="matplotlib.axis_1">
    <g id="xtick_1">
     <g id="line2d_1">
      <path d="M 53.062206 290.25375 
L 53.062206 24.14175 
" clip-path="url(#pd5077c0e37)" style="fill: none; stroke: #ffffff; stroke-width: 0.8; stroke-linecap: square"/>
     </g>
     <g id="line2d_2">
      <defs>
       <path id="m3ec9ae601b" d="M 0 0 
L 0 3.5 
" style="stroke: #555555; stroke-width: 0.8"/>
      </defs>
      <g>
       <use xlink:href="#m3ec9ae601b" x="53.062206" y="290.25375" style="fill: #555555; stroke: #555555; stroke-width: 0.8"/>
      </g>
     </g>
     <g id="text_1">
      <!-- 0 -->
      <g style="fill: #555555" transform="translate(49.880956 304.852187)scale(0.1 -0.1)">
       <defs>
        <path id="DejaVuSans-30" d="M 2034 4250 
Q 1547 4250 1301 3770 
Q 1056 3291 1056 2328 
Q 1056 1369 1301 889 
Q 1547 409 2034 409 
Q 2525 409 2770 889 
Q 3016 1369 3016 2328 
Q 3016 3291 2770 3770 
Q 2525 4250 2034 4250 
z
M 2034 4750 
Q 2819 4750 3233 4129 
Q 3647 3509 3647 2328 
Q 3647 1150 3233 529 
Q 2819 -91 2034 -91 
Q 1250 -91 836 529 
Q 422 1150 422 2328 
Q 422 3509 836 4129 
Q 1250 4750 2034 4750 
z
" transform="scale(0.015625)"/>
       </defs>
       <use xlink:href="#DejaVuSans-30"/>
      </g>
     </g>
    </g>
    <g id="xtick_2">
     <g id="line2d_3">
      <path d="M 79.191344 290.25375 
L 79.191344 24.14175 
" clip-path="url(#pd5077c0e37)" style="fill: none; stroke: #ffffff; stroke-width: 0.8; stroke-linecap: square"/>
     </g>
     <g id="line2d_4">
      <g>
       <use xlink:href="#m3ec9ae601b" x="79.191344" y="290.25375" style="fill: #555555; stroke: #555555; stroke-width: 0.8"/>
      </g>
     </g>
     <g id="text_2">
      <!-- 8 -->
      <g style="fill: #555555" transform="translate(76.010094 304.852187)scale(0.1 -0.1)">
       <defs>
        <path id="DejaVuSans-38" d="M 2034 2216 
Q 1584 2216 1326 1975 
Q 1069 1734 1069 1313 
Q 1069 891 1326 650 
Q 1584 409 2034 409 
Q 2484 409 2743 651 
Q 3003 894 3003 1313 
Q 3003 1734 2745 1975 
Q 2488 2216 2034 2216 
z
M 1403 2484 
Q 997 2584 770 2862 
Q 544 3141 544 3541 
Q 544 4100 942 4425 
Q 1341 4750 2034 4750 
Q 2731 4750 3128 4425 
Q 3525 4100 3525 3541 
Q 3525 3141 3298 2862 
Q 3072 2584 2669 2484 
Q 3125 2378 3379 2068 
Q 3634 1759 3634 1313 
Q 3634 634 3220 271 
Q 2806 -91 2034 -91 
Q 1263 -91 848 271 
Q 434 634 434 1313 
Q 434 1759 690 2068 
Q 947 2378 1403 2484 
z
M 1172 3481 
Q 1172 3119 1398 2916 
Q 1625 2713 2034 2713 
Q 2441 2713 2670 2916 
Q 2900 3119 2900 3481 
Q 2900 3844 2670 4047 
Q 2441 4250 2034 4250 
Q 1625 4250 1398 4047 
Q 1172 3844 1172 3481 
z
" transform="scale(0.015625)"/>
       </defs>
       <use xlink:href="#DejaVuSans-38"/>
      </g>
     </g>
    </g>
    <g id="xtick_3">
     <g id="line2d_5">
      <path d="M 105.320483 290.25375 
L 105.320483 24.14175 
" clip-path="url(#pd5077c0e37)" style="fill: none; stroke: #ffffff; stroke-width: 0.8; stroke-linecap: square"/>
     </g>
     <g id="line2d_6">
      <g>
       <use xlink:href="#m3ec9ae601b" x="105.320483" y="290.25375" style="fill: #555555; stroke: #555555; stroke-width: 0.8"/>
      </g>
     </g>
     <g id="text_3">
      <!-- 16 -->
      <g style="fill: #555555" transform="translate(98.957983 304.852187)scale(0.1 -0.1)">
       <defs>
        <path id="DejaVuSans-31" d="M 794 531 
L 1825 531 
L 1825 4091 
L 703 3866 
L 703 4441 
L 1819 4666 
L 2450 4666 
L 2450 531 
L 3481 531 
L 3481 0 
L 794 0 
L 794 531 
z
" transform="scale(0.015625)"/>
        <path id="DejaVuSans-36" d="M 2113 2584 
Q 1688 2584 1439 2293 
Q 1191 2003 1191 1497 
Q 1191 994 1439 701 
Q 1688 409 2113 409 
Q 2538 409 2786 701 
Q 3034 994 3034 1497 
Q 3034 2003 2786 2293 
Q 2538 2584 2113 2584 
z
M 3366 4563 
L 3366 3988 
Q 3128 4100 2886 4159 
Q 2644 4219 2406 4219 
Q 1781 4219 1451 3797 
Q 1122 3375 1075 2522 
Q 1259 2794 1537 2939 
Q 1816 3084 2150 3084 
Q 2853 3084 3261 2657 
Q 3669 2231 3669 1497 
Q 3669 778 3244 343 
Q 2819 -91 2113 -91 
Q 1303 -91 875 529 
Q 447 1150 447 2328 
Q 447 3434 972 4092 
Q 1497 4750 2381 4750 
Q 2619 4750 2861 4703 
Q 3103 4656 3366 4563 
z
" transform="scale(0.015625)"/>
       </defs>
       <use xlink:href="#DejaVuSans-31"/>
       <use xlink:href="#DejaVuSans-36" x="63.623047"/>
      </g>
     </g>
    </g>
    <g id="xtick_4">
     <g id="line2d_7">
      <path d="M 131.449621 290.25375 
L 131.449621 24.14175 
" clip-path="url(#pd5077c0e37)" style="fill: none; stroke: #ffffff; stroke-width: 0.8; stroke-linecap: square"/>
     </g>
     <g id="line2d_8">
      <g>
       <use xlink:href="#m3ec9ae601b" x="131.449621" y="290.25375" style="fill: #555555; stroke: #555555; stroke-width: 0.8"/>
      </g>
     </g>
     <g id="text_4">
      <!-- 24 -->
      <g style="fill: #555555" transform="translate(125.087121 304.852187)scale(0.1 -0.1)">
       <defs>
        <path id="DejaVuSans-32" d="M 1228 531 
L 3431 531 
L 3431 0 
L 469 0 
L 469 531 
Q 828 903 1448 1529 
Q 2069 2156 2228 2338 
Q 2531 2678 2651 2914 
Q 2772 3150 2772 3378 
Q 2772 3750 2511 3984 
Q 2250 4219 1831 4219 
Q 1534 4219 1204 4116 
Q 875 4013 500 3803 
L 500 4441 
Q 881 4594 1212 4672 
Q 1544 4750 1819 4750 
Q 2544 4750 2975 4387 
Q 3406 4025 3406 3419 
Q 3406 3131 3298 2873 
Q 3191 2616 2906 2266 
Q 2828 2175 2409 1742 
Q 1991 1309 1228 531 
z
" transform="scale(0.015625)"/>
        <path id="DejaVuSans-34" d="M 2419 4116 
L 825 1625 
L 2419 1625 
L 2419 4116 
z
M 2253 4666 
L 3047 4666 
L 3047 1625 
L 3713 1625 
L 3713 1100 
L 3047 1100 
L 3047 0 
L 2419 0 
L 2419 1100 
L 313 1100 
L 313 1709 
L 2253 4666 
z
" transform="scale(0.015625)"/>
       </defs>
       <use xlink:href="#DejaVuSans-32"/>
       <use xlink:href="#DejaVuSans-34" x="63.623047"/>
      </g>
     </g>
    </g>
    <g id="xtick_5">
     <g id="line2d_9">
      <path d="M 157.57876 290.25375 
L 157.57876 24.14175 
" clip-path="url(#pd5077c0e37)" style="fill: none; stroke: #ffffff; stroke-width: 0.8; stroke-linecap: square"/>
     </g>
     <g id="line2d_10">
      <g>
       <use xlink:href="#m3ec9ae601b" x="157.57876" y="290.25375" style="fill: #555555; stroke: #555555; stroke-width: 0.8"/>
      </g>
     </g>
     <g id="text_5">
      <!-- 32 -->
      <g style="fill: #555555" transform="translate(151.21626 304.852187)scale(0.1 -0.1)">
       <defs>
        <path id="DejaVuSans-33" d="M 2597 2516 
Q 3050 2419 3304 2112 
Q 3559 1806 3559 1356 
Q 3559 666 3084 287 
Q 2609 -91 1734 -91 
Q 1441 -91 1130 -33 
Q 819 25 488 141 
L 488 750 
Q 750 597 1062 519 
Q 1375 441 1716 441 
Q 2309 441 2620 675 
Q 2931 909 2931 1356 
Q 2931 1769 2642 2001 
Q 2353 2234 1838 2234 
L 1294 2234 
L 1294 2753 
L 1863 2753 
Q 2328 2753 2575 2939 
Q 2822 3125 2822 3475 
Q 2822 3834 2567 4026 
Q 2313 4219 1838 4219 
Q 1578 4219 1281 4162 
Q 984 4106 628 3988 
L 628 4550 
Q 988 4650 1302 4700 
Q 1616 4750 1894 4750 
Q 2613 4750 3031 4423 
Q 3450 4097 3450 3541 
Q 3450 3153 3228 2886 
Q 3006 2619 2597 2516 
z
" transform="scale(0.015625)"/>
       </defs>
       <use xlink:href="#DejaVuSans-33"/>
       <use xlink:href="#DejaVuSans-32" x="63.623047"/>
      </g>
     </g>
    </g>
    <g id="xtick_6">
     <g id="line2d_11">
      <path d="M 183.707898 290.25375 
L 183.707898 24.14175 
" clip-path="url(#pd5077c0e37)" style="fill: none; stroke: #ffffff; stroke-width: 0.8; stroke-linecap: square"/>
     </g>
     <g id="line2d_12">
      <g>
       <use xlink:href="#m3ec9ae601b" x="183.707898" y="290.25375" style="fill: #555555; stroke: #555555; stroke-width: 0.8"/>
      </g>
     </g>
     <g id="text_6">
      <!-- 40 -->
      <g style="fill: #555555" transform="translate(177.345398 304.852187)scale(0.1 -0.1)">
       <use xlink:href="#DejaVuSans-34"/>
       <use xlink:href="#DejaVuSans-30" x="63.623047"/>
      </g>
     </g>
    </g>
    <g id="xtick_7">
     <g id="line2d_13">
      <path d="M 209.837037 290.25375 
L 209.837037 24.14175 
" clip-path="url(#pd5077c0e37)" style="fill: none; stroke: #ffffff; stroke-width: 0.8; stroke-linecap: square"/>
     </g>
     <g id="line2d_14">
      <g>
       <use xlink:href="#m3ec9ae601b" x="209.837037" y="290.25375" style="fill: #555555; stroke: #555555; stroke-width: 0.8"/>
      </g>
     </g>
     <g id="text_7">
      <!-- 48 -->
      <g style="fill: #555555" transform="translate(203.474537 304.852187)scale(0.1 -0.1)">
       <use xlink:href="#DejaVuSans-34"/>
       <use xlink:href="#DejaVuSans-38" x="63.623047"/>
      </g>
     </g>
    </g>
    <g id="xtick_8">
     <g id="line2d_15">
      <path d="M 235.966175 290.25375 
L 235.966175 24.14175 
" clip-path="url(#pd5077c0e37)" style="fill: none; stroke: #ffffff; stroke-width: 0.8; stroke-linecap: square"/>
     </g>
     <g id="line2d_16">
      <g>
       <use xlink:href="#m3ec9ae601b" x="235.966175" y="290.25375" style="fill: #555555; stroke: #555555; stroke-width: 0.8"/>
      </g>
     </g>
     <g id="text_8">
      <!-- 56 -->
      <g style="fill: #555555" transform="translate(229.603675 304.852187)scale(0.1 -0.1)">
       <defs>
        <path id="DejaVuSans-35" d="M 691 4666 
L 3169 4666 
L 3169 4134 
L 1269 4134 
L 1269 2991 
Q 1406 3038 1543 3061 
Q 1681 3084 1819 3084 
Q 2600 3084 3056 2656 
Q 3513 2228 3513 1497 
Q 3513 744 3044 326 
Q 2575 -91 1722 -91 
Q 1428 -91 1123 -41 
Q 819 9 494 109 
L 494 744 
Q 775 591 1075 516 
Q 1375 441 1709 441 
Q 2250 441 2565 725 
Q 2881 1009 2881 1497 
Q 2881 1984 2565 2268 
Q 2250 2553 1709 2553 
Q 1456 2553 1204 2497 
Q 953 2441 691 2322 
L 691 4666 
z
" transform="scale(0.015625)"/>
       </defs>
       <use xlink:href="#DejaVuSans-35"/>
       <use xlink:href="#DejaVuSans-36" x="63.623047"/>
      </g>
     </g>
    </g>
    <g id="xtick_9">
     <g id="line2d_17">
      <path d="M 262.095313 290.25375 
L 262.095313 24.14175 
" clip-path="url(#pd5077c0e37)" style="fill: none; stroke: #ffffff; stroke-width: 0.8; stroke-linecap: square"/>
     </g>
     <g id="line2d_18">
      <g>
       <use xlink:href="#m3ec9ae601b" x="262.095313" y="290.25375" style="fill: #555555; stroke: #555555; stroke-width: 0.8"/>
      </g>
     </g>
     <g id="text_9">
      <!-- 64 -->
      <g style="fill: #555555" transform="translate(255.732813 304.852187)scale(0.1 -0.1)">
       <use xlink:href="#DejaVuSans-36"/>
       <use xlink:href="#DejaVuSans-34" x="63.623047"/>
      </g>
     </g>
    </g>
    <g id="xtick_10">
     <g id="line2d_19">
      <path d="M 288.224452 290.25375 
L 288.224452 24.14175 
" clip-path="url(#pd5077c0e37)" style="fill: none; stroke: #ffffff; stroke-width: 0.8; stroke-linecap: square"/>
     </g>
     <g id="line2d_20">
      <g>
       <use xlink:href="#m3ec9ae601b" x="288.224452" y="290.25375" style="fill: #555555; stroke: #555555; stroke-width: 0.8"/>
      </g>
     </g>
     <g id="text_10">
      <!-- 72 -->
      <g style="fill: #555555" transform="translate(281.861952 304.852187)scale(0.1 -0.1)">
       <defs>
        <path id="DejaVuSans-37" d="M 525 4666 
L 3525 4666 
L 3525 4397 
L 1831 0 
L 1172 0 
L 2766 4134 
L 525 4134 
L 525 4666 
z
" transform="scale(0.015625)"/>
       </defs>
       <use xlink:href="#DejaVuSans-37"/>
       <use xlink:href="#DejaVuSans-32" x="63.623047"/>
      </g>
     </g>
    </g>
    <g id="xtick_11">
     <g id="line2d_21">
      <path d="M 314.35359 290.25375 
L 314.35359 24.14175 
" clip-path="url(#pd5077c0e37)" style="fill: none; stroke: #ffffff; stroke-width: 0.8; stroke-linecap: square"/>
     </g>
     <g id="line2d_22">
      <g>
       <use xlink:href="#m3ec9ae601b" x="314.35359" y="290.25375" style="fill: #555555; stroke: #555555; stroke-width: 0.8"/>
      </g>
     </g>
     <g id="text_11">
      <!-- 80 -->
      <g style="fill: #555555" transform="translate(307.99109 304.852187)scale(0.1 -0.1)">
       <use xlink:href="#DejaVuSans-38"/>
       <use xlink:href="#DejaVuSans-30" x="63.623047"/>
      </g>
     </g>
    </g>
    <g id="xtick_12">
     <g id="line2d_23">
      <path d="M 340.482729 290.25375 
L 340.482729 24.14175 
" clip-path="url(#pd5077c0e37)" style="fill: none; stroke: #ffffff; stroke-width: 0.8; stroke-linecap: square"/>
     </g>
     <g id="line2d_24">
      <g>
       <use xlink:href="#m3ec9ae601b" x="340.482729" y="290.25375" style="fill: #555555; stroke: #555555; stroke-width: 0.8"/>
      </g>
     </g>
     <g id="text_12">
      <!-- 88 -->
      <g style="fill: #555555" transform="translate(334.120229 304.852187)scale(0.1 -0.1)">
       <use xlink:href="#DejaVuSans-38"/>
       <use xlink:href="#DejaVuSans-38" x="63.623047"/>
      </g>
     </g>
    </g>
    <g id="xtick_13">
     <g id="line2d_25">
      <path d="M 366.611867 290.25375 
L 366.611867 24.14175 
" clip-path="url(#pd5077c0e37)" style="fill: none; stroke: #ffffff; stroke-width: 0.8; stroke-linecap: square"/>
     </g>
     <g id="line2d_26">
      <g>
       <use xlink:href="#m3ec9ae601b" x="366.611867" y="290.25375" style="fill: #555555; stroke: #555555; stroke-width: 0.8"/>
      </g>
     </g>
     <g id="text_13">
      <!-- 96 -->
      <g style="fill: #555555" transform="translate(360.249367 304.852187)scale(0.1 -0.1)">
       <defs>
        <path id="DejaVuSans-39" d="M 703 97 
L 703 672 
Q 941 559 1184 500 
Q 1428 441 1663 441 
Q 2288 441 2617 861 
Q 2947 1281 2994 2138 
Q 2813 1869 2534 1725 
Q 2256 1581 1919 1581 
Q 1219 1581 811 2004 
Q 403 2428 403 3163 
Q 403 3881 828 4315 
Q 1253 4750 1959 4750 
Q 2769 4750 3195 4129 
Q 3622 3509 3622 2328 
Q 3622 1225 3098 567 
Q 2575 -91 1691 -91 
Q 1453 -91 1209 -44 
Q 966 3 703 97 
z
M 1959 2075 
Q 2384 2075 2632 2365 
Q 2881 2656 2881 3163 
Q 2881 3666 2632 3958 
Q 2384 4250 1959 4250 
Q 1534 4250 1286 3958 
Q 1038 3666 1038 3163 
Q 1038 2656 1286 2365 
Q 1534 2075 1959 2075 
z
" transform="scale(0.015625)"/>
       </defs>
       <use xlink:href="#DejaVuSans-39"/>
       <use xlink:href="#DejaVuSans-36" x="63.623047"/>
      </g>
     </g>
    </g>
    <g id="xtick_14">
     <g id="line2d_27">
      <path d="M 392.741006 290.25375 
L 392.741006 24.14175 
" clip-path="url(#pd5077c0e37)" style="fill: none; stroke: #ffffff; stroke-width: 0.8; stroke-linecap: square"/>
     </g>
     <g id="line2d_28">
      <g>
       <use xlink:href="#m3ec9ae601b" x="392.741006" y="290.25375" style="fill: #555555; stroke: #555555; stroke-width: 0.8"/>
      </g>
     </g>
    </g>
    <g id="text_14">
     <!-- cases -->
     <g style="fill: #555555" transform="translate(197.817188 320.05)scale(0.12 -0.12)">
      <defs>
       <path id="DejaVuSans-63" d="M 3122 3366 
L 3122 2828 
Q 2878 2963 2633 3030 
Q 2388 3097 2138 3097 
Q 1578 3097 1268 2742 
Q 959 2388 959 1747 
Q 959 1106 1268 751 
Q 1578 397 2138 397 
Q 2388 397 2633 464 
Q 2878 531 3122 666 
L 3122 134 
Q 2881 22 2623 -34 
Q 2366 -91 2075 -91 
Q 1284 -91 818 406 
Q 353 903 353 1747 
Q 353 2603 823 3093 
Q 1294 3584 2113 3584 
Q 2378 3584 2631 3529 
Q 2884 3475 3122 3366 
z
" transform="scale(0.015625)"/>
       <path id="DejaVuSans-61" d="M 2194 1759 
Q 1497 1759 1228 1600 
Q 959 1441 959 1056 
Q 959 750 1161 570 
Q 1363 391 1709 391 
Q 2188 391 2477 730 
Q 2766 1069 2766 1631 
L 2766 1759 
L 2194 1759 
z
M 3341 1997 
L 3341 0 
L 2766 0 
L 2766 531 
Q 2569 213 2275 61 
Q 1981 -91 1556 -91 
Q 1019 -91 701 211 
Q 384 513 384 1019 
Q 384 1609 779 1909 
Q 1175 2209 1959 2209 
L 2766 2209 
L 2766 2266 
Q 2766 2663 2505 2880 
Q 2244 3097 1772 3097 
Q 1472 3097 1187 3025 
Q 903 2953 641 2809 
L 641 3341 
Q 956 3463 1253 3523 
Q 1550 3584 1831 3584 
Q 2591 3584 2966 3190 
Q 3341 2797 3341 1997 
z
" transform="scale(0.015625)"/>
       <path id="DejaVuSans-73" d="M 2834 3397 
L 2834 2853 
Q 2591 2978 2328 3040 
Q 2066 3103 1784 3103 
Q 1356 3103 1142 2972 
Q 928 2841 928 2578 
Q 928 2378 1081 2264 
Q 1234 2150 1697 2047 
L 1894 2003 
Q 2506 1872 2764 1633 
Q 3022 1394 3022 966 
Q 3022 478 2636 193 
Q 2250 -91 1575 -91 
Q 1294 -91 989 -36 
Q 684 19 347 128 
L 347 722 
Q 666 556 975 473 
Q 1284 391 1588 391 
Q 1994 391 2212 530 
Q 2431 669 2431 922 
Q 2431 1156 2273 1281 
Q 2116 1406 1581 1522 
L 1381 1569 
Q 847 1681 609 1914 
Q 372 2147 372 2553 
Q 372 3047 722 3315 
Q 1072 3584 1716 3584 
Q 2034 3584 2315 3537 
Q 2597 3491 2834 3397 
z
" transform="scale(0.015625)"/>
       <path id="DejaVuSans-65" d="M 3597 1894 
L 3597 1613 
L 953 1613 
Q 991 1019 1311 708 
Q 1631 397 2203 397 
Q 2534 397 2845 478 
Q 3156 559 3463 722 
L 3463 178 
Q 3153 47 2828 -22 
Q 2503 -91 2169 -91 
Q 1331 -91 842 396 
Q 353 884 353 1716 
Q 353 2575 817 3079 
Q 1281 3584 2069 3584 
Q 2775 3584 3186 3129 
Q 3597 2675 3597 1894 
z
M 3022 2063 
Q 3016 2534 2758 2815 
Q 2500 3097 2075 3097 
Q 1594 3097 1305 2825 
Q 1016 2553 972 2059 
L 3022 2063 
z
" transform="scale(0.015625)"/>
      </defs>
      <use xlink:href="#DejaVuSans-63"/>
      <use xlink:href="#DejaVuSans-61" x="54.980469"/>
      <use xlink:href="#DejaVuSans-73" x="116.259766"/>
      <use xlink:href="#DejaVuSans-65" x="168.359375"/>
      <use xlink:href="#DejaVuSans-73" x="229.882812"/>
     </g>
    </g>
   </g>
   <g id="matplotlib.axis_2">
    <g id="ytick_1">
     <g id="line2d_29">
      <path d="M 36.17625 290.25375 
L 393.29625 290.25375 
" clip-path="url(#pd5077c0e37)" style="fill: none; stroke: #ffffff; stroke-width: 0.8; stroke-linecap: square"/>
     </g>
     <g id="line2d_30">
      <defs>
       <path id="m3ff21cb2ca" d="M 0 0 
L -3.5 0 
" style="stroke: #555555; stroke-width: 0.8"/>
      </defs>
      <g>
       <use xlink:href="#m3ff21cb2ca" x="36.17625" y="290.25375" style="fill: #555555; stroke: #555555; stroke-width: 0.8"/>
      </g>
     </g>
     <g id="text_15">
      <!-- 0 -->
      <g style="fill: #555555" transform="translate(22.81375 294.052969)scale(0.1 -0.1)">
       <use xlink:href="#DejaVuSans-30"/>
      </g>
     </g>
    </g>
    <g id="ytick_2">
     <g id="line2d_31">
      <path d="M 36.17625 254.740456 
L 393.29625 254.740456 
" clip-path="url(#pd5077c0e37)" style="fill: none; stroke: #ffffff; stroke-width: 0.8; stroke-linecap: square"/>
     </g>
     <g id="line2d_32">
      <g>
       <use xlink:href="#m3ff21cb2ca" x="36.17625" y="254.740456" style="fill: #555555; stroke: #555555; stroke-width: 0.8"/>
      </g>
     </g>
     <g id="text_16">
      <!-- 1 -->
      <g style="fill: #555555" transform="translate(22.81375 258.539674)scale(0.1 -0.1)">
       <use xlink:href="#DejaVuSans-31"/>
      </g>
     </g>
    </g>
    <g id="ytick_3">
     <g id="line2d_33">
      <path d="M 36.17625 219.227161 
L 393.29625 219.227161 
" clip-path="url(#pd5077c0e37)" style="fill: none; stroke: #ffffff; stroke-width: 0.8; stroke-linecap: square"/>
     </g>
     <g id="line2d_34">
      <g>
       <use xlink:href="#m3ff21cb2ca" x="36.17625" y="219.227161" style="fill: #555555; stroke: #555555; stroke-width: 0.8"/>
      </g>
     </g>
     <g id="text_17">
      <!-- 2 -->
      <g style="fill: #555555" transform="translate(22.81375 223.02638)scale(0.1 -0.1)">
       <use xlink:href="#DejaVuSans-32"/>
      </g>
     </g>
    </g>
    <g id="ytick_4">
     <g id="line2d_35">
      <path d="M 36.17625 183.713867 
L 393.29625 183.713867 
" clip-path="url(#pd5077c0e37)" style="fill: none; stroke: #ffffff; stroke-width: 0.8; stroke-linecap: square"/>
     </g>
     <g id="line2d_36">
      <g>
       <use xlink:href="#m3ff21cb2ca" x="36.17625" y="183.713867" style="fill: #555555; stroke: #555555; stroke-width: 0.8"/>
      </g>
     </g>
     <g id="text_18">
      <!-- 3 -->
      <g style="fill: #555555" transform="translate(22.81375 187.513085)scale(0.1 -0.1)">
       <use xlink:href="#DejaVuSans-33"/>
      </g>
     </g>
    </g>
    <g id="ytick_5">
     <g id="line2d_37">
      <path d="M 36.17625 148.200572 
L 393.29625 148.200572 
" clip-path="url(#pd5077c0e37)" style="fill: none; stroke: #ffffff; stroke-width: 0.8; stroke-linecap: square"/>
     </g>
     <g id="line2d_38">
      <g>
       <use xlink:href="#m3ff21cb2ca" x="36.17625" y="148.200572" style="fill: #555555; stroke: #555555; stroke-width: 0.8"/>
      </g>
     </g>
     <g id="text_19">
      <!-- 4 -->
      <g style="fill: #555555" transform="translate(22.81375 151.999791)scale(0.1 -0.1)">
       <use xlink:href="#DejaVuSans-34"/>
      </g>
     </g>
    </g>
    <g id="ytick_6">
     <g id="line2d_39">
      <path d="M 36.17625 112.687278 
L 393.29625 112.687278 
" clip-path="url(#pd5077c0e37)" style="fill: none; stroke: #ffffff; stroke-width: 0.8; stroke-linecap: square"/>
     </g>
     <g id="line2d_40">
      <g>
       <use xlink:href="#m3ff21cb2ca" x="36.17625" y="112.687278" style="fill: #555555; stroke: #555555; stroke-width: 0.8"/>
      </g>
     </g>
     <g id="text_20">
      <!-- 5 -->
      <g style="fill: #555555" transform="translate(22.81375 116.486497)scale(0.1 -0.1)">
       <use xlink:href="#DejaVuSans-35"/>
      </g>
     </g>
    </g>
    <g id="ytick_7">
     <g id="line2d_41">
      <path d="M 36.17625 77.173983 
L 393.29625 77.173983 
" clip-path="url(#pd5077c0e37)" style="fill: none; stroke: #ffffff; stroke-width: 0.8; stroke-linecap: square"/>
     </g>
     <g id="line2d_42">
      <g>
       <use xlink:href="#m3ff21cb2ca" x="36.17625" y="77.173983" style="fill: #555555; stroke: #555555; stroke-width: 0.8"/>
      </g>
     </g>
     <g id="text_21">
      <!-- 6 -->
      <g style="fill: #555555" transform="translate(22.81375 80.973202)scale(0.1 -0.1)">
       <use xlink:href="#DejaVuSans-36"/>
      </g>
     </g>
    </g>
    <g id="ytick_8">
     <g id="line2d_43">
      <path d="M 36.17625 41.660689 
L 393.29625 41.660689 
" clip-path="url(#pd5077c0e37)" style="fill: none; stroke: #ffffff; stroke-width: 0.8; stroke-linecap: square"/>
     </g>
     <g id="line2d_44">
      <g>
       <use xlink:href="#m3ff21cb2ca" x="36.17625" y="41.660689" style="fill: #555555; stroke: #555555; stroke-width: 0.8"/>
      </g>
     </g>
     <g id="text_22">
      <!-- 7 -->
      <g style="fill: #555555" transform="translate(22.81375 45.459908)scale(0.1 -0.1)">
       <use xlink:href="#DejaVuSans-37"/>
      </g>
     </g>
    </g>
    <g id="text_23">
     <!-- duration -->
     <g style="fill: #555555" transform="translate(16.318125 182.445562)rotate(-90)scale(0.12 -0.12)">
      <defs>
       <path id="DejaVuSans-64" d="M 2906 2969 
L 2906 4863 
L 3481 4863 
L 3481 0 
L 2906 0 
L 2906 525 
Q 2725 213 2448 61 
Q 2172 -91 1784 -91 
Q 1150 -91 751 415 
Q 353 922 353 1747 
Q 353 2572 751 3078 
Q 1150 3584 1784 3584 
Q 2172 3584 2448 3432 
Q 2725 3281 2906 2969 
z
M 947 1747 
Q 947 1113 1208 752 
Q 1469 391 1925 391 
Q 2381 391 2643 752 
Q 2906 1113 2906 1747 
Q 2906 2381 2643 2742 
Q 2381 3103 1925 3103 
Q 1469 3103 1208 2742 
Q 947 2381 947 1747 
z
" transform="scale(0.015625)"/>
       <path id="DejaVuSans-75" d="M 544 1381 
L 544 3500 
L 1119 3500 
L 1119 1403 
Q 1119 906 1312 657 
Q 1506 409 1894 409 
Q 2359 409 2629 706 
Q 2900 1003 2900 1516 
L 2900 3500 
L 3475 3500 
L 3475 0 
L 2900 0 
L 2900 538 
Q 2691 219 2414 64 
Q 2138 -91 1772 -91 
Q 1169 -91 856 284 
Q 544 659 544 1381 
z
M 1991 3584 
L 1991 3584 
z
" transform="scale(0.015625)"/>
       <path id="DejaVuSans-72" d="M 2631 2963 
Q 2534 3019 2420 3045 
Q 2306 3072 2169 3072 
Q 1681 3072 1420 2755 
Q 1159 2438 1159 1844 
L 1159 0 
L 581 0 
L 581 3500 
L 1159 3500 
L 1159 2956 
Q 1341 3275 1631 3429 
Q 1922 3584 2338 3584 
Q 2397 3584 2469 3576 
Q 2541 3569 2628 3553 
L 2631 2963 
z
" transform="scale(0.015625)"/>
       <path id="DejaVuSans-74" d="M 1172 4494 
L 1172 3500 
L 2356 3500 
L 2356 3053 
L 1172 3053 
L 1172 1153 
Q 1172 725 1289 603 
Q 1406 481 1766 481 
L 2356 481 
L 2356 0 
L 1766 0 
Q 1100 0 847 248 
Q 594 497 594 1153 
L 594 3053 
L 172 3053 
L 172 3500 
L 594 3500 
L 594 4494 
L 1172 4494 
z
" transform="scale(0.015625)"/>
       <path id="DejaVuSans-69" d="M 603 3500 
L 1178 3500 
L 1178 0 
L 603 0 
L 603 3500 
z
M 603 4863 
L 1178 4863 
L 1178 4134 
L 603 4134 
L 603 4863 
z
" transform="scale(0.015625)"/>
       <path id="DejaVuSans-6f" d="M 1959 3097 
Q 1497 3097 1228 2736 
Q 959 2375 959 1747 
Q 959 1119 1226 758 
Q 1494 397 1959 397 
Q 2419 397 2687 759 
Q 2956 1122 2956 1747 
Q 2956 2369 2687 2733 
Q 2419 3097 1959 3097 
z
M 1959 3584 
Q 2709 3584 3137 3096 
Q 3566 2609 3566 1747 
Q 3566 888 3137 398 
Q 2709 -91 1959 -91 
Q 1206 -91 779 398 
Q 353 888 353 1747 
Q 353 2609 779 3096 
Q 1206 3584 1959 3584 
z
" transform="scale(0.015625)"/>
       <path id="DejaVuSans-6e" d="M 3513 2113 
L 3513 0 
L 2938 0 
L 2938 2094 
Q 2938 2591 2744 2837 
Q 2550 3084 2163 3084 
Q 1697 3084 1428 2787 
Q 1159 2491 1159 1978 
L 1159 0 
L 581 0 
L 581 3500 
L 1159 3500 
L 1159 2956 
Q 1366 3272 1645 3428 
Q 1925 3584 2291 3584 
Q 2894 3584 3203 3211 
Q 3513 2838 3513 2113 
z
" transform="scale(0.015625)"/>
      </defs>
      <use xlink:href="#DejaVuSans-64"/>
      <use xlink:href="#DejaVuSans-75" x="63.476562"/>
      <use xlink:href="#DejaVuSans-72" x="126.855469"/>
      <use xlink:href="#DejaVuSans-61" x="167.96875"/>
      <use xlink:href="#DejaVuSans-74" x="229.248047"/>
      <use xlink:href="#DejaVuSans-69" x="268.457031"/>
      <use xlink:href="#DejaVuSans-6f" x="296.240234"/>
      <use xlink:href="#DejaVuSans-6e" x="357.421875"/>
     </g>
    </g>
    <g id="text_24">
     <!-- 1e9 -->
     <g style="fill: #555555" transform="translate(36.17625 21.14175)scale(0.1 -0.1)">
      <use xlink:href="#DejaVuSans-31"/>
      <use xlink:href="#DejaVuSans-65" x="63.623047"/>
      <use xlink:href="#DejaVuSans-39" x="125.146484"/>
     </g>
    </g>
   </g>
   <g id="patch_3">
    <path d="M 52.408977 290.25375 
L 53.715434 290.25375 
L 53.715434 36.81375 
L 52.408977 36.81375 
z
" clip-path="url(#pd5077c0e37)" style="fill: #9932cc"/>
   </g>
   <g id="patch_4">
    <path d="M 55.67512 290.25375 
L 56.981577 290.25375 
L 56.981577 132.46446 
L 55.67512 132.46446 
z
" clip-path="url(#pd5077c0e37)" style="fill: #32cd32"/>
   </g>
   <g id="patch_5">
    <path d="M 58.941262 290.25375 
L 60.247719 290.25375 
L 60.247719 212.056427 
L 58.941262 212.056427 
z
" clip-path="url(#pd5077c0e37)" style="fill: #9932cc"/>
   </g>
   <g id="patch_6">
    <path d="M 62.207404 290.25375 
L 63.513861 290.25375 
L 63.513861 240.232461 
L 62.207404 240.232461 
z
" clip-path="url(#pd5077c0e37)" style="fill: #32cd32"/>
   </g>
   <g id="patch_7">
    <path d="M 65.473547 290.25375 
L 66.780003 290.25375 
L 66.780003 233.417592 
L 65.473547 233.417592 
z
" clip-path="url(#pd5077c0e37)" style="fill: #9932cc"/>
   </g>
   <g id="patch_8">
    <path d="M 68.739689 290.25375 
L 70.046146 290.25375 
L 70.046146 223.211779 
L 68.739689 223.211779 
z
" clip-path="url(#pd5077c0e37)" style="fill: #32cd32"/>
   </g>
   <g id="patch_9">
    <path d="M 72.005831 290.25375 
L 73.312288 290.25375 
L 73.312288 229.129886 
L 72.005831 229.129886 
z
" clip-path="url(#pd5077c0e37)" style="fill: #9932cc"/>
   </g>
   <g id="patch_10">
    <path d="M 75.271973 290.25375 
L 76.57843 290.25375 
L 76.57843 249.194886 
L 75.271973 249.194886 
z
" clip-path="url(#pd5077c0e37)" style="fill: #32cd32"/>
   </g>
   <g id="patch_11">
    <path d="M 78.538116 290.25375 
L 79.844573 290.25375 
L 79.844573 243.799248 
L 78.538116 243.799248 
z
" clip-path="url(#pd5077c0e37)" style="fill: #9932cc"/>
   </g>
   <g id="patch_12">
    <path d="M 81.804258 290.25375 
L 83.110715 290.25375 
L 83.110715 244.991836 
L 81.804258 244.991836 
z
" clip-path="url(#pd5077c0e37)" style="fill: #32cd32"/>
   </g>
   <g id="patch_13">
    <path d="M 85.0704 290.25375 
L 86.376857 290.25375 
L 86.376857 240.715668 
L 85.0704 240.715668 
z
" clip-path="url(#pd5077c0e37)" style="fill: #9932cc"/>
   </g>
   <g id="patch_14">
    <path d="M 88.336543 290.25375 
L 89.643 290.25375 
L 89.643 259.444555 
L 88.336543 259.444555 
z
" clip-path="url(#pd5077c0e37)" style="fill: #32cd32"/>
   </g>
   <g id="patch_15">
    <path d="M 91.602685 290.25375 
L 92.909142 290.25375 
L 92.909142 255.978612 
L 91.602685 255.978612 
z
" clip-path="url(#pd5077c0e37)" style="fill: #9932cc"/>
   </g>
   <g id="patch_16">
    <path d="M 94.868827 290.25375 
L 96.175284 290.25375 
L 96.175284 233.914396 
L 94.868827 233.914396 
z
" clip-path="url(#pd5077c0e37)" style="fill: #32cd32"/>
   </g>
   <g id="patch_17">
    <path d="M 98.13497 290.25375 
L 99.441427 290.25375 
L 99.441427 242.220951 
L 98.13497 242.220951 
z
" clip-path="url(#pd5077c0e37)" style="fill: #9932cc"/>
   </g>
   <g id="patch_18">
    <path d="M 101.401112 290.25375 
L 102.707569 290.25375 
L 102.707569 249.111789 
L 101.401112 249.111789 
z
" clip-path="url(#pd5077c0e37)" style="fill: #32cd32"/>
   </g>
   <g id="patch_19">
    <path d="M 104.667254 290.25375 
L 105.973711 290.25375 
L 105.973711 255.993242 
L 104.667254 255.993242 
z
" clip-path="url(#pd5077c0e37)" style="fill: #9932cc"/>
   </g>
   <g id="patch_20">
    <path d="M 107.933397 290.25375 
L 109.239853 290.25375 
L 109.239853 275.860917 
L 107.933397 275.860917 
z
" clip-path="url(#pd5077c0e37)" style="fill: #32cd32"/>
   </g>
   <g id="patch_21">
    <path d="M 111.199539 290.25375 
L 112.505996 290.25375 
L 112.505996 263.389533 
L 111.199539 263.389533 
z
" clip-path="url(#pd5077c0e37)" style="fill: #9932cc"/>
   </g>
   <g id="patch_22">
    <path d="M 114.465681 290.25375 
L 115.772138 290.25375 
L 115.772138 262.436979 
L 114.465681 262.436979 
z
" clip-path="url(#pd5077c0e37)" style="fill: #32cd32"/>
   </g>
   <g id="patch_23">
    <path d="M 117.731823 290.25375 
L 119.03828 290.25375 
L 119.03828 267.954993 
L 117.731823 267.954993 
z
" clip-path="url(#pd5077c0e37)" style="fill: #9932cc"/>
   </g>
   <g id="patch_24">
    <path d="M 120.997966 290.25375 
L 122.304423 290.25375 
L 122.304423 189.478508 
L 120.997966 189.478508 
z
" clip-path="url(#pd5077c0e37)" style="fill: #32cd32"/>
   </g>
   <g id="patch_25">
    <path d="M 124.264108 290.25375 
L 125.570565 290.25375 
L 125.570565 274.294904 
L 124.264108 274.294904 
z
" clip-path="url(#pd5077c0e37)" style="fill: #9932cc"/>
   </g>
   <g id="patch_26">
    <path d="M 127.53025 290.25375 
L 128.836707 290.25375 
L 128.836707 273.437241 
L 127.53025 273.437241 
z
" clip-path="url(#pd5077c0e37)" style="fill: #32cd32"/>
   </g>
   <g id="patch_27">
    <path d="M 130.796393 290.25375 
L 132.10285 290.25375 
L 132.10285 278.105094 
L 130.796393 278.105094 
z
" clip-path="url(#pd5077c0e37)" style="fill: #9932cc"/>
   </g>
   <g id="patch_28">
    <path d="M 134.062535 290.25375 
L 135.368992 290.25375 
L 135.368992 275.585878 
L 134.062535 275.585878 
z
" clip-path="url(#pd5077c0e37)" style="fill: #32cd32"/>
   </g>
   <g id="patch_29">
    <path d="M 137.328677 290.25375 
L 138.635134 290.25375 
L 138.635134 265.902138 
L 137.328677 265.902138 
z
" clip-path="url(#pd5077c0e37)" style="fill: #9932cc"/>
   </g>
   <g id="patch_30">
    <path d="M 140.59482 290.25375 
L 141.901277 290.25375 
L 141.901277 269.604665 
L 140.59482 269.604665 
z
" clip-path="url(#pd5077c0e37)" style="fill: #32cd32"/>
   </g>
   <g id="patch_31">
    <path d="M 143.860962 290.25375 
L 145.167419 290.25375 
L 145.167419 270.307357 
L 143.860962 270.307357 
z
" clip-path="url(#pd5077c0e37)" style="fill: #9932cc"/>
   </g>
   <g id="patch_32">
    <path d="M 147.127104 290.25375 
L 148.433561 290.25375 
L 148.433561 281.019175 
L 147.127104 281.019175 
z
" clip-path="url(#pd5077c0e37)" style="fill: #32cd32"/>
   </g>
   <g id="patch_33">
    <path d="M 150.393247 290.25375 
L 151.699703 290.25375 
L 151.699703 276.85151 
L 150.393247 276.85151 
z
" clip-path="url(#pd5077c0e37)" style="fill: #9932cc"/>
   </g>
   <g id="patch_34">
    <path d="M 153.659389 290.25375 
L 154.965846 290.25375 
L 154.965846 276.685546 
L 153.659389 276.685546 
z
" clip-path="url(#pd5077c0e37)" style="fill: #32cd32"/>
   </g>
   <g id="patch_35">
    <path d="M 156.925531 290.25375 
L 158.231988 290.25375 
L 158.231988 267.592101 
L 156.925531 267.592101 
z
" clip-path="url(#pd5077c0e37)" style="fill: #9932cc"/>
   </g>
   <g id="patch_36">
    <path d="M 160.191673 290.25375 
L 161.49813 290.25375 
L 161.49813 274.742178 
L 160.191673 274.742178 
z
" clip-path="url(#pd5077c0e37)" style="fill: #32cd32"/>
   </g>
   <g id="patch_37">
    <path d="M 163.457816 290.25375 
L 164.764273 290.25375 
L 164.764273 273.034288 
L 163.457816 273.034288 
z
" clip-path="url(#pd5077c0e37)" style="fill: #9932cc"/>
   </g>
   <g id="patch_38">
    <path d="M 166.723958 290.25375 
L 168.030415 290.25375 
L 168.030415 270.460014 
L 166.723958 270.460014 
z
" clip-path="url(#pd5077c0e37)" style="fill: #32cd32"/>
   </g>
   <g id="patch_39">
    <path d="M 169.9901 290.25375 
L 171.296557 290.25375 
L 171.296557 270.083332 
L 169.9901 270.083332 
z
" clip-path="url(#pd5077c0e37)" style="fill: #9932cc"/>
   </g>
   <g id="patch_40">
    <path d="M 173.256243 290.25375 
L 174.5627 290.25375 
L 174.5627 278.209783 
L 173.256243 278.209783 
z
" clip-path="url(#pd5077c0e37)" style="fill: #32cd32"/>
   </g>
   <g id="patch_41">
    <path d="M 176.522385 290.25375 
L 177.828842 290.25375 
L 177.828842 275.128918 
L 176.522385 275.128918 
z
" clip-path="url(#pd5077c0e37)" style="fill: #9932cc"/>
   </g>
   <g id="patch_42">
    <path d="M 179.788527 290.25375 
L 181.094984 290.25375 
L 181.094984 279.421233 
L 179.788527 279.421233 
z
" clip-path="url(#pd5077c0e37)" style="fill: #32cd32"/>
   </g>
   <g id="patch_43">
    <path d="M 183.05467 290.25375 
L 184.361127 290.25375 
L 184.361127 280.471004 
L 183.05467 280.471004 
z
" clip-path="url(#pd5077c0e37)" style="fill: #9932cc"/>
   </g>
   <g id="patch_44">
    <path d="M 186.320812 290.25375 
L 187.627269 290.25375 
L 187.627269 279.557186 
L 186.320812 279.557186 
z
" clip-path="url(#pd5077c0e37)" style="fill: #32cd32"/>
   </g>
   <g id="patch_45">
    <path d="M 189.586954 290.25375 
L 190.893411 290.25375 
L 190.893411 282.198606 
L 189.586954 282.198606 
z
" clip-path="url(#pd5077c0e37)" style="fill: #9932cc"/>
   </g>
   <g id="patch_46">
    <path d="M 192.853097 290.25375 
L 194.159553 290.25375 
L 194.159553 282.491702 
L 192.853097 282.491702 
z
" clip-path="url(#pd5077c0e37)" style="fill: #32cd32"/>
   </g>
   <g id="patch_47">
    <path d="M 196.119239 290.25375 
L 197.425696 290.25375 
L 197.425696 284.402684 
L 196.119239 284.402684 
z
" clip-path="url(#pd5077c0e37)" style="fill: #9932cc"/>
   </g>
   <g id="patch_48">
    <path d="M 199.385381 290.25375 
L 200.691838 290.25375 
L 200.691838 275.649621 
L 199.385381 275.649621 
z
" clip-path="url(#pd5077c0e37)" style="fill: #32cd32"/>
   </g>
   <g id="patch_49">
    <path d="M 202.651523 290.25375 
L 203.95798 290.25375 
L 203.95798 279.21668 
L 202.651523 279.21668 
z
" clip-path="url(#pd5077c0e37)" style="fill: #9932cc"/>
   </g>
   <g id="patch_50">
    <path d="M 205.917666 290.25375 
L 207.224123 290.25375 
L 207.224123 283.17651 
L 205.917666 283.17651 
z
" clip-path="url(#pd5077c0e37)" style="fill: #32cd32"/>
   </g>
   <g id="patch_51">
    <path d="M 209.183808 290.25375 
L 210.490265 290.25375 
L 210.490265 284.576649 
L 209.183808 284.576649 
z
" clip-path="url(#pd5077c0e37)" style="fill: #9932cc"/>
   </g>
   <g id="patch_52">
    <path d="M 212.44995 290.25375 
L 213.756407 290.25375 
L 213.756407 282.086196 
L 212.44995 282.086196 
z
" clip-path="url(#pd5077c0e37)" style="fill: #32cd32"/>
   </g>
   <g id="patch_53">
    <path d="M 215.716093 290.25375 
L 217.02255 290.25375 
L 217.02255 279.897673 
L 215.716093 279.897673 
z
" clip-path="url(#pd5077c0e37)" style="fill: #9932cc"/>
   </g>
   <g id="patch_54">
    <path d="M 218.982235 290.25375 
L 220.288692 290.25375 
L 220.288692 283.235499 
L 218.982235 283.235499 
z
" clip-path="url(#pd5077c0e37)" style="fill: #32cd32"/>
   </g>
   <g id="patch_55">
    <path d="M 222.248377 290.25375 
L 223.554834 290.25375 
L 223.554834 284.900494 
L 222.248377 284.900494 
z
" clip-path="url(#pd5077c0e37)" style="fill: #9932cc"/>
   </g>
   <g id="patch_56">
    <path d="M 225.51452 290.25375 
L 226.820977 290.25375 
L 226.820977 284.542077 
L 225.51452 284.542077 
z
" clip-path="url(#pd5077c0e37)" style="fill: #32cd32"/>
   </g>
   <g id="patch_57">
    <path d="M 228.780662 290.25375 
L 230.087119 290.25375 
L 230.087119 283.577038 
L 228.780662 283.577038 
z
" clip-path="url(#pd5077c0e37)" style="fill: #9932cc"/>
   </g>
   <g id="patch_58">
    <path d="M 232.046804 290.25375 
L 233.353261 290.25375 
L 233.353261 279.222223 
L 232.046804 279.222223 
z
" clip-path="url(#pd5077c0e37)" style="fill: #32cd32"/>
   </g>
   <g id="patch_59">
    <path d="M 235.312947 290.25375 
L 236.619403 290.25375 
L 236.619403 280.220067 
L 235.312947 280.220067 
z
" clip-path="url(#pd5077c0e37)" style="fill: #9932cc"/>
   </g>
   <g id="patch_60">
    <path d="M 238.579089 290.25375 
L 239.885546 290.25375 
L 239.885546 284.341905 
L 238.579089 284.341905 
z
" clip-path="url(#pd5077c0e37)" style="fill: #32cd32"/>
   </g>
   <g id="patch_61">
    <path d="M 241.845231 290.25375 
L 243.151688 290.25375 
L 243.151688 281.440247 
L 241.845231 281.440247 
z
" clip-path="url(#pd5077c0e37)" style="fill: #9932cc"/>
   </g>
   <g id="patch_62">
    <path d="M 245.111373 290.25375 
L 246.41783 290.25375 
L 246.41783 282.414153 
L 245.111373 282.414153 
z
" clip-path="url(#pd5077c0e37)" style="fill: #32cd32"/>
   </g>
   <g id="patch_63">
    <path d="M 248.377516 290.25375 
L 249.683973 290.25375 
L 249.683973 283.142381 
L 248.377516 283.142381 
z
" clip-path="url(#pd5077c0e37)" style="fill: #9932cc"/>
   </g>
   <g id="patch_64">
    <path d="M 251.643658 290.25375 
L 252.950115 290.25375 
L 252.950115 282.921296 
L 251.643658 282.921296 
z
" clip-path="url(#pd5077c0e37)" style="fill: #32cd32"/>
   </g>
   <g id="patch_65">
    <path d="M 254.9098 290.25375 
L 256.216257 290.25375 
L 256.216257 282.873165 
L 254.9098 282.873165 
z
" clip-path="url(#pd5077c0e37)" style="fill: #9932cc"/>
   </g>
   <g id="patch_66">
    <path d="M 258.175943 290.25375 
L 259.4824 290.25375 
L 259.4824 282.471687 
L 258.175943 282.471687 
z
" clip-path="url(#pd5077c0e37)" style="fill: #32cd32"/>
   </g>
   <g id="patch_67">
    <path d="M 261.442085 290.25375 
L 262.748542 290.25375 
L 262.748542 286.847289 
L 261.442085 286.847289 
z
" clip-path="url(#pd5077c0e37)" style="fill: #9932cc"/>
   </g>
   <g id="patch_68">
    <path d="M 264.708227 290.25375 
L 266.014684 290.25375 
L 266.014684 283.528113 
L 264.708227 283.528113 
z
" clip-path="url(#pd5077c0e37)" style="fill: #32cd32"/>
   </g>
   <g id="patch_69">
    <path d="M 267.97437 290.25375 
L 269.280827 290.25375 
L 269.280827 281.904337 
L 267.97437 281.904337 
z
" clip-path="url(#pd5077c0e37)" style="fill: #9932cc"/>
   </g>
   <g id="patch_70">
    <path d="M 271.240512 290.25375 
L 272.546969 290.25375 
L 272.546969 284.455234 
L 271.240512 284.455234 
z
" clip-path="url(#pd5077c0e37)" style="fill: #32cd32"/>
   </g>
   <g id="patch_71">
    <path d="M 274.506654 290.25375 
L 275.813111 290.25375 
L 275.813111 282.31154 
L 274.506654 282.31154 
z
" clip-path="url(#pd5077c0e37)" style="fill: #9932cc"/>
   </g>
   <g id="patch_72">
    <path d="M 277.772797 290.25375 
L 279.079253 290.25375 
L 279.079253 285.083902 
L 277.772797 285.083902 
z
" clip-path="url(#pd5077c0e37)" style="fill: #32cd32"/>
   </g>
   <g id="patch_73">
    <path d="M 281.038939 290.25375 
L 282.345396 290.25375 
L 282.345396 284.675094 
L 281.038939 284.675094 
z
" clip-path="url(#pd5077c0e37)" style="fill: #9932cc"/>
   </g>
   <g id="patch_74">
    <path d="M 284.305081 290.25375 
L 285.611538 290.25375 
L 285.611538 283.403485 
L 284.305081 283.403485 
z
" clip-path="url(#pd5077c0e37)" style="fill: #32cd32"/>
   </g>
   <g id="patch_75">
    <path d="M 287.571223 290.25375 
L 288.87768 290.25375 
L 288.87768 285.450502 
L 287.571223 285.450502 
z
" clip-path="url(#pd5077c0e37)" style="fill: #9932cc"/>
   </g>
   <g id="patch_76">
    <path d="M 290.837366 290.25375 
L 292.143823 290.25375 
L 292.143823 284.889797 
L 290.837366 284.889797 
z
" clip-path="url(#pd5077c0e37)" style="fill: #32cd32"/>
   </g>
   <g id="patch_77">
    <path d="M 294.103508 290.25375 
L 295.409965 290.25375 
L 295.409965 286.174675 
L 294.103508 286.174675 
z
" clip-path="url(#pd5077c0e37)" style="fill: #9932cc"/>
   </g>
   <g id="patch_78">
    <path d="M 297.36965 290.25375 
L 298.676107 290.25375 
L 298.676107 284.906036 
L 297.36965 284.906036 
z
" clip-path="url(#pd5077c0e37)" style="fill: #32cd32"/>
   </g>
   <g id="patch_79">
    <path d="M 300.635793 290.25375 
L 301.94225 290.25375 
L 301.94225 287.699891 
L 300.635793 287.699891 
z
" clip-path="url(#pd5077c0e37)" style="fill: #9932cc"/>
   </g>
   <g id="patch_80">
    <path d="M 303.901935 290.25375 
L 305.208392 290.25375 
L 305.208392 283.271331 
L 303.901935 283.271331 
z
" clip-path="url(#pd5077c0e37)" style="fill: #32cd32"/>
   </g>
   <g id="patch_81">
    <path d="M 307.168077 290.25375 
L 308.474534 290.25375 
L 308.474534 279.669385 
L 307.168077 279.669385 
z
" clip-path="url(#pd5077c0e37)" style="fill: #9932cc"/>
   </g>
   <g id="patch_82">
    <path d="M 310.43422 290.25375 
L 311.740677 290.25375 
L 311.740677 285.353601 
L 310.43422 285.353601 
z
" clip-path="url(#pd5077c0e37)" style="fill: #32cd32"/>
   </g>
   <g id="patch_83">
    <path d="M 313.700362 290.25375 
L 315.006819 290.25375 
L 315.006819 277.095778 
L 313.700362 277.095778 
z
" clip-path="url(#pd5077c0e37)" style="fill: #9932cc"/>
   </g>
   <g id="patch_84">
    <path d="M 316.966504 290.25375 
L 318.272961 290.25375 
L 318.272961 286.165911 
L 316.966504 286.165911 
z
" clip-path="url(#pd5077c0e37)" style="fill: #32cd32"/>
   </g>
   <g id="patch_85">
    <path d="M 320.232647 290.25375 
L 321.539103 290.25375 
L 321.539103 283.77698 
L 320.232647 283.77698 
z
" clip-path="url(#pd5077c0e37)" style="fill: #9932cc"/>
   </g>
   <g id="patch_86">
    <path d="M 323.498789 290.25375 
L 324.805246 290.25375 
L 324.805246 284.759041 
L 323.498789 284.759041 
z
" clip-path="url(#pd5077c0e37)" style="fill: #32cd32"/>
   </g>
   <g id="patch_87">
    <path d="M 326.764931 290.25375 
L 328.071388 290.25375 
L 328.071388 284.135158 
L 326.764931 284.135158 
z
" clip-path="url(#pd5077c0e37)" style="fill: #9932cc"/>
   </g>
   <g id="patch_88">
    <path d="M 330.031073 290.25375 
L 331.33753 290.25375 
L 331.33753 283.343254 
L 330.031073 283.343254 
z
" clip-path="url(#pd5077c0e37)" style="fill: #32cd32"/>
   </g>
   <g id="patch_89">
    <path d="M 333.297216 290.25375 
L 334.603673 290.25375 
L 334.603673 286.497377 
L 333.297216 286.497377 
z
" clip-path="url(#pd5077c0e37)" style="fill: #9932cc"/>
   </g>
   <g id="patch_90">
    <path d="M 336.563358 290.25375 
L 337.869815 290.25375 
L 337.869815 286.445765 
L 336.563358 286.445765 
z
" clip-path="url(#pd5077c0e37)" style="fill: #32cd32"/>
   </g>
   <g id="patch_91">
    <path d="M 339.8295 290.25375 
L 341.135957 290.25375 
L 341.135957 283.436205 
L 339.8295 283.436205 
z
" clip-path="url(#pd5077c0e37)" style="fill: #9932cc"/>
   </g>
   <g id="patch_92">
    <path d="M 343.095643 290.25375 
L 344.4021 290.25375 
L 344.4021 287.033049 
L 343.095643 287.033049 
z
" clip-path="url(#pd5077c0e37)" style="fill: #32cd32"/>
   </g>
   <g id="patch_93">
    <path d="M 346.361785 290.25375 
L 347.668242 290.25375 
L 347.668242 288.158539 
L 346.361785 288.158539 
z
" clip-path="url(#pd5077c0e37)" style="fill: #9932cc"/>
   </g>
   <g id="patch_94">
    <path d="M 349.627927 290.25375 
L 350.934384 290.25375 
L 350.934384 287.520576 
L 349.627927 287.520576 
z
" clip-path="url(#pd5077c0e37)" style="fill: #32cd32"/>
   </g>
   <g id="patch_95">
    <path d="M 352.89407 290.25375 
L 354.200527 290.25375 
L 354.200527 286.621897 
L 352.89407 286.621897 
z
" clip-path="url(#pd5077c0e37)" style="fill: #9932cc"/>
   </g>
   <g id="patch_96">
    <path d="M 356.160212 290.25375 
L 357.466669 290.25375 
L 357.466669 285.479917 
L 356.160212 285.479917 
z
" clip-path="url(#pd5077c0e37)" style="fill: #32cd32"/>
   </g>
   <g id="patch_97">
    <path d="M 359.426354 290.25375 
L 360.732811 290.25375 
L 360.732811 284.769801 
L 359.426354 284.769801 
z
" clip-path="url(#pd5077c0e37)" style="fill: #9932cc"/>
   </g>
   <g id="patch_98">
    <path d="M 362.692497 290.25375 
L 363.998953 290.25375 
L 363.998953 288.049082 
L 362.692497 288.049082 
z
" clip-path="url(#pd5077c0e37)" style="fill: #32cd32"/>
   </g>
   <g id="patch_99">
    <path d="M 365.958639 290.25375 
L 367.265096 290.25375 
L 367.265096 285.798879 
L 365.958639 285.798879 
z
" clip-path="url(#pd5077c0e37)" style="fill: #9932cc"/>
   </g>
   <g id="patch_100">
    <path d="M 369.224781 290.25375 
L 370.531238 290.25375 
L 370.531238 286.148732 
L 369.224781 286.148732 
z
" clip-path="url(#pd5077c0e37)" style="fill: #32cd32"/>
   </g>
   <g id="patch_101">
    <path d="M 372.490923 290.25375 
L 373.79738 290.25375 
L 373.79738 287.879475 
L 372.490923 287.879475 
z
" clip-path="url(#pd5077c0e37)" style="fill: #9932cc"/>
   </g>
   <g id="patch_102">
    <path d="M 375.757066 290.25375 
L 377.063523 290.25375 
L 377.063523 286.945011 
L 375.757066 286.945011 
z
" clip-path="url(#pd5077c0e37)" style="fill: #32cd32"/>
   </g>
   <g id="patch_103">
    <path d="M 36.17625 290.25375 
L 36.17625 24.14175 
" style="fill: none; stroke: #ffffff; stroke-linejoin: miter; stroke-linecap: square"/>
   </g>
   <g id="patch_104">
    <path d="M 393.29625 290.25375 
L 393.29625 24.14175 
" style="fill: none; stroke: #ffffff; stroke-linejoin: miter; stroke-linecap: square"/>
   </g>
   <g id="patch_105">
    <path d="M 36.17625 290.25375 
L 393.29625 290.25375 
" style="fill: none; stroke: #ffffff; stroke-linejoin: miter; stroke-linecap: square"/>
   </g>
   <g id="patch_106">
    <path d="M 36.17625 24.14175 
L 393.29625 24.14175 
" style="fill: none; stroke: #ffffff; stroke-linejoin: miter; stroke-linecap: square"/>
   </g>
   <g id="text_25">
    <!-- Top 100 values - bar chart of variants sum duration -->
    <g transform="translate(29.82675 18.14175)scale(0.144 -0.144)">
     <defs>
      <path id="DejaVuSans-54" d="M -19 4666 
L 3928 4666 
L 3928 4134 
L 2272 4134 
L 2272 0 
L 1638 0 
L 1638 4134 
L -19 4134 
L -19 4666 
z
" transform="scale(0.015625)"/>
      <path id="DejaVuSans-70" d="M 1159 525 
L 1159 -1331 
L 581 -1331 
L 581 3500 
L 1159 3500 
L 1159 2969 
Q 1341 3281 1617 3432 
Q 1894 3584 2278 3584 
Q 2916 3584 3314 3078 
Q 3713 2572 3713 1747 
Q 3713 922 3314 415 
Q 2916 -91 2278 -91 
Q 1894 -91 1617 61 
Q 1341 213 1159 525 
z
M 3116 1747 
Q 3116 2381 2855 2742 
Q 2594 3103 2138 3103 
Q 1681 3103 1420 2742 
Q 1159 2381 1159 1747 
Q 1159 1113 1420 752 
Q 1681 391 2138 391 
Q 2594 391 2855 752 
Q 3116 1113 3116 1747 
z
" transform="scale(0.015625)"/>
      <path id="DejaVuSans-20" transform="scale(0.015625)"/>
      <path id="DejaVuSans-76" d="M 191 3500 
L 800 3500 
L 1894 563 
L 2988 3500 
L 3597 3500 
L 2284 0 
L 1503 0 
L 191 3500 
z
" transform="scale(0.015625)"/>
      <path id="DejaVuSans-6c" d="M 603 4863 
L 1178 4863 
L 1178 0 
L 603 0 
L 603 4863 
z
" transform="scale(0.015625)"/>
      <path id="DejaVuSans-2d" d="M 313 2009 
L 1997 2009 
L 1997 1497 
L 313 1497 
L 313 2009 
z
" transform="scale(0.015625)"/>
      <path id="DejaVuSans-62" d="M 3116 1747 
Q 3116 2381 2855 2742 
Q 2594 3103 2138 3103 
Q 1681 3103 1420 2742 
Q 1159 2381 1159 1747 
Q 1159 1113 1420 752 
Q 1681 391 2138 391 
Q 2594 391 2855 752 
Q 3116 1113 3116 1747 
z
M 1159 2969 
Q 1341 3281 1617 3432 
Q 1894 3584 2278 3584 
Q 2916 3584 3314 3078 
Q 3713 2572 3713 1747 
Q 3713 922 3314 415 
Q 2916 -91 2278 -91 
Q 1894 -91 1617 61 
Q 1341 213 1159 525 
L 1159 0 
L 581 0 
L 581 4863 
L 1159 4863 
L 1159 2969 
z
" transform="scale(0.015625)"/>
      <path id="DejaVuSans-68" d="M 3513 2113 
L 3513 0 
L 2938 0 
L 2938 2094 
Q 2938 2591 2744 2837 
Q 2550 3084 2163 3084 
Q 1697 3084 1428 2787 
Q 1159 2491 1159 1978 
L 1159 0 
L 581 0 
L 581 4863 
L 1159 4863 
L 1159 2956 
Q 1366 3272 1645 3428 
Q 1925 3584 2291 3584 
Q 2894 3584 3203 3211 
Q 3513 2838 3513 2113 
z
" transform="scale(0.015625)"/>
      <path id="DejaVuSans-66" d="M 2375 4863 
L 2375 4384 
L 1825 4384 
Q 1516 4384 1395 4259 
Q 1275 4134 1275 3809 
L 1275 3500 
L 2222 3500 
L 2222 3053 
L 1275 3053 
L 1275 0 
L 697 0 
L 697 3053 
L 147 3053 
L 147 3500 
L 697 3500 
L 697 3744 
Q 697 4328 969 4595 
Q 1241 4863 1831 4863 
L 2375 4863 
z
" transform="scale(0.015625)"/>
      <path id="DejaVuSans-6d" d="M 3328 2828 
Q 3544 3216 3844 3400 
Q 4144 3584 4550 3584 
Q 5097 3584 5394 3201 
Q 5691 2819 5691 2113 
L 5691 0 
L 5113 0 
L 5113 2094 
Q 5113 2597 4934 2840 
Q 4756 3084 4391 3084 
Q 3944 3084 3684 2787 
Q 3425 2491 3425 1978 
L 3425 0 
L 2847 0 
L 2847 2094 
Q 2847 2600 2669 2842 
Q 2491 3084 2119 3084 
Q 1678 3084 1418 2786 
Q 1159 2488 1159 1978 
L 1159 0 
L 581 0 
L 581 3500 
L 1159 3500 
L 1159 2956 
Q 1356 3278 1631 3431 
Q 1906 3584 2284 3584 
Q 2666 3584 2933 3390 
Q 3200 3197 3328 2828 
z
" transform="scale(0.015625)"/>
     </defs>
     <use xlink:href="#DejaVuSans-54"/>
     <use xlink:href="#DejaVuSans-6f" x="44.083984"/>
     <use xlink:href="#DejaVuSans-70" x="105.265625"/>
     <use xlink:href="#DejaVuSans-20" x="168.742188"/>
     <use xlink:href="#DejaVuSans-31" x="200.529297"/>
     <use xlink:href="#DejaVuSans-30" x="264.152344"/>
     <use xlink:href="#DejaVuSans-30" x="327.775391"/>
     <use xlink:href="#DejaVuSans-20" x="391.398438"/>
     <use xlink:href="#DejaVuSans-76" x="423.185547"/>
     <use xlink:href="#DejaVuSans-61" x="482.365234"/>
     <use xlink:href="#DejaVuSans-6c" x="543.644531"/>
     <use xlink:href="#DejaVuSans-75" x="571.427734"/>
     <use xlink:href="#DejaVuSans-65" x="634.806641"/>
     <use xlink:href="#DejaVuSans-73" x="696.330078"/>
     <use xlink:href="#DejaVuSans-20" x="748.429688"/>
     <use xlink:href="#DejaVuSans-2d" x="780.216797"/>
     <use xlink:href="#DejaVuSans-20" x="816.300781"/>
     <use xlink:href="#DejaVuSans-62" x="848.087891"/>
     <use xlink:href="#DejaVuSans-61" x="911.564453"/>
     <use xlink:href="#DejaVuSans-72" x="972.84375"/>
     <use xlink:href="#DejaVuSans-20" x="1013.957031"/>
     <use xlink:href="#DejaVuSans-63" x="1045.744141"/>
     <use xlink:href="#DejaVuSans-68" x="1100.724609"/>
     <use xlink:href="#DejaVuSans-61" x="1164.103516"/>
     <use xlink:href="#DejaVuSans-72" x="1225.382812"/>
     <use xlink:href="#DejaVuSans-74" x="1266.496094"/>
     <use xlink:href="#DejaVuSans-20" x="1305.705078"/>
     <use xlink:href="#DejaVuSans-6f" x="1337.492188"/>
     <use xlink:href="#DejaVuSans-66" x="1398.673828"/>
     <use xlink:href="#DejaVuSans-20" x="1433.878906"/>
     <use xlink:href="#DejaVuSans-76" x="1465.666016"/>
     <use xlink:href="#DejaVuSans-61" x="1524.845703"/>
     <use xlink:href="#DejaVuSans-72" x="1586.125"/>
     <use xlink:href="#DejaVuSans-69" x="1627.238281"/>
     <use xlink:href="#DejaVuSans-61" x="1655.021484"/>
     <use xlink:href="#DejaVuSans-6e" x="1716.300781"/>
     <use xlink:href="#DejaVuSans-74" x="1779.679688"/>
     <use xlink:href="#DejaVuSans-73" x="1818.888672"/>
     <use xlink:href="#DejaVuSans-20" x="1870.988281"/>
     <use xlink:href="#DejaVuSans-73" x="1902.775391"/>
     <use xlink:href="#DejaVuSans-75" x="1954.875"/>
     <use xlink:href="#DejaVuSans-6d" x="2018.253906"/>
     <use xlink:href="#DejaVuSans-20" x="2115.666016"/>
     <use xlink:href="#DejaVuSans-64" x="2147.453125"/>
     <use xlink:href="#DejaVuSans-75" x="2210.929688"/>
     <use xlink:href="#DejaVuSans-72" x="2274.308594"/>
     <use xlink:href="#DejaVuSans-61" x="2315.421875"/>
     <use xlink:href="#DejaVuSans-74" x="2376.701172"/>
     <use xlink:href="#DejaVuSans-69" x="2415.910156"/>
     <use xlink:href="#DejaVuSans-6f" x="2443.693359"/>
     <use xlink:href="#DejaVuSans-6e" x="2504.875"/>
    </g>
   </g>
  </g>
 </g>
 <defs>
  <clipPath id="pd5077c0e37">
   <rect x="36.17625" y="24.14175" width="357.12" height="266.112"/>
  </clipPath>
 </defs>
</svg>
