<?xml version="1.0" encoding="utf-8" standalone="no"?>
<!DOCTYPE svg PUBLIC "-//W3C//DTD SVG 1.1//EN"
  "http://www.w3.org/Graphics/SVG/1.1/DTD/svg11.dtd">
<svg xmlns:xlink="http://www.w3.org/1999/xlink" width="439.395125pt" height="329.745625pt" viewBox="0 0 439.395125 329.745625" xmlns="http://www.w3.org/2000/svg" version="1.1">
 <metadata>
  <rdf:RDF xmlns:dc="http://purl.org/dc/elements/1.1/" xmlns:cc="http://creativecommons.org/ns#" xmlns:rdf="http://www.w3.org/1999/02/22-rdf-syntax-ns#">
   <cc:Work>
    <dc:type rdf:resource="http://purl.org/dc/dcmitype/StillImage"/>
    <dc:date>2022-01-23T23:57:25.486897</dc:date>
    <dc:format>image/svg+xml</dc:format>
    <dc:creator>
     <cc:Agent>
      <dc:title>Matplotlib v3.5.1, https://matplotlib.org/</dc:title>
     </cc:Agent>
    </dc:creator>
   </cc:Work>
  </rdf:RDF>
 </metadata>
 <defs>
  <style type="text/css">*{stroke-linejoin: round; stroke-linecap: butt}</style>
 </defs>
 <g id="figure_1">
  <g id="patch_1">
   <path d="M 0 329.745625 
L 439.395125 329.745625 
L 439.395125 0 
L 0 0 
z
" style="fill: #ffffff"/>
  </g>
  <g id="axes_1">
   <g id="patch_2">
    <path d="M 52.413125 290.25375 
L 409.533125 290.25375 
L 409.533125 24.14175 
L 52.413125 24.14175 
z
" style="fill: #e5e5e5"/>
   </g>
   <g id="matplotlib.axis_1">
    <g id="xtick_1">
     <g id="line2d_1">
      <path d="M 69.299081 290.25375 
L 69.299081 24.14175 
" clip-path="url(#p83f3cb0f7f)" style="fill: none; stroke: #ffffff; stroke-width: 0.8; stroke-linecap: square"/>
     </g>
     <g id="line2d_2">
      <defs>
       <path id="ma970a3a6e8" d="M 0 0 
L 0 3.5 
" style="stroke: #555555; stroke-width: 0.8"/>
      </defs>
      <g>
       <use xlink:href="#ma970a3a6e8" x="69.299081" y="290.25375" style="fill: #555555; stroke: #555555; stroke-width: 0.8"/>
      </g>
     </g>
     <g id="text_1">
      <!-- 0 -->
      <g style="fill: #555555" transform="translate(66.117831 304.852187)scale(0.1 -0.1)">
       <defs>
        <path id="DejaVuSans-30" d="M 2034 4250 
Q 1547 4250 1301 3770 
Q 1056 3291 1056 2328 
Q 1056 1369 1301 889 
Q 1547 409 2034 409 
Q 2525 409 2770 889 
Q 3016 1369 3016 2328 
Q 3016 3291 2770 3770 
Q 2525 4250 2034 4250 
z
M 2034 4750 
Q 2819 4750 3233 4129 
Q 3647 3509 3647 2328 
Q 3647 1150 3233 529 
Q 2819 -91 2034 -91 
Q 1250 -91 836 529 
Q 422 1150 422 2328 
Q 422 3509 836 4129 
Q 1250 4750 2034 4750 
z
" transform="scale(0.015625)"/>
       </defs>
       <use xlink:href="#DejaVuSans-30"/>
      </g>
     </g>
    </g>
    <g id="xtick_2">
     <g id="line2d_3">
      <path d="M 95.428219 290.25375 
L 95.428219 24.14175 
" clip-path="url(#p83f3cb0f7f)" style="fill: none; stroke: #ffffff; stroke-width: 0.8; stroke-linecap: square"/>
     </g>
     <g id="line2d_4">
      <g>
       <use xlink:href="#ma970a3a6e8" x="95.428219" y="290.25375" style="fill: #555555; stroke: #555555; stroke-width: 0.8"/>
      </g>
     </g>
     <g id="text_2">
      <!-- 8 -->
      <g style="fill: #555555" transform="translate(92.246969 304.852187)scale(0.1 -0.1)">
       <defs>
        <path id="DejaVuSans-38" d="M 2034 2216 
Q 1584 2216 1326 1975 
Q 1069 1734 1069 1313 
Q 1069 891 1326 650 
Q 1584 409 2034 409 
Q 2484 409 2743 651 
Q 3003 894 3003 1313 
Q 3003 1734 2745 1975 
Q 2488 2216 2034 2216 
z
M 1403 2484 
Q 997 2584 770 2862 
Q 544 3141 544 3541 
Q 544 4100 942 4425 
Q 1341 4750 2034 4750 
Q 2731 4750 3128 4425 
Q 3525 4100 3525 3541 
Q 3525 3141 3298 2862 
Q 3072 2584 2669 2484 
Q 3125 2378 3379 2068 
Q 3634 1759 3634 1313 
Q 3634 634 3220 271 
Q 2806 -91 2034 -91 
Q 1263 -91 848 271 
Q 434 634 434 1313 
Q 434 1759 690 2068 
Q 947 2378 1403 2484 
z
M 1172 3481 
Q 1172 3119 1398 2916 
Q 1625 2713 2034 2713 
Q 2441 2713 2670 2916 
Q 2900 3119 2900 3481 
Q 2900 3844 2670 4047 
Q 2441 4250 2034 4250 
Q 1625 4250 1398 4047 
Q 1172 3844 1172 3481 
z
" transform="scale(0.015625)"/>
       </defs>
       <use xlink:href="#DejaVuSans-38"/>
      </g>
     </g>
    </g>
    <g id="xtick_3">
     <g id="line2d_5">
      <path d="M 121.557358 290.25375 
L 121.557358 24.14175 
" clip-path="url(#p83f3cb0f7f)" style="fill: none; stroke: #ffffff; stroke-width: 0.8; stroke-linecap: square"/>
     </g>
     <g id="line2d_6">
      <g>
       <use xlink:href="#ma970a3a6e8" x="121.557358" y="290.25375" style="fill: #555555; stroke: #555555; stroke-width: 0.8"/>
      </g>
     </g>
     <g id="text_3">
      <!-- 16 -->
      <g style="fill: #555555" transform="translate(115.194858 304.852187)scale(0.1 -0.1)">
       <defs>
        <path id="DejaVuSans-31" d="M 794 531 
L 1825 531 
L 1825 4091 
L 703 3866 
L 703 4441 
L 1819 4666 
L 2450 4666 
L 2450 531 
L 3481 531 
L 3481 0 
L 794 0 
L 794 531 
z
" transform="scale(0.015625)"/>
        <path id="DejaVuSans-36" d="M 2113 2584 
Q 1688 2584 1439 2293 
Q 1191 2003 1191 1497 
Q 1191 994 1439 701 
Q 1688 409 2113 409 
Q 2538 409 2786 701 
Q 3034 994 3034 1497 
Q 3034 2003 2786 2293 
Q 2538 2584 2113 2584 
z
M 3366 4563 
L 3366 3988 
Q 3128 4100 2886 4159 
Q 2644 4219 2406 4219 
Q 1781 4219 1451 3797 
Q 1122 3375 1075 2522 
Q 1259 2794 1537 2939 
Q 1816 3084 2150 3084 
Q 2853 3084 3261 2657 
Q 3669 2231 3669 1497 
Q 3669 778 3244 343 
Q 2819 -91 2113 -91 
Q 1303 -91 875 529 
Q 447 1150 447 2328 
Q 447 3434 972 4092 
Q 1497 4750 2381 4750 
Q 2619 4750 2861 4703 
Q 3103 4656 3366 4563 
z
" transform="scale(0.015625)"/>
       </defs>
       <use xlink:href="#DejaVuSans-31"/>
       <use xlink:href="#DejaVuSans-36" x="63.623047"/>
      </g>
     </g>
    </g>
    <g id="xtick_4">
     <g id="line2d_7">
      <path d="M 147.686496 290.25375 
L 147.686496 24.14175 
" clip-path="url(#p83f3cb0f7f)" style="fill: none; stroke: #ffffff; stroke-width: 0.8; stroke-linecap: square"/>
     </g>
     <g id="line2d_8">
      <g>
       <use xlink:href="#ma970a3a6e8" x="147.686496" y="290.25375" style="fill: #555555; stroke: #555555; stroke-width: 0.8"/>
      </g>
     </g>
     <g id="text_4">
      <!-- 24 -->
      <g style="fill: #555555" transform="translate(141.323996 304.852187)scale(0.1 -0.1)">
       <defs>
        <path id="DejaVuSans-32" d="M 1228 531 
L 3431 531 
L 3431 0 
L 469 0 
L 469 531 
Q 828 903 1448 1529 
Q 2069 2156 2228 2338 
Q 2531 2678 2651 2914 
Q 2772 3150 2772 3378 
Q 2772 3750 2511 3984 
Q 2250 4219 1831 4219 
Q 1534 4219 1204 4116 
Q 875 4013 500 3803 
L 500 4441 
Q 881 4594 1212 4672 
Q 1544 4750 1819 4750 
Q 2544 4750 2975 4387 
Q 3406 4025 3406 3419 
Q 3406 3131 3298 2873 
Q 3191 2616 2906 2266 
Q 2828 2175 2409 1742 
Q 1991 1309 1228 531 
z
" transform="scale(0.015625)"/>
        <path id="DejaVuSans-34" d="M 2419 4116 
L 825 1625 
L 2419 1625 
L 2419 4116 
z
M 2253 4666 
L 3047 4666 
L 3047 1625 
L 3713 1625 
L 3713 1100 
L 3047 1100 
L 3047 0 
L 2419 0 
L 2419 1100 
L 313 1100 
L 313 1709 
L 2253 4666 
z
" transform="scale(0.015625)"/>
       </defs>
       <use xlink:href="#DejaVuSans-32"/>
       <use xlink:href="#DejaVuSans-34" x="63.623047"/>
      </g>
     </g>
    </g>
    <g id="xtick_5">
     <g id="line2d_9">
      <path d="M 173.815635 290.25375 
L 173.815635 24.14175 
" clip-path="url(#p83f3cb0f7f)" style="fill: none; stroke: #ffffff; stroke-width: 0.8; stroke-linecap: square"/>
     </g>
     <g id="line2d_10">
      <g>
       <use xlink:href="#ma970a3a6e8" x="173.815635" y="290.25375" style="fill: #555555; stroke: #555555; stroke-width: 0.8"/>
      </g>
     </g>
     <g id="text_5">
      <!-- 32 -->
      <g style="fill: #555555" transform="translate(167.453135 304.852187)scale(0.1 -0.1)">
       <defs>
        <path id="DejaVuSans-33" d="M 2597 2516 
Q 3050 2419 3304 2112 
Q 3559 1806 3559 1356 
Q 3559 666 3084 287 
Q 2609 -91 1734 -91 
Q 1441 -91 1130 -33 
Q 819 25 488 141 
L 488 750 
Q 750 597 1062 519 
Q 1375 441 1716 441 
Q 2309 441 2620 675 
Q 2931 909 2931 1356 
Q 2931 1769 2642 2001 
Q 2353 2234 1838 2234 
L 1294 2234 
L 1294 2753 
L 1863 2753 
Q 2328 2753 2575 2939 
Q 2822 3125 2822 3475 
Q 2822 3834 2567 4026 
Q 2313 4219 1838 4219 
Q 1578 4219 1281 4162 
Q 984 4106 628 3988 
L 628 4550 
Q 988 4650 1302 4700 
Q 1616 4750 1894 4750 
Q 2613 4750 3031 4423 
Q 3450 4097 3450 3541 
Q 3450 3153 3228 2886 
Q 3006 2619 2597 2516 
z
" transform="scale(0.015625)"/>
       </defs>
       <use xlink:href="#DejaVuSans-33"/>
       <use xlink:href="#DejaVuSans-32" x="63.623047"/>
      </g>
     </g>
    </g>
    <g id="xtick_6">
     <g id="line2d_11">
      <path d="M 199.944773 290.25375 
L 199.944773 24.14175 
" clip-path="url(#p83f3cb0f7f)" style="fill: none; stroke: #ffffff; stroke-width: 0.8; stroke-linecap: square"/>
     </g>
     <g id="line2d_12">
      <g>
       <use xlink:href="#ma970a3a6e8" x="199.944773" y="290.25375" style="fill: #555555; stroke: #555555; stroke-width: 0.8"/>
      </g>
     </g>
     <g id="text_6">
      <!-- 40 -->
      <g style="fill: #555555" transform="translate(193.582273 304.852187)scale(0.1 -0.1)">
       <use xlink:href="#DejaVuSans-34"/>
       <use xlink:href="#DejaVuSans-30" x="63.623047"/>
      </g>
     </g>
    </g>
    <g id="xtick_7">
     <g id="line2d_13">
      <path d="M 226.073912 290.25375 
L 226.073912 24.14175 
" clip-path="url(#p83f3cb0f7f)" style="fill: none; stroke: #ffffff; stroke-width: 0.8; stroke-linecap: square"/>
     </g>
     <g id="line2d_14">
      <g>
       <use xlink:href="#ma970a3a6e8" x="226.073912" y="290.25375" style="fill: #555555; stroke: #555555; stroke-width: 0.8"/>
      </g>
     </g>
     <g id="text_7">
      <!-- 48 -->
      <g style="fill: #555555" transform="translate(219.711412 304.852187)scale(0.1 -0.1)">
       <use xlink:href="#DejaVuSans-34"/>
       <use xlink:href="#DejaVuSans-38" x="63.623047"/>
      </g>
     </g>
    </g>
    <g id="xtick_8">
     <g id="line2d_15">
      <path d="M 252.20305 290.25375 
L 252.20305 24.14175 
" clip-path="url(#p83f3cb0f7f)" style="fill: none; stroke: #ffffff; stroke-width: 0.8; stroke-linecap: square"/>
     </g>
     <g id="line2d_16">
      <g>
       <use xlink:href="#ma970a3a6e8" x="252.20305" y="290.25375" style="fill: #555555; stroke: #555555; stroke-width: 0.8"/>
      </g>
     </g>
     <g id="text_8">
      <!-- 56 -->
      <g style="fill: #555555" transform="translate(245.84055 304.852187)scale(0.1 -0.1)">
       <defs>
        <path id="DejaVuSans-35" d="M 691 4666 
L 3169 4666 
L 3169 4134 
L 1269 4134 
L 1269 2991 
Q 1406 3038 1543 3061 
Q 1681 3084 1819 3084 
Q 2600 3084 3056 2656 
Q 3513 2228 3513 1497 
Q 3513 744 3044 326 
Q 2575 -91 1722 -91 
Q 1428 -91 1123 -41 
Q 819 9 494 109 
L 494 744 
Q 775 591 1075 516 
Q 1375 441 1709 441 
Q 2250 441 2565 725 
Q 2881 1009 2881 1497 
Q 2881 1984 2565 2268 
Q 2250 2553 1709 2553 
Q 1456 2553 1204 2497 
Q 953 2441 691 2322 
L 691 4666 
z
" transform="scale(0.015625)"/>
       </defs>
       <use xlink:href="#DejaVuSans-35"/>
       <use xlink:href="#DejaVuSans-36" x="63.623047"/>
      </g>
     </g>
    </g>
    <g id="xtick_9">
     <g id="line2d_17">
      <path d="M 278.332188 290.25375 
L 278.332188 24.14175 
" clip-path="url(#p83f3cb0f7f)" style="fill: none; stroke: #ffffff; stroke-width: 0.8; stroke-linecap: square"/>
     </g>
     <g id="line2d_18">
      <g>
       <use xlink:href="#ma970a3a6e8" x="278.332188" y="290.25375" style="fill: #555555; stroke: #555555; stroke-width: 0.8"/>
      </g>
     </g>
     <g id="text_9">
      <!-- 64 -->
      <g style="fill: #555555" transform="translate(271.969688 304.852187)scale(0.1 -0.1)">
       <use xlink:href="#DejaVuSans-36"/>
       <use xlink:href="#DejaVuSans-34" x="63.623047"/>
      </g>
     </g>
    </g>
    <g id="xtick_10">
     <g id="line2d_19">
      <path d="M 304.461327 290.25375 
L 304.461327 24.14175 
" clip-path="url(#p83f3cb0f7f)" style="fill: none; stroke: #ffffff; stroke-width: 0.8; stroke-linecap: square"/>
     </g>
     <g id="line2d_20">
      <g>
       <use xlink:href="#ma970a3a6e8" x="304.461327" y="290.25375" style="fill: #555555; stroke: #555555; stroke-width: 0.8"/>
      </g>
     </g>
     <g id="text_10">
      <!-- 72 -->
      <g style="fill: #555555" transform="translate(298.098827 304.852187)scale(0.1 -0.1)">
       <defs>
        <path id="DejaVuSans-37" d="M 525 4666 
L 3525 4666 
L 3525 4397 
L 1831 0 
L 1172 0 
L 2766 4134 
L 525 4134 
L 525 4666 
z
" transform="scale(0.015625)"/>
       </defs>
       <use xlink:href="#DejaVuSans-37"/>
       <use xlink:href="#DejaVuSans-32" x="63.623047"/>
      </g>
     </g>
    </g>
    <g id="xtick_11">
     <g id="line2d_21">
      <path d="M 330.590465 290.25375 
L 330.590465 24.14175 
" clip-path="url(#p83f3cb0f7f)" style="fill: none; stroke: #ffffff; stroke-width: 0.8; stroke-linecap: square"/>
     </g>
     <g id="line2d_22">
      <g>
       <use xlink:href="#ma970a3a6e8" x="330.590465" y="290.25375" style="fill: #555555; stroke: #555555; stroke-width: 0.8"/>
      </g>
     </g>
     <g id="text_11">
      <!-- 80 -->
      <g style="fill: #555555" transform="translate(324.227965 304.852187)scale(0.1 -0.1)">
       <use xlink:href="#DejaVuSans-38"/>
       <use xlink:href="#DejaVuSans-30" x="63.623047"/>
      </g>
     </g>
    </g>
    <g id="xtick_12">
     <g id="line2d_23">
      <path d="M 356.719604 290.25375 
L 356.719604 24.14175 
" clip-path="url(#p83f3cb0f7f)" style="fill: none; stroke: #ffffff; stroke-width: 0.8; stroke-linecap: square"/>
     </g>
     <g id="line2d_24">
      <g>
       <use xlink:href="#ma970a3a6e8" x="356.719604" y="290.25375" style="fill: #555555; stroke: #555555; stroke-width: 0.8"/>
      </g>
     </g>
     <g id="text_12">
      <!-- 88 -->
      <g style="fill: #555555" transform="translate(350.357104 304.852187)scale(0.1 -0.1)">
       <use xlink:href="#DejaVuSans-38"/>
       <use xlink:href="#DejaVuSans-38" x="63.623047"/>
      </g>
     </g>
    </g>
    <g id="xtick_13">
     <g id="line2d_25">
      <path d="M 382.848742 290.25375 
L 382.848742 24.14175 
" clip-path="url(#p83f3cb0f7f)" style="fill: none; stroke: #ffffff; stroke-width: 0.8; stroke-linecap: square"/>
     </g>
     <g id="line2d_26">
      <g>
       <use xlink:href="#ma970a3a6e8" x="382.848742" y="290.25375" style="fill: #555555; stroke: #555555; stroke-width: 0.8"/>
      </g>
     </g>
     <g id="text_13">
      <!-- 96 -->
      <g style="fill: #555555" transform="translate(376.486242 304.852187)scale(0.1 -0.1)">
       <defs>
        <path id="DejaVuSans-39" d="M 703 97 
L 703 672 
Q 941 559 1184 500 
Q 1428 441 1663 441 
Q 2288 441 2617 861 
Q 2947 1281 2994 2138 
Q 2813 1869 2534 1725 
Q 2256 1581 1919 1581 
Q 1219 1581 811 2004 
Q 403 2428 403 3163 
Q 403 3881 828 4315 
Q 1253 4750 1959 4750 
Q 2769 4750 3195 4129 
Q 3622 3509 3622 2328 
Q 3622 1225 3098 567 
Q 2575 -91 1691 -91 
Q 1453 -91 1209 -44 
Q 966 3 703 97 
z
M 1959 2075 
Q 2384 2075 2632 2365 
Q 2881 2656 2881 3163 
Q 2881 3666 2632 3958 
Q 2384 4250 1959 4250 
Q 1534 4250 1286 3958 
Q 1038 3666 1038 3163 
Q 1038 2656 1286 2365 
Q 1534 2075 1959 2075 
z
" transform="scale(0.015625)"/>
       </defs>
       <use xlink:href="#DejaVuSans-39"/>
       <use xlink:href="#DejaVuSans-36" x="63.623047"/>
      </g>
     </g>
    </g>
    <g id="xtick_14">
     <g id="line2d_27">
      <path d="M 408.977881 290.25375 
L 408.977881 24.14175 
" clip-path="url(#p83f3cb0f7f)" style="fill: none; stroke: #ffffff; stroke-width: 0.8; stroke-linecap: square"/>
     </g>
     <g id="line2d_28">
      <g>
       <use xlink:href="#ma970a3a6e8" x="408.977881" y="290.25375" style="fill: #555555; stroke: #555555; stroke-width: 0.8"/>
      </g>
     </g>
    </g>
    <g id="text_14">
     <!-- cases -->
     <g style="fill: #555555" transform="translate(214.054063 320.05)scale(0.12 -0.12)">
      <defs>
       <path id="DejaVuSans-63" d="M 3122 3366 
L 3122 2828 
Q 2878 2963 2633 3030 
Q 2388 3097 2138 3097 
Q 1578 3097 1268 2742 
Q 959 2388 959 1747 
Q 959 1106 1268 751 
Q 1578 397 2138 397 
Q 2388 397 2633 464 
Q 2878 531 3122 666 
L 3122 134 
Q 2881 22 2623 -34 
Q 2366 -91 2075 -91 
Q 1284 -91 818 406 
Q 353 903 353 1747 
Q 353 2603 823 3093 
Q 1294 3584 2113 3584 
Q 2378 3584 2631 3529 
Q 2884 3475 3122 3366 
z
" transform="scale(0.015625)"/>
       <path id="DejaVuSans-61" d="M 2194 1759 
Q 1497 1759 1228 1600 
Q 959 1441 959 1056 
Q 959 750 1161 570 
Q 1363 391 1709 391 
Q 2188 391 2477 730 
Q 2766 1069 2766 1631 
L 2766 1759 
L 2194 1759 
z
M 3341 1997 
L 3341 0 
L 2766 0 
L 2766 531 
Q 2569 213 2275 61 
Q 1981 -91 1556 -91 
Q 1019 -91 701 211 
Q 384 513 384 1019 
Q 384 1609 779 1909 
Q 1175 2209 1959 2209 
L 2766 2209 
L 2766 2266 
Q 2766 2663 2505 2880 
Q 2244 3097 1772 3097 
Q 1472 3097 1187 3025 
Q 903 2953 641 2809 
L 641 3341 
Q 956 3463 1253 3523 
Q 1550 3584 1831 3584 
Q 2591 3584 2966 3190 
Q 3341 2797 3341 1997 
z
" transform="scale(0.015625)"/>
       <path id="DejaVuSans-73" d="M 2834 3397 
L 2834 2853 
Q 2591 2978 2328 3040 
Q 2066 3103 1784 3103 
Q 1356 3103 1142 2972 
Q 928 2841 928 2578 
Q 928 2378 1081 2264 
Q 1234 2150 1697 2047 
L 1894 2003 
Q 2506 1872 2764 1633 
Q 3022 1394 3022 966 
Q 3022 478 2636 193 
Q 2250 -91 1575 -91 
Q 1294 -91 989 -36 
Q 684 19 347 128 
L 347 722 
Q 666 556 975 473 
Q 1284 391 1588 391 
Q 1994 391 2212 530 
Q 2431 669 2431 922 
Q 2431 1156 2273 1281 
Q 2116 1406 1581 1522 
L 1381 1569 
Q 847 1681 609 1914 
Q 372 2147 372 2553 
Q 372 3047 722 3315 
Q 1072 3584 1716 3584 
Q 2034 3584 2315 3537 
Q 2597 3491 2834 3397 
z
" transform="scale(0.015625)"/>
       <path id="DejaVuSans-65" d="M 3597 1894 
L 3597 1613 
L 953 1613 
Q 991 1019 1311 708 
Q 1631 397 2203 397 
Q 2534 397 2845 478 
Q 3156 559 3463 722 
L 3463 178 
Q 3153 47 2828 -22 
Q 2503 -91 2169 -91 
Q 1331 -91 842 396 
Q 353 884 353 1716 
Q 353 2575 817 3079 
Q 1281 3584 2069 3584 
Q 2775 3584 3186 3129 
Q 3597 2675 3597 1894 
z
M 3022 2063 
Q 3016 2534 2758 2815 
Q 2500 3097 2075 3097 
Q 1594 3097 1305 2825 
Q 1016 2553 972 2059 
L 3022 2063 
z
" transform="scale(0.015625)"/>
      </defs>
      <use xlink:href="#DejaVuSans-63"/>
      <use xlink:href="#DejaVuSans-61" x="54.980469"/>
      <use xlink:href="#DejaVuSans-73" x="116.259766"/>
      <use xlink:href="#DejaVuSans-65" x="168.359375"/>
      <use xlink:href="#DejaVuSans-73" x="229.882812"/>
     </g>
    </g>
   </g>
   <g id="matplotlib.axis_2">
    <g id="ytick_1">
     <g id="line2d_29">
      <path d="M 52.413125 290.25375 
L 409.533125 290.25375 
" clip-path="url(#p83f3cb0f7f)" style="fill: none; stroke: #ffffff; stroke-width: 0.8; stroke-linecap: square"/>
     </g>
     <g id="line2d_30">
      <defs>
       <path id="m2e08c7c45a" d="M 0 0 
L -3.5 0 
" style="stroke: #555555; stroke-width: 0.8"/>
      </defs>
      <g>
       <use xlink:href="#m2e08c7c45a" x="52.413125" y="290.25375" style="fill: #555555; stroke: #555555; stroke-width: 0.8"/>
      </g>
     </g>
     <g id="text_15">
      <!-- 0.0 -->
      <g style="fill: #555555" transform="translate(29.51 294.052969)scale(0.1 -0.1)">
       <defs>
        <path id="DejaVuSans-2e" d="M 684 794 
L 1344 794 
L 1344 0 
L 684 0 
L 684 794 
z
" transform="scale(0.015625)"/>
       </defs>
       <use xlink:href="#DejaVuSans-30"/>
       <use xlink:href="#DejaVuSans-2e" x="63.623047"/>
       <use xlink:href="#DejaVuSans-30" x="95.410156"/>
      </g>
     </g>
    </g>
    <g id="ytick_2">
     <g id="line2d_31">
      <path d="M 52.413125 256.906382 
L 409.533125 256.906382 
" clip-path="url(#p83f3cb0f7f)" style="fill: none; stroke: #ffffff; stroke-width: 0.8; stroke-linecap: square"/>
     </g>
     <g id="line2d_32">
      <g>
       <use xlink:href="#m2e08c7c45a" x="52.413125" y="256.906382" style="fill: #555555; stroke: #555555; stroke-width: 0.8"/>
      </g>
     </g>
     <g id="text_16">
      <!-- 2.5 -->
      <g style="fill: #555555" transform="translate(29.51 260.7056)scale(0.1 -0.1)">
       <use xlink:href="#DejaVuSans-32"/>
       <use xlink:href="#DejaVuSans-2e" x="63.623047"/>
       <use xlink:href="#DejaVuSans-35" x="95.410156"/>
      </g>
     </g>
    </g>
    <g id="ytick_3">
     <g id="line2d_33">
      <path d="M 52.413125 223.559013 
L 409.533125 223.559013 
" clip-path="url(#p83f3cb0f7f)" style="fill: none; stroke: #ffffff; stroke-width: 0.8; stroke-linecap: square"/>
     </g>
     <g id="line2d_34">
      <g>
       <use xlink:href="#m2e08c7c45a" x="52.413125" y="223.559013" style="fill: #555555; stroke: #555555; stroke-width: 0.8"/>
      </g>
     </g>
     <g id="text_17">
      <!-- 5.0 -->
      <g style="fill: #555555" transform="translate(29.51 227.358232)scale(0.1 -0.1)">
       <use xlink:href="#DejaVuSans-35"/>
       <use xlink:href="#DejaVuSans-2e" x="63.623047"/>
       <use xlink:href="#DejaVuSans-30" x="95.410156"/>
      </g>
     </g>
    </g>
    <g id="ytick_4">
     <g id="line2d_35">
      <path d="M 52.413125 190.211645 
L 409.533125 190.211645 
" clip-path="url(#p83f3cb0f7f)" style="fill: none; stroke: #ffffff; stroke-width: 0.8; stroke-linecap: square"/>
     </g>
     <g id="line2d_36">
      <g>
       <use xlink:href="#m2e08c7c45a" x="52.413125" y="190.211645" style="fill: #555555; stroke: #555555; stroke-width: 0.8"/>
      </g>
     </g>
     <g id="text_18">
      <!-- 7.5 -->
      <g style="fill: #555555" transform="translate(29.51 194.010863)scale(0.1 -0.1)">
       <use xlink:href="#DejaVuSans-37"/>
       <use xlink:href="#DejaVuSans-2e" x="63.623047"/>
       <use xlink:href="#DejaVuSans-35" x="95.410156"/>
      </g>
     </g>
    </g>
    <g id="ytick_5">
     <g id="line2d_37">
      <path d="M 52.413125 156.864276 
L 409.533125 156.864276 
" clip-path="url(#p83f3cb0f7f)" style="fill: none; stroke: #ffffff; stroke-width: 0.8; stroke-linecap: square"/>
     </g>
     <g id="line2d_38">
      <g>
       <use xlink:href="#m2e08c7c45a" x="52.413125" y="156.864276" style="fill: #555555; stroke: #555555; stroke-width: 0.8"/>
      </g>
     </g>
     <g id="text_19">
      <!-- 10.0 -->
      <g style="fill: #555555" transform="translate(23.1475 160.663495)scale(0.1 -0.1)">
       <use xlink:href="#DejaVuSans-31"/>
       <use xlink:href="#DejaVuSans-30" x="63.623047"/>
       <use xlink:href="#DejaVuSans-2e" x="127.246094"/>
       <use xlink:href="#DejaVuSans-30" x="159.033203"/>
      </g>
     </g>
    </g>
    <g id="ytick_6">
     <g id="line2d_39">
      <path d="M 52.413125 123.516908 
L 409.533125 123.516908 
" clip-path="url(#p83f3cb0f7f)" style="fill: none; stroke: #ffffff; stroke-width: 0.8; stroke-linecap: square"/>
     </g>
     <g id="line2d_40">
      <g>
       <use xlink:href="#m2e08c7c45a" x="52.413125" y="123.516908" style="fill: #555555; stroke: #555555; stroke-width: 0.8"/>
      </g>
     </g>
     <g id="text_20">
      <!-- 12.5 -->
      <g style="fill: #555555" transform="translate(23.1475 127.316127)scale(0.1 -0.1)">
       <use xlink:href="#DejaVuSans-31"/>
       <use xlink:href="#DejaVuSans-32" x="63.623047"/>
       <use xlink:href="#DejaVuSans-2e" x="127.246094"/>
       <use xlink:href="#DejaVuSans-35" x="159.033203"/>
      </g>
     </g>
    </g>
    <g id="ytick_7">
     <g id="line2d_41">
      <path d="M 52.413125 90.169539 
L 409.533125 90.169539 
" clip-path="url(#p83f3cb0f7f)" style="fill: none; stroke: #ffffff; stroke-width: 0.8; stroke-linecap: square"/>
     </g>
     <g id="line2d_42">
      <g>
       <use xlink:href="#m2e08c7c45a" x="52.413125" y="90.169539" style="fill: #555555; stroke: #555555; stroke-width: 0.8"/>
      </g>
     </g>
     <g id="text_21">
      <!-- 15.0 -->
      <g style="fill: #555555" transform="translate(23.1475 93.968758)scale(0.1 -0.1)">
       <use xlink:href="#DejaVuSans-31"/>
       <use xlink:href="#DejaVuSans-35" x="63.623047"/>
       <use xlink:href="#DejaVuSans-2e" x="127.246094"/>
       <use xlink:href="#DejaVuSans-30" x="159.033203"/>
      </g>
     </g>
    </g>
    <g id="ytick_8">
     <g id="line2d_43">
      <path d="M 52.413125 56.822171 
L 409.533125 56.822171 
" clip-path="url(#p83f3cb0f7f)" style="fill: none; stroke: #ffffff; stroke-width: 0.8; stroke-linecap: square"/>
     </g>
     <g id="line2d_44">
      <g>
       <use xlink:href="#m2e08c7c45a" x="52.413125" y="56.822171" style="fill: #555555; stroke: #555555; stroke-width: 0.8"/>
      </g>
     </g>
     <g id="text_22">
      <!-- 17.5 -->
      <g style="fill: #555555" transform="translate(23.1475 60.62139)scale(0.1 -0.1)">
       <use xlink:href="#DejaVuSans-31"/>
       <use xlink:href="#DejaVuSans-37" x="63.623047"/>
       <use xlink:href="#DejaVuSans-2e" x="127.246094"/>
       <use xlink:href="#DejaVuSans-35" x="159.033203"/>
      </g>
     </g>
    </g>
    <g id="text_23">
     <!-- avg_duration -->
     <g style="fill: #555555" transform="translate(16.318125 196.48275)rotate(-90)scale(0.12 -0.12)">
      <defs>
       <path id="DejaVuSans-76" d="M 191 3500 
L 800 3500 
L 1894 563 
L 2988 3500 
L 3597 3500 
L 2284 0 
L 1503 0 
L 191 3500 
z
" transform="scale(0.015625)"/>
       <path id="DejaVuSans-67" d="M 2906 1791 
Q 2906 2416 2648 2759 
Q 2391 3103 1925 3103 
Q 1463 3103 1205 2759 
Q 947 2416 947 1791 
Q 947 1169 1205 825 
Q 1463 481 1925 481 
Q 2391 481 2648 825 
Q 2906 1169 2906 1791 
z
M 3481 434 
Q 3481 -459 3084 -895 
Q 2688 -1331 1869 -1331 
Q 1566 -1331 1297 -1286 
Q 1028 -1241 775 -1147 
L 775 -588 
Q 1028 -725 1275 -790 
Q 1522 -856 1778 -856 
Q 2344 -856 2625 -561 
Q 2906 -266 2906 331 
L 2906 616 
Q 2728 306 2450 153 
Q 2172 0 1784 0 
Q 1141 0 747 490 
Q 353 981 353 1791 
Q 353 2603 747 3093 
Q 1141 3584 1784 3584 
Q 2172 3584 2450 3431 
Q 2728 3278 2906 2969 
L 2906 3500 
L 3481 3500 
L 3481 434 
z
" transform="scale(0.015625)"/>
       <path id="DejaVuSans-5f" d="M 3263 -1063 
L 3263 -1509 
L -63 -1509 
L -63 -1063 
L 3263 -1063 
z
" transform="scale(0.015625)"/>
       <path id="DejaVuSans-64" d="M 2906 2969 
L 2906 4863 
L 3481 4863 
L 3481 0 
L 2906 0 
L 2906 525 
Q 2725 213 2448 61 
Q 2172 -91 1784 -91 
Q 1150 -91 751 415 
Q 353 922 353 1747 
Q 353 2572 751 3078 
Q 1150 3584 1784 3584 
Q 2172 3584 2448 3432 
Q 2725 3281 2906 2969 
z
M 947 1747 
Q 947 1113 1208 752 
Q 1469 391 1925 391 
Q 2381 391 2643 752 
Q 2906 1113 2906 1747 
Q 2906 2381 2643 2742 
Q 2381 3103 1925 3103 
Q 1469 3103 1208 2742 
Q 947 2381 947 1747 
z
" transform="scale(0.015625)"/>
       <path id="DejaVuSans-75" d="M 544 1381 
L 544 3500 
L 1119 3500 
L 1119 1403 
Q 1119 906 1312 657 
Q 1506 409 1894 409 
Q 2359 409 2629 706 
Q 2900 1003 2900 1516 
L 2900 3500 
L 3475 3500 
L 3475 0 
L 2900 0 
L 2900 538 
Q 2691 219 2414 64 
Q 2138 -91 1772 -91 
Q 1169 -91 856 284 
Q 544 659 544 1381 
z
M 1991 3584 
L 1991 3584 
z
" transform="scale(0.015625)"/>
       <path id="DejaVuSans-72" d="M 2631 2963 
Q 2534 3019 2420 3045 
Q 2306 3072 2169 3072 
Q 1681 3072 1420 2755 
Q 1159 2438 1159 1844 
L 1159 0 
L 581 0 
L 581 3500 
L 1159 3500 
L 1159 2956 
Q 1341 3275 1631 3429 
Q 1922 3584 2338 3584 
Q 2397 3584 2469 3576 
Q 2541 3569 2628 3553 
L 2631 2963 
z
" transform="scale(0.015625)"/>
       <path id="DejaVuSans-74" d="M 1172 4494 
L 1172 3500 
L 2356 3500 
L 2356 3053 
L 1172 3053 
L 1172 1153 
Q 1172 725 1289 603 
Q 1406 481 1766 481 
L 2356 481 
L 2356 0 
L 1766 0 
Q 1100 0 847 248 
Q 594 497 594 1153 
L 594 3053 
L 172 3053 
L 172 3500 
L 594 3500 
L 594 4494 
L 1172 4494 
z
" transform="scale(0.015625)"/>
       <path id="DejaVuSans-69" d="M 603 3500 
L 1178 3500 
L 1178 0 
L 603 0 
L 603 3500 
z
M 603 4863 
L 1178 4863 
L 1178 4134 
L 603 4134 
L 603 4863 
z
" transform="scale(0.015625)"/>
       <path id="DejaVuSans-6f" d="M 1959 3097 
Q 1497 3097 1228 2736 
Q 959 2375 959 1747 
Q 959 1119 1226 758 
Q 1494 397 1959 397 
Q 2419 397 2687 759 
Q 2956 1122 2956 1747 
Q 2956 2369 2687 2733 
Q 2419 3097 1959 3097 
z
M 1959 3584 
Q 2709 3584 3137 3096 
Q 3566 2609 3566 1747 
Q 3566 888 3137 398 
Q 2709 -91 1959 -91 
Q 1206 -91 779 398 
Q 353 888 353 1747 
Q 353 2609 779 3096 
Q 1206 3584 1959 3584 
z
" transform="scale(0.015625)"/>
       <path id="DejaVuSans-6e" d="M 3513 2113 
L 3513 0 
L 2938 0 
L 2938 2094 
Q 2938 2591 2744 2837 
Q 2550 3084 2163 3084 
Q 1697 3084 1428 2787 
Q 1159 2491 1159 1978 
L 1159 0 
L 581 0 
L 581 3500 
L 1159 3500 
L 1159 2956 
Q 1366 3272 1645 3428 
Q 1925 3584 2291 3584 
Q 2894 3584 3203 3211 
Q 3513 2838 3513 2113 
z
" transform="scale(0.015625)"/>
      </defs>
      <use xlink:href="#DejaVuSans-61"/>
      <use xlink:href="#DejaVuSans-76" x="61.279297"/>
      <use xlink:href="#DejaVuSans-67" x="120.458984"/>
      <use xlink:href="#DejaVuSans-5f" x="183.935547"/>
      <use xlink:href="#DejaVuSans-64" x="233.935547"/>
      <use xlink:href="#DejaVuSans-75" x="297.412109"/>
      <use xlink:href="#DejaVuSans-72" x="360.791016"/>
      <use xlink:href="#DejaVuSans-61" x="401.904297"/>
      <use xlink:href="#DejaVuSans-74" x="463.183594"/>
      <use xlink:href="#DejaVuSans-69" x="502.392578"/>
      <use xlink:href="#DejaVuSans-6f" x="530.175781"/>
      <use xlink:href="#DejaVuSans-6e" x="591.357422"/>
     </g>
    </g>
   </g>
   <g id="patch_3">
    <path d="M 68.645852 290.25375 
L 69.952309 290.25375 
L 69.952309 223.559013 
L 68.645852 223.559013 
z
" clip-path="url(#p83f3cb0f7f)" style="fill: #9932cc"/>
   </g>
   <g id="patch_4">
    <path d="M 71.911995 290.25375 
L 73.218452 290.25375 
L 73.218452 196.881118 
L 71.911995 196.881118 
z
" clip-path="url(#p83f3cb0f7f)" style="fill: #32cd32"/>
   </g>
   <g id="patch_5">
    <path d="M 75.178137 290.25375 
L 76.484594 290.25375 
L 76.484594 223.559013 
L 75.178137 223.559013 
z
" clip-path="url(#p83f3cb0f7f)" style="fill: #9932cc"/>
   </g>
   <g id="patch_6">
    <path d="M 78.444279 290.25375 
L 79.750736 290.25375 
L 79.750736 170.203224 
L 78.444279 170.203224 
z
" clip-path="url(#p83f3cb0f7f)" style="fill: #32cd32"/>
   </g>
   <g id="patch_7">
    <path d="M 81.710422 290.25375 
L 83.016878 290.25375 
L 83.016878 196.881118 
L 81.710422 196.881118 
z
" clip-path="url(#p83f3cb0f7f)" style="fill: #9932cc"/>
   </g>
   <g id="patch_8">
    <path d="M 84.976564 290.25375 
L 86.283021 290.25375 
L 86.283021 223.559013 
L 84.976564 223.559013 
z
" clip-path="url(#p83f3cb0f7f)" style="fill: #32cd32"/>
   </g>
   <g id="patch_9">
    <path d="M 88.242706 290.25375 
L 89.549163 290.25375 
L 89.549163 223.559013 
L 88.242706 223.559013 
z
" clip-path="url(#p83f3cb0f7f)" style="fill: #9932cc"/>
   </g>
   <g id="patch_10">
    <path d="M 91.508848 290.25375 
L 92.815305 290.25375 
L 92.815305 196.881118 
L 91.508848 196.881118 
z
" clip-path="url(#p83f3cb0f7f)" style="fill: #32cd32"/>
   </g>
   <g id="patch_11">
    <path d="M 94.774991 290.25375 
L 96.081448 290.25375 
L 96.081448 223.559013 
L 94.774991 223.559013 
z
" clip-path="url(#p83f3cb0f7f)" style="fill: #9932cc"/>
   </g>
   <g id="patch_12">
    <path d="M 98.041133 290.25375 
L 99.34759 290.25375 
L 99.34759 223.559013 
L 98.041133 223.559013 
z
" clip-path="url(#p83f3cb0f7f)" style="fill: #32cd32"/>
   </g>
   <g id="patch_13">
    <path d="M 101.307275 290.25375 
L 102.613732 290.25375 
L 102.613732 223.559013 
L 101.307275 223.559013 
z
" clip-path="url(#p83f3cb0f7f)" style="fill: #9932cc"/>
   </g>
   <g id="patch_14">
    <path d="M 104.573418 290.25375 
L 105.879875 290.25375 
L 105.879875 90.169539 
L 104.573418 90.169539 
z
" clip-path="url(#p83f3cb0f7f)" style="fill: #32cd32"/>
   </g>
   <g id="patch_15">
    <path d="M 107.83956 290.25375 
L 109.146017 290.25375 
L 109.146017 90.169539 
L 107.83956 90.169539 
z
" clip-path="url(#p83f3cb0f7f)" style="fill: #9932cc"/>
   </g>
   <g id="patch_16">
    <path d="M 111.105702 290.25375 
L 112.412159 290.25375 
L 112.412159 223.559013 
L 111.105702 223.559013 
z
" clip-path="url(#p83f3cb0f7f)" style="fill: #32cd32"/>
   </g>
   <g id="patch_17">
    <path d="M 114.371845 290.25375 
L 115.678302 290.25375 
L 115.678302 63.491645 
L 114.371845 63.491645 
z
" clip-path="url(#p83f3cb0f7f)" style="fill: #9932cc"/>
   </g>
   <g id="patch_18">
    <path d="M 117.637987 290.25375 
L 118.944444 290.25375 
L 118.944444 196.881118 
L 117.637987 196.881118 
z
" clip-path="url(#p83f3cb0f7f)" style="fill: #32cd32"/>
   </g>
   <g id="patch_19">
    <path d="M 120.904129 290.25375 
L 122.210586 290.25375 
L 122.210586 90.169539 
L 120.904129 90.169539 
z
" clip-path="url(#p83f3cb0f7f)" style="fill: #9932cc"/>
   </g>
   <g id="patch_20">
    <path d="M 124.170272 290.25375 
L 125.476728 290.25375 
L 125.476728 223.559013 
L 124.170272 223.559013 
z
" clip-path="url(#p83f3cb0f7f)" style="fill: #32cd32"/>
   </g>
   <g id="patch_21">
    <path d="M 127.436414 290.25375 
L 128.742871 290.25375 
L 128.742871 196.881118 
L 127.436414 196.881118 
z
" clip-path="url(#p83f3cb0f7f)" style="fill: #9932cc"/>
   </g>
   <g id="patch_22">
    <path d="M 130.702556 290.25375 
L 132.009013 290.25375 
L 132.009013 223.559013 
L 130.702556 223.559013 
z
" clip-path="url(#p83f3cb0f7f)" style="fill: #32cd32"/>
   </g>
   <g id="patch_23">
    <path d="M 133.968698 290.25375 
L 135.275155 290.25375 
L 135.275155 170.203224 
L 133.968698 170.203224 
z
" clip-path="url(#p83f3cb0f7f)" style="fill: #9932cc"/>
   </g>
   <g id="patch_24">
    <path d="M 137.234841 290.25375 
L 138.541298 290.25375 
L 138.541298 223.559013 
L 137.234841 223.559013 
z
" clip-path="url(#p83f3cb0f7f)" style="fill: #32cd32"/>
   </g>
   <g id="patch_25">
    <path d="M 140.500983 290.25375 
L 141.80744 290.25375 
L 141.80744 196.881118 
L 140.500983 196.881118 
z
" clip-path="url(#p83f3cb0f7f)" style="fill: #9932cc"/>
   </g>
   <g id="patch_26">
    <path d="M 143.767125 290.25375 
L 145.073582 290.25375 
L 145.073582 170.203224 
L 143.767125 170.203224 
z
" clip-path="url(#p83f3cb0f7f)" style="fill: #32cd32"/>
   </g>
   <g id="patch_27">
    <path d="M 147.033268 290.25375 
L 148.339725 290.25375 
L 148.339725 143.525329 
L 147.033268 143.525329 
z
" clip-path="url(#p83f3cb0f7f)" style="fill: #9932cc"/>
   </g>
   <g id="patch_28">
    <path d="M 150.29941 290.25375 
L 151.605867 290.25375 
L 151.605867 143.525329 
L 150.29941 143.525329 
z
" clip-path="url(#p83f3cb0f7f)" style="fill: #32cd32"/>
   </g>
   <g id="patch_29">
    <path d="M 153.565552 290.25375 
L 154.872009 290.25375 
L 154.872009 170.203224 
L 153.565552 170.203224 
z
" clip-path="url(#p83f3cb0f7f)" style="fill: #9932cc"/>
   </g>
   <g id="patch_30">
    <path d="M 156.831695 290.25375 
L 158.138152 290.25375 
L 158.138152 196.881118 
L 156.831695 196.881118 
z
" clip-path="url(#p83f3cb0f7f)" style="fill: #32cd32"/>
   </g>
   <g id="patch_31">
    <path d="M 160.097837 290.25375 
L 161.404294 290.25375 
L 161.404294 196.881118 
L 160.097837 196.881118 
z
" clip-path="url(#p83f3cb0f7f)" style="fill: #9932cc"/>
   </g>
   <g id="patch_32">
    <path d="M 163.363979 290.25375 
L 164.670436 290.25375 
L 164.670436 196.881118 
L 163.363979 196.881118 
z
" clip-path="url(#p83f3cb0f7f)" style="fill: #32cd32"/>
   </g>
   <g id="patch_33">
    <path d="M 166.630122 290.25375 
L 167.936578 290.25375 
L 167.936578 143.525329 
L 166.630122 143.525329 
z
" clip-path="url(#p83f3cb0f7f)" style="fill: #9932cc"/>
   </g>
   <g id="patch_34">
    <path d="M 169.896264 290.25375 
L 171.202721 290.25375 
L 171.202721 196.881118 
L 169.896264 196.881118 
z
" clip-path="url(#p83f3cb0f7f)" style="fill: #32cd32"/>
   </g>
   <g id="patch_35">
    <path d="M 173.162406 290.25375 
L 174.468863 290.25375 
L 174.468863 170.203224 
L 173.162406 170.203224 
z
" clip-path="url(#p83f3cb0f7f)" style="fill: #9932cc"/>
   </g>
   <g id="patch_36">
    <path d="M 176.428548 290.25375 
L 177.735005 290.25375 
L 177.735005 63.491645 
L 176.428548 63.491645 
z
" clip-path="url(#p83f3cb0f7f)" style="fill: #32cd32"/>
   </g>
   <g id="patch_37">
    <path d="M 179.694691 290.25375 
L 181.001148 290.25375 
L 181.001148 63.491645 
L 179.694691 63.491645 
z
" clip-path="url(#p83f3cb0f7f)" style="fill: #9932cc"/>
   </g>
   <g id="patch_38">
    <path d="M 182.960833 290.25375 
L 184.26729 290.25375 
L 184.26729 143.525329 
L 182.960833 143.525329 
z
" clip-path="url(#p83f3cb0f7f)" style="fill: #32cd32"/>
   </g>
   <g id="patch_39">
    <path d="M 186.226975 290.25375 
L 187.533432 290.25375 
L 187.533432 170.203224 
L 186.226975 170.203224 
z
" clip-path="url(#p83f3cb0f7f)" style="fill: #9932cc"/>
   </g>
   <g id="patch_40">
    <path d="M 189.493118 290.25375 
L 190.799575 290.25375 
L 190.799575 223.559013 
L 189.493118 223.559013 
z
" clip-path="url(#p83f3cb0f7f)" style="fill: #32cd32"/>
   </g>
   <g id="patch_41">
    <path d="M 192.75926 290.25375 
L 194.065717 290.25375 
L 194.065717 196.881118 
L 192.75926 196.881118 
z
" clip-path="url(#p83f3cb0f7f)" style="fill: #9932cc"/>
   </g>
   <g id="patch_42">
    <path d="M 196.025402 290.25375 
L 197.331859 290.25375 
L 197.331859 170.203224 
L 196.025402 170.203224 
z
" clip-path="url(#p83f3cb0f7f)" style="fill: #32cd32"/>
   </g>
   <g id="patch_43">
    <path d="M 199.291545 290.25375 
L 200.598002 290.25375 
L 200.598002 196.881118 
L 199.291545 196.881118 
z
" clip-path="url(#p83f3cb0f7f)" style="fill: #9932cc"/>
   </g>
   <g id="patch_44">
    <path d="M 202.557687 290.25375 
L 203.864144 290.25375 
L 203.864144 170.203224 
L 202.557687 170.203224 
z
" clip-path="url(#p83f3cb0f7f)" style="fill: #32cd32"/>
   </g>
   <g id="patch_45">
    <path d="M 205.823829 290.25375 
L 207.130286 290.25375 
L 207.130286 170.203224 
L 205.823829 170.203224 
z
" clip-path="url(#p83f3cb0f7f)" style="fill: #9932cc"/>
   </g>
   <g id="patch_46">
    <path d="M 209.089972 290.25375 
L 210.396428 290.25375 
L 210.396428 196.881118 
L 209.089972 196.881118 
z
" clip-path="url(#p83f3cb0f7f)" style="fill: #32cd32"/>
   </g>
   <g id="patch_47">
    <path d="M 212.356114 290.25375 
L 213.662571 290.25375 
L 213.662571 170.203224 
L 212.356114 170.203224 
z
" clip-path="url(#p83f3cb0f7f)" style="fill: #9932cc"/>
   </g>
   <g id="patch_48">
    <path d="M 215.622256 290.25375 
L 216.928713 290.25375 
L 216.928713 196.881118 
L 215.622256 196.881118 
z
" clip-path="url(#p83f3cb0f7f)" style="fill: #32cd32"/>
   </g>
   <g id="patch_49">
    <path d="M 218.888398 290.25375 
L 220.194855 290.25375 
L 220.194855 170.203224 
L 218.888398 170.203224 
z
" clip-path="url(#p83f3cb0f7f)" style="fill: #9932cc"/>
   </g>
   <g id="patch_50">
    <path d="M 222.154541 290.25375 
L 223.460998 290.25375 
L 223.460998 223.559013 
L 222.154541 223.559013 
z
" clip-path="url(#p83f3cb0f7f)" style="fill: #32cd32"/>
   </g>
   <g id="patch_51">
    <path d="M 225.420683 290.25375 
L 226.72714 290.25375 
L 226.72714 183.542171 
L 225.420683 183.542171 
z
" clip-path="url(#p83f3cb0f7f)" style="fill: #9932cc"/>
   </g>
   <g id="patch_52">
    <path d="M 228.686825 290.25375 
L 229.993282 290.25375 
L 229.993282 90.169539 
L 228.686825 90.169539 
z
" clip-path="url(#p83f3cb0f7f)" style="fill: #32cd32"/>
   </g>
   <g id="patch_53">
    <path d="M 231.952968 290.25375 
L 233.259425 290.25375 
L 233.259425 76.830592 
L 231.952968 76.830592 
z
" clip-path="url(#p83f3cb0f7f)" style="fill: #9932cc"/>
   </g>
   <g id="patch_54">
    <path d="M 235.21911 290.25375 
L 236.525567 290.25375 
L 236.525567 143.525329 
L 235.21911 143.525329 
z
" clip-path="url(#p83f3cb0f7f)" style="fill: #32cd32"/>
   </g>
   <g id="patch_55">
    <path d="M 238.485252 290.25375 
L 239.791709 290.25375 
L 239.791709 130.186382 
L 238.485252 130.186382 
z
" clip-path="url(#p83f3cb0f7f)" style="fill: #9932cc"/>
   </g>
   <g id="patch_56">
    <path d="M 241.751395 290.25375 
L 243.057852 290.25375 
L 243.057852 170.203224 
L 241.751395 170.203224 
z
" clip-path="url(#p83f3cb0f7f)" style="fill: #32cd32"/>
   </g>
   <g id="patch_57">
    <path d="M 245.017537 290.25375 
L 246.323994 290.25375 
L 246.323994 143.525329 
L 245.017537 143.525329 
z
" clip-path="url(#p83f3cb0f7f)" style="fill: #9932cc"/>
   </g>
   <g id="patch_58">
    <path d="M 248.283679 290.25375 
L 249.590136 290.25375 
L 249.590136 170.203224 
L 248.283679 170.203224 
z
" clip-path="url(#p83f3cb0f7f)" style="fill: #32cd32"/>
   </g>
   <g id="patch_59">
    <path d="M 251.549822 290.25375 
L 252.856278 290.25375 
L 252.856278 170.203224 
L 251.549822 170.203224 
z
" clip-path="url(#p83f3cb0f7f)" style="fill: #9932cc"/>
   </g>
   <g id="patch_60">
    <path d="M 254.815964 290.25375 
L 256.122421 290.25375 
L 256.122421 170.203224 
L 254.815964 170.203224 
z
" clip-path="url(#p83f3cb0f7f)" style="fill: #32cd32"/>
   </g>
   <g id="patch_61">
    <path d="M 258.082106 290.25375 
L 259.388563 290.25375 
L 259.388563 196.881118 
L 258.082106 196.881118 
z
" clip-path="url(#p83f3cb0f7f)" style="fill: #9932cc"/>
   </g>
   <g id="patch_62">
    <path d="M 261.348248 290.25375 
L 262.654705 290.25375 
L 262.654705 103.508487 
L 261.348248 103.508487 
z
" clip-path="url(#p83f3cb0f7f)" style="fill: #32cd32"/>
   </g>
   <g id="patch_63">
    <path d="M 264.614391 290.25375 
L 265.920848 290.25375 
L 265.920848 223.559013 
L 264.614391 223.559013 
z
" clip-path="url(#p83f3cb0f7f)" style="fill: #9932cc"/>
   </g>
   <g id="patch_64">
    <path d="M 267.880533 290.25375 
L 269.18699 290.25375 
L 269.18699 183.542171 
L 267.880533 183.542171 
z
" clip-path="url(#p83f3cb0f7f)" style="fill: #32cd32"/>
   </g>
   <g id="patch_65">
    <path d="M 271.146675 290.25375 
L 272.453132 290.25375 
L 272.453132 223.559013 
L 271.146675 223.559013 
z
" clip-path="url(#p83f3cb0f7f)" style="fill: #9932cc"/>
   </g>
   <g id="patch_66">
    <path d="M 274.412818 290.25375 
L 275.719275 290.25375 
L 275.719275 223.559013 
L 274.412818 223.559013 
z
" clip-path="url(#p83f3cb0f7f)" style="fill: #32cd32"/>
   </g>
   <g id="patch_67">
    <path d="M 277.67896 290.25375 
L 278.985417 290.25375 
L 278.985417 196.881118 
L 277.67896 196.881118 
z
" clip-path="url(#p83f3cb0f7f)" style="fill: #9932cc"/>
   </g>
   <g id="patch_68">
    <path d="M 280.945102 290.25375 
L 282.251559 290.25375 
L 282.251559 223.559013 
L 280.945102 223.559013 
z
" clip-path="url(#p83f3cb0f7f)" style="fill: #32cd32"/>
   </g>
   <g id="patch_69">
    <path d="M 284.211245 290.25375 
L 285.517702 290.25375 
L 285.517702 196.881118 
L 284.211245 196.881118 
z
" clip-path="url(#p83f3cb0f7f)" style="fill: #9932cc"/>
   </g>
   <g id="patch_70">
    <path d="M 287.477387 290.25375 
L 288.783844 290.25375 
L 288.783844 196.881118 
L 287.477387 196.881118 
z
" clip-path="url(#p83f3cb0f7f)" style="fill: #32cd32"/>
   </g>
   <g id="patch_71">
    <path d="M 290.743529 290.25375 
L 292.049986 290.25375 
L 292.049986 196.881118 
L 290.743529 196.881118 
z
" clip-path="url(#p83f3cb0f7f)" style="fill: #9932cc"/>
   </g>
   <g id="patch_72">
    <path d="M 294.009672 290.25375 
L 295.316128 290.25375 
L 295.316128 170.203224 
L 294.009672 170.203224 
z
" clip-path="url(#p83f3cb0f7f)" style="fill: #32cd32"/>
   </g>
   <g id="patch_73">
    <path d="M 297.275814 290.25375 
L 298.582271 290.25375 
L 298.582271 170.203224 
L 297.275814 170.203224 
z
" clip-path="url(#p83f3cb0f7f)" style="fill: #9932cc"/>
   </g>
   <g id="patch_74">
    <path d="M 300.541956 290.25375 
L 301.848413 290.25375 
L 301.848413 170.203224 
L 300.541956 170.203224 
z
" clip-path="url(#p83f3cb0f7f)" style="fill: #32cd32"/>
   </g>
   <g id="patch_75">
    <path d="M 303.808098 290.25375 
L 305.114555 290.25375 
L 305.114555 170.203224 
L 303.808098 170.203224 
z
" clip-path="url(#p83f3cb0f7f)" style="fill: #9932cc"/>
   </g>
   <g id="patch_76">
    <path d="M 307.074241 290.25375 
L 308.380698 290.25375 
L 308.380698 170.203224 
L 307.074241 170.203224 
z
" clip-path="url(#p83f3cb0f7f)" style="fill: #32cd32"/>
   </g>
   <g id="patch_77">
    <path d="M 310.340383 290.25375 
L 311.64684 290.25375 
L 311.64684 223.559013 
L 310.340383 223.559013 
z
" clip-path="url(#p83f3cb0f7f)" style="fill: #9932cc"/>
   </g>
   <g id="patch_78">
    <path d="M 313.606525 290.25375 
L 314.912982 290.25375 
L 314.912982 170.203224 
L 313.606525 170.203224 
z
" clip-path="url(#p83f3cb0f7f)" style="fill: #32cd32"/>
   </g>
   <g id="patch_79">
    <path d="M 316.872668 290.25375 
L 318.179125 290.25375 
L 318.179125 196.881118 
L 316.872668 196.881118 
z
" clip-path="url(#p83f3cb0f7f)" style="fill: #9932cc"/>
   </g>
   <g id="patch_80">
    <path d="M 320.13881 290.25375 
L 321.445267 290.25375 
L 321.445267 90.169539 
L 320.13881 90.169539 
z
" clip-path="url(#p83f3cb0f7f)" style="fill: #32cd32"/>
   </g>
   <g id="patch_81">
    <path d="M 323.404952 290.25375 
L 324.711409 290.25375 
L 324.711409 196.881118 
L 323.404952 196.881118 
z
" clip-path="url(#p83f3cb0f7f)" style="fill: #9932cc"/>
   </g>
   <g id="patch_82">
    <path d="M 326.671095 290.25375 
L 327.977552 290.25375 
L 327.977552 196.881118 
L 326.671095 196.881118 
z
" clip-path="url(#p83f3cb0f7f)" style="fill: #32cd32"/>
   </g>
   <g id="patch_83">
    <path d="M 329.937237 290.25375 
L 331.243694 290.25375 
L 331.243694 170.203224 
L 329.937237 170.203224 
z
" clip-path="url(#p83f3cb0f7f)" style="fill: #9932cc"/>
   </g>
   <g id="patch_84">
    <path d="M 333.203379 290.25375 
L 334.509836 290.25375 
L 334.509836 90.169539 
L 333.203379 90.169539 
z
" clip-path="url(#p83f3cb0f7f)" style="fill: #32cd32"/>
   </g>
   <g id="patch_85">
    <path d="M 336.469522 290.25375 
L 337.775978 290.25375 
L 337.775978 90.169539 
L 336.469522 90.169539 
z
" clip-path="url(#p83f3cb0f7f)" style="fill: #9932cc"/>
   </g>
   <g id="patch_86">
    <path d="M 339.735664 290.25375 
L 341.042121 290.25375 
L 341.042121 170.203224 
L 339.735664 170.203224 
z
" clip-path="url(#p83f3cb0f7f)" style="fill: #32cd32"/>
   </g>
   <g id="patch_87">
    <path d="M 343.001806 290.25375 
L 344.308263 290.25375 
L 344.308263 170.203224 
L 343.001806 170.203224 
z
" clip-path="url(#p83f3cb0f7f)" style="fill: #9932cc"/>
   </g>
   <g id="patch_88">
    <path d="M 346.267948 290.25375 
L 347.574405 290.25375 
L 347.574405 196.881118 
L 346.267948 196.881118 
z
" clip-path="url(#p83f3cb0f7f)" style="fill: #32cd32"/>
   </g>
   <g id="patch_89">
    <path d="M 349.534091 290.25375 
L 350.840548 290.25375 
L 350.840548 143.525329 
L 349.534091 143.525329 
z
" clip-path="url(#p83f3cb0f7f)" style="fill: #9932cc"/>
   </g>
   <g id="patch_90">
    <path d="M 352.800233 290.25375 
L 354.10669 290.25375 
L 354.10669 36.81375 
L 352.800233 36.81375 
z
" clip-path="url(#p83f3cb0f7f)" style="fill: #32cd32"/>
   </g>
   <g id="patch_91">
    <path d="M 356.066375 290.25375 
L 357.372832 290.25375 
L 357.372832 196.881118 
L 356.066375 196.881118 
z
" clip-path="url(#p83f3cb0f7f)" style="fill: #9932cc"/>
   </g>
   <g id="patch_92">
    <path d="M 359.332518 290.25375 
L 360.638975 290.25375 
L 360.638975 170.203224 
L 359.332518 170.203224 
z
" clip-path="url(#p83f3cb0f7f)" style="fill: #32cd32"/>
   </g>
   <g id="patch_93">
    <path d="M 362.59866 290.25375 
L 363.905117 290.25375 
L 363.905117 170.203224 
L 362.59866 170.203224 
z
" clip-path="url(#p83f3cb0f7f)" style="fill: #9932cc"/>
   </g>
   <g id="patch_94">
    <path d="M 365.864802 290.25375 
L 367.171259 290.25375 
L 367.171259 170.203224 
L 365.864802 170.203224 
z
" clip-path="url(#p83f3cb0f7f)" style="fill: #32cd32"/>
   </g>
   <g id="patch_95">
    <path d="M 369.130945 290.25375 
L 370.437402 290.25375 
L 370.437402 130.186382 
L 369.130945 130.186382 
z
" clip-path="url(#p83f3cb0f7f)" style="fill: #9932cc"/>
   </g>
   <g id="patch_96">
    <path d="M 372.397087 290.25375 
L 373.703544 290.25375 
L 373.703544 143.525329 
L 372.397087 143.525329 
z
" clip-path="url(#p83f3cb0f7f)" style="fill: #32cd32"/>
   </g>
   <g id="patch_97">
    <path d="M 375.663229 290.25375 
L 376.969686 290.25375 
L 376.969686 130.186382 
L 375.663229 130.186382 
z
" clip-path="url(#p83f3cb0f7f)" style="fill: #9932cc"/>
   </g>
   <g id="patch_98">
    <path d="M 378.929372 290.25375 
L 380.235828 290.25375 
L 380.235828 170.203224 
L 378.929372 170.203224 
z
" clip-path="url(#p83f3cb0f7f)" style="fill: #32cd32"/>
   </g>
   <g id="patch_99">
    <path d="M 382.195514 290.25375 
L 383.501971 290.25375 
L 383.501971 130.186382 
L 382.195514 130.186382 
z
" clip-path="url(#p83f3cb0f7f)" style="fill: #9932cc"/>
   </g>
   <g id="patch_100">
    <path d="M 385.461656 290.25375 
L 386.768113 290.25375 
L 386.768113 170.203224 
L 385.461656 170.203224 
z
" clip-path="url(#p83f3cb0f7f)" style="fill: #32cd32"/>
   </g>
   <g id="patch_101">
    <path d="M 388.727798 290.25375 
L 390.034255 290.25375 
L 390.034255 90.169539 
L 388.727798 90.169539 
z
" clip-path="url(#p83f3cb0f7f)" style="fill: #9932cc"/>
   </g>
   <g id="patch_102">
    <path d="M 391.993941 290.25375 
L 393.300398 290.25375 
L 393.300398 143.525329 
L 391.993941 143.525329 
z
" clip-path="url(#p83f3cb0f7f)" style="fill: #32cd32"/>
   </g>
   <g id="patch_103">
    <path d="M 52.413125 290.25375 
L 52.413125 24.14175 
" style="fill: none; stroke: #ffffff; stroke-linejoin: miter; stroke-linecap: square"/>
   </g>
   <g id="patch_104">
    <path d="M 409.533125 290.25375 
L 409.533125 24.14175 
" style="fill: none; stroke: #ffffff; stroke-linejoin: miter; stroke-linecap: square"/>
   </g>
   <g id="patch_105">
    <path d="M 52.413125 290.25375 
L 409.533125 290.25375 
" style="fill: none; stroke: #ffffff; stroke-linejoin: miter; stroke-linecap: square"/>
   </g>
   <g id="patch_106">
    <path d="M 52.413125 24.14175 
L 409.533125 24.14175 
" style="fill: none; stroke: #ffffff; stroke-linejoin: miter; stroke-linecap: square"/>
   </g>
   <g id="text_24">
    <!-- Top 100 values - bar chart of variants average activities -->
    <g transform="translate(29.751125 18.14175)scale(0.144 -0.144)">
     <defs>
      <path id="DejaVuSans-54" d="M -19 4666 
L 3928 4666 
L 3928 4134 
L 2272 4134 
L 2272 0 
L 1638 0 
L 1638 4134 
L -19 4134 
L -19 4666 
z
" transform="scale(0.015625)"/>
      <path id="DejaVuSans-70" d="M 1159 525 
L 1159 -1331 
L 581 -1331 
L 581 3500 
L 1159 3500 
L 1159 2969 
Q 1341 3281 1617 3432 
Q 1894 3584 2278 3584 
Q 2916 3584 3314 3078 
Q 3713 2572 3713 1747 
Q 3713 922 3314 415 
Q 2916 -91 2278 -91 
Q 1894 -91 1617 61 
Q 1341 213 1159 525 
z
M 3116 1747 
Q 3116 2381 2855 2742 
Q 2594 3103 2138 3103 
Q 1681 3103 1420 2742 
Q 1159 2381 1159 1747 
Q 1159 1113 1420 752 
Q 1681 391 2138 391 
Q 2594 391 2855 752 
Q 3116 1113 3116 1747 
z
" transform="scale(0.015625)"/>
      <path id="DejaVuSans-20" transform="scale(0.015625)"/>
      <path id="DejaVuSans-6c" d="M 603 4863 
L 1178 4863 
L 1178 0 
L 603 0 
L 603 4863 
z
" transform="scale(0.015625)"/>
      <path id="DejaVuSans-2d" d="M 313 2009 
L 1997 2009 
L 1997 1497 
L 313 1497 
L 313 2009 
z
" transform="scale(0.015625)"/>
      <path id="DejaVuSans-62" d="M 3116 1747 
Q 3116 2381 2855 2742 
Q 2594 3103 2138 3103 
Q 1681 3103 1420 2742 
Q 1159 2381 1159 1747 
Q 1159 1113 1420 752 
Q 1681 391 2138 391 
Q 2594 391 2855 752 
Q 3116 1113 3116 1747 
z
M 1159 2969 
Q 1341 3281 1617 3432 
Q 1894 3584 2278 3584 
Q 2916 3584 3314 3078 
Q 3713 2572 3713 1747 
Q 3713 922 3314 415 
Q 2916 -91 2278 -91 
Q 1894 -91 1617 61 
Q 1341 213 1159 525 
L 1159 0 
L 581 0 
L 581 4863 
L 1159 4863 
L 1159 2969 
z
" transform="scale(0.015625)"/>
      <path id="DejaVuSans-68" d="M 3513 2113 
L 3513 0 
L 2938 0 
L 2938 2094 
Q 2938 2591 2744 2837 
Q 2550 3084 2163 3084 
Q 1697 3084 1428 2787 
Q 1159 2491 1159 1978 
L 1159 0 
L 581 0 
L 581 4863 
L 1159 4863 
L 1159 2956 
Q 1366 3272 1645 3428 
Q 1925 3584 2291 3584 
Q 2894 3584 3203 3211 
Q 3513 2838 3513 2113 
z
" transform="scale(0.015625)"/>
      <path id="DejaVuSans-66" d="M 2375 4863 
L 2375 4384 
L 1825 4384 
Q 1516 4384 1395 4259 
Q 1275 4134 1275 3809 
L 1275 3500 
L 2222 3500 
L 2222 3053 
L 1275 3053 
L 1275 0 
L 697 0 
L 697 3053 
L 147 3053 
L 147 3500 
L 697 3500 
L 697 3744 
Q 697 4328 969 4595 
Q 1241 4863 1831 4863 
L 2375 4863 
z
" transform="scale(0.015625)"/>
     </defs>
     <use xlink:href="#DejaVuSans-54"/>
     <use xlink:href="#DejaVuSans-6f" x="44.083984"/>
     <use xlink:href="#DejaVuSans-70" x="105.265625"/>
     <use xlink:href="#DejaVuSans-20" x="168.742188"/>
     <use xlink:href="#DejaVuSans-31" x="200.529297"/>
     <use xlink:href="#DejaVuSans-30" x="264.152344"/>
     <use xlink:href="#DejaVuSans-30" x="327.775391"/>
     <use xlink:href="#DejaVuSans-20" x="391.398438"/>
     <use xlink:href="#DejaVuSans-76" x="423.185547"/>
     <use xlink:href="#DejaVuSans-61" x="482.365234"/>
     <use xlink:href="#DejaVuSans-6c" x="543.644531"/>
     <use xlink:href="#DejaVuSans-75" x="571.427734"/>
     <use xlink:href="#DejaVuSans-65" x="634.806641"/>
     <use xlink:href="#DejaVuSans-73" x="696.330078"/>
     <use xlink:href="#DejaVuSans-20" x="748.429688"/>
     <use xlink:href="#DejaVuSans-2d" x="780.216797"/>
     <use xlink:href="#DejaVuSans-20" x="816.300781"/>
     <use xlink:href="#DejaVuSans-62" x="848.087891"/>
     <use xlink:href="#DejaVuSans-61" x="911.564453"/>
     <use xlink:href="#DejaVuSans-72" x="972.84375"/>
     <use xlink:href="#DejaVuSans-20" x="1013.957031"/>
     <use xlink:href="#DejaVuSans-63" x="1045.744141"/>
     <use xlink:href="#DejaVuSans-68" x="1100.724609"/>
     <use xlink:href="#DejaVuSans-61" x="1164.103516"/>
     <use xlink:href="#DejaVuSans-72" x="1225.382812"/>
     <use xlink:href="#DejaVuSans-74" x="1266.496094"/>
     <use xlink:href="#DejaVuSans-20" x="1305.705078"/>
     <use xlink:href="#DejaVuSans-6f" x="1337.492188"/>
     <use xlink:href="#DejaVuSans-66" x="1398.673828"/>
     <use xlink:href="#DejaVuSans-20" x="1433.878906"/>
     <use xlink:href="#DejaVuSans-76" x="1465.666016"/>
     <use xlink:href="#DejaVuSans-61" x="1524.845703"/>
     <use xlink:href="#DejaVuSans-72" x="1586.125"/>
     <use xlink:href="#DejaVuSans-69" x="1627.238281"/>
     <use xlink:href="#DejaVuSans-61" x="1655.021484"/>
     <use xlink:href="#DejaVuSans-6e" x="1716.300781"/>
     <use xlink:href="#DejaVuSans-74" x="1779.679688"/>
     <use xlink:href="#DejaVuSans-73" x="1818.888672"/>
     <use xlink:href="#DejaVuSans-20" x="1870.988281"/>
     <use xlink:href="#DejaVuSans-61" x="1902.775391"/>
     <use xlink:href="#DejaVuSans-76" x="1964.054688"/>
     <use xlink:href="#DejaVuSans-65" x="2023.234375"/>
     <use xlink:href="#DejaVuSans-72" x="2084.757812"/>
     <use xlink:href="#DejaVuSans-61" x="2125.871094"/>
     <use xlink:href="#DejaVuSans-67" x="2187.150391"/>
     <use xlink:href="#DejaVuSans-65" x="2250.626953"/>
     <use xlink:href="#DejaVuSans-20" x="2312.150391"/>
     <use xlink:href="#DejaVuSans-61" x="2343.9375"/>
     <use xlink:href="#DejaVuSans-63" x="2405.216797"/>
     <use xlink:href="#DejaVuSans-74" x="2460.197266"/>
     <use xlink:href="#DejaVuSans-69" x="2499.40625"/>
     <use xlink:href="#DejaVuSans-76" x="2527.189453"/>
     <use xlink:href="#DejaVuSans-69" x="2586.369141"/>
     <use xlink:href="#DejaVuSans-74" x="2614.152344"/>
     <use xlink:href="#DejaVuSans-69" x="2653.361328"/>
     <use xlink:href="#DejaVuSans-65" x="2681.144531"/>
     <use xlink:href="#DejaVuSans-73" x="2742.667969"/>
    </g>
   </g>
  </g>
 </g>
 <defs>
  <clipPath id="p83f3cb0f7f">
   <rect x="52.413125" y="24.14175" width="357.12" height="266.112"/>
  </clipPath>
 </defs>
</svg>
