<?xml version="1.0" encoding="utf-8" standalone="no"?>
<!DOCTYPE svg PUBLIC "-//W3C//DTD SVG 1.1//EN"
  "http://www.w3.org/Graphics/SVG/1.1/DTD/svg11.dtd">
<svg xmlns:xlink="http://www.w3.org/1999/xlink" width="400.83pt" height="329.745625pt" viewBox="0 0 400.83 329.745625" xmlns="http://www.w3.org/2000/svg" version="1.1">
 <metadata>
  <rdf:RDF xmlns:dc="http://purl.org/dc/elements/1.1/" xmlns:cc="http://creativecommons.org/ns#" xmlns:rdf="http://www.w3.org/1999/02/22-rdf-syntax-ns#">
   <cc:Work>
    <dc:type rdf:resource="http://purl.org/dc/dcmitype/StillImage"/>
    <dc:date>2022-01-27T21:39:29.421654</dc:date>
    <dc:format>image/svg+xml</dc:format>
    <dc:creator>
     <cc:Agent>
      <dc:title>Matplotlib v3.5.1, https://matplotlib.org/</dc:title>
     </cc:Agent>
    </dc:creator>
   </cc:Work>
  </rdf:RDF>
 </metadata>
 <defs>
  <style type="text/css">*{stroke-linejoin: round; stroke-linecap: butt}</style>
 </defs>
 <g id="figure_1">
  <g id="patch_1">
   <path d="M 0 329.745625 
L 400.83 329.745625 
L 400.83 0 
L 0 0 
z
" style="fill: #ffffff"/>
  </g>
  <g id="axes_1">
   <g id="patch_2">
    <path d="M 36.51 290.25375 
L 393.63 290.25375 
L 393.63 24.14175 
L 36.51 24.14175 
z
" style="fill: #e5e5e5"/>
   </g>
   <g id="matplotlib.axis_1">
    <g id="xtick_1">
     <g id="line2d_1">
      <path d="M 53.395956 290.25375 
L 53.395956 24.14175 
" clip-path="url(#pcb37528d87)" style="fill: none; stroke: #ffffff; stroke-width: 0.8; stroke-linecap: square"/>
     </g>
     <g id="line2d_2">
      <defs>
       <path id="md0d86ccacd" d="M 0 0 
L 0 3.5 
" style="stroke: #555555; stroke-width: 0.8"/>
      </defs>
      <g>
       <use xlink:href="#md0d86ccacd" x="53.395956" y="290.25375" style="fill: #555555; stroke: #555555; stroke-width: 0.8"/>
      </g>
     </g>
     <g id="text_1">
      <!-- 0 -->
      <g style="fill: #555555" transform="translate(50.214706 304.852187)scale(0.1 -0.1)">
       <defs>
        <path id="DejaVuSans-30" d="M 2034 4250 
Q 1547 4250 1301 3770 
Q 1056 3291 1056 2328 
Q 1056 1369 1301 889 
Q 1547 409 2034 409 
Q 2525 409 2770 889 
Q 3016 1369 3016 2328 
Q 3016 3291 2770 3770 
Q 2525 4250 2034 4250 
z
M 2034 4750 
Q 2819 4750 3233 4129 
Q 3647 3509 3647 2328 
Q 3647 1150 3233 529 
Q 2819 -91 2034 -91 
Q 1250 -91 836 529 
Q 422 1150 422 2328 
Q 422 3509 836 4129 
Q 1250 4750 2034 4750 
z
" transform="scale(0.015625)"/>
       </defs>
       <use xlink:href="#DejaVuSans-30"/>
      </g>
     </g>
    </g>
    <g id="xtick_2">
     <g id="line2d_3">
      <path d="M 79.525094 290.25375 
L 79.525094 24.14175 
" clip-path="url(#pcb37528d87)" style="fill: none; stroke: #ffffff; stroke-width: 0.8; stroke-linecap: square"/>
     </g>
     <g id="line2d_4">
      <g>
       <use xlink:href="#md0d86ccacd" x="79.525094" y="290.25375" style="fill: #555555; stroke: #555555; stroke-width: 0.8"/>
      </g>
     </g>
     <g id="text_2">
      <!-- 8 -->
      <g style="fill: #555555" transform="translate(76.343844 304.852187)scale(0.1 -0.1)">
       <defs>
        <path id="DejaVuSans-38" d="M 2034 2216 
Q 1584 2216 1326 1975 
Q 1069 1734 1069 1313 
Q 1069 891 1326 650 
Q 1584 409 2034 409 
Q 2484 409 2743 651 
Q 3003 894 3003 1313 
Q 3003 1734 2745 1975 
Q 2488 2216 2034 2216 
z
M 1403 2484 
Q 997 2584 770 2862 
Q 544 3141 544 3541 
Q 544 4100 942 4425 
Q 1341 4750 2034 4750 
Q 2731 4750 3128 4425 
Q 3525 4100 3525 3541 
Q 3525 3141 3298 2862 
Q 3072 2584 2669 2484 
Q 3125 2378 3379 2068 
Q 3634 1759 3634 1313 
Q 3634 634 3220 271 
Q 2806 -91 2034 -91 
Q 1263 -91 848 271 
Q 434 634 434 1313 
Q 434 1759 690 2068 
Q 947 2378 1403 2484 
z
M 1172 3481 
Q 1172 3119 1398 2916 
Q 1625 2713 2034 2713 
Q 2441 2713 2670 2916 
Q 2900 3119 2900 3481 
Q 2900 3844 2670 4047 
Q 2441 4250 2034 4250 
Q 1625 4250 1398 4047 
Q 1172 3844 1172 3481 
z
" transform="scale(0.015625)"/>
       </defs>
       <use xlink:href="#DejaVuSans-38"/>
      </g>
     </g>
    </g>
    <g id="xtick_3">
     <g id="line2d_5">
      <path d="M 105.654233 290.25375 
L 105.654233 24.14175 
" clip-path="url(#pcb37528d87)" style="fill: none; stroke: #ffffff; stroke-width: 0.8; stroke-linecap: square"/>
     </g>
     <g id="line2d_6">
      <g>
       <use xlink:href="#md0d86ccacd" x="105.654233" y="290.25375" style="fill: #555555; stroke: #555555; stroke-width: 0.8"/>
      </g>
     </g>
     <g id="text_3">
      <!-- 16 -->
      <g style="fill: #555555" transform="translate(99.291733 304.852187)scale(0.1 -0.1)">
       <defs>
        <path id="DejaVuSans-31" d="M 794 531 
L 1825 531 
L 1825 4091 
L 703 3866 
L 703 4441 
L 1819 4666 
L 2450 4666 
L 2450 531 
L 3481 531 
L 3481 0 
L 794 0 
L 794 531 
z
" transform="scale(0.015625)"/>
        <path id="DejaVuSans-36" d="M 2113 2584 
Q 1688 2584 1439 2293 
Q 1191 2003 1191 1497 
Q 1191 994 1439 701 
Q 1688 409 2113 409 
Q 2538 409 2786 701 
Q 3034 994 3034 1497 
Q 3034 2003 2786 2293 
Q 2538 2584 2113 2584 
z
M 3366 4563 
L 3366 3988 
Q 3128 4100 2886 4159 
Q 2644 4219 2406 4219 
Q 1781 4219 1451 3797 
Q 1122 3375 1075 2522 
Q 1259 2794 1537 2939 
Q 1816 3084 2150 3084 
Q 2853 3084 3261 2657 
Q 3669 2231 3669 1497 
Q 3669 778 3244 343 
Q 2819 -91 2113 -91 
Q 1303 -91 875 529 
Q 447 1150 447 2328 
Q 447 3434 972 4092 
Q 1497 4750 2381 4750 
Q 2619 4750 2861 4703 
Q 3103 4656 3366 4563 
z
" transform="scale(0.015625)"/>
       </defs>
       <use xlink:href="#DejaVuSans-31"/>
       <use xlink:href="#DejaVuSans-36" x="63.623047"/>
      </g>
     </g>
    </g>
    <g id="xtick_4">
     <g id="line2d_7">
      <path d="M 131.783371 290.25375 
L 131.783371 24.14175 
" clip-path="url(#pcb37528d87)" style="fill: none; stroke: #ffffff; stroke-width: 0.8; stroke-linecap: square"/>
     </g>
     <g id="line2d_8">
      <g>
       <use xlink:href="#md0d86ccacd" x="131.783371" y="290.25375" style="fill: #555555; stroke: #555555; stroke-width: 0.8"/>
      </g>
     </g>
     <g id="text_4">
      <!-- 24 -->
      <g style="fill: #555555" transform="translate(125.420871 304.852187)scale(0.1 -0.1)">
       <defs>
        <path id="DejaVuSans-32" d="M 1228 531 
L 3431 531 
L 3431 0 
L 469 0 
L 469 531 
Q 828 903 1448 1529 
Q 2069 2156 2228 2338 
Q 2531 2678 2651 2914 
Q 2772 3150 2772 3378 
Q 2772 3750 2511 3984 
Q 2250 4219 1831 4219 
Q 1534 4219 1204 4116 
Q 875 4013 500 3803 
L 500 4441 
Q 881 4594 1212 4672 
Q 1544 4750 1819 4750 
Q 2544 4750 2975 4387 
Q 3406 4025 3406 3419 
Q 3406 3131 3298 2873 
Q 3191 2616 2906 2266 
Q 2828 2175 2409 1742 
Q 1991 1309 1228 531 
z
" transform="scale(0.015625)"/>
        <path id="DejaVuSans-34" d="M 2419 4116 
L 825 1625 
L 2419 1625 
L 2419 4116 
z
M 2253 4666 
L 3047 4666 
L 3047 1625 
L 3713 1625 
L 3713 1100 
L 3047 1100 
L 3047 0 
L 2419 0 
L 2419 1100 
L 313 1100 
L 313 1709 
L 2253 4666 
z
" transform="scale(0.015625)"/>
       </defs>
       <use xlink:href="#DejaVuSans-32"/>
       <use xlink:href="#DejaVuSans-34" x="63.623047"/>
      </g>
     </g>
    </g>
    <g id="xtick_5">
     <g id="line2d_9">
      <path d="M 157.91251 290.25375 
L 157.91251 24.14175 
" clip-path="url(#pcb37528d87)" style="fill: none; stroke: #ffffff; stroke-width: 0.8; stroke-linecap: square"/>
     </g>
     <g id="line2d_10">
      <g>
       <use xlink:href="#md0d86ccacd" x="157.91251" y="290.25375" style="fill: #555555; stroke: #555555; stroke-width: 0.8"/>
      </g>
     </g>
     <g id="text_5">
      <!-- 32 -->
      <g style="fill: #555555" transform="translate(151.55001 304.852187)scale(0.1 -0.1)">
       <defs>
        <path id="DejaVuSans-33" d="M 2597 2516 
Q 3050 2419 3304 2112 
Q 3559 1806 3559 1356 
Q 3559 666 3084 287 
Q 2609 -91 1734 -91 
Q 1441 -91 1130 -33 
Q 819 25 488 141 
L 488 750 
Q 750 597 1062 519 
Q 1375 441 1716 441 
Q 2309 441 2620 675 
Q 2931 909 2931 1356 
Q 2931 1769 2642 2001 
Q 2353 2234 1838 2234 
L 1294 2234 
L 1294 2753 
L 1863 2753 
Q 2328 2753 2575 2939 
Q 2822 3125 2822 3475 
Q 2822 3834 2567 4026 
Q 2313 4219 1838 4219 
Q 1578 4219 1281 4162 
Q 984 4106 628 3988 
L 628 4550 
Q 988 4650 1302 4700 
Q 1616 4750 1894 4750 
Q 2613 4750 3031 4423 
Q 3450 4097 3450 3541 
Q 3450 3153 3228 2886 
Q 3006 2619 2597 2516 
z
" transform="scale(0.015625)"/>
       </defs>
       <use xlink:href="#DejaVuSans-33"/>
       <use xlink:href="#DejaVuSans-32" x="63.623047"/>
      </g>
     </g>
    </g>
    <g id="xtick_6">
     <g id="line2d_11">
      <path d="M 184.041648 290.25375 
L 184.041648 24.14175 
" clip-path="url(#pcb37528d87)" style="fill: none; stroke: #ffffff; stroke-width: 0.8; stroke-linecap: square"/>
     </g>
     <g id="line2d_12">
      <g>
       <use xlink:href="#md0d86ccacd" x="184.041648" y="290.25375" style="fill: #555555; stroke: #555555; stroke-width: 0.8"/>
      </g>
     </g>
     <g id="text_6">
      <!-- 40 -->
      <g style="fill: #555555" transform="translate(177.679148 304.852187)scale(0.1 -0.1)">
       <use xlink:href="#DejaVuSans-34"/>
       <use xlink:href="#DejaVuSans-30" x="63.623047"/>
      </g>
     </g>
    </g>
    <g id="xtick_7">
     <g id="line2d_13">
      <path d="M 210.170787 290.25375 
L 210.170787 24.14175 
" clip-path="url(#pcb37528d87)" style="fill: none; stroke: #ffffff; stroke-width: 0.8; stroke-linecap: square"/>
     </g>
     <g id="line2d_14">
      <g>
       <use xlink:href="#md0d86ccacd" x="210.170787" y="290.25375" style="fill: #555555; stroke: #555555; stroke-width: 0.8"/>
      </g>
     </g>
     <g id="text_7">
      <!-- 48 -->
      <g style="fill: #555555" transform="translate(203.808287 304.852187)scale(0.1 -0.1)">
       <use xlink:href="#DejaVuSans-34"/>
       <use xlink:href="#DejaVuSans-38" x="63.623047"/>
      </g>
     </g>
    </g>
    <g id="xtick_8">
     <g id="line2d_15">
      <path d="M 236.299925 290.25375 
L 236.299925 24.14175 
" clip-path="url(#pcb37528d87)" style="fill: none; stroke: #ffffff; stroke-width: 0.8; stroke-linecap: square"/>
     </g>
     <g id="line2d_16">
      <g>
       <use xlink:href="#md0d86ccacd" x="236.299925" y="290.25375" style="fill: #555555; stroke: #555555; stroke-width: 0.8"/>
      </g>
     </g>
     <g id="text_8">
      <!-- 56 -->
      <g style="fill: #555555" transform="translate(229.937425 304.852187)scale(0.1 -0.1)">
       <defs>
        <path id="DejaVuSans-35" d="M 691 4666 
L 3169 4666 
L 3169 4134 
L 1269 4134 
L 1269 2991 
Q 1406 3038 1543 3061 
Q 1681 3084 1819 3084 
Q 2600 3084 3056 2656 
Q 3513 2228 3513 1497 
Q 3513 744 3044 326 
Q 2575 -91 1722 -91 
Q 1428 -91 1123 -41 
Q 819 9 494 109 
L 494 744 
Q 775 591 1075 516 
Q 1375 441 1709 441 
Q 2250 441 2565 725 
Q 2881 1009 2881 1497 
Q 2881 1984 2565 2268 
Q 2250 2553 1709 2553 
Q 1456 2553 1204 2497 
Q 953 2441 691 2322 
L 691 4666 
z
" transform="scale(0.015625)"/>
       </defs>
       <use xlink:href="#DejaVuSans-35"/>
       <use xlink:href="#DejaVuSans-36" x="63.623047"/>
      </g>
     </g>
    </g>
    <g id="xtick_9">
     <g id="line2d_17">
      <path d="M 262.429063 290.25375 
L 262.429063 24.14175 
" clip-path="url(#pcb37528d87)" style="fill: none; stroke: #ffffff; stroke-width: 0.8; stroke-linecap: square"/>
     </g>
     <g id="line2d_18">
      <g>
       <use xlink:href="#md0d86ccacd" x="262.429063" y="290.25375" style="fill: #555555; stroke: #555555; stroke-width: 0.8"/>
      </g>
     </g>
     <g id="text_9">
      <!-- 64 -->
      <g style="fill: #555555" transform="translate(256.066563 304.852187)scale(0.1 -0.1)">
       <use xlink:href="#DejaVuSans-36"/>
       <use xlink:href="#DejaVuSans-34" x="63.623047"/>
      </g>
     </g>
    </g>
    <g id="xtick_10">
     <g id="line2d_19">
      <path d="M 288.558202 290.25375 
L 288.558202 24.14175 
" clip-path="url(#pcb37528d87)" style="fill: none; stroke: #ffffff; stroke-width: 0.8; stroke-linecap: square"/>
     </g>
     <g id="line2d_20">
      <g>
       <use xlink:href="#md0d86ccacd" x="288.558202" y="290.25375" style="fill: #555555; stroke: #555555; stroke-width: 0.8"/>
      </g>
     </g>
     <g id="text_10">
      <!-- 72 -->
      <g style="fill: #555555" transform="translate(282.195702 304.852187)scale(0.1 -0.1)">
       <defs>
        <path id="DejaVuSans-37" d="M 525 4666 
L 3525 4666 
L 3525 4397 
L 1831 0 
L 1172 0 
L 2766 4134 
L 525 4134 
L 525 4666 
z
" transform="scale(0.015625)"/>
       </defs>
       <use xlink:href="#DejaVuSans-37"/>
       <use xlink:href="#DejaVuSans-32" x="63.623047"/>
      </g>
     </g>
    </g>
    <g id="xtick_11">
     <g id="line2d_21">
      <path d="M 314.68734 290.25375 
L 314.68734 24.14175 
" clip-path="url(#pcb37528d87)" style="fill: none; stroke: #ffffff; stroke-width: 0.8; stroke-linecap: square"/>
     </g>
     <g id="line2d_22">
      <g>
       <use xlink:href="#md0d86ccacd" x="314.68734" y="290.25375" style="fill: #555555; stroke: #555555; stroke-width: 0.8"/>
      </g>
     </g>
     <g id="text_11">
      <!-- 80 -->
      <g style="fill: #555555" transform="translate(308.32484 304.852187)scale(0.1 -0.1)">
       <use xlink:href="#DejaVuSans-38"/>
       <use xlink:href="#DejaVuSans-30" x="63.623047"/>
      </g>
     </g>
    </g>
    <g id="xtick_12">
     <g id="line2d_23">
      <path d="M 340.816479 290.25375 
L 340.816479 24.14175 
" clip-path="url(#pcb37528d87)" style="fill: none; stroke: #ffffff; stroke-width: 0.8; stroke-linecap: square"/>
     </g>
     <g id="line2d_24">
      <g>
       <use xlink:href="#md0d86ccacd" x="340.816479" y="290.25375" style="fill: #555555; stroke: #555555; stroke-width: 0.8"/>
      </g>
     </g>
     <g id="text_12">
      <!-- 88 -->
      <g style="fill: #555555" transform="translate(334.453979 304.852187)scale(0.1 -0.1)">
       <use xlink:href="#DejaVuSans-38"/>
       <use xlink:href="#DejaVuSans-38" x="63.623047"/>
      </g>
     </g>
    </g>
    <g id="xtick_13">
     <g id="line2d_25">
      <path d="M 366.945617 290.25375 
L 366.945617 24.14175 
" clip-path="url(#pcb37528d87)" style="fill: none; stroke: #ffffff; stroke-width: 0.8; stroke-linecap: square"/>
     </g>
     <g id="line2d_26">
      <g>
       <use xlink:href="#md0d86ccacd" x="366.945617" y="290.25375" style="fill: #555555; stroke: #555555; stroke-width: 0.8"/>
      </g>
     </g>
     <g id="text_13">
      <!-- 96 -->
      <g style="fill: #555555" transform="translate(360.583117 304.852187)scale(0.1 -0.1)">
       <defs>
        <path id="DejaVuSans-39" d="M 703 97 
L 703 672 
Q 941 559 1184 500 
Q 1428 441 1663 441 
Q 2288 441 2617 861 
Q 2947 1281 2994 2138 
Q 2813 1869 2534 1725 
Q 2256 1581 1919 1581 
Q 1219 1581 811 2004 
Q 403 2428 403 3163 
Q 403 3881 828 4315 
Q 1253 4750 1959 4750 
Q 2769 4750 3195 4129 
Q 3622 3509 3622 2328 
Q 3622 1225 3098 567 
Q 2575 -91 1691 -91 
Q 1453 -91 1209 -44 
Q 966 3 703 97 
z
M 1959 2075 
Q 2384 2075 2632 2365 
Q 2881 2656 2881 3163 
Q 2881 3666 2632 3958 
Q 2384 4250 1959 4250 
Q 1534 4250 1286 3958 
Q 1038 3666 1038 3163 
Q 1038 2656 1286 2365 
Q 1534 2075 1959 2075 
z
" transform="scale(0.015625)"/>
       </defs>
       <use xlink:href="#DejaVuSans-39"/>
       <use xlink:href="#DejaVuSans-36" x="63.623047"/>
      </g>
     </g>
    </g>
    <g id="xtick_14">
     <g id="line2d_27">
      <path d="M 393.074756 290.25375 
L 393.074756 24.14175 
" clip-path="url(#pcb37528d87)" style="fill: none; stroke: #ffffff; stroke-width: 0.8; stroke-linecap: square"/>
     </g>
     <g id="line2d_28">
      <g>
       <use xlink:href="#md0d86ccacd" x="393.074756" y="290.25375" style="fill: #555555; stroke: #555555; stroke-width: 0.8"/>
      </g>
     </g>
    </g>
    <g id="text_14">
     <!-- cases -->
     <g style="fill: #555555" transform="translate(198.150938 320.05)scale(0.12 -0.12)">
      <defs>
       <path id="DejaVuSans-63" d="M 3122 3366 
L 3122 2828 
Q 2878 2963 2633 3030 
Q 2388 3097 2138 3097 
Q 1578 3097 1268 2742 
Q 959 2388 959 1747 
Q 959 1106 1268 751 
Q 1578 397 2138 397 
Q 2388 397 2633 464 
Q 2878 531 3122 666 
L 3122 134 
Q 2881 22 2623 -34 
Q 2366 -91 2075 -91 
Q 1284 -91 818 406 
Q 353 903 353 1747 
Q 353 2603 823 3093 
Q 1294 3584 2113 3584 
Q 2378 3584 2631 3529 
Q 2884 3475 3122 3366 
z
" transform="scale(0.015625)"/>
       <path id="DejaVuSans-61" d="M 2194 1759 
Q 1497 1759 1228 1600 
Q 959 1441 959 1056 
Q 959 750 1161 570 
Q 1363 391 1709 391 
Q 2188 391 2477 730 
Q 2766 1069 2766 1631 
L 2766 1759 
L 2194 1759 
z
M 3341 1997 
L 3341 0 
L 2766 0 
L 2766 531 
Q 2569 213 2275 61 
Q 1981 -91 1556 -91 
Q 1019 -91 701 211 
Q 384 513 384 1019 
Q 384 1609 779 1909 
Q 1175 2209 1959 2209 
L 2766 2209 
L 2766 2266 
Q 2766 2663 2505 2880 
Q 2244 3097 1772 3097 
Q 1472 3097 1187 3025 
Q 903 2953 641 2809 
L 641 3341 
Q 956 3463 1253 3523 
Q 1550 3584 1831 3584 
Q 2591 3584 2966 3190 
Q 3341 2797 3341 1997 
z
" transform="scale(0.015625)"/>
       <path id="DejaVuSans-73" d="M 2834 3397 
L 2834 2853 
Q 2591 2978 2328 3040 
Q 2066 3103 1784 3103 
Q 1356 3103 1142 2972 
Q 928 2841 928 2578 
Q 928 2378 1081 2264 
Q 1234 2150 1697 2047 
L 1894 2003 
Q 2506 1872 2764 1633 
Q 3022 1394 3022 966 
Q 3022 478 2636 193 
Q 2250 -91 1575 -91 
Q 1294 -91 989 -36 
Q 684 19 347 128 
L 347 722 
Q 666 556 975 473 
Q 1284 391 1588 391 
Q 1994 391 2212 530 
Q 2431 669 2431 922 
Q 2431 1156 2273 1281 
Q 2116 1406 1581 1522 
L 1381 1569 
Q 847 1681 609 1914 
Q 372 2147 372 2553 
Q 372 3047 722 3315 
Q 1072 3584 1716 3584 
Q 2034 3584 2315 3537 
Q 2597 3491 2834 3397 
z
" transform="scale(0.015625)"/>
       <path id="DejaVuSans-65" d="M 3597 1894 
L 3597 1613 
L 953 1613 
Q 991 1019 1311 708 
Q 1631 397 2203 397 
Q 2534 397 2845 478 
Q 3156 559 3463 722 
L 3463 178 
Q 3153 47 2828 -22 
Q 2503 -91 2169 -91 
Q 1331 -91 842 396 
Q 353 884 353 1716 
Q 353 2575 817 3079 
Q 1281 3584 2069 3584 
Q 2775 3584 3186 3129 
Q 3597 2675 3597 1894 
z
M 3022 2063 
Q 3016 2534 2758 2815 
Q 2500 3097 2075 3097 
Q 1594 3097 1305 2825 
Q 1016 2553 972 2059 
L 3022 2063 
z
" transform="scale(0.015625)"/>
      </defs>
      <use xlink:href="#DejaVuSans-63"/>
      <use xlink:href="#DejaVuSans-61" x="54.980469"/>
      <use xlink:href="#DejaVuSans-73" x="116.259766"/>
      <use xlink:href="#DejaVuSans-65" x="168.359375"/>
      <use xlink:href="#DejaVuSans-73" x="229.882812"/>
     </g>
    </g>
   </g>
   <g id="matplotlib.axis_2">
    <g id="ytick_1">
     <g id="line2d_29">
      <path d="M 36.51 290.25375 
L 393.63 290.25375 
" clip-path="url(#pcb37528d87)" style="fill: none; stroke: #ffffff; stroke-width: 0.8; stroke-linecap: square"/>
     </g>
     <g id="line2d_30">
      <defs>
       <path id="mc42524759a" d="M 0 0 
L -3.5 0 
" style="stroke: #555555; stroke-width: 0.8"/>
      </defs>
      <g>
       <use xlink:href="#mc42524759a" x="36.51" y="290.25375" style="fill: #555555; stroke: #555555; stroke-width: 0.8"/>
      </g>
     </g>
     <g id="text_15">
      <!-- 0 -->
      <g style="fill: #555555" transform="translate(23.1475 294.052969)scale(0.1 -0.1)">
       <use xlink:href="#DejaVuSans-30"/>
      </g>
     </g>
    </g>
    <g id="ytick_2">
     <g id="line2d_31">
      <path d="M 36.51 254.853644 
L 393.63 254.853644 
" clip-path="url(#pcb37528d87)" style="fill: none; stroke: #ffffff; stroke-width: 0.8; stroke-linecap: square"/>
     </g>
     <g id="line2d_32">
      <g>
       <use xlink:href="#mc42524759a" x="36.51" y="254.853644" style="fill: #555555; stroke: #555555; stroke-width: 0.8"/>
      </g>
     </g>
     <g id="text_16">
      <!-- 1 -->
      <g style="fill: #555555" transform="translate(23.1475 258.652863)scale(0.1 -0.1)">
       <use xlink:href="#DejaVuSans-31"/>
      </g>
     </g>
    </g>
    <g id="ytick_3">
     <g id="line2d_33">
      <path d="M 36.51 219.453538 
L 393.63 219.453538 
" clip-path="url(#pcb37528d87)" style="fill: none; stroke: #ffffff; stroke-width: 0.8; stroke-linecap: square"/>
     </g>
     <g id="line2d_34">
      <g>
       <use xlink:href="#mc42524759a" x="36.51" y="219.453538" style="fill: #555555; stroke: #555555; stroke-width: 0.8"/>
      </g>
     </g>
     <g id="text_17">
      <!-- 2 -->
      <g style="fill: #555555" transform="translate(23.1475 223.252757)scale(0.1 -0.1)">
       <use xlink:href="#DejaVuSans-32"/>
      </g>
     </g>
    </g>
    <g id="ytick_4">
     <g id="line2d_35">
      <path d="M 36.51 184.053432 
L 393.63 184.053432 
" clip-path="url(#pcb37528d87)" style="fill: none; stroke: #ffffff; stroke-width: 0.8; stroke-linecap: square"/>
     </g>
     <g id="line2d_36">
      <g>
       <use xlink:href="#mc42524759a" x="36.51" y="184.053432" style="fill: #555555; stroke: #555555; stroke-width: 0.8"/>
      </g>
     </g>
     <g id="text_18">
      <!-- 3 -->
      <g style="fill: #555555" transform="translate(23.1475 187.852651)scale(0.1 -0.1)">
       <use xlink:href="#DejaVuSans-33"/>
      </g>
     </g>
    </g>
    <g id="ytick_5">
     <g id="line2d_37">
      <path d="M 36.51 148.653326 
L 393.63 148.653326 
" clip-path="url(#pcb37528d87)" style="fill: none; stroke: #ffffff; stroke-width: 0.8; stroke-linecap: square"/>
     </g>
     <g id="line2d_38">
      <g>
       <use xlink:href="#mc42524759a" x="36.51" y="148.653326" style="fill: #555555; stroke: #555555; stroke-width: 0.8"/>
      </g>
     </g>
     <g id="text_19">
      <!-- 4 -->
      <g style="fill: #555555" transform="translate(23.1475 152.452545)scale(0.1 -0.1)">
       <use xlink:href="#DejaVuSans-34"/>
      </g>
     </g>
    </g>
    <g id="ytick_6">
     <g id="line2d_39">
      <path d="M 36.51 113.25322 
L 393.63 113.25322 
" clip-path="url(#pcb37528d87)" style="fill: none; stroke: #ffffff; stroke-width: 0.8; stroke-linecap: square"/>
     </g>
     <g id="line2d_40">
      <g>
       <use xlink:href="#mc42524759a" x="36.51" y="113.25322" style="fill: #555555; stroke: #555555; stroke-width: 0.8"/>
      </g>
     </g>
     <g id="text_20">
      <!-- 5 -->
      <g style="fill: #555555" transform="translate(23.1475 117.052439)scale(0.1 -0.1)">
       <use xlink:href="#DejaVuSans-35"/>
      </g>
     </g>
    </g>
    <g id="ytick_7">
     <g id="line2d_41">
      <path d="M 36.51 77.853115 
L 393.63 77.853115 
" clip-path="url(#pcb37528d87)" style="fill: none; stroke: #ffffff; stroke-width: 0.8; stroke-linecap: square"/>
     </g>
     <g id="line2d_42">
      <g>
       <use xlink:href="#mc42524759a" x="36.51" y="77.853115" style="fill: #555555; stroke: #555555; stroke-width: 0.8"/>
      </g>
     </g>
     <g id="text_21">
      <!-- 6 -->
      <g style="fill: #555555" transform="translate(23.1475 81.652333)scale(0.1 -0.1)">
       <use xlink:href="#DejaVuSans-36"/>
      </g>
     </g>
    </g>
    <g id="ytick_8">
     <g id="line2d_43">
      <path d="M 36.51 42.453009 
L 393.63 42.453009 
" clip-path="url(#pcb37528d87)" style="fill: none; stroke: #ffffff; stroke-width: 0.8; stroke-linecap: square"/>
     </g>
     <g id="line2d_44">
      <g>
       <use xlink:href="#mc42524759a" x="36.51" y="42.453009" style="fill: #555555; stroke: #555555; stroke-width: 0.8"/>
      </g>
     </g>
     <g id="text_22">
      <!-- 7 -->
      <g style="fill: #555555" transform="translate(23.1475 46.252227)scale(0.1 -0.1)">
       <use xlink:href="#DejaVuSans-37"/>
      </g>
     </g>
    </g>
    <g id="text_23">
     <!-- avg_duration -->
     <g style="fill: #555555" transform="translate(16.318125 196.48275)rotate(-90)scale(0.12 -0.12)">
      <defs>
       <path id="DejaVuSans-76" d="M 191 3500 
L 800 3500 
L 1894 563 
L 2988 3500 
L 3597 3500 
L 2284 0 
L 1503 0 
L 191 3500 
z
" transform="scale(0.015625)"/>
       <path id="DejaVuSans-67" d="M 2906 1791 
Q 2906 2416 2648 2759 
Q 2391 3103 1925 3103 
Q 1463 3103 1205 2759 
Q 947 2416 947 1791 
Q 947 1169 1205 825 
Q 1463 481 1925 481 
Q 2391 481 2648 825 
Q 2906 1169 2906 1791 
z
M 3481 434 
Q 3481 -459 3084 -895 
Q 2688 -1331 1869 -1331 
Q 1566 -1331 1297 -1286 
Q 1028 -1241 775 -1147 
L 775 -588 
Q 1028 -725 1275 -790 
Q 1522 -856 1778 -856 
Q 2344 -856 2625 -561 
Q 2906 -266 2906 331 
L 2906 616 
Q 2728 306 2450 153 
Q 2172 0 1784 0 
Q 1141 0 747 490 
Q 353 981 353 1791 
Q 353 2603 747 3093 
Q 1141 3584 1784 3584 
Q 2172 3584 2450 3431 
Q 2728 3278 2906 2969 
L 2906 3500 
L 3481 3500 
L 3481 434 
z
" transform="scale(0.015625)"/>
       <path id="DejaVuSans-5f" d="M 3263 -1063 
L 3263 -1509 
L -63 -1509 
L -63 -1063 
L 3263 -1063 
z
" transform="scale(0.015625)"/>
       <path id="DejaVuSans-64" d="M 2906 2969 
L 2906 4863 
L 3481 4863 
L 3481 0 
L 2906 0 
L 2906 525 
Q 2725 213 2448 61 
Q 2172 -91 1784 -91 
Q 1150 -91 751 415 
Q 353 922 353 1747 
Q 353 2572 751 3078 
Q 1150 3584 1784 3584 
Q 2172 3584 2448 3432 
Q 2725 3281 2906 2969 
z
M 947 1747 
Q 947 1113 1208 752 
Q 1469 391 1925 391 
Q 2381 391 2643 752 
Q 2906 1113 2906 1747 
Q 2906 2381 2643 2742 
Q 2381 3103 1925 3103 
Q 1469 3103 1208 2742 
Q 947 2381 947 1747 
z
" transform="scale(0.015625)"/>
       <path id="DejaVuSans-75" d="M 544 1381 
L 544 3500 
L 1119 3500 
L 1119 1403 
Q 1119 906 1312 657 
Q 1506 409 1894 409 
Q 2359 409 2629 706 
Q 2900 1003 2900 1516 
L 2900 3500 
L 3475 3500 
L 3475 0 
L 2900 0 
L 2900 538 
Q 2691 219 2414 64 
Q 2138 -91 1772 -91 
Q 1169 -91 856 284 
Q 544 659 544 1381 
z
M 1991 3584 
L 1991 3584 
z
" transform="scale(0.015625)"/>
       <path id="DejaVuSans-72" d="M 2631 2963 
Q 2534 3019 2420 3045 
Q 2306 3072 2169 3072 
Q 1681 3072 1420 2755 
Q 1159 2438 1159 1844 
L 1159 0 
L 581 0 
L 581 3500 
L 1159 3500 
L 1159 2956 
Q 1341 3275 1631 3429 
Q 1922 3584 2338 3584 
Q 2397 3584 2469 3576 
Q 2541 3569 2628 3553 
L 2631 2963 
z
" transform="scale(0.015625)"/>
       <path id="DejaVuSans-74" d="M 1172 4494 
L 1172 3500 
L 2356 3500 
L 2356 3053 
L 1172 3053 
L 1172 1153 
Q 1172 725 1289 603 
Q 1406 481 1766 481 
L 2356 481 
L 2356 0 
L 1766 0 
Q 1100 0 847 248 
Q 594 497 594 1153 
L 594 3053 
L 172 3053 
L 172 3500 
L 594 3500 
L 594 4494 
L 1172 4494 
z
" transform="scale(0.015625)"/>
       <path id="DejaVuSans-69" d="M 603 3500 
L 1178 3500 
L 1178 0 
L 603 0 
L 603 3500 
z
M 603 4863 
L 1178 4863 
L 1178 4134 
L 603 4134 
L 603 4863 
z
" transform="scale(0.015625)"/>
       <path id="DejaVuSans-6f" d="M 1959 3097 
Q 1497 3097 1228 2736 
Q 959 2375 959 1747 
Q 959 1119 1226 758 
Q 1494 397 1959 397 
Q 2419 397 2687 759 
Q 2956 1122 2956 1747 
Q 2956 2369 2687 2733 
Q 2419 3097 1959 3097 
z
M 1959 3584 
Q 2709 3584 3137 3096 
Q 3566 2609 3566 1747 
Q 3566 888 3137 398 
Q 2709 -91 1959 -91 
Q 1206 -91 779 398 
Q 353 888 353 1747 
Q 353 2609 779 3096 
Q 1206 3584 1959 3584 
z
" transform="scale(0.015625)"/>
       <path id="DejaVuSans-6e" d="M 3513 2113 
L 3513 0 
L 2938 0 
L 2938 2094 
Q 2938 2591 2744 2837 
Q 2550 3084 2163 3084 
Q 1697 3084 1428 2787 
Q 1159 2491 1159 1978 
L 1159 0 
L 581 0 
L 581 3500 
L 1159 3500 
L 1159 2956 
Q 1366 3272 1645 3428 
Q 1925 3584 2291 3584 
Q 2894 3584 3203 3211 
Q 3513 2838 3513 2113 
z
" transform="scale(0.015625)"/>
      </defs>
      <use xlink:href="#DejaVuSans-61"/>
      <use xlink:href="#DejaVuSans-76" x="61.279297"/>
      <use xlink:href="#DejaVuSans-67" x="120.458984"/>
      <use xlink:href="#DejaVuSans-5f" x="183.935547"/>
      <use xlink:href="#DejaVuSans-64" x="233.935547"/>
      <use xlink:href="#DejaVuSans-75" x="297.412109"/>
      <use xlink:href="#DejaVuSans-72" x="360.791016"/>
      <use xlink:href="#DejaVuSans-61" x="401.904297"/>
      <use xlink:href="#DejaVuSans-74" x="463.183594"/>
      <use xlink:href="#DejaVuSans-69" x="502.392578"/>
      <use xlink:href="#DejaVuSans-6f" x="530.175781"/>
      <use xlink:href="#DejaVuSans-6e" x="591.357422"/>
     </g>
    </g>
    <g id="text_24">
     <!-- 1e7 -->
     <g style="fill: #555555" transform="translate(36.51 21.14175)scale(0.1 -0.1)">
      <use xlink:href="#DejaVuSans-31"/>
      <use xlink:href="#DejaVuSans-65" x="63.623047"/>
      <use xlink:href="#DejaVuSans-37" x="125.146484"/>
     </g>
    </g>
   </g>
   <g id="patch_3">
    <path d="M 52.742727 290.25375 
L 54.049184 290.25375 
L 54.049184 257.815232 
L 52.742727 257.815232 
z
" clip-path="url(#pcb37528d87)" style="fill: #9932cc"/>
   </g>
   <g id="patch_4">
    <path d="M 56.00887 290.25375 
L 57.315327 290.25375 
L 57.315327 238.531263 
L 56.00887 238.531263 
z
" clip-path="url(#pcb37528d87)" style="fill: #32cd32"/>
   </g>
   <g id="patch_5">
    <path d="M 59.275012 290.25375 
L 60.581469 290.25375 
L 60.581469 225.109245 
L 59.275012 225.109245 
z
" clip-path="url(#pcb37528d87)" style="fill: #9932cc"/>
   </g>
   <g id="patch_6">
    <path d="M 62.541154 290.25375 
L 63.847611 290.25375 
L 63.847611 236.881258 
L 62.541154 236.881258 
z
" clip-path="url(#pcb37528d87)" style="fill: #32cd32"/>
   </g>
   <g id="patch_7">
    <path d="M 65.807297 290.25375 
L 67.113753 290.25375 
L 67.113753 234.612406 
L 65.807297 234.612406 
z
" clip-path="url(#pcb37528d87)" style="fill: #9932cc"/>
   </g>
   <g id="patch_8">
    <path d="M 69.073439 290.25375 
L 70.379896 290.25375 
L 70.379896 227.898245 
L 69.073439 227.898245 
z
" clip-path="url(#pcb37528d87)" style="fill: #32cd32"/>
   </g>
   <g id="patch_9">
    <path d="M 72.339581 290.25375 
L 73.646038 290.25375 
L 73.646038 226.16703 
L 72.339581 226.16703 
z
" clip-path="url(#pcb37528d87)" style="fill: #9932cc"/>
   </g>
   <g id="patch_10">
    <path d="M 75.605723 290.25375 
L 76.91218 290.25375 
L 76.91218 194.408327 
L 75.605723 194.408327 
z
" clip-path="url(#pcb37528d87)" style="fill: #32cd32"/>
   </g>
   <g id="patch_11">
    <path d="M 78.871866 290.25375 
L 80.178323 290.25375 
L 80.178323 234.146559 
L 78.871866 234.146559 
z
" clip-path="url(#pcb37528d87)" style="fill: #9932cc"/>
   </g>
   <g id="patch_12">
    <path d="M 82.138008 290.25375 
L 83.444465 290.25375 
L 83.444465 230.891288 
L 82.138008 230.891288 
z
" clip-path="url(#pcb37528d87)" style="fill: #32cd32"/>
   </g>
   <g id="patch_13">
    <path d="M 85.40415 290.25375 
L 86.710607 290.25375 
L 86.710607 237.043012 
L 85.40415 237.043012 
z
" clip-path="url(#pcb37528d87)" style="fill: #9932cc"/>
   </g>
   <g id="patch_14">
    <path d="M 88.670293 290.25375 
L 89.97675 290.25375 
L 89.97675 237.548015 
L 88.670293 237.548015 
z
" clip-path="url(#pcb37528d87)" style="fill: #32cd32"/>
   </g>
   <g id="patch_15">
    <path d="M 91.936435 290.25375 
L 93.242892 290.25375 
L 93.242892 230.795216 
L 91.936435 230.795216 
z
" clip-path="url(#pcb37528d87)" style="fill: #9932cc"/>
   </g>
   <g id="patch_16">
    <path d="M 95.202577 290.25375 
L 96.509034 290.25375 
L 96.509034 230.122881 
L 95.202577 230.122881 
z
" clip-path="url(#pcb37528d87)" style="fill: #32cd32"/>
   </g>
   <g id="patch_17">
    <path d="M 98.46872 290.25375 
L 99.775177 290.25375 
L 99.775177 243.912999 
L 98.46872 243.912999 
z
" clip-path="url(#pcb37528d87)" style="fill: #9932cc"/>
   </g>
   <g id="patch_18">
    <path d="M 101.734862 290.25375 
L 103.041319 290.25375 
L 103.041319 235.079238 
L 101.734862 235.079238 
z
" clip-path="url(#pcb37528d87)" style="fill: #32cd32"/>
   </g>
   <g id="patch_19">
    <path d="M 105.001004 290.25375 
L 106.307461 290.25375 
L 106.307461 235.532366 
L 105.001004 235.532366 
z
" clip-path="url(#pcb37528d87)" style="fill: #9932cc"/>
   </g>
   <g id="patch_20">
    <path d="M 108.267147 290.25375 
L 109.573603 290.25375 
L 109.573603 232.510688 
L 108.267147 232.510688 
z
" clip-path="url(#pcb37528d87)" style="fill: #32cd32"/>
   </g>
   <g id="patch_21">
    <path d="M 111.533289 290.25375 
L 112.839746 290.25375 
L 112.839746 221.046439 
L 111.533289 221.046439 
z
" clip-path="url(#pcb37528d87)" style="fill: #9932cc"/>
   </g>
   <g id="patch_22">
    <path d="M 114.799431 290.25375 
L 116.105888 290.25375 
L 116.105888 241.039277 
L 114.799431 241.039277 
z
" clip-path="url(#pcb37528d87)" style="fill: #32cd32"/>
   </g>
   <g id="patch_23">
    <path d="M 118.065573 290.25375 
L 119.37203 290.25375 
L 119.37203 247.973872 
L 118.065573 247.973872 
z
" clip-path="url(#pcb37528d87)" style="fill: #9932cc"/>
   </g>
   <g id="patch_24">
    <path d="M 121.331716 290.25375 
L 122.638173 290.25375 
L 122.638173 233.982633 
L 121.331716 233.982633 
z
" clip-path="url(#pcb37528d87)" style="fill: #32cd32"/>
   </g>
   <g id="patch_25">
    <path d="M 124.597858 290.25375 
L 125.904315 290.25375 
L 125.904315 238.586967 
L 124.597858 238.586967 
z
" clip-path="url(#pcb37528d87)" style="fill: #9932cc"/>
   </g>
   <g id="patch_26">
    <path d="M 127.864 290.25375 
L 129.170457 290.25375 
L 129.170457 189.184623 
L 127.864 189.184623 
z
" clip-path="url(#pcb37528d87)" style="fill: #32cd32"/>
   </g>
   <g id="patch_27">
    <path d="M 131.130143 290.25375 
L 132.4366 290.25375 
L 132.4366 222.409027 
L 131.130143 222.409027 
z
" clip-path="url(#pcb37528d87)" style="fill: #9932cc"/>
   </g>
   <g id="patch_28">
    <path d="M 134.396285 290.25375 
L 135.702742 290.25375 
L 135.702742 225.86305 
L 134.396285 225.86305 
z
" clip-path="url(#pcb37528d87)" style="fill: #32cd32"/>
   </g>
   <g id="patch_29">
    <path d="M 137.662427 290.25375 
L 138.968884 290.25375 
L 138.968884 245.201487 
L 137.662427 245.201487 
z
" clip-path="url(#pcb37528d87)" style="fill: #9932cc"/>
   </g>
   <g id="patch_30">
    <path d="M 140.92857 290.25375 
L 142.235027 290.25375 
L 142.235027 223.842443 
L 140.92857 223.842443 
z
" clip-path="url(#pcb37528d87)" style="fill: #32cd32"/>
   </g>
   <g id="patch_31">
    <path d="M 144.194712 290.25375 
L 145.501169 290.25375 
L 145.501169 241.796955 
L 144.194712 241.796955 
z
" clip-path="url(#pcb37528d87)" style="fill: #9932cc"/>
   </g>
   <g id="patch_32">
    <path d="M 147.460854 290.25375 
L 148.767311 290.25375 
L 148.767311 223.269448 
L 147.460854 223.269448 
z
" clip-path="url(#pcb37528d87)" style="fill: #32cd32"/>
   </g>
   <g id="patch_33">
    <path d="M 150.726997 290.25375 
L 152.033453 290.25375 
L 152.033453 232.569732 
L 150.726997 232.569732 
z
" clip-path="url(#pcb37528d87)" style="fill: #9932cc"/>
   </g>
   <g id="patch_34">
    <path d="M 153.993139 290.25375 
L 155.299596 290.25375 
L 155.299596 230.122744 
L 153.993139 230.122744 
z
" clip-path="url(#pcb37528d87)" style="fill: #32cd32"/>
   </g>
   <g id="patch_35">
    <path d="M 157.259281 290.25375 
L 158.565738 290.25375 
L 158.565738 232.961497 
L 157.259281 232.961497 
z
" clip-path="url(#pcb37528d87)" style="fill: #9932cc"/>
   </g>
   <g id="patch_36">
    <path d="M 160.525423 290.25375 
L 161.83188 290.25375 
L 161.83188 225.722293 
L 160.525423 225.722293 
z
" clip-path="url(#pcb37528d87)" style="fill: #32cd32"/>
   </g>
   <g id="patch_37">
    <path d="M 163.791566 290.25375 
L 165.098023 290.25375 
L 165.098023 222.116042 
L 163.791566 222.116042 
z
" clip-path="url(#pcb37528d87)" style="fill: #9932cc"/>
   </g>
   <g id="patch_38">
    <path d="M 167.057708 290.25375 
L 168.364165 290.25375 
L 168.364165 232.737144 
L 167.057708 232.737144 
z
" clip-path="url(#pcb37528d87)" style="fill: #32cd32"/>
   </g>
   <g id="patch_39">
    <path d="M 170.32385 290.25375 
L 171.630307 290.25375 
L 171.630307 228.990531 
L 170.32385 228.990531 
z
" clip-path="url(#pcb37528d87)" style="fill: #9932cc"/>
   </g>
   <g id="patch_40">
    <path d="M 173.589993 290.25375 
L 174.89645 290.25375 
L 174.89645 236.766094 
L 173.589993 236.766094 
z
" clip-path="url(#pcb37528d87)" style="fill: #32cd32"/>
   </g>
   <g id="patch_41">
    <path d="M 176.856135 290.25375 
L 178.162592 290.25375 
L 178.162592 237.725061 
L 176.856135 237.725061 
z
" clip-path="url(#pcb37528d87)" style="fill: #9932cc"/>
   </g>
   <g id="patch_42">
    <path d="M 180.122277 290.25375 
L 181.428734 290.25375 
L 181.428734 222.022922 
L 180.122277 222.022922 
z
" clip-path="url(#pcb37528d87)" style="fill: #32cd32"/>
   </g>
   <g id="patch_43">
    <path d="M 183.38842 290.25375 
L 184.694877 290.25375 
L 184.694877 237.128433 
L 183.38842 237.128433 
z
" clip-path="url(#pcb37528d87)" style="fill: #9932cc"/>
   </g>
   <g id="patch_44">
    <path d="M 186.654562 290.25375 
L 187.961019 290.25375 
L 187.961019 227.674504 
L 186.654562 227.674504 
z
" clip-path="url(#pcb37528d87)" style="fill: #32cd32"/>
   </g>
   <g id="patch_45">
    <path d="M 189.920704 290.25375 
L 191.227161 290.25375 
L 191.227161 222.220659 
L 189.920704 222.220659 
z
" clip-path="url(#pcb37528d87)" style="fill: #9932cc"/>
   </g>
   <g id="patch_46">
    <path d="M 193.186847 290.25375 
L 194.493303 290.25375 
L 194.493303 258.266491 
L 193.186847 258.266491 
z
" clip-path="url(#pcb37528d87)" style="fill: #32cd32"/>
   </g>
   <g id="patch_47">
    <path d="M 196.452989 290.25375 
L 197.759446 290.25375 
L 197.759446 248.662392 
L 196.452989 248.662392 
z
" clip-path="url(#pcb37528d87)" style="fill: #9932cc"/>
   </g>
   <g id="patch_48">
    <path d="M 199.719131 290.25375 
L 201.025588 290.25375 
L 201.025588 222.870236 
L 199.719131 222.870236 
z
" clip-path="url(#pcb37528d87)" style="fill: #32cd32"/>
   </g>
   <g id="patch_49">
    <path d="M 202.985273 290.25375 
L 204.29173 290.25375 
L 204.29173 262.383786 
L 202.985273 262.383786 
z
" clip-path="url(#pcb37528d87)" style="fill: #9932cc"/>
   </g>
   <g id="patch_50">
    <path d="M 206.251416 290.25375 
L 207.557873 290.25375 
L 207.557873 235.563783 
L 206.251416 235.563783 
z
" clip-path="url(#pcb37528d87)" style="fill: #32cd32"/>
   </g>
   <g id="patch_51">
    <path d="M 209.517558 290.25375 
L 210.824015 290.25375 
L 210.824015 226.962828 
L 209.517558 226.962828 
z
" clip-path="url(#pcb37528d87)" style="fill: #9932cc"/>
   </g>
   <g id="patch_52">
    <path d="M 212.7837 290.25375 
L 214.090157 290.25375 
L 214.090157 229.873663 
L 212.7837 229.873663 
z
" clip-path="url(#pcb37528d87)" style="fill: #32cd32"/>
   </g>
   <g id="patch_53">
    <path d="M 216.049843 290.25375 
L 217.3563 290.25375 
L 217.3563 228.882089 
L 216.049843 228.882089 
z
" clip-path="url(#pcb37528d87)" style="fill: #9932cc"/>
   </g>
   <g id="patch_54">
    <path d="M 219.315985 290.25375 
L 220.622442 290.25375 
L 220.622442 228.433381 
L 219.315985 228.433381 
z
" clip-path="url(#pcb37528d87)" style="fill: #32cd32"/>
   </g>
   <g id="patch_55">
    <path d="M 222.582127 290.25375 
L 223.888584 290.25375 
L 223.888584 251.287191 
L 222.582127 251.287191 
z
" clip-path="url(#pcb37528d87)" style="fill: #9932cc"/>
   </g>
   <g id="patch_56">
    <path d="M 225.84827 290.25375 
L 227.154727 290.25375 
L 227.154727 223.722986 
L 225.84827 223.722986 
z
" clip-path="url(#pcb37528d87)" style="fill: #32cd32"/>
   </g>
   <g id="patch_57">
    <path d="M 229.114412 290.25375 
L 230.420869 290.25375 
L 230.420869 196.225371 
L 229.114412 196.225371 
z
" clip-path="url(#pcb37528d87)" style="fill: #9932cc"/>
   </g>
   <g id="patch_58">
    <path d="M 232.380554 290.25375 
L 233.687011 290.25375 
L 233.687011 221.893725 
L 232.380554 221.893725 
z
" clip-path="url(#pcb37528d87)" style="fill: #32cd32"/>
   </g>
   <g id="patch_59">
    <path d="M 235.646697 290.25375 
L 236.953153 290.25375 
L 236.953153 217.793178 
L 235.646697 217.793178 
z
" clip-path="url(#pcb37528d87)" style="fill: #9932cc"/>
   </g>
   <g id="patch_60">
    <path d="M 238.912839 290.25375 
L 240.219296 290.25375 
L 240.219296 236.192961 
L 238.912839 236.192961 
z
" clip-path="url(#pcb37528d87)" style="fill: #32cd32"/>
   </g>
   <g id="patch_61">
    <path d="M 242.178981 290.25375 
L 243.485438 290.25375 
L 243.485438 228.389924 
L 242.178981 228.389924 
z
" clip-path="url(#pcb37528d87)" style="fill: #9932cc"/>
   </g>
   <g id="patch_62">
    <path d="M 245.445123 290.25375 
L 246.75158 290.25375 
L 246.75158 208.677973 
L 245.445123 208.677973 
z
" clip-path="url(#pcb37528d87)" style="fill: #32cd32"/>
   </g>
   <g id="patch_63">
    <path d="M 248.711266 290.25375 
L 250.017723 290.25375 
L 250.017723 219.054518 
L 248.711266 219.054518 
z
" clip-path="url(#pcb37528d87)" style="fill: #9932cc"/>
   </g>
   <g id="patch_64">
    <path d="M 251.977408 290.25375 
L 253.283865 290.25375 
L 253.283865 211.099467 
L 251.977408 211.099467 
z
" clip-path="url(#pcb37528d87)" style="fill: #32cd32"/>
   </g>
   <g id="patch_65">
    <path d="M 255.24355 290.25375 
L 256.550007 290.25375 
L 256.550007 244.697582 
L 255.24355 244.697582 
z
" clip-path="url(#pcb37528d87)" style="fill: #9932cc"/>
   </g>
   <g id="patch_66">
    <path d="M 258.509693 290.25375 
L 259.81615 290.25375 
L 259.81615 240.392925 
L 258.509693 240.392925 
z
" clip-path="url(#pcb37528d87)" style="fill: #32cd32"/>
   </g>
   <g id="patch_67">
    <path d="M 261.775835 290.25375 
L 263.082292 290.25375 
L 263.082292 198.656445 
L 261.775835 198.656445 
z
" clip-path="url(#pcb37528d87)" style="fill: #9932cc"/>
   </g>
   <g id="patch_68">
    <path d="M 265.041977 290.25375 
L 266.348434 290.25375 
L 266.348434 183.205949 
L 265.041977 183.205949 
z
" clip-path="url(#pcb37528d87)" style="fill: #32cd32"/>
   </g>
   <g id="patch_69">
    <path d="M 268.30812 290.25375 
L 269.614577 290.25375 
L 269.614577 223.979643 
L 268.30812 223.979643 
z
" clip-path="url(#pcb37528d87)" style="fill: #9932cc"/>
   </g>
   <g id="patch_70">
    <path d="M 271.574262 290.25375 
L 272.880719 290.25375 
L 272.880719 36.81375 
L 271.574262 36.81375 
z
" clip-path="url(#pcb37528d87)" style="fill: #32cd32"/>
   </g>
   <g id="patch_71">
    <path d="M 274.840404 290.25375 
L 276.146861 290.25375 
L 276.146861 234.28344 
L 274.840404 234.28344 
z
" clip-path="url(#pcb37528d87)" style="fill: #9932cc"/>
   </g>
   <g id="patch_72">
    <path d="M 278.106547 290.25375 
L 279.413003 290.25375 
L 279.413003 253.598111 
L 278.106547 253.598111 
z
" clip-path="url(#pcb37528d87)" style="fill: #32cd32"/>
   </g>
   <g id="patch_73">
    <path d="M 281.372689 290.25375 
L 282.679146 290.25375 
L 282.679146 233.388759 
L 281.372689 233.388759 
z
" clip-path="url(#pcb37528d87)" style="fill: #9932cc"/>
   </g>
   <g id="patch_74">
    <path d="M 284.638831 290.25375 
L 285.945288 290.25375 
L 285.945288 237.638214 
L 284.638831 237.638214 
z
" clip-path="url(#pcb37528d87)" style="fill: #32cd32"/>
   </g>
   <g id="patch_75">
    <path d="M 287.904973 290.25375 
L 289.21143 290.25375 
L 289.21143 226.132039 
L 287.904973 226.132039 
z
" clip-path="url(#pcb37528d87)" style="fill: #9932cc"/>
   </g>
   <g id="patch_76">
    <path d="M 291.171116 290.25375 
L 292.477573 290.25375 
L 292.477573 188.68298 
L 291.171116 188.68298 
z
" clip-path="url(#pcb37528d87)" style="fill: #32cd32"/>
   </g>
   <g id="patch_77">
    <path d="M 294.437258 290.25375 
L 295.743715 290.25375 
L 295.743715 235.999848 
L 294.437258 235.999848 
z
" clip-path="url(#pcb37528d87)" style="fill: #9932cc"/>
   </g>
   <g id="patch_78">
    <path d="M 297.7034 290.25375 
L 299.009857 290.25375 
L 299.009857 247.336846 
L 297.7034 247.336846 
z
" clip-path="url(#pcb37528d87)" style="fill: #32cd32"/>
   </g>
   <g id="patch_79">
    <path d="M 300.969543 290.25375 
L 302.276 290.25375 
L 302.276 217.487435 
L 300.969543 217.487435 
z
" clip-path="url(#pcb37528d87)" style="fill: #9932cc"/>
   </g>
   <g id="patch_80">
    <path d="M 304.235685 290.25375 
L 305.542142 290.25375 
L 305.542142 230.908689 
L 304.235685 230.908689 
z
" clip-path="url(#pcb37528d87)" style="fill: #32cd32"/>
   </g>
   <g id="patch_81">
    <path d="M 307.501827 290.25375 
L 308.808284 290.25375 
L 308.808284 259.725617 
L 307.501827 259.725617 
z
" clip-path="url(#pcb37528d87)" style="fill: #9932cc"/>
   </g>
   <g id="patch_82">
    <path d="M 310.76797 290.25375 
L 312.074427 290.25375 
L 312.074427 208.164321 
L 310.76797 208.164321 
z
" clip-path="url(#pcb37528d87)" style="fill: #32cd32"/>
   </g>
   <g id="patch_83">
    <path d="M 314.034112 290.25375 
L 315.340569 290.25375 
L 315.340569 216.074133 
L 314.034112 216.074133 
z
" clip-path="url(#pcb37528d87)" style="fill: #9932cc"/>
   </g>
   <g id="patch_84">
    <path d="M 317.300254 290.25375 
L 318.606711 290.25375 
L 318.606711 157.985717 
L 317.300254 157.985717 
z
" clip-path="url(#pcb37528d87)" style="fill: #32cd32"/>
   </g>
   <g id="patch_85">
    <path d="M 320.566397 290.25375 
L 321.872853 290.25375 
L 321.872853 220.862716 
L 320.566397 220.862716 
z
" clip-path="url(#pcb37528d87)" style="fill: #9932cc"/>
   </g>
   <g id="patch_86">
    <path d="M 323.832539 290.25375 
L 325.138996 290.25375 
L 325.138996 217.484461 
L 323.832539 217.484461 
z
" clip-path="url(#pcb37528d87)" style="fill: #32cd32"/>
   </g>
   <g id="patch_87">
    <path d="M 327.098681 290.25375 
L 328.405138 290.25375 
L 328.405138 237.212636 
L 327.098681 237.212636 
z
" clip-path="url(#pcb37528d87)" style="fill: #9932cc"/>
   </g>
   <g id="patch_88">
    <path d="M 330.364823 290.25375 
L 331.67128 290.25375 
L 331.67128 240.716391 
L 330.364823 240.716391 
z
" clip-path="url(#pcb37528d87)" style="fill: #32cd32"/>
   </g>
   <g id="patch_89">
    <path d="M 333.630966 290.25375 
L 334.937423 290.25375 
L 334.937423 250.847539 
L 333.630966 250.847539 
z
" clip-path="url(#pcb37528d87)" style="fill: #9932cc"/>
   </g>
   <g id="patch_90">
    <path d="M 336.897108 290.25375 
L 338.203565 290.25375 
L 338.203565 243.980077 
L 336.897108 243.980077 
z
" clip-path="url(#pcb37528d87)" style="fill: #32cd32"/>
   </g>
   <g id="patch_91">
    <path d="M 340.16325 290.25375 
L 341.469707 290.25375 
L 341.469707 240.632817 
L 340.16325 240.632817 
z
" clip-path="url(#pcb37528d87)" style="fill: #9932cc"/>
   </g>
   <g id="patch_92">
    <path d="M 343.429393 290.25375 
L 344.73585 290.25375 
L 344.73585 232.694688 
L 343.429393 232.694688 
z
" clip-path="url(#pcb37528d87)" style="fill: #32cd32"/>
   </g>
   <g id="patch_93">
    <path d="M 346.695535 290.25375 
L 348.001992 290.25375 
L 348.001992 181.114127 
L 346.695535 181.114127 
z
" clip-path="url(#pcb37528d87)" style="fill: #9932cc"/>
   </g>
   <g id="patch_94">
    <path d="M 349.961677 290.25375 
L 351.268134 290.25375 
L 351.268134 230.209869 
L 349.961677 230.209869 
z
" clip-path="url(#pcb37528d87)" style="fill: #32cd32"/>
   </g>
   <g id="patch_95">
    <path d="M 353.22782 290.25375 
L 354.534277 290.25375 
L 354.534277 232.307098 
L 353.22782 232.307098 
z
" clip-path="url(#pcb37528d87)" style="fill: #9932cc"/>
   </g>
   <g id="patch_96">
    <path d="M 356.493962 290.25375 
L 357.800419 290.25375 
L 357.800419 216.323745 
L 356.493962 216.323745 
z
" clip-path="url(#pcb37528d87)" style="fill: #32cd32"/>
   </g>
   <g id="patch_97">
    <path d="M 359.760104 290.25375 
L 361.066561 290.25375 
L 361.066561 219.910538 
L 359.760104 219.910538 
z
" clip-path="url(#pcb37528d87)" style="fill: #9932cc"/>
   </g>
   <g id="patch_98">
    <path d="M 363.026247 290.25375 
L 364.332703 290.25375 
L 364.332703 235.065078 
L 363.026247 235.065078 
z
" clip-path="url(#pcb37528d87)" style="fill: #32cd32"/>
   </g>
   <g id="patch_99">
    <path d="M 366.292389 290.25375 
L 367.598846 290.25375 
L 367.598846 188.196307 
L 366.292389 188.196307 
z
" clip-path="url(#pcb37528d87)" style="fill: #9932cc"/>
   </g>
   <g id="patch_100">
    <path d="M 369.558531 290.25375 
L 370.864988 290.25375 
L 370.864988 231.977276 
L 369.558531 231.977276 
z
" clip-path="url(#pcb37528d87)" style="fill: #32cd32"/>
   </g>
   <g id="patch_101">
    <path d="M 372.824673 290.25375 
L 374.13113 290.25375 
L 374.13113 216.907202 
L 372.824673 216.907202 
z
" clip-path="url(#pcb37528d87)" style="fill: #9932cc"/>
   </g>
   <g id="patch_102">
    <path d="M 376.090816 290.25375 
L 377.397273 290.25375 
L 377.397273 199.094398 
L 376.090816 199.094398 
z
" clip-path="url(#pcb37528d87)" style="fill: #32cd32"/>
   </g>
   <g id="patch_103">
    <path d="M 36.51 290.25375 
L 36.51 24.14175 
" style="fill: none; stroke: #ffffff; stroke-linejoin: miter; stroke-linecap: square"/>
   </g>
   <g id="patch_104">
    <path d="M 393.63 290.25375 
L 393.63 24.14175 
" style="fill: none; stroke: #ffffff; stroke-linejoin: miter; stroke-linecap: square"/>
   </g>
   <g id="patch_105">
    <path d="M 36.51 290.25375 
L 393.63 290.25375 
" style="fill: none; stroke: #ffffff; stroke-linejoin: miter; stroke-linecap: square"/>
   </g>
   <g id="patch_106">
    <path d="M 36.51 24.14175 
L 393.63 24.14175 
" style="fill: none; stroke: #ffffff; stroke-linejoin: miter; stroke-linecap: square"/>
   </g>
   <g id="text_25">
    <!-- Top 100 values - bar chart of events per variant -->
    <g transform="translate(43.31625 18.14175)scale(0.144 -0.144)">
     <defs>
      <path id="DejaVuSans-54" d="M -19 4666 
L 3928 4666 
L 3928 4134 
L 2272 4134 
L 2272 0 
L 1638 0 
L 1638 4134 
L -19 4134 
L -19 4666 
z
" transform="scale(0.015625)"/>
      <path id="DejaVuSans-70" d="M 1159 525 
L 1159 -1331 
L 581 -1331 
L 581 3500 
L 1159 3500 
L 1159 2969 
Q 1341 3281 1617 3432 
Q 1894 3584 2278 3584 
Q 2916 3584 3314 3078 
Q 3713 2572 3713 1747 
Q 3713 922 3314 415 
Q 2916 -91 2278 -91 
Q 1894 -91 1617 61 
Q 1341 213 1159 525 
z
M 3116 1747 
Q 3116 2381 2855 2742 
Q 2594 3103 2138 3103 
Q 1681 3103 1420 2742 
Q 1159 2381 1159 1747 
Q 1159 1113 1420 752 
Q 1681 391 2138 391 
Q 2594 391 2855 752 
Q 3116 1113 3116 1747 
z
" transform="scale(0.015625)"/>
      <path id="DejaVuSans-20" transform="scale(0.015625)"/>
      <path id="DejaVuSans-6c" d="M 603 4863 
L 1178 4863 
L 1178 0 
L 603 0 
L 603 4863 
z
" transform="scale(0.015625)"/>
      <path id="DejaVuSans-2d" d="M 313 2009 
L 1997 2009 
L 1997 1497 
L 313 1497 
L 313 2009 
z
" transform="scale(0.015625)"/>
      <path id="DejaVuSans-62" d="M 3116 1747 
Q 3116 2381 2855 2742 
Q 2594 3103 2138 3103 
Q 1681 3103 1420 2742 
Q 1159 2381 1159 1747 
Q 1159 1113 1420 752 
Q 1681 391 2138 391 
Q 2594 391 2855 752 
Q 3116 1113 3116 1747 
z
M 1159 2969 
Q 1341 3281 1617 3432 
Q 1894 3584 2278 3584 
Q 2916 3584 3314 3078 
Q 3713 2572 3713 1747 
Q 3713 922 3314 415 
Q 2916 -91 2278 -91 
Q 1894 -91 1617 61 
Q 1341 213 1159 525 
L 1159 0 
L 581 0 
L 581 4863 
L 1159 4863 
L 1159 2969 
z
" transform="scale(0.015625)"/>
      <path id="DejaVuSans-68" d="M 3513 2113 
L 3513 0 
L 2938 0 
L 2938 2094 
Q 2938 2591 2744 2837 
Q 2550 3084 2163 3084 
Q 1697 3084 1428 2787 
Q 1159 2491 1159 1978 
L 1159 0 
L 581 0 
L 581 4863 
L 1159 4863 
L 1159 2956 
Q 1366 3272 1645 3428 
Q 1925 3584 2291 3584 
Q 2894 3584 3203 3211 
Q 3513 2838 3513 2113 
z
" transform="scale(0.015625)"/>
      <path id="DejaVuSans-66" d="M 2375 4863 
L 2375 4384 
L 1825 4384 
Q 1516 4384 1395 4259 
Q 1275 4134 1275 3809 
L 1275 3500 
L 2222 3500 
L 2222 3053 
L 1275 3053 
L 1275 0 
L 697 0 
L 697 3053 
L 147 3053 
L 147 3500 
L 697 3500 
L 697 3744 
Q 697 4328 969 4595 
Q 1241 4863 1831 4863 
L 2375 4863 
z
" transform="scale(0.015625)"/>
     </defs>
     <use xlink:href="#DejaVuSans-54"/>
     <use xlink:href="#DejaVuSans-6f" x="44.083984"/>
     <use xlink:href="#DejaVuSans-70" x="105.265625"/>
     <use xlink:href="#DejaVuSans-20" x="168.742188"/>
     <use xlink:href="#DejaVuSans-31" x="200.529297"/>
     <use xlink:href="#DejaVuSans-30" x="264.152344"/>
     <use xlink:href="#DejaVuSans-30" x="327.775391"/>
     <use xlink:href="#DejaVuSans-20" x="391.398438"/>
     <use xlink:href="#DejaVuSans-76" x="423.185547"/>
     <use xlink:href="#DejaVuSans-61" x="482.365234"/>
     <use xlink:href="#DejaVuSans-6c" x="543.644531"/>
     <use xlink:href="#DejaVuSans-75" x="571.427734"/>
     <use xlink:href="#DejaVuSans-65" x="634.806641"/>
     <use xlink:href="#DejaVuSans-73" x="696.330078"/>
     <use xlink:href="#DejaVuSans-20" x="748.429688"/>
     <use xlink:href="#DejaVuSans-2d" x="780.216797"/>
     <use xlink:href="#DejaVuSans-20" x="816.300781"/>
     <use xlink:href="#DejaVuSans-62" x="848.087891"/>
     <use xlink:href="#DejaVuSans-61" x="911.564453"/>
     <use xlink:href="#DejaVuSans-72" x="972.84375"/>
     <use xlink:href="#DejaVuSans-20" x="1013.957031"/>
     <use xlink:href="#DejaVuSans-63" x="1045.744141"/>
     <use xlink:href="#DejaVuSans-68" x="1100.724609"/>
     <use xlink:href="#DejaVuSans-61" x="1164.103516"/>
     <use xlink:href="#DejaVuSans-72" x="1225.382812"/>
     <use xlink:href="#DejaVuSans-74" x="1266.496094"/>
     <use xlink:href="#DejaVuSans-20" x="1305.705078"/>
     <use xlink:href="#DejaVuSans-6f" x="1337.492188"/>
     <use xlink:href="#DejaVuSans-66" x="1398.673828"/>
     <use xlink:href="#DejaVuSans-20" x="1433.878906"/>
     <use xlink:href="#DejaVuSans-65" x="1465.666016"/>
     <use xlink:href="#DejaVuSans-76" x="1527.189453"/>
     <use xlink:href="#DejaVuSans-65" x="1586.369141"/>
     <use xlink:href="#DejaVuSans-6e" x="1647.892578"/>
     <use xlink:href="#DejaVuSans-74" x="1711.271484"/>
     <use xlink:href="#DejaVuSans-73" x="1750.480469"/>
     <use xlink:href="#DejaVuSans-20" x="1802.580078"/>
     <use xlink:href="#DejaVuSans-70" x="1834.367188"/>
     <use xlink:href="#DejaVuSans-65" x="1897.84375"/>
     <use xlink:href="#DejaVuSans-72" x="1959.367188"/>
     <use xlink:href="#DejaVuSans-20" x="2000.480469"/>
     <use xlink:href="#DejaVuSans-76" x="2032.267578"/>
     <use xlink:href="#DejaVuSans-61" x="2091.447266"/>
     <use xlink:href="#DejaVuSans-72" x="2152.726562"/>
     <use xlink:href="#DejaVuSans-69" x="2193.839844"/>
     <use xlink:href="#DejaVuSans-61" x="2221.623047"/>
     <use xlink:href="#DejaVuSans-6e" x="2282.902344"/>
     <use xlink:href="#DejaVuSans-74" x="2346.28125"/>
    </g>
   </g>
  </g>
 </g>
 <defs>
  <clipPath id="pcb37528d87">
   <rect x="36.51" y="24.14175" width="357.12" height="266.112"/>
  </clipPath>
 </defs>
</svg>
