<?xml version="1.0" encoding="utf-8" standalone="no"?>
<!DOCTYPE svg PUBLIC "-//W3C//DTD SVG 1.1//EN"
  "http://www.w3.org/Graphics/SVG/1.1/DTD/svg11.dtd">
<svg xmlns:xlink="http://www.w3.org/1999/xlink" width="430.870375pt" height="329.745625pt" viewBox="0 0 430.870375 329.745625" xmlns="http://www.w3.org/2000/svg" version="1.1">
 <metadata>
  <rdf:RDF xmlns:dc="http://purl.org/dc/elements/1.1/" xmlns:cc="http://creativecommons.org/ns#" xmlns:rdf="http://www.w3.org/1999/02/22-rdf-syntax-ns#">
   <cc:Work>
    <dc:type rdf:resource="http://purl.org/dc/dcmitype/StillImage"/>
    <dc:date>2022-01-23T23:57:31.136908</dc:date>
    <dc:format>image/svg+xml</dc:format>
    <dc:creator>
     <cc:Agent>
      <dc:title>Matplotlib v3.5.1, https://matplotlib.org/</dc:title>
     </cc:Agent>
    </dc:creator>
   </cc:Work>
  </rdf:RDF>
 </metadata>
 <defs>
  <style type="text/css">*{stroke-linejoin: round; stroke-linecap: butt}</style>
 </defs>
 <g id="figure_1">
  <g id="patch_1">
   <path d="M 0 329.745625 
L 430.870375 329.745625 
L 430.870375 0 
L 0 0 
z
" style="fill: #ffffff"/>
  </g>
  <g id="axes_1">
   <g id="patch_2">
    <path d="M 46.050625 290.25375 
L 403.170625 290.25375 
L 403.170625 24.14175 
L 46.050625 24.14175 
z
" style="fill: #e5e5e5"/>
   </g>
   <g id="matplotlib.axis_1">
    <g id="xtick_1">
     <g id="line2d_1">
      <path d="M 62.936581 290.25375 
L 62.936581 24.14175 
" clip-path="url(#p3e91e0ded9)" style="fill: none; stroke: #ffffff; stroke-width: 0.8; stroke-linecap: square"/>
     </g>
     <g id="line2d_2">
      <defs>
       <path id="m6725f15711" d="M 0 0 
L 0 3.5 
" style="stroke: #555555; stroke-width: 0.8"/>
      </defs>
      <g>
       <use xlink:href="#m6725f15711" x="62.936581" y="290.25375" style="fill: #555555; stroke: #555555; stroke-width: 0.8"/>
      </g>
     </g>
     <g id="text_1">
      <!-- 0 -->
      <g style="fill: #555555" transform="translate(59.755331 304.852187)scale(0.1 -0.1)">
       <defs>
        <path id="DejaVuSans-30" d="M 2034 4250 
Q 1547 4250 1301 3770 
Q 1056 3291 1056 2328 
Q 1056 1369 1301 889 
Q 1547 409 2034 409 
Q 2525 409 2770 889 
Q 3016 1369 3016 2328 
Q 3016 3291 2770 3770 
Q 2525 4250 2034 4250 
z
M 2034 4750 
Q 2819 4750 3233 4129 
Q 3647 3509 3647 2328 
Q 3647 1150 3233 529 
Q 2819 -91 2034 -91 
Q 1250 -91 836 529 
Q 422 1150 422 2328 
Q 422 3509 836 4129 
Q 1250 4750 2034 4750 
z
" transform="scale(0.015625)"/>
       </defs>
       <use xlink:href="#DejaVuSans-30"/>
      </g>
     </g>
    </g>
    <g id="xtick_2">
     <g id="line2d_3">
      <path d="M 89.065719 290.25375 
L 89.065719 24.14175 
" clip-path="url(#p3e91e0ded9)" style="fill: none; stroke: #ffffff; stroke-width: 0.8; stroke-linecap: square"/>
     </g>
     <g id="line2d_4">
      <g>
       <use xlink:href="#m6725f15711" x="89.065719" y="290.25375" style="fill: #555555; stroke: #555555; stroke-width: 0.8"/>
      </g>
     </g>
     <g id="text_2">
      <!-- 8 -->
      <g style="fill: #555555" transform="translate(85.884469 304.852187)scale(0.1 -0.1)">
       <defs>
        <path id="DejaVuSans-38" d="M 2034 2216 
Q 1584 2216 1326 1975 
Q 1069 1734 1069 1313 
Q 1069 891 1326 650 
Q 1584 409 2034 409 
Q 2484 409 2743 651 
Q 3003 894 3003 1313 
Q 3003 1734 2745 1975 
Q 2488 2216 2034 2216 
z
M 1403 2484 
Q 997 2584 770 2862 
Q 544 3141 544 3541 
Q 544 4100 942 4425 
Q 1341 4750 2034 4750 
Q 2731 4750 3128 4425 
Q 3525 4100 3525 3541 
Q 3525 3141 3298 2862 
Q 3072 2584 2669 2484 
Q 3125 2378 3379 2068 
Q 3634 1759 3634 1313 
Q 3634 634 3220 271 
Q 2806 -91 2034 -91 
Q 1263 -91 848 271 
Q 434 634 434 1313 
Q 434 1759 690 2068 
Q 947 2378 1403 2484 
z
M 1172 3481 
Q 1172 3119 1398 2916 
Q 1625 2713 2034 2713 
Q 2441 2713 2670 2916 
Q 2900 3119 2900 3481 
Q 2900 3844 2670 4047 
Q 2441 4250 2034 4250 
Q 1625 4250 1398 4047 
Q 1172 3844 1172 3481 
z
" transform="scale(0.015625)"/>
       </defs>
       <use xlink:href="#DejaVuSans-38"/>
      </g>
     </g>
    </g>
    <g id="xtick_3">
     <g id="line2d_5">
      <path d="M 115.194858 290.25375 
L 115.194858 24.14175 
" clip-path="url(#p3e91e0ded9)" style="fill: none; stroke: #ffffff; stroke-width: 0.8; stroke-linecap: square"/>
     </g>
     <g id="line2d_6">
      <g>
       <use xlink:href="#m6725f15711" x="115.194858" y="290.25375" style="fill: #555555; stroke: #555555; stroke-width: 0.8"/>
      </g>
     </g>
     <g id="text_3">
      <!-- 16 -->
      <g style="fill: #555555" transform="translate(108.832358 304.852187)scale(0.1 -0.1)">
       <defs>
        <path id="DejaVuSans-31" d="M 794 531 
L 1825 531 
L 1825 4091 
L 703 3866 
L 703 4441 
L 1819 4666 
L 2450 4666 
L 2450 531 
L 3481 531 
L 3481 0 
L 794 0 
L 794 531 
z
" transform="scale(0.015625)"/>
        <path id="DejaVuSans-36" d="M 2113 2584 
Q 1688 2584 1439 2293 
Q 1191 2003 1191 1497 
Q 1191 994 1439 701 
Q 1688 409 2113 409 
Q 2538 409 2786 701 
Q 3034 994 3034 1497 
Q 3034 2003 2786 2293 
Q 2538 2584 2113 2584 
z
M 3366 4563 
L 3366 3988 
Q 3128 4100 2886 4159 
Q 2644 4219 2406 4219 
Q 1781 4219 1451 3797 
Q 1122 3375 1075 2522 
Q 1259 2794 1537 2939 
Q 1816 3084 2150 3084 
Q 2853 3084 3261 2657 
Q 3669 2231 3669 1497 
Q 3669 778 3244 343 
Q 2819 -91 2113 -91 
Q 1303 -91 875 529 
Q 447 1150 447 2328 
Q 447 3434 972 4092 
Q 1497 4750 2381 4750 
Q 2619 4750 2861 4703 
Q 3103 4656 3366 4563 
z
" transform="scale(0.015625)"/>
       </defs>
       <use xlink:href="#DejaVuSans-31"/>
       <use xlink:href="#DejaVuSans-36" x="63.623047"/>
      </g>
     </g>
    </g>
    <g id="xtick_4">
     <g id="line2d_7">
      <path d="M 141.323996 290.25375 
L 141.323996 24.14175 
" clip-path="url(#p3e91e0ded9)" style="fill: none; stroke: #ffffff; stroke-width: 0.8; stroke-linecap: square"/>
     </g>
     <g id="line2d_8">
      <g>
       <use xlink:href="#m6725f15711" x="141.323996" y="290.25375" style="fill: #555555; stroke: #555555; stroke-width: 0.8"/>
      </g>
     </g>
     <g id="text_4">
      <!-- 24 -->
      <g style="fill: #555555" transform="translate(134.961496 304.852187)scale(0.1 -0.1)">
       <defs>
        <path id="DejaVuSans-32" d="M 1228 531 
L 3431 531 
L 3431 0 
L 469 0 
L 469 531 
Q 828 903 1448 1529 
Q 2069 2156 2228 2338 
Q 2531 2678 2651 2914 
Q 2772 3150 2772 3378 
Q 2772 3750 2511 3984 
Q 2250 4219 1831 4219 
Q 1534 4219 1204 4116 
Q 875 4013 500 3803 
L 500 4441 
Q 881 4594 1212 4672 
Q 1544 4750 1819 4750 
Q 2544 4750 2975 4387 
Q 3406 4025 3406 3419 
Q 3406 3131 3298 2873 
Q 3191 2616 2906 2266 
Q 2828 2175 2409 1742 
Q 1991 1309 1228 531 
z
" transform="scale(0.015625)"/>
        <path id="DejaVuSans-34" d="M 2419 4116 
L 825 1625 
L 2419 1625 
L 2419 4116 
z
M 2253 4666 
L 3047 4666 
L 3047 1625 
L 3713 1625 
L 3713 1100 
L 3047 1100 
L 3047 0 
L 2419 0 
L 2419 1100 
L 313 1100 
L 313 1709 
L 2253 4666 
z
" transform="scale(0.015625)"/>
       </defs>
       <use xlink:href="#DejaVuSans-32"/>
       <use xlink:href="#DejaVuSans-34" x="63.623047"/>
      </g>
     </g>
    </g>
    <g id="xtick_5">
     <g id="line2d_9">
      <path d="M 167.453135 290.25375 
L 167.453135 24.14175 
" clip-path="url(#p3e91e0ded9)" style="fill: none; stroke: #ffffff; stroke-width: 0.8; stroke-linecap: square"/>
     </g>
     <g id="line2d_10">
      <g>
       <use xlink:href="#m6725f15711" x="167.453135" y="290.25375" style="fill: #555555; stroke: #555555; stroke-width: 0.8"/>
      </g>
     </g>
     <g id="text_5">
      <!-- 32 -->
      <g style="fill: #555555" transform="translate(161.090635 304.852187)scale(0.1 -0.1)">
       <defs>
        <path id="DejaVuSans-33" d="M 2597 2516 
Q 3050 2419 3304 2112 
Q 3559 1806 3559 1356 
Q 3559 666 3084 287 
Q 2609 -91 1734 -91 
Q 1441 -91 1130 -33 
Q 819 25 488 141 
L 488 750 
Q 750 597 1062 519 
Q 1375 441 1716 441 
Q 2309 441 2620 675 
Q 2931 909 2931 1356 
Q 2931 1769 2642 2001 
Q 2353 2234 1838 2234 
L 1294 2234 
L 1294 2753 
L 1863 2753 
Q 2328 2753 2575 2939 
Q 2822 3125 2822 3475 
Q 2822 3834 2567 4026 
Q 2313 4219 1838 4219 
Q 1578 4219 1281 4162 
Q 984 4106 628 3988 
L 628 4550 
Q 988 4650 1302 4700 
Q 1616 4750 1894 4750 
Q 2613 4750 3031 4423 
Q 3450 4097 3450 3541 
Q 3450 3153 3228 2886 
Q 3006 2619 2597 2516 
z
" transform="scale(0.015625)"/>
       </defs>
       <use xlink:href="#DejaVuSans-33"/>
       <use xlink:href="#DejaVuSans-32" x="63.623047"/>
      </g>
     </g>
    </g>
    <g id="xtick_6">
     <g id="line2d_11">
      <path d="M 193.582273 290.25375 
L 193.582273 24.14175 
" clip-path="url(#p3e91e0ded9)" style="fill: none; stroke: #ffffff; stroke-width: 0.8; stroke-linecap: square"/>
     </g>
     <g id="line2d_12">
      <g>
       <use xlink:href="#m6725f15711" x="193.582273" y="290.25375" style="fill: #555555; stroke: #555555; stroke-width: 0.8"/>
      </g>
     </g>
     <g id="text_6">
      <!-- 40 -->
      <g style="fill: #555555" transform="translate(187.219773 304.852187)scale(0.1 -0.1)">
       <use xlink:href="#DejaVuSans-34"/>
       <use xlink:href="#DejaVuSans-30" x="63.623047"/>
      </g>
     </g>
    </g>
    <g id="xtick_7">
     <g id="line2d_13">
      <path d="M 219.711412 290.25375 
L 219.711412 24.14175 
" clip-path="url(#p3e91e0ded9)" style="fill: none; stroke: #ffffff; stroke-width: 0.8; stroke-linecap: square"/>
     </g>
     <g id="line2d_14">
      <g>
       <use xlink:href="#m6725f15711" x="219.711412" y="290.25375" style="fill: #555555; stroke: #555555; stroke-width: 0.8"/>
      </g>
     </g>
     <g id="text_7">
      <!-- 48 -->
      <g style="fill: #555555" transform="translate(213.348912 304.852187)scale(0.1 -0.1)">
       <use xlink:href="#DejaVuSans-34"/>
       <use xlink:href="#DejaVuSans-38" x="63.623047"/>
      </g>
     </g>
    </g>
    <g id="xtick_8">
     <g id="line2d_15">
      <path d="M 245.84055 290.25375 
L 245.84055 24.14175 
" clip-path="url(#p3e91e0ded9)" style="fill: none; stroke: #ffffff; stroke-width: 0.8; stroke-linecap: square"/>
     </g>
     <g id="line2d_16">
      <g>
       <use xlink:href="#m6725f15711" x="245.84055" y="290.25375" style="fill: #555555; stroke: #555555; stroke-width: 0.8"/>
      </g>
     </g>
     <g id="text_8">
      <!-- 56 -->
      <g style="fill: #555555" transform="translate(239.47805 304.852187)scale(0.1 -0.1)">
       <defs>
        <path id="DejaVuSans-35" d="M 691 4666 
L 3169 4666 
L 3169 4134 
L 1269 4134 
L 1269 2991 
Q 1406 3038 1543 3061 
Q 1681 3084 1819 3084 
Q 2600 3084 3056 2656 
Q 3513 2228 3513 1497 
Q 3513 744 3044 326 
Q 2575 -91 1722 -91 
Q 1428 -91 1123 -41 
Q 819 9 494 109 
L 494 744 
Q 775 591 1075 516 
Q 1375 441 1709 441 
Q 2250 441 2565 725 
Q 2881 1009 2881 1497 
Q 2881 1984 2565 2268 
Q 2250 2553 1709 2553 
Q 1456 2553 1204 2497 
Q 953 2441 691 2322 
L 691 4666 
z
" transform="scale(0.015625)"/>
       </defs>
       <use xlink:href="#DejaVuSans-35"/>
       <use xlink:href="#DejaVuSans-36" x="63.623047"/>
      </g>
     </g>
    </g>
    <g id="xtick_9">
     <g id="line2d_17">
      <path d="M 271.969688 290.25375 
L 271.969688 24.14175 
" clip-path="url(#p3e91e0ded9)" style="fill: none; stroke: #ffffff; stroke-width: 0.8; stroke-linecap: square"/>
     </g>
     <g id="line2d_18">
      <g>
       <use xlink:href="#m6725f15711" x="271.969688" y="290.25375" style="fill: #555555; stroke: #555555; stroke-width: 0.8"/>
      </g>
     </g>
     <g id="text_9">
      <!-- 64 -->
      <g style="fill: #555555" transform="translate(265.607188 304.852187)scale(0.1 -0.1)">
       <use xlink:href="#DejaVuSans-36"/>
       <use xlink:href="#DejaVuSans-34" x="63.623047"/>
      </g>
     </g>
    </g>
    <g id="xtick_10">
     <g id="line2d_19">
      <path d="M 298.098827 290.25375 
L 298.098827 24.14175 
" clip-path="url(#p3e91e0ded9)" style="fill: none; stroke: #ffffff; stroke-width: 0.8; stroke-linecap: square"/>
     </g>
     <g id="line2d_20">
      <g>
       <use xlink:href="#m6725f15711" x="298.098827" y="290.25375" style="fill: #555555; stroke: #555555; stroke-width: 0.8"/>
      </g>
     </g>
     <g id="text_10">
      <!-- 72 -->
      <g style="fill: #555555" transform="translate(291.736327 304.852187)scale(0.1 -0.1)">
       <defs>
        <path id="DejaVuSans-37" d="M 525 4666 
L 3525 4666 
L 3525 4397 
L 1831 0 
L 1172 0 
L 2766 4134 
L 525 4134 
L 525 4666 
z
" transform="scale(0.015625)"/>
       </defs>
       <use xlink:href="#DejaVuSans-37"/>
       <use xlink:href="#DejaVuSans-32" x="63.623047"/>
      </g>
     </g>
    </g>
    <g id="xtick_11">
     <g id="line2d_21">
      <path d="M 324.227965 290.25375 
L 324.227965 24.14175 
" clip-path="url(#p3e91e0ded9)" style="fill: none; stroke: #ffffff; stroke-width: 0.8; stroke-linecap: square"/>
     </g>
     <g id="line2d_22">
      <g>
       <use xlink:href="#m6725f15711" x="324.227965" y="290.25375" style="fill: #555555; stroke: #555555; stroke-width: 0.8"/>
      </g>
     </g>
     <g id="text_11">
      <!-- 80 -->
      <g style="fill: #555555" transform="translate(317.865465 304.852187)scale(0.1 -0.1)">
       <use xlink:href="#DejaVuSans-38"/>
       <use xlink:href="#DejaVuSans-30" x="63.623047"/>
      </g>
     </g>
    </g>
    <g id="xtick_12">
     <g id="line2d_23">
      <path d="M 350.357104 290.25375 
L 350.357104 24.14175 
" clip-path="url(#p3e91e0ded9)" style="fill: none; stroke: #ffffff; stroke-width: 0.8; stroke-linecap: square"/>
     </g>
     <g id="line2d_24">
      <g>
       <use xlink:href="#m6725f15711" x="350.357104" y="290.25375" style="fill: #555555; stroke: #555555; stroke-width: 0.8"/>
      </g>
     </g>
     <g id="text_12">
      <!-- 88 -->
      <g style="fill: #555555" transform="translate(343.994604 304.852187)scale(0.1 -0.1)">
       <use xlink:href="#DejaVuSans-38"/>
       <use xlink:href="#DejaVuSans-38" x="63.623047"/>
      </g>
     </g>
    </g>
    <g id="xtick_13">
     <g id="line2d_25">
      <path d="M 376.486242 290.25375 
L 376.486242 24.14175 
" clip-path="url(#p3e91e0ded9)" style="fill: none; stroke: #ffffff; stroke-width: 0.8; stroke-linecap: square"/>
     </g>
     <g id="line2d_26">
      <g>
       <use xlink:href="#m6725f15711" x="376.486242" y="290.25375" style="fill: #555555; stroke: #555555; stroke-width: 0.8"/>
      </g>
     </g>
     <g id="text_13">
      <!-- 96 -->
      <g style="fill: #555555" transform="translate(370.123742 304.852187)scale(0.1 -0.1)">
       <defs>
        <path id="DejaVuSans-39" d="M 703 97 
L 703 672 
Q 941 559 1184 500 
Q 1428 441 1663 441 
Q 2288 441 2617 861 
Q 2947 1281 2994 2138 
Q 2813 1869 2534 1725 
Q 2256 1581 1919 1581 
Q 1219 1581 811 2004 
Q 403 2428 403 3163 
Q 403 3881 828 4315 
Q 1253 4750 1959 4750 
Q 2769 4750 3195 4129 
Q 3622 3509 3622 2328 
Q 3622 1225 3098 567 
Q 2575 -91 1691 -91 
Q 1453 -91 1209 -44 
Q 966 3 703 97 
z
M 1959 2075 
Q 2384 2075 2632 2365 
Q 2881 2656 2881 3163 
Q 2881 3666 2632 3958 
Q 2384 4250 1959 4250 
Q 1534 4250 1286 3958 
Q 1038 3666 1038 3163 
Q 1038 2656 1286 2365 
Q 1534 2075 1959 2075 
z
" transform="scale(0.015625)"/>
       </defs>
       <use xlink:href="#DejaVuSans-39"/>
       <use xlink:href="#DejaVuSans-36" x="63.623047"/>
      </g>
     </g>
    </g>
    <g id="xtick_14">
     <g id="line2d_27">
      <path d="M 402.615381 290.25375 
L 402.615381 24.14175 
" clip-path="url(#p3e91e0ded9)" style="fill: none; stroke: #ffffff; stroke-width: 0.8; stroke-linecap: square"/>
     </g>
     <g id="line2d_28">
      <g>
       <use xlink:href="#m6725f15711" x="402.615381" y="290.25375" style="fill: #555555; stroke: #555555; stroke-width: 0.8"/>
      </g>
     </g>
    </g>
    <g id="text_14">
     <!-- cases -->
     <g style="fill: #555555" transform="translate(207.691563 320.05)scale(0.12 -0.12)">
      <defs>
       <path id="DejaVuSans-63" d="M 3122 3366 
L 3122 2828 
Q 2878 2963 2633 3030 
Q 2388 3097 2138 3097 
Q 1578 3097 1268 2742 
Q 959 2388 959 1747 
Q 959 1106 1268 751 
Q 1578 397 2138 397 
Q 2388 397 2633 464 
Q 2878 531 3122 666 
L 3122 134 
Q 2881 22 2623 -34 
Q 2366 -91 2075 -91 
Q 1284 -91 818 406 
Q 353 903 353 1747 
Q 353 2603 823 3093 
Q 1294 3584 2113 3584 
Q 2378 3584 2631 3529 
Q 2884 3475 3122 3366 
z
" transform="scale(0.015625)"/>
       <path id="DejaVuSans-61" d="M 2194 1759 
Q 1497 1759 1228 1600 
Q 959 1441 959 1056 
Q 959 750 1161 570 
Q 1363 391 1709 391 
Q 2188 391 2477 730 
Q 2766 1069 2766 1631 
L 2766 1759 
L 2194 1759 
z
M 3341 1997 
L 3341 0 
L 2766 0 
L 2766 531 
Q 2569 213 2275 61 
Q 1981 -91 1556 -91 
Q 1019 -91 701 211 
Q 384 513 384 1019 
Q 384 1609 779 1909 
Q 1175 2209 1959 2209 
L 2766 2209 
L 2766 2266 
Q 2766 2663 2505 2880 
Q 2244 3097 1772 3097 
Q 1472 3097 1187 3025 
Q 903 2953 641 2809 
L 641 3341 
Q 956 3463 1253 3523 
Q 1550 3584 1831 3584 
Q 2591 3584 2966 3190 
Q 3341 2797 3341 1997 
z
" transform="scale(0.015625)"/>
       <path id="DejaVuSans-73" d="M 2834 3397 
L 2834 2853 
Q 2591 2978 2328 3040 
Q 2066 3103 1784 3103 
Q 1356 3103 1142 2972 
Q 928 2841 928 2578 
Q 928 2378 1081 2264 
Q 1234 2150 1697 2047 
L 1894 2003 
Q 2506 1872 2764 1633 
Q 3022 1394 3022 966 
Q 3022 478 2636 193 
Q 2250 -91 1575 -91 
Q 1294 -91 989 -36 
Q 684 19 347 128 
L 347 722 
Q 666 556 975 473 
Q 1284 391 1588 391 
Q 1994 391 2212 530 
Q 2431 669 2431 922 
Q 2431 1156 2273 1281 
Q 2116 1406 1581 1522 
L 1381 1569 
Q 847 1681 609 1914 
Q 372 2147 372 2553 
Q 372 3047 722 3315 
Q 1072 3584 1716 3584 
Q 2034 3584 2315 3537 
Q 2597 3491 2834 3397 
z
" transform="scale(0.015625)"/>
       <path id="DejaVuSans-65" d="M 3597 1894 
L 3597 1613 
L 953 1613 
Q 991 1019 1311 708 
Q 1631 397 2203 397 
Q 2534 397 2845 478 
Q 3156 559 3463 722 
L 3463 178 
Q 3153 47 2828 -22 
Q 2503 -91 2169 -91 
Q 1331 -91 842 396 
Q 353 884 353 1716 
Q 353 2575 817 3079 
Q 1281 3584 2069 3584 
Q 2775 3584 3186 3129 
Q 3597 2675 3597 1894 
z
M 3022 2063 
Q 3016 2534 2758 2815 
Q 2500 3097 2075 3097 
Q 1594 3097 1305 2825 
Q 1016 2553 972 2059 
L 3022 2063 
z
" transform="scale(0.015625)"/>
      </defs>
      <use xlink:href="#DejaVuSans-63"/>
      <use xlink:href="#DejaVuSans-61" x="54.980469"/>
      <use xlink:href="#DejaVuSans-73" x="116.259766"/>
      <use xlink:href="#DejaVuSans-65" x="168.359375"/>
      <use xlink:href="#DejaVuSans-73" x="229.882812"/>
     </g>
    </g>
   </g>
   <g id="matplotlib.axis_2">
    <g id="ytick_1">
     <g id="line2d_29">
      <path d="M 46.050625 290.25375 
L 403.170625 290.25375 
" clip-path="url(#p3e91e0ded9)" style="fill: none; stroke: #ffffff; stroke-width: 0.8; stroke-linecap: square"/>
     </g>
     <g id="line2d_30">
      <defs>
       <path id="m0c8ff5d06c" d="M 0 0 
L -3.5 0 
" style="stroke: #555555; stroke-width: 0.8"/>
      </defs>
      <g>
       <use xlink:href="#m0c8ff5d06c" x="46.050625" y="290.25375" style="fill: #555555; stroke: #555555; stroke-width: 0.8"/>
      </g>
     </g>
     <g id="text_15">
      <!-- 0.0 -->
      <g style="fill: #555555" transform="translate(23.1475 294.052969)scale(0.1 -0.1)">
       <defs>
        <path id="DejaVuSans-2e" d="M 684 794 
L 1344 794 
L 1344 0 
L 684 0 
L 684 794 
z
" transform="scale(0.015625)"/>
       </defs>
       <use xlink:href="#DejaVuSans-30"/>
       <use xlink:href="#DejaVuSans-2e" x="63.623047"/>
       <use xlink:href="#DejaVuSans-30" x="95.410156"/>
      </g>
     </g>
    </g>
    <g id="ytick_2">
     <g id="line2d_31">
      <path d="M 46.050625 244.848066 
L 403.170625 244.848066 
" clip-path="url(#p3e91e0ded9)" style="fill: none; stroke: #ffffff; stroke-width: 0.8; stroke-linecap: square"/>
     </g>
     <g id="line2d_32">
      <g>
       <use xlink:href="#m0c8ff5d06c" x="46.050625" y="244.848066" style="fill: #555555; stroke: #555555; stroke-width: 0.8"/>
      </g>
     </g>
     <g id="text_16">
      <!-- 0.5 -->
      <g style="fill: #555555" transform="translate(23.1475 248.647284)scale(0.1 -0.1)">
       <use xlink:href="#DejaVuSans-30"/>
       <use xlink:href="#DejaVuSans-2e" x="63.623047"/>
       <use xlink:href="#DejaVuSans-35" x="95.410156"/>
      </g>
     </g>
    </g>
    <g id="ytick_3">
     <g id="line2d_33">
      <path d="M 46.050625 199.442381 
L 403.170625 199.442381 
" clip-path="url(#p3e91e0ded9)" style="fill: none; stroke: #ffffff; stroke-width: 0.8; stroke-linecap: square"/>
     </g>
     <g id="line2d_34">
      <g>
       <use xlink:href="#m0c8ff5d06c" x="46.050625" y="199.442381" style="fill: #555555; stroke: #555555; stroke-width: 0.8"/>
      </g>
     </g>
     <g id="text_17">
      <!-- 1.0 -->
      <g style="fill: #555555" transform="translate(23.1475 203.2416)scale(0.1 -0.1)">
       <use xlink:href="#DejaVuSans-31"/>
       <use xlink:href="#DejaVuSans-2e" x="63.623047"/>
       <use xlink:href="#DejaVuSans-30" x="95.410156"/>
      </g>
     </g>
    </g>
    <g id="ytick_4">
     <g id="line2d_35">
      <path d="M 46.050625 154.036697 
L 403.170625 154.036697 
" clip-path="url(#p3e91e0ded9)" style="fill: none; stroke: #ffffff; stroke-width: 0.8; stroke-linecap: square"/>
     </g>
     <g id="line2d_36">
      <g>
       <use xlink:href="#m0c8ff5d06c" x="46.050625" y="154.036697" style="fill: #555555; stroke: #555555; stroke-width: 0.8"/>
      </g>
     </g>
     <g id="text_18">
      <!-- 1.5 -->
      <g style="fill: #555555" transform="translate(23.1475 157.835916)scale(0.1 -0.1)">
       <use xlink:href="#DejaVuSans-31"/>
       <use xlink:href="#DejaVuSans-2e" x="63.623047"/>
       <use xlink:href="#DejaVuSans-35" x="95.410156"/>
      </g>
     </g>
    </g>
    <g id="ytick_5">
     <g id="line2d_37">
      <path d="M 46.050625 108.631013 
L 403.170625 108.631013 
" clip-path="url(#p3e91e0ded9)" style="fill: none; stroke: #ffffff; stroke-width: 0.8; stroke-linecap: square"/>
     </g>
     <g id="line2d_38">
      <g>
       <use xlink:href="#m0c8ff5d06c" x="46.050625" y="108.631013" style="fill: #555555; stroke: #555555; stroke-width: 0.8"/>
      </g>
     </g>
     <g id="text_19">
      <!-- 2.0 -->
      <g style="fill: #555555" transform="translate(23.1475 112.430232)scale(0.1 -0.1)">
       <use xlink:href="#DejaVuSans-32"/>
       <use xlink:href="#DejaVuSans-2e" x="63.623047"/>
       <use xlink:href="#DejaVuSans-30" x="95.410156"/>
      </g>
     </g>
    </g>
    <g id="ytick_6">
     <g id="line2d_39">
      <path d="M 46.050625 63.225328 
L 403.170625 63.225328 
" clip-path="url(#p3e91e0ded9)" style="fill: none; stroke: #ffffff; stroke-width: 0.8; stroke-linecap: square"/>
     </g>
     <g id="line2d_40">
      <g>
       <use xlink:href="#m0c8ff5d06c" x="46.050625" y="63.225328" style="fill: #555555; stroke: #555555; stroke-width: 0.8"/>
      </g>
     </g>
     <g id="text_20">
      <!-- 2.5 -->
      <g style="fill: #555555" transform="translate(23.1475 67.024547)scale(0.1 -0.1)">
       <use xlink:href="#DejaVuSans-32"/>
       <use xlink:href="#DejaVuSans-2e" x="63.623047"/>
       <use xlink:href="#DejaVuSans-35" x="95.410156"/>
      </g>
     </g>
    </g>
    <g id="text_21">
     <!-- avg_duration -->
     <g style="fill: #555555" transform="translate(16.318125 196.48275)rotate(-90)scale(0.12 -0.12)">
      <defs>
       <path id="DejaVuSans-76" d="M 191 3500 
L 800 3500 
L 1894 563 
L 2988 3500 
L 3597 3500 
L 2284 0 
L 1503 0 
L 191 3500 
z
" transform="scale(0.015625)"/>
       <path id="DejaVuSans-67" d="M 2906 1791 
Q 2906 2416 2648 2759 
Q 2391 3103 1925 3103 
Q 1463 3103 1205 2759 
Q 947 2416 947 1791 
Q 947 1169 1205 825 
Q 1463 481 1925 481 
Q 2391 481 2648 825 
Q 2906 1169 2906 1791 
z
M 3481 434 
Q 3481 -459 3084 -895 
Q 2688 -1331 1869 -1331 
Q 1566 -1331 1297 -1286 
Q 1028 -1241 775 -1147 
L 775 -588 
Q 1028 -725 1275 -790 
Q 1522 -856 1778 -856 
Q 2344 -856 2625 -561 
Q 2906 -266 2906 331 
L 2906 616 
Q 2728 306 2450 153 
Q 2172 0 1784 0 
Q 1141 0 747 490 
Q 353 981 353 1791 
Q 353 2603 747 3093 
Q 1141 3584 1784 3584 
Q 2172 3584 2450 3431 
Q 2728 3278 2906 2969 
L 2906 3500 
L 3481 3500 
L 3481 434 
z
" transform="scale(0.015625)"/>
       <path id="DejaVuSans-5f" d="M 3263 -1063 
L 3263 -1509 
L -63 -1509 
L -63 -1063 
L 3263 -1063 
z
" transform="scale(0.015625)"/>
       <path id="DejaVuSans-64" d="M 2906 2969 
L 2906 4863 
L 3481 4863 
L 3481 0 
L 2906 0 
L 2906 525 
Q 2725 213 2448 61 
Q 2172 -91 1784 -91 
Q 1150 -91 751 415 
Q 353 922 353 1747 
Q 353 2572 751 3078 
Q 1150 3584 1784 3584 
Q 2172 3584 2448 3432 
Q 2725 3281 2906 2969 
z
M 947 1747 
Q 947 1113 1208 752 
Q 1469 391 1925 391 
Q 2381 391 2643 752 
Q 2906 1113 2906 1747 
Q 2906 2381 2643 2742 
Q 2381 3103 1925 3103 
Q 1469 3103 1208 2742 
Q 947 2381 947 1747 
z
" transform="scale(0.015625)"/>
       <path id="DejaVuSans-75" d="M 544 1381 
L 544 3500 
L 1119 3500 
L 1119 1403 
Q 1119 906 1312 657 
Q 1506 409 1894 409 
Q 2359 409 2629 706 
Q 2900 1003 2900 1516 
L 2900 3500 
L 3475 3500 
L 3475 0 
L 2900 0 
L 2900 538 
Q 2691 219 2414 64 
Q 2138 -91 1772 -91 
Q 1169 -91 856 284 
Q 544 659 544 1381 
z
M 1991 3584 
L 1991 3584 
z
" transform="scale(0.015625)"/>
       <path id="DejaVuSans-72" d="M 2631 2963 
Q 2534 3019 2420 3045 
Q 2306 3072 2169 3072 
Q 1681 3072 1420 2755 
Q 1159 2438 1159 1844 
L 1159 0 
L 581 0 
L 581 3500 
L 1159 3500 
L 1159 2956 
Q 1341 3275 1631 3429 
Q 1922 3584 2338 3584 
Q 2397 3584 2469 3576 
Q 2541 3569 2628 3553 
L 2631 2963 
z
" transform="scale(0.015625)"/>
       <path id="DejaVuSans-74" d="M 1172 4494 
L 1172 3500 
L 2356 3500 
L 2356 3053 
L 1172 3053 
L 1172 1153 
Q 1172 725 1289 603 
Q 1406 481 1766 481 
L 2356 481 
L 2356 0 
L 1766 0 
Q 1100 0 847 248 
Q 594 497 594 1153 
L 594 3053 
L 172 3053 
L 172 3500 
L 594 3500 
L 594 4494 
L 1172 4494 
z
" transform="scale(0.015625)"/>
       <path id="DejaVuSans-69" d="M 603 3500 
L 1178 3500 
L 1178 0 
L 603 0 
L 603 3500 
z
M 603 4863 
L 1178 4863 
L 1178 4134 
L 603 4134 
L 603 4863 
z
" transform="scale(0.015625)"/>
       <path id="DejaVuSans-6f" d="M 1959 3097 
Q 1497 3097 1228 2736 
Q 959 2375 959 1747 
Q 959 1119 1226 758 
Q 1494 397 1959 397 
Q 2419 397 2687 759 
Q 2956 1122 2956 1747 
Q 2956 2369 2687 2733 
Q 2419 3097 1959 3097 
z
M 1959 3584 
Q 2709 3584 3137 3096 
Q 3566 2609 3566 1747 
Q 3566 888 3137 398 
Q 2709 -91 1959 -91 
Q 1206 -91 779 398 
Q 353 888 353 1747 
Q 353 2609 779 3096 
Q 1206 3584 1959 3584 
z
" transform="scale(0.015625)"/>
       <path id="DejaVuSans-6e" d="M 3513 2113 
L 3513 0 
L 2938 0 
L 2938 2094 
Q 2938 2591 2744 2837 
Q 2550 3084 2163 3084 
Q 1697 3084 1428 2787 
Q 1159 2491 1159 1978 
L 1159 0 
L 581 0 
L 581 3500 
L 1159 3500 
L 1159 2956 
Q 1366 3272 1645 3428 
Q 1925 3584 2291 3584 
Q 2894 3584 3203 3211 
Q 3513 2838 3513 2113 
z
" transform="scale(0.015625)"/>
      </defs>
      <use xlink:href="#DejaVuSans-61"/>
      <use xlink:href="#DejaVuSans-76" x="61.279297"/>
      <use xlink:href="#DejaVuSans-67" x="120.458984"/>
      <use xlink:href="#DejaVuSans-5f" x="183.935547"/>
      <use xlink:href="#DejaVuSans-64" x="233.935547"/>
      <use xlink:href="#DejaVuSans-75" x="297.412109"/>
      <use xlink:href="#DejaVuSans-72" x="360.791016"/>
      <use xlink:href="#DejaVuSans-61" x="401.904297"/>
      <use xlink:href="#DejaVuSans-74" x="463.183594"/>
      <use xlink:href="#DejaVuSans-69" x="502.392578"/>
      <use xlink:href="#DejaVuSans-6f" x="530.175781"/>
      <use xlink:href="#DejaVuSans-6e" x="591.357422"/>
     </g>
    </g>
    <g id="text_22">
     <!-- 1e7 -->
     <g style="fill: #555555" transform="translate(46.050625 21.14175)scale(0.1 -0.1)">
      <use xlink:href="#DejaVuSans-31"/>
      <use xlink:href="#DejaVuSans-65" x="63.623047"/>
      <use xlink:href="#DejaVuSans-37" x="125.146484"/>
     </g>
    </g>
   </g>
   <g id="patch_3">
    <path d="M 62.283352 290.25375 
L 63.589809 290.25375 
L 63.589809 229.314058 
L 62.283352 229.314058 
z
" clip-path="url(#p3e91e0ded9)" style="fill: #9932cc"/>
   </g>
   <g id="patch_4">
    <path d="M 65.549495 290.25375 
L 66.855952 290.25375 
L 66.855952 190.471895 
L 65.549495 190.471895 
z
" clip-path="url(#p3e91e0ded9)" style="fill: #32cd32"/>
   </g>
   <g id="patch_5">
    <path d="M 68.815637 290.25375 
L 70.122094 290.25375 
L 70.122094 195.559253 
L 68.815637 195.559253 
z
" clip-path="url(#p3e91e0ded9)" style="fill: #9932cc"/>
   </g>
   <g id="patch_6">
    <path d="M 72.081779 290.25375 
L 73.388236 290.25375 
L 73.388236 188.837665 
L 72.081779 188.837665 
z
" clip-path="url(#p3e91e0ded9)" style="fill: #32cd32"/>
   </g>
   <g id="patch_7">
    <path d="M 75.347922 290.25375 
L 76.654378 290.25375 
L 76.654378 222.80768 
L 75.347922 222.80768 
z
" clip-path="url(#p3e91e0ded9)" style="fill: #9932cc"/>
   </g>
   <g id="patch_8">
    <path d="M 78.614064 290.25375 
L 79.920521 290.25375 
L 79.920521 225.595522 
L 78.614064 225.595522 
z
" clip-path="url(#p3e91e0ded9)" style="fill: #32cd32"/>
   </g>
   <g id="patch_9">
    <path d="M 81.880206 290.25375 
L 83.186663 290.25375 
L 83.186663 219.401486 
L 81.880206 219.401486 
z
" clip-path="url(#p3e91e0ded9)" style="fill: #9932cc"/>
   </g>
   <g id="patch_10">
    <path d="M 85.146348 290.25375 
L 86.452805 290.25375 
L 86.452805 198.64089 
L 85.146348 198.64089 
z
" clip-path="url(#p3e91e0ded9)" style="fill: #32cd32"/>
   </g>
   <g id="patch_11">
    <path d="M 88.412491 290.25375 
L 89.718948 290.25375 
L 89.718948 183.565861 
L 88.412491 183.565861 
z
" clip-path="url(#p3e91e0ded9)" style="fill: #9932cc"/>
   </g>
   <g id="patch_12">
    <path d="M 91.678633 290.25375 
L 92.98509 290.25375 
L 92.98509 180.199944 
L 91.678633 180.199944 
z
" clip-path="url(#p3e91e0ded9)" style="fill: #32cd32"/>
   </g>
   <g id="patch_13">
    <path d="M 94.944775 290.25375 
L 96.251232 290.25375 
L 96.251232 206.653531 
L 94.944775 206.653531 
z
" clip-path="url(#p3e91e0ded9)" style="fill: #9932cc"/>
   </g>
   <g id="patch_14">
    <path d="M 98.210918 290.25375 
L 99.517375 290.25375 
L 99.517375 183.915956 
L 98.210918 183.915956 
z
" clip-path="url(#p3e91e0ded9)" style="fill: #32cd32"/>
   </g>
   <g id="patch_15">
    <path d="M 101.47706 290.25375 
L 102.783517 290.25375 
L 102.783517 190.87217 
L 101.47706 190.87217 
z
" clip-path="url(#p3e91e0ded9)" style="fill: #9932cc"/>
   </g>
   <g id="patch_16">
    <path d="M 104.743202 290.25375 
L 106.049659 290.25375 
L 106.049659 202.196094 
L 104.743202 202.196094 
z
" clip-path="url(#p3e91e0ded9)" style="fill: #32cd32"/>
   </g>
   <g id="patch_17">
    <path d="M 108.009345 290.25375 
L 109.315802 290.25375 
L 109.315802 190.680451 
L 108.009345 190.680451 
z
" clip-path="url(#p3e91e0ded9)" style="fill: #9932cc"/>
   </g>
   <g id="patch_18">
    <path d="M 111.275487 290.25375 
L 112.581944 290.25375 
L 112.581944 188.181561 
L 111.275487 188.181561 
z
" clip-path="url(#p3e91e0ded9)" style="fill: #32cd32"/>
   </g>
   <g id="patch_19">
    <path d="M 114.541629 290.25375 
L 115.848086 290.25375 
L 115.848086 182.111656 
L 114.541629 182.111656 
z
" clip-path="url(#p3e91e0ded9)" style="fill: #9932cc"/>
   </g>
   <g id="patch_20">
    <path d="M 117.807772 290.25375 
L 119.114228 290.25375 
L 119.114228 187.756523 
L 117.807772 187.756523 
z
" clip-path="url(#p3e91e0ded9)" style="fill: #32cd32"/>
   </g>
   <g id="patch_21">
    <path d="M 121.073914 290.25375 
L 122.380371 290.25375 
L 122.380371 159.915825 
L 121.073914 159.915825 
z
" clip-path="url(#p3e91e0ded9)" style="fill: #9932cc"/>
   </g>
   <g id="patch_22">
    <path d="M 124.340056 290.25375 
L 125.646513 290.25375 
L 125.646513 197.38001 
L 124.340056 197.38001 
z
" clip-path="url(#p3e91e0ded9)" style="fill: #32cd32"/>
   </g>
   <g id="patch_23">
    <path d="M 127.606198 290.25375 
L 128.912655 290.25375 
L 128.912655 152.877109 
L 127.606198 152.877109 
z
" clip-path="url(#p3e91e0ded9)" style="fill: #9932cc"/>
   </g>
   <g id="patch_24">
    <path d="M 130.872341 290.25375 
L 132.178798 290.25375 
L 132.178798 207.083399 
L 130.872341 207.083399 
z
" clip-path="url(#p3e91e0ded9)" style="fill: #32cd32"/>
   </g>
   <g id="patch_25">
    <path d="M 134.138483 290.25375 
L 135.44494 290.25375 
L 135.44494 201.870463 
L 134.138483 201.870463 
z
" clip-path="url(#p3e91e0ded9)" style="fill: #9932cc"/>
   </g>
   <g id="patch_26">
    <path d="M 137.404625 290.25375 
L 138.711082 290.25375 
L 138.711082 196.163489 
L 137.404625 196.163489 
z
" clip-path="url(#p3e91e0ded9)" style="fill: #32cd32"/>
   </g>
   <g id="patch_27">
    <path d="M 140.670768 290.25375 
L 141.977225 290.25375 
L 141.977225 201.878007 
L 140.670768 201.878007 
z
" clip-path="url(#p3e91e0ded9)" style="fill: #9932cc"/>
   </g>
   <g id="patch_28">
    <path d="M 143.93691 290.25375 
L 145.243367 290.25375 
L 145.243367 230.243945 
L 143.93691 230.243945 
z
" clip-path="url(#p3e91e0ded9)" style="fill: #32cd32"/>
   </g>
   <g id="patch_29">
    <path d="M 147.203052 290.25375 
L 148.509509 290.25375 
L 148.509509 229.250624 
L 147.203052 229.250624 
z
" clip-path="url(#p3e91e0ded9)" style="fill: #9932cc"/>
   </g>
   <g id="patch_30">
    <path d="M 150.469195 290.25375 
L 151.775652 290.25375 
L 151.775652 151.051092 
L 150.469195 151.051092 
z
" clip-path="url(#p3e91e0ded9)" style="fill: #32cd32"/>
   </g>
   <g id="patch_31">
    <path d="M 153.735337 290.25375 
L 155.041794 290.25375 
L 155.041794 223.413213 
L 153.735337 223.413213 
z
" clip-path="url(#p3e91e0ded9)" style="fill: #9932cc"/>
   </g>
   <g id="patch_32">
    <path d="M 157.001479 290.25375 
L 158.307936 290.25375 
L 158.307936 173.845032 
L 157.001479 173.845032 
z
" clip-path="url(#p3e91e0ded9)" style="fill: #32cd32"/>
   </g>
   <g id="patch_33">
    <path d="M 160.267622 290.25375 
L 161.574078 290.25375 
L 161.574078 162.773783 
L 160.267622 162.773783 
z
" clip-path="url(#p3e91e0ded9)" style="fill: #9932cc"/>
   </g>
   <g id="patch_34">
    <path d="M 163.533764 290.25375 
L 164.840221 290.25375 
L 164.840221 185.112244 
L 163.533764 185.112244 
z
" clip-path="url(#p3e91e0ded9)" style="fill: #32cd32"/>
   </g>
   <g id="patch_35">
    <path d="M 166.799906 290.25375 
L 168.106363 290.25375 
L 168.106363 225.812377 
L 166.799906 225.812377 
z
" clip-path="url(#p3e91e0ded9)" style="fill: #9932cc"/>
   </g>
   <g id="patch_36">
    <path d="M 170.066048 290.25375 
L 171.372505 290.25375 
L 171.372505 183.509845 
L 170.066048 183.509845 
z
" clip-path="url(#p3e91e0ded9)" style="fill: #32cd32"/>
   </g>
   <g id="patch_37">
    <path d="M 173.332191 290.25375 
L 174.638648 290.25375 
L 174.638648 207.066631 
L 173.332191 207.066631 
z
" clip-path="url(#p3e91e0ded9)" style="fill: #9932cc"/>
   </g>
   <g id="patch_38">
    <path d="M 176.598333 290.25375 
L 177.90479 290.25375 
L 177.90479 131.93133 
L 176.598333 131.93133 
z
" clip-path="url(#p3e91e0ded9)" style="fill: #32cd32"/>
   </g>
   <g id="patch_39">
    <path d="M 179.864475 290.25375 
L 181.170932 290.25375 
L 181.170932 225.732193 
L 179.864475 225.732193 
z
" clip-path="url(#p3e91e0ded9)" style="fill: #9932cc"/>
   </g>
   <g id="patch_40">
    <path d="M 183.130618 290.25375 
L 184.437075 290.25375 
L 184.437075 110.04322 
L 183.130618 110.04322 
z
" clip-path="url(#p3e91e0ded9)" style="fill: #32cd32"/>
   </g>
   <g id="patch_41">
    <path d="M 186.39676 290.25375 
L 187.703217 290.25375 
L 187.703217 213.995669 
L 186.39676 213.995669 
z
" clip-path="url(#p3e91e0ded9)" style="fill: #9932cc"/>
   </g>
   <g id="patch_42">
    <path d="M 189.662902 290.25375 
L 190.969359 290.25375 
L 190.969359 185.588842 
L 189.662902 185.588842 
z
" clip-path="url(#p3e91e0ded9)" style="fill: #32cd32"/>
   </g>
   <g id="patch_43">
    <path d="M 192.929045 290.25375 
L 194.235502 290.25375 
L 194.235502 155.584985 
L 192.929045 155.584985 
z
" clip-path="url(#p3e91e0ded9)" style="fill: #9932cc"/>
   </g>
   <g id="patch_44">
    <path d="M 196.195187 290.25375 
L 197.501644 290.25375 
L 197.501644 202.580868 
L 196.195187 202.580868 
z
" clip-path="url(#p3e91e0ded9)" style="fill: #32cd32"/>
   </g>
   <g id="patch_45">
    <path d="M 199.461329 290.25375 
L 200.767786 290.25375 
L 200.767786 147.643077 
L 199.461329 147.643077 
z
" clip-path="url(#p3e91e0ded9)" style="fill: #9932cc"/>
   </g>
   <g id="patch_46">
    <path d="M 202.727472 290.25375 
L 204.033928 290.25375 
L 204.033928 232.336529 
L 202.727472 232.336529 
z
" clip-path="url(#p3e91e0ded9)" style="fill: #32cd32"/>
   </g>
   <g id="patch_47">
    <path d="M 205.993614 290.25375 
L 207.300071 290.25375 
L 207.300071 209.006569 
L 205.993614 209.006569 
z
" clip-path="url(#p3e91e0ded9)" style="fill: #9932cc"/>
   </g>
   <g id="patch_48">
    <path d="M 209.259756 290.25375 
L 210.566213 290.25375 
L 210.566213 184.002071 
L 209.259756 184.002071 
z
" clip-path="url(#p3e91e0ded9)" style="fill: #32cd32"/>
   </g>
   <g id="patch_49">
    <path d="M 212.525898 290.25375 
L 213.832355 290.25375 
L 213.832355 177.194086 
L 212.525898 177.194086 
z
" clip-path="url(#p3e91e0ded9)" style="fill: #9932cc"/>
   </g>
   <g id="patch_50">
    <path d="M 215.792041 290.25375 
L 217.098498 290.25375 
L 217.098498 175.055697 
L 215.792041 175.055697 
z
" clip-path="url(#p3e91e0ded9)" style="fill: #32cd32"/>
   </g>
   <g id="patch_51">
    <path d="M 219.058183 290.25375 
L 220.36464 290.25375 
L 220.36464 207.450673 
L 219.058183 207.450673 
z
" clip-path="url(#p3e91e0ded9)" style="fill: #9932cc"/>
   </g>
   <g id="patch_52">
    <path d="M 222.324325 290.25375 
L 223.630782 290.25375 
L 223.630782 180.416431 
L 222.324325 180.416431 
z
" clip-path="url(#p3e91e0ded9)" style="fill: #32cd32"/>
   </g>
   <g id="patch_53">
    <path d="M 225.590468 290.25375 
L 226.896925 290.25375 
L 226.896925 164.640718 
L 225.590468 164.640718 
z
" clip-path="url(#p3e91e0ded9)" style="fill: #9932cc"/>
   </g>
   <g id="patch_54">
    <path d="M 228.85661 290.25375 
L 230.163067 290.25375 
L 230.163067 175.315513 
L 228.85661 175.315513 
z
" clip-path="url(#p3e91e0ded9)" style="fill: #32cd32"/>
   </g>
   <g id="patch_55">
    <path d="M 232.122752 290.25375 
L 233.429209 290.25375 
L 233.429209 219.429055 
L 232.122752 219.429055 
z
" clip-path="url(#p3e91e0ded9)" style="fill: #9932cc"/>
   </g>
   <g id="patch_56">
    <path d="M 235.388895 290.25375 
L 236.695352 290.25375 
L 236.695352 146.986025 
L 235.388895 146.986025 
z
" clip-path="url(#p3e91e0ded9)" style="fill: #32cd32"/>
   </g>
   <g id="patch_57">
    <path d="M 238.655037 290.25375 
L 239.961494 290.25375 
L 239.961494 181.400251 
L 238.655037 181.400251 
z
" clip-path="url(#p3e91e0ded9)" style="fill: #9932cc"/>
   </g>
   <g id="patch_58">
    <path d="M 241.921179 290.25375 
L 243.227636 290.25375 
L 243.227636 207.600057 
L 241.921179 207.600057 
z
" clip-path="url(#p3e91e0ded9)" style="fill: #32cd32"/>
   </g>
   <g id="patch_59">
    <path d="M 245.187322 290.25375 
L 246.493778 290.25375 
L 246.493778 140.139379 
L 245.187322 140.139379 
z
" clip-path="url(#p3e91e0ded9)" style="fill: #9932cc"/>
   </g>
   <g id="patch_60">
    <path d="M 248.453464 290.25375 
L 249.759921 290.25375 
L 249.759921 154.895319 
L 248.453464 154.895319 
z
" clip-path="url(#p3e91e0ded9)" style="fill: #32cd32"/>
   </g>
   <g id="patch_61">
    <path d="M 251.719606 290.25375 
L 253.026063 290.25375 
L 253.026063 248.947109 
L 251.719606 248.947109 
z
" clip-path="url(#p3e91e0ded9)" style="fill: #9932cc"/>
   </g>
   <g id="patch_62">
    <path d="M 254.985748 290.25375 
L 256.292205 290.25375 
L 256.292205 140.144556 
L 254.985748 140.144556 
z
" clip-path="url(#p3e91e0ded9)" style="fill: #32cd32"/>
   </g>
   <g id="patch_63">
    <path d="M 258.251891 290.25375 
L 259.558348 290.25375 
L 259.558348 110.711047 
L 258.251891 110.711047 
z
" clip-path="url(#p3e91e0ded9)" style="fill: #9932cc"/>
   </g>
   <g id="patch_64">
    <path d="M 261.518033 290.25375 
L 262.82449 290.25375 
L 262.82449 231.861313 
L 261.518033 231.861313 
z
" clip-path="url(#p3e91e0ded9)" style="fill: #32cd32"/>
   </g>
   <g id="patch_65">
    <path d="M 264.784175 290.25375 
L 266.090632 290.25375 
L 266.090632 181.722177 
L 264.784175 181.722177 
z
" clip-path="url(#p3e91e0ded9)" style="fill: #9932cc"/>
   </g>
   <g id="patch_66">
    <path d="M 268.050318 290.25375 
L 269.356775 290.25375 
L 269.356775 111.744662 
L 268.050318 111.744662 
z
" clip-path="url(#p3e91e0ded9)" style="fill: #32cd32"/>
   </g>
   <g id="patch_67">
    <path d="M 271.31646 290.25375 
L 272.622917 290.25375 
L 272.622917 179.564318 
L 271.31646 179.564318 
z
" clip-path="url(#p3e91e0ded9)" style="fill: #9932cc"/>
   </g>
   <g id="patch_68">
    <path d="M 274.582602 290.25375 
L 275.889059 290.25375 
L 275.889059 166.608986 
L 274.582602 166.608986 
z
" clip-path="url(#p3e91e0ded9)" style="fill: #32cd32"/>
   </g>
   <g id="patch_69">
    <path d="M 277.848745 290.25375 
L 279.155202 290.25375 
L 279.155202 241.77964 
L 277.848745 241.77964 
z
" clip-path="url(#p3e91e0ded9)" style="fill: #9932cc"/>
   </g>
   <g id="patch_70">
    <path d="M 281.114887 290.25375 
L 282.421344 290.25375 
L 282.421344 203.139675 
L 281.114887 203.139675 
z
" clip-path="url(#p3e91e0ded9)" style="fill: #32cd32"/>
   </g>
   <g id="patch_71">
    <path d="M 284.381029 290.25375 
L 285.687486 290.25375 
L 285.687486 170.776683 
L 284.381029 170.776683 
z
" clip-path="url(#p3e91e0ded9)" style="fill: #9932cc"/>
   </g>
   <g id="patch_72">
    <path d="M 287.647172 290.25375 
L 288.953628 290.25375 
L 288.953628 222.526195 
L 287.647172 222.526195 
z
" clip-path="url(#p3e91e0ded9)" style="fill: #32cd32"/>
   </g>
   <g id="patch_73">
    <path d="M 290.913314 290.25375 
L 292.219771 290.25375 
L 292.219771 204.585538 
L 290.913314 204.585538 
z
" clip-path="url(#p3e91e0ded9)" style="fill: #9932cc"/>
   </g>
   <g id="patch_74">
    <path d="M 294.179456 290.25375 
L 295.485913 290.25375 
L 295.485913 200.673493 
L 294.179456 200.673493 
z
" clip-path="url(#p3e91e0ded9)" style="fill: #32cd32"/>
   </g>
   <g id="patch_75">
    <path d="M 297.445598 290.25375 
L 298.752055 290.25375 
L 298.752055 191.658866 
L 297.445598 191.658866 
z
" clip-path="url(#p3e91e0ded9)" style="fill: #9932cc"/>
   </g>
   <g id="patch_76">
    <path d="M 300.711741 290.25375 
L 302.018198 290.25375 
L 302.018198 176.212179 
L 300.711741 176.212179 
z
" clip-path="url(#p3e91e0ded9)" style="fill: #32cd32"/>
   </g>
   <g id="patch_77">
    <path d="M 303.977883 290.25375 
L 305.28434 290.25375 
L 305.28434 143.306199 
L 303.977883 143.306199 
z
" clip-path="url(#p3e91e0ded9)" style="fill: #9932cc"/>
   </g>
   <g id="patch_78">
    <path d="M 307.244025 290.25375 
L 308.550482 290.25375 
L 308.550482 149.082755 
L 307.244025 149.082755 
z
" clip-path="url(#p3e91e0ded9)" style="fill: #32cd32"/>
   </g>
   <g id="patch_79">
    <path d="M 310.510168 290.25375 
L 311.816625 290.25375 
L 311.816625 177.977389 
L 310.510168 177.977389 
z
" clip-path="url(#p3e91e0ded9)" style="fill: #9932cc"/>
   </g>
   <g id="patch_80">
    <path d="M 313.77631 290.25375 
L 315.082767 290.25375 
L 315.082767 220.022553 
L 313.77631 220.022553 
z
" clip-path="url(#p3e91e0ded9)" style="fill: #32cd32"/>
   </g>
   <g id="patch_81">
    <path d="M 317.042452 290.25375 
L 318.348909 290.25375 
L 318.348909 192.591163 
L 317.042452 192.591163 
z
" clip-path="url(#p3e91e0ded9)" style="fill: #9932cc"/>
   </g>
   <g id="patch_82">
    <path d="M 320.308595 290.25375 
L 321.615052 290.25375 
L 321.615052 129.373374 
L 320.308595 129.373374 
z
" clip-path="url(#p3e91e0ded9)" style="fill: #32cd32"/>
   </g>
   <g id="patch_83">
    <path d="M 323.574737 290.25375 
L 324.881194 290.25375 
L 324.881194 195.794443 
L 323.574737 195.794443 
z
" clip-path="url(#p3e91e0ded9)" style="fill: #9932cc"/>
   </g>
   <g id="patch_84">
    <path d="M 326.840879 290.25375 
L 328.147336 290.25375 
L 328.147336 150.414549 
L 326.840879 150.414549 
z
" clip-path="url(#p3e91e0ded9)" style="fill: #32cd32"/>
   </g>
   <g id="patch_85">
    <path d="M 330.107022 290.25375 
L 331.413478 290.25375 
L 331.413478 186.540129 
L 330.107022 186.540129 
z
" clip-path="url(#p3e91e0ded9)" style="fill: #9932cc"/>
   </g>
   <g id="patch_86">
    <path d="M 333.373164 290.25375 
L 334.679621 290.25375 
L 334.679621 111.518451 
L 333.373164 111.518451 
z
" clip-path="url(#p3e91e0ded9)" style="fill: #32cd32"/>
   </g>
   <g id="patch_87">
    <path d="M 336.639306 290.25375 
L 337.945763 290.25375 
L 337.945763 231.680417 
L 336.639306 231.680417 
z
" clip-path="url(#p3e91e0ded9)" style="fill: #9932cc"/>
   </g>
   <g id="patch_88">
    <path d="M 339.905448 290.25375 
L 341.211905 290.25375 
L 341.211905 193.169949 
L 339.905448 193.169949 
z
" clip-path="url(#p3e91e0ded9)" style="fill: #32cd32"/>
   </g>
   <g id="patch_89">
    <path d="M 343.171591 290.25375 
L 344.478048 290.25375 
L 344.478048 217.044712 
L 343.171591 217.044712 
z
" clip-path="url(#p3e91e0ded9)" style="fill: #9932cc"/>
   </g>
   <g id="patch_90">
    <path d="M 346.437733 290.25375 
L 347.74419 290.25375 
L 347.74419 118.605961 
L 346.437733 118.605961 
z
" clip-path="url(#p3e91e0ded9)" style="fill: #32cd32"/>
   </g>
   <g id="patch_91">
    <path d="M 349.703875 290.25375 
L 351.010332 290.25375 
L 351.010332 122.408732 
L 349.703875 122.408732 
z
" clip-path="url(#p3e91e0ded9)" style="fill: #9932cc"/>
   </g>
   <g id="patch_92">
    <path d="M 352.970018 290.25375 
L 354.276475 290.25375 
L 354.276475 152.86741 
L 352.970018 152.86741 
z
" clip-path="url(#p3e91e0ded9)" style="fill: #32cd32"/>
   </g>
   <g id="patch_93">
    <path d="M 356.23616 290.25375 
L 357.542617 290.25375 
L 357.542617 112.474513 
L 356.23616 112.474513 
z
" clip-path="url(#p3e91e0ded9)" style="fill: #9932cc"/>
   </g>
   <g id="patch_94">
    <path d="M 359.502302 290.25375 
L 360.808759 290.25375 
L 360.808759 99.748934 
L 359.502302 99.748934 
z
" clip-path="url(#p3e91e0ded9)" style="fill: #32cd32"/>
   </g>
   <g id="patch_95">
    <path d="M 362.768445 290.25375 
L 364.074902 290.25375 
L 364.074902 207.968116 
L 362.768445 207.968116 
z
" clip-path="url(#p3e91e0ded9)" style="fill: #9932cc"/>
   </g>
   <g id="patch_96">
    <path d="M 366.034587 290.25375 
L 367.341044 290.25375 
L 367.341044 150.810896 
L 366.034587 150.810896 
z
" clip-path="url(#p3e91e0ded9)" style="fill: #32cd32"/>
   </g>
   <g id="patch_97">
    <path d="M 369.300729 290.25375 
L 370.607186 290.25375 
L 370.607186 253.955719 
L 369.300729 253.955719 
z
" clip-path="url(#p3e91e0ded9)" style="fill: #9932cc"/>
   </g>
   <g id="patch_98">
    <path d="M 372.566872 290.25375 
L 373.873328 290.25375 
L 373.873328 140.943877 
L 372.566872 140.943877 
z
" clip-path="url(#p3e91e0ded9)" style="fill: #32cd32"/>
   </g>
   <g id="patch_99">
    <path d="M 375.833014 290.25375 
L 377.139471 290.25375 
L 377.139471 190.105883 
L 375.833014 190.105883 
z
" clip-path="url(#p3e91e0ded9)" style="fill: #9932cc"/>
   </g>
   <g id="patch_100">
    <path d="M 379.099156 290.25375 
L 380.405613 290.25375 
L 380.405613 137.487415 
L 379.099156 137.487415 
z
" clip-path="url(#p3e91e0ded9)" style="fill: #32cd32"/>
   </g>
   <g id="patch_101">
    <path d="M 382.365298 290.25375 
L 383.671755 290.25375 
L 383.671755 36.81375 
L 382.365298 36.81375 
z
" clip-path="url(#p3e91e0ded9)" style="fill: #9932cc"/>
   </g>
   <g id="patch_102">
    <path d="M 385.631441 290.25375 
L 386.937898 290.25375 
L 386.937898 203.34273 
L 385.631441 203.34273 
z
" clip-path="url(#p3e91e0ded9)" style="fill: #32cd32"/>
   </g>
   <g id="patch_103">
    <path d="M 46.050625 290.25375 
L 46.050625 24.14175 
" style="fill: none; stroke: #ffffff; stroke-linejoin: miter; stroke-linecap: square"/>
   </g>
   <g id="patch_104">
    <path d="M 403.170625 290.25375 
L 403.170625 24.14175 
" style="fill: none; stroke: #ffffff; stroke-linejoin: miter; stroke-linecap: square"/>
   </g>
   <g id="patch_105">
    <path d="M 46.050625 290.25375 
L 403.170625 290.25375 
" style="fill: none; stroke: #ffffff; stroke-linejoin: miter; stroke-linecap: square"/>
   </g>
   <g id="patch_106">
    <path d="M 46.050625 24.14175 
L 403.170625 24.14175 
" style="fill: none; stroke: #ffffff; stroke-linejoin: miter; stroke-linecap: square"/>
   </g>
   <g id="text_23">
    <!-- Top 100 values - bar chart of variants average duration -->
    <g transform="translate(25.550875 18.14175)scale(0.144 -0.144)">
     <defs>
      <path id="DejaVuSans-54" d="M -19 4666 
L 3928 4666 
L 3928 4134 
L 2272 4134 
L 2272 0 
L 1638 0 
L 1638 4134 
L -19 4134 
L -19 4666 
z
" transform="scale(0.015625)"/>
      <path id="DejaVuSans-70" d="M 1159 525 
L 1159 -1331 
L 581 -1331 
L 581 3500 
L 1159 3500 
L 1159 2969 
Q 1341 3281 1617 3432 
Q 1894 3584 2278 3584 
Q 2916 3584 3314 3078 
Q 3713 2572 3713 1747 
Q 3713 922 3314 415 
Q 2916 -91 2278 -91 
Q 1894 -91 1617 61 
Q 1341 213 1159 525 
z
M 3116 1747 
Q 3116 2381 2855 2742 
Q 2594 3103 2138 3103 
Q 1681 3103 1420 2742 
Q 1159 2381 1159 1747 
Q 1159 1113 1420 752 
Q 1681 391 2138 391 
Q 2594 391 2855 752 
Q 3116 1113 3116 1747 
z
" transform="scale(0.015625)"/>
      <path id="DejaVuSans-20" transform="scale(0.015625)"/>
      <path id="DejaVuSans-6c" d="M 603 4863 
L 1178 4863 
L 1178 0 
L 603 0 
L 603 4863 
z
" transform="scale(0.015625)"/>
      <path id="DejaVuSans-2d" d="M 313 2009 
L 1997 2009 
L 1997 1497 
L 313 1497 
L 313 2009 
z
" transform="scale(0.015625)"/>
      <path id="DejaVuSans-62" d="M 3116 1747 
Q 3116 2381 2855 2742 
Q 2594 3103 2138 3103 
Q 1681 3103 1420 2742 
Q 1159 2381 1159 1747 
Q 1159 1113 1420 752 
Q 1681 391 2138 391 
Q 2594 391 2855 752 
Q 3116 1113 3116 1747 
z
M 1159 2969 
Q 1341 3281 1617 3432 
Q 1894 3584 2278 3584 
Q 2916 3584 3314 3078 
Q 3713 2572 3713 1747 
Q 3713 922 3314 415 
Q 2916 -91 2278 -91 
Q 1894 -91 1617 61 
Q 1341 213 1159 525 
L 1159 0 
L 581 0 
L 581 4863 
L 1159 4863 
L 1159 2969 
z
" transform="scale(0.015625)"/>
      <path id="DejaVuSans-68" d="M 3513 2113 
L 3513 0 
L 2938 0 
L 2938 2094 
Q 2938 2591 2744 2837 
Q 2550 3084 2163 3084 
Q 1697 3084 1428 2787 
Q 1159 2491 1159 1978 
L 1159 0 
L 581 0 
L 581 4863 
L 1159 4863 
L 1159 2956 
Q 1366 3272 1645 3428 
Q 1925 3584 2291 3584 
Q 2894 3584 3203 3211 
Q 3513 2838 3513 2113 
z
" transform="scale(0.015625)"/>
      <path id="DejaVuSans-66" d="M 2375 4863 
L 2375 4384 
L 1825 4384 
Q 1516 4384 1395 4259 
Q 1275 4134 1275 3809 
L 1275 3500 
L 2222 3500 
L 2222 3053 
L 1275 3053 
L 1275 0 
L 697 0 
L 697 3053 
L 147 3053 
L 147 3500 
L 697 3500 
L 697 3744 
Q 697 4328 969 4595 
Q 1241 4863 1831 4863 
L 2375 4863 
z
" transform="scale(0.015625)"/>
     </defs>
     <use xlink:href="#DejaVuSans-54"/>
     <use xlink:href="#DejaVuSans-6f" x="44.083984"/>
     <use xlink:href="#DejaVuSans-70" x="105.265625"/>
     <use xlink:href="#DejaVuSans-20" x="168.742188"/>
     <use xlink:href="#DejaVuSans-31" x="200.529297"/>
     <use xlink:href="#DejaVuSans-30" x="264.152344"/>
     <use xlink:href="#DejaVuSans-30" x="327.775391"/>
     <use xlink:href="#DejaVuSans-20" x="391.398438"/>
     <use xlink:href="#DejaVuSans-76" x="423.185547"/>
     <use xlink:href="#DejaVuSans-61" x="482.365234"/>
     <use xlink:href="#DejaVuSans-6c" x="543.644531"/>
     <use xlink:href="#DejaVuSans-75" x="571.427734"/>
     <use xlink:href="#DejaVuSans-65" x="634.806641"/>
     <use xlink:href="#DejaVuSans-73" x="696.330078"/>
     <use xlink:href="#DejaVuSans-20" x="748.429688"/>
     <use xlink:href="#DejaVuSans-2d" x="780.216797"/>
     <use xlink:href="#DejaVuSans-20" x="816.300781"/>
     <use xlink:href="#DejaVuSans-62" x="848.087891"/>
     <use xlink:href="#DejaVuSans-61" x="911.564453"/>
     <use xlink:href="#DejaVuSans-72" x="972.84375"/>
     <use xlink:href="#DejaVuSans-20" x="1013.957031"/>
     <use xlink:href="#DejaVuSans-63" x="1045.744141"/>
     <use xlink:href="#DejaVuSans-68" x="1100.724609"/>
     <use xlink:href="#DejaVuSans-61" x="1164.103516"/>
     <use xlink:href="#DejaVuSans-72" x="1225.382812"/>
     <use xlink:href="#DejaVuSans-74" x="1266.496094"/>
     <use xlink:href="#DejaVuSans-20" x="1305.705078"/>
     <use xlink:href="#DejaVuSans-6f" x="1337.492188"/>
     <use xlink:href="#DejaVuSans-66" x="1398.673828"/>
     <use xlink:href="#DejaVuSans-20" x="1433.878906"/>
     <use xlink:href="#DejaVuSans-76" x="1465.666016"/>
     <use xlink:href="#DejaVuSans-61" x="1524.845703"/>
     <use xlink:href="#DejaVuSans-72" x="1586.125"/>
     <use xlink:href="#DejaVuSans-69" x="1627.238281"/>
     <use xlink:href="#DejaVuSans-61" x="1655.021484"/>
     <use xlink:href="#DejaVuSans-6e" x="1716.300781"/>
     <use xlink:href="#DejaVuSans-74" x="1779.679688"/>
     <use xlink:href="#DejaVuSans-73" x="1818.888672"/>
     <use xlink:href="#DejaVuSans-20" x="1870.988281"/>
     <use xlink:href="#DejaVuSans-61" x="1902.775391"/>
     <use xlink:href="#DejaVuSans-76" x="1964.054688"/>
     <use xlink:href="#DejaVuSans-65" x="2023.234375"/>
     <use xlink:href="#DejaVuSans-72" x="2084.757812"/>
     <use xlink:href="#DejaVuSans-61" x="2125.871094"/>
     <use xlink:href="#DejaVuSans-67" x="2187.150391"/>
     <use xlink:href="#DejaVuSans-65" x="2250.626953"/>
     <use xlink:href="#DejaVuSans-20" x="2312.150391"/>
     <use xlink:href="#DejaVuSans-64" x="2343.9375"/>
     <use xlink:href="#DejaVuSans-75" x="2407.414062"/>
     <use xlink:href="#DejaVuSans-72" x="2470.792969"/>
     <use xlink:href="#DejaVuSans-61" x="2511.90625"/>
     <use xlink:href="#DejaVuSans-74" x="2573.185547"/>
     <use xlink:href="#DejaVuSans-69" x="2612.394531"/>
     <use xlink:href="#DejaVuSans-6f" x="2640.177734"/>
     <use xlink:href="#DejaVuSans-6e" x="2701.359375"/>
    </g>
   </g>
  </g>
 </g>
 <defs>
  <clipPath id="p3e91e0ded9">
   <rect x="46.050625" y="24.14175" width="357.12" height="266.112"/>
  </clipPath>
 </defs>
</svg>
