<?xml version="1.0" encoding="utf-8" standalone="no"?>
<!DOCTYPE svg PUBLIC "-//W3C//DTD SVG 1.1//EN"
  "http://www.w3.org/Graphics/SVG/1.1/DTD/svg11.dtd">
<svg xmlns:xlink="http://www.w3.org/1999/xlink" width="423.455312pt" height="197.66175pt" viewBox="0 0 423.455312 197.66175" xmlns="http://www.w3.org/2000/svg" version="1.1">
 <metadata>
  <rdf:RDF xmlns:dc="http://purl.org/dc/elements/1.1/" xmlns:cc="http://creativecommons.org/ns#" xmlns:rdf="http://www.w3.org/1999/02/22-rdf-syntax-ns#">
   <cc:Work>
    <dc:type rdf:resource="http://purl.org/dc/dcmitype/StillImage"/>
    <dc:date>2022-01-29T18:49:14.209830</dc:date>
    <dc:format>image/svg+xml</dc:format>
    <dc:creator>
     <cc:Agent>
      <dc:title>Matplotlib v3.5.1, https://matplotlib.org/</dc:title>
     </cc:Agent>
    </dc:creator>
   </cc:Work>
  </rdf:RDF>
 </metadata>
 <defs>
  <style type="text/css">*{stroke-linejoin: round; stroke-linecap: butt}</style>
 </defs>
 <g id="figure_1">
  <g id="patch_1">
   <path d="M 0 197.66175 
L 423.455312 197.66175 
L 423.455312 0 
L 0 0 
z
" style="fill: #ffffff"/>
  </g>
  <g id="axes_1">
   <g id="matplotlib.axis_1"/>
   <g id="matplotlib.axis_2"/>
   <g id="patch_2">
    <path d="M 175.681125 107.30175 
C 175.681125 98.558362 173.957486 89.90013 170.609007 81.823341 
C 167.260529 73.746553 162.352434 66.408534 156.166055 60.229898 
C 149.979675 54.051263 142.635514 49.152363 134.554538 45.814003 
C 126.473561 42.475643 117.813177 40.762851 109.069796 40.773802 
C 100.326415 40.784754 91.670349 42.519236 83.597761 45.877829 
C 75.525172 49.236421 68.193306 54.153703 62.022424 60.347817 
C 55.851542 66.54193 50.961846 73.892221 47.63361 81.977373 
C 44.305375 90.062524 42.603431 98.725047 42.625334 107.468408 
L 109.153125 107.30175 
L 175.681125 107.30175 
z
" style="fill: #e24a33"/>
   </g>
   <g id="patch_3">
    <path d="M 42.625334 107.468408 
C 42.647043 116.134651 44.361908 124.713735 47.673329 132.722401 
C 50.984751 140.731067 55.829362 148.016064 61.934268 154.167029 
L 109.153125 107.30175 
L 42.625334 107.468408 
z
" style="fill: #348abd"/>
   </g>
   <g id="patch_4">
    <path d="M 61.934268 154.167029 
C 67.960173 160.238396 75.100886 165.09096 82.964351 168.458294 
C 90.827816 171.825628 99.267438 173.644956 107.819843 173.816389 
L 109.153125 107.30175 
L 61.934268 154.167029 
z
" style="fill: #988ed5"/>
   </g>
   <g id="patch_5">
    <path d="M 107.819843 173.816389 
C 116.316195 173.986697 124.767019 172.527497 132.714294 169.517874 
C 140.661569 166.508251 147.959076 162.003578 154.211303 156.248 
L 109.153125 107.30175 
L 107.819843 173.816389 
z
" style="fill: #777777"/>
   </g>
   <g id="patch_6">
    <path d="M 154.211303 156.248 
C 160.422287 150.530389 165.488592 143.682478 169.139186 136.070608 
C 172.789781 128.458739 174.958385 120.221112 175.528985 111.798416 
L 109.153125 107.30175 
L 154.211303 156.248 
z
" style="fill: #fbc15e"/>
   </g>
   <g id="patch_7">
    <path d="M 175.528985 111.798416 
C 175.57968 111.050099 175.617717 110.300979 175.643079 109.551376 
C 175.668441 108.801773 175.681125 108.051795 175.681125 107.301763 
L 109.153125 107.30175 
L 175.528985 111.798416 
z
" style="fill: #8eba42"/>
   </g>
   <g id="text_1">
    <!-- 50.0% -->
    <g style="fill: #ffffff" transform="translate(98.695471 69.040606)scale(0.06 -0.06)">
     <defs>
      <path id="DejaVuSans-Bold-35" d="M 678 4666 
L 3669 4666 
L 3669 3781 
L 1638 3781 
L 1638 3059 
Q 1775 3097 1914 3117 
Q 2053 3138 2203 3138 
Q 3056 3138 3531 2711 
Q 4006 2284 4006 1522 
Q 4006 766 3489 337 
Q 2972 -91 2053 -91 
Q 1656 -91 1267 -14 
Q 878 63 494 219 
L 494 1166 
Q 875 947 1217 837 
Q 1559 728 1863 728 
Q 2300 728 2551 942 
Q 2803 1156 2803 1522 
Q 2803 1891 2551 2103 
Q 2300 2316 1863 2316 
Q 1603 2316 1309 2248 
Q 1016 2181 678 2041 
L 678 4666 
z
" transform="scale(0.015625)"/>
      <path id="DejaVuSans-Bold-30" d="M 2944 2338 
Q 2944 3213 2780 3570 
Q 2616 3928 2228 3928 
Q 1841 3928 1675 3570 
Q 1509 3213 1509 2338 
Q 1509 1453 1675 1090 
Q 1841 728 2228 728 
Q 2613 728 2778 1090 
Q 2944 1453 2944 2338 
z
M 4147 2328 
Q 4147 1169 3647 539 
Q 3147 -91 2228 -91 
Q 1306 -91 806 539 
Q 306 1169 306 2328 
Q 306 3491 806 4120 
Q 1306 4750 2228 4750 
Q 3147 4750 3647 4120 
Q 4147 3491 4147 2328 
z
" transform="scale(0.015625)"/>
      <path id="DejaVuSans-Bold-2e" d="M 653 1209 
L 1778 1209 
L 1778 0 
L 653 0 
L 653 1209 
z
" transform="scale(0.015625)"/>
      <path id="DejaVuSans-Bold-25" d="M 4959 1925 
Q 4738 1925 4616 1733 
Q 4494 1541 4494 1184 
Q 4494 825 4614 633 
Q 4734 441 4959 441 
Q 5184 441 5303 633 
Q 5422 825 5422 1184 
Q 5422 1541 5301 1733 
Q 5181 1925 4959 1925 
z
M 4959 2450 
Q 5541 2450 5875 2112 
Q 6209 1775 6209 1184 
Q 6209 594 5875 251 
Q 5541 -91 4959 -91 
Q 4378 -91 4042 251 
Q 3706 594 3706 1184 
Q 3706 1772 4042 2111 
Q 4378 2450 4959 2450 
z
M 2094 -91 
L 1403 -91 
L 4319 4750 
L 5013 4750 
L 2094 -91 
z
M 1453 4750 
Q 2034 4750 2367 4411 
Q 2700 4072 2700 3481 
Q 2700 2891 2367 2550 
Q 2034 2209 1453 2209 
Q 872 2209 539 2550 
Q 206 2891 206 3481 
Q 206 4072 539 4411 
Q 872 4750 1453 4750 
z
M 1453 4225 
Q 1228 4225 1106 4031 
Q 984 3838 984 3481 
Q 984 3122 1106 2926 
Q 1228 2731 1453 2731 
Q 1678 2731 1798 2926 
Q 1919 3122 1919 3481 
Q 1919 3838 1797 4031 
Q 1675 4225 1453 4225 
z
" transform="scale(0.015625)"/>
     </defs>
     <use xlink:href="#DejaVuSans-Bold-35"/>
     <use xlink:href="#DejaVuSans-Bold-30" x="69.580078"/>
     <use xlink:href="#DejaVuSans-Bold-2e" x="139.160156"/>
     <use xlink:href="#DejaVuSans-Bold-30" x="177.148438"/>
     <use xlink:href="#DejaVuSans-Bold-25" x="246.728516"/>
    </g>
   </g>
   <g id="text_2">
    <!-- 12.4% -->
    <g style="fill: #ffffff" transform="translate(61.857591 124.209766)scale(0.06 -0.06)">
     <defs>
      <path id="DejaVuSans-Bold-31" d="M 750 831 
L 1813 831 
L 1813 3847 
L 722 3622 
L 722 4441 
L 1806 4666 
L 2950 4666 
L 2950 831 
L 4013 831 
L 4013 0 
L 750 0 
L 750 831 
z
" transform="scale(0.015625)"/>
      <path id="DejaVuSans-Bold-32" d="M 1844 884 
L 3897 884 
L 3897 0 
L 506 0 
L 506 884 
L 2209 2388 
Q 2438 2594 2547 2791 
Q 2656 2988 2656 3200 
Q 2656 3528 2436 3728 
Q 2216 3928 1850 3928 
Q 1569 3928 1234 3808 
Q 900 3688 519 3450 
L 519 4475 
Q 925 4609 1322 4679 
Q 1719 4750 2100 4750 
Q 2938 4750 3402 4381 
Q 3866 4013 3866 3353 
Q 3866 2972 3669 2642 
Q 3472 2313 2841 1759 
L 1844 884 
z
" transform="scale(0.015625)"/>
      <path id="DejaVuSans-Bold-34" d="M 2356 3675 
L 1038 1722 
L 2356 1722 
L 2356 3675 
z
M 2156 4666 
L 3494 4666 
L 3494 1722 
L 4159 1722 
L 4159 850 
L 3494 850 
L 3494 0 
L 2356 0 
L 2356 850 
L 288 850 
L 288 1881 
L 2156 4666 
z
" transform="scale(0.015625)"/>
     </defs>
     <use xlink:href="#DejaVuSans-Bold-31"/>
     <use xlink:href="#DejaVuSans-Bold-32" x="69.580078"/>
     <use xlink:href="#DejaVuSans-Bold-2e" x="139.160156"/>
     <use xlink:href="#DejaVuSans-Bold-34" x="177.148438"/>
     <use xlink:href="#DejaVuSans-Bold-25" x="246.728516"/>
    </g>
   </g>
   <g id="text_3">
    <!-- 12.2% -->
    <g style="fill: #ffffff" transform="translate(83.032204 145.651302)scale(0.06 -0.06)">
     <use xlink:href="#DejaVuSans-Bold-31"/>
     <use xlink:href="#DejaVuSans-Bold-32" x="69.580078"/>
     <use xlink:href="#DejaVuSans-Bold-2e" x="139.160156"/>
     <use xlink:href="#DejaVuSans-Bold-32" x="177.148438"/>
     <use xlink:href="#DejaVuSans-Bold-25" x="246.728516"/>
    </g>
   </g>
   <g id="text_4">
    <!-- 12.2% -->
    <g style="fill: #ffffff" transform="translate(112.88217 146.287049)scale(0.06 -0.06)">
     <use xlink:href="#DejaVuSans-Bold-31"/>
     <use xlink:href="#DejaVuSans-Bold-32" x="69.580078"/>
     <use xlink:href="#DejaVuSans-Bold-2e" x="139.160156"/>
     <use xlink:href="#DejaVuSans-Bold-32" x="177.148438"/>
     <use xlink:href="#DejaVuSans-Bold-25" x="246.728516"/>
    </g>
   </g>
   <g id="text_5">
    <!-- 12.1% -->
    <g style="fill: #ffffff" transform="translate(134.737106 126.21869)scale(0.06 -0.06)">
     <use xlink:href="#DejaVuSans-Bold-31"/>
     <use xlink:href="#DejaVuSans-Bold-32" x="69.580078"/>
     <use xlink:href="#DejaVuSans-Bold-2e" x="139.160156"/>
     <use xlink:href="#DejaVuSans-Bold-31" x="177.148438"/>
     <use xlink:href="#DejaVuSans-Bold-25" x="246.728516"/>
    </g>
   </g>
   <g id="text_6">
    <!-- 1.1% -->
    <g style="fill: #ffffff" transform="translate(140.726785 110.307151)scale(0.06 -0.06)">
     <use xlink:href="#DejaVuSans-Bold-31"/>
     <use xlink:href="#DejaVuSans-Bold-2e" x="69.580078"/>
     <use xlink:href="#DejaVuSans-Bold-31" x="107.568359"/>
     <use xlink:href="#DejaVuSans-Bold-25" x="177.148438"/>
    </g>
   </g>
   <g id="text_7">
    <!-- 2-way match_concept:name -->
    <g transform="translate(7.2 18.14175)scale(0.144 -0.144)">
     <defs>
      <path id="DejaVuSans-32" d="M 1228 531 
L 3431 531 
L 3431 0 
L 469 0 
L 469 531 
Q 828 903 1448 1529 
Q 2069 2156 2228 2338 
Q 2531 2678 2651 2914 
Q 2772 3150 2772 3378 
Q 2772 3750 2511 3984 
Q 2250 4219 1831 4219 
Q 1534 4219 1204 4116 
Q 875 4013 500 3803 
L 500 4441 
Q 881 4594 1212 4672 
Q 1544 4750 1819 4750 
Q 2544 4750 2975 4387 
Q 3406 4025 3406 3419 
Q 3406 3131 3298 2873 
Q 3191 2616 2906 2266 
Q 2828 2175 2409 1742 
Q 1991 1309 1228 531 
z
" transform="scale(0.015625)"/>
      <path id="DejaVuSans-2d" d="M 313 2009 
L 1997 2009 
L 1997 1497 
L 313 1497 
L 313 2009 
z
" transform="scale(0.015625)"/>
      <path id="DejaVuSans-77" d="M 269 3500 
L 844 3500 
L 1563 769 
L 2278 3500 
L 2956 3500 
L 3675 769 
L 4391 3500 
L 4966 3500 
L 4050 0 
L 3372 0 
L 2619 2869 
L 1863 0 
L 1184 0 
L 269 3500 
z
" transform="scale(0.015625)"/>
      <path id="DejaVuSans-61" d="M 2194 1759 
Q 1497 1759 1228 1600 
Q 959 1441 959 1056 
Q 959 750 1161 570 
Q 1363 391 1709 391 
Q 2188 391 2477 730 
Q 2766 1069 2766 1631 
L 2766 1759 
L 2194 1759 
z
M 3341 1997 
L 3341 0 
L 2766 0 
L 2766 531 
Q 2569 213 2275 61 
Q 1981 -91 1556 -91 
Q 1019 -91 701 211 
Q 384 513 384 1019 
Q 384 1609 779 1909 
Q 1175 2209 1959 2209 
L 2766 2209 
L 2766 2266 
Q 2766 2663 2505 2880 
Q 2244 3097 1772 3097 
Q 1472 3097 1187 3025 
Q 903 2953 641 2809 
L 641 3341 
Q 956 3463 1253 3523 
Q 1550 3584 1831 3584 
Q 2591 3584 2966 3190 
Q 3341 2797 3341 1997 
z
" transform="scale(0.015625)"/>
      <path id="DejaVuSans-79" d="M 2059 -325 
Q 1816 -950 1584 -1140 
Q 1353 -1331 966 -1331 
L 506 -1331 
L 506 -850 
L 844 -850 
Q 1081 -850 1212 -737 
Q 1344 -625 1503 -206 
L 1606 56 
L 191 3500 
L 800 3500 
L 1894 763 
L 2988 3500 
L 3597 3500 
L 2059 -325 
z
" transform="scale(0.015625)"/>
      <path id="DejaVuSans-20" transform="scale(0.015625)"/>
      <path id="DejaVuSans-6d" d="M 3328 2828 
Q 3544 3216 3844 3400 
Q 4144 3584 4550 3584 
Q 5097 3584 5394 3201 
Q 5691 2819 5691 2113 
L 5691 0 
L 5113 0 
L 5113 2094 
Q 5113 2597 4934 2840 
Q 4756 3084 4391 3084 
Q 3944 3084 3684 2787 
Q 3425 2491 3425 1978 
L 3425 0 
L 2847 0 
L 2847 2094 
Q 2847 2600 2669 2842 
Q 2491 3084 2119 3084 
Q 1678 3084 1418 2786 
Q 1159 2488 1159 1978 
L 1159 0 
L 581 0 
L 581 3500 
L 1159 3500 
L 1159 2956 
Q 1356 3278 1631 3431 
Q 1906 3584 2284 3584 
Q 2666 3584 2933 3390 
Q 3200 3197 3328 2828 
z
" transform="scale(0.015625)"/>
      <path id="DejaVuSans-74" d="M 1172 4494 
L 1172 3500 
L 2356 3500 
L 2356 3053 
L 1172 3053 
L 1172 1153 
Q 1172 725 1289 603 
Q 1406 481 1766 481 
L 2356 481 
L 2356 0 
L 1766 0 
Q 1100 0 847 248 
Q 594 497 594 1153 
L 594 3053 
L 172 3053 
L 172 3500 
L 594 3500 
L 594 4494 
L 1172 4494 
z
" transform="scale(0.015625)"/>
      <path id="DejaVuSans-63" d="M 3122 3366 
L 3122 2828 
Q 2878 2963 2633 3030 
Q 2388 3097 2138 3097 
Q 1578 3097 1268 2742 
Q 959 2388 959 1747 
Q 959 1106 1268 751 
Q 1578 397 2138 397 
Q 2388 397 2633 464 
Q 2878 531 3122 666 
L 3122 134 
Q 2881 22 2623 -34 
Q 2366 -91 2075 -91 
Q 1284 -91 818 406 
Q 353 903 353 1747 
Q 353 2603 823 3093 
Q 1294 3584 2113 3584 
Q 2378 3584 2631 3529 
Q 2884 3475 3122 3366 
z
" transform="scale(0.015625)"/>
      <path id="DejaVuSans-68" d="M 3513 2113 
L 3513 0 
L 2938 0 
L 2938 2094 
Q 2938 2591 2744 2837 
Q 2550 3084 2163 3084 
Q 1697 3084 1428 2787 
Q 1159 2491 1159 1978 
L 1159 0 
L 581 0 
L 581 4863 
L 1159 4863 
L 1159 2956 
Q 1366 3272 1645 3428 
Q 1925 3584 2291 3584 
Q 2894 3584 3203 3211 
Q 3513 2838 3513 2113 
z
" transform="scale(0.015625)"/>
      <path id="DejaVuSans-5f" d="M 3263 -1063 
L 3263 -1509 
L -63 -1509 
L -63 -1063 
L 3263 -1063 
z
" transform="scale(0.015625)"/>
      <path id="DejaVuSans-6f" d="M 1959 3097 
Q 1497 3097 1228 2736 
Q 959 2375 959 1747 
Q 959 1119 1226 758 
Q 1494 397 1959 397 
Q 2419 397 2687 759 
Q 2956 1122 2956 1747 
Q 2956 2369 2687 2733 
Q 2419 3097 1959 3097 
z
M 1959 3584 
Q 2709 3584 3137 3096 
Q 3566 2609 3566 1747 
Q 3566 888 3137 398 
Q 2709 -91 1959 -91 
Q 1206 -91 779 398 
Q 353 888 353 1747 
Q 353 2609 779 3096 
Q 1206 3584 1959 3584 
z
" transform="scale(0.015625)"/>
      <path id="DejaVuSans-6e" d="M 3513 2113 
L 3513 0 
L 2938 0 
L 2938 2094 
Q 2938 2591 2744 2837 
Q 2550 3084 2163 3084 
Q 1697 3084 1428 2787 
Q 1159 2491 1159 1978 
L 1159 0 
L 581 0 
L 581 3500 
L 1159 3500 
L 1159 2956 
Q 1366 3272 1645 3428 
Q 1925 3584 2291 3584 
Q 2894 3584 3203 3211 
Q 3513 2838 3513 2113 
z
" transform="scale(0.015625)"/>
      <path id="DejaVuSans-65" d="M 3597 1894 
L 3597 1613 
L 953 1613 
Q 991 1019 1311 708 
Q 1631 397 2203 397 
Q 2534 397 2845 478 
Q 3156 559 3463 722 
L 3463 178 
Q 3153 47 2828 -22 
Q 2503 -91 2169 -91 
Q 1331 -91 842 396 
Q 353 884 353 1716 
Q 353 2575 817 3079 
Q 1281 3584 2069 3584 
Q 2775 3584 3186 3129 
Q 3597 2675 3597 1894 
z
M 3022 2063 
Q 3016 2534 2758 2815 
Q 2500 3097 2075 3097 
Q 1594 3097 1305 2825 
Q 1016 2553 972 2059 
L 3022 2063 
z
" transform="scale(0.015625)"/>
      <path id="DejaVuSans-70" d="M 1159 525 
L 1159 -1331 
L 581 -1331 
L 581 3500 
L 1159 3500 
L 1159 2969 
Q 1341 3281 1617 3432 
Q 1894 3584 2278 3584 
Q 2916 3584 3314 3078 
Q 3713 2572 3713 1747 
Q 3713 922 3314 415 
Q 2916 -91 2278 -91 
Q 1894 -91 1617 61 
Q 1341 213 1159 525 
z
M 3116 1747 
Q 3116 2381 2855 2742 
Q 2594 3103 2138 3103 
Q 1681 3103 1420 2742 
Q 1159 2381 1159 1747 
Q 1159 1113 1420 752 
Q 1681 391 2138 391 
Q 2594 391 2855 752 
Q 3116 1113 3116 1747 
z
" transform="scale(0.015625)"/>
      <path id="DejaVuSans-3a" d="M 750 794 
L 1409 794 
L 1409 0 
L 750 0 
L 750 794 
z
M 750 3309 
L 1409 3309 
L 1409 2516 
L 750 2516 
L 750 3309 
z
" transform="scale(0.015625)"/>
     </defs>
     <use xlink:href="#DejaVuSans-32"/>
     <use xlink:href="#DejaVuSans-2d" x="63.623047"/>
     <use xlink:href="#DejaVuSans-77" x="99.707031"/>
     <use xlink:href="#DejaVuSans-61" x="181.494141"/>
     <use xlink:href="#DejaVuSans-79" x="242.773438"/>
     <use xlink:href="#DejaVuSans-20" x="301.953125"/>
     <use xlink:href="#DejaVuSans-6d" x="333.740234"/>
     <use xlink:href="#DejaVuSans-61" x="431.152344"/>
     <use xlink:href="#DejaVuSans-74" x="492.431641"/>
     <use xlink:href="#DejaVuSans-63" x="531.640625"/>
     <use xlink:href="#DejaVuSans-68" x="586.621094"/>
     <use xlink:href="#DejaVuSans-5f" x="650"/>
     <use xlink:href="#DejaVuSans-63" x="700"/>
     <use xlink:href="#DejaVuSans-6f" x="754.980469"/>
     <use xlink:href="#DejaVuSans-6e" x="816.162109"/>
     <use xlink:href="#DejaVuSans-63" x="879.541016"/>
     <use xlink:href="#DejaVuSans-65" x="934.521484"/>
     <use xlink:href="#DejaVuSans-70" x="996.044922"/>
     <use xlink:href="#DejaVuSans-74" x="1059.521484"/>
     <use xlink:href="#DejaVuSans-3a" x="1098.730469"/>
     <use xlink:href="#DejaVuSans-6e" x="1132.421875"/>
     <use xlink:href="#DejaVuSans-61" x="1195.800781"/>
     <use xlink:href="#DejaVuSans-6d" x="1257.080078"/>
     <use xlink:href="#DejaVuSans-65" x="1354.492188"/>
    </g>
   </g>
   <g id="legend_1">
    <g id="patch_8">
     <path d="M 199.313125 134.888625 
L 414.255313 134.888625 
Q 416.255313 134.888625 416.255313 132.888625 
L 416.255313 31.14175 
Q 416.255313 29.14175 414.255313 29.14175 
L 199.313125 29.14175 
Q 197.313125 29.14175 197.313125 31.14175 
L 197.313125 132.888625 
Q 197.313125 134.888625 199.313125 134.888625 
z
" style="fill: #e5e5e5; opacity: 0.8; stroke: #cccccc; stroke-width: 0.5; stroke-linejoin: miter"/>
    </g>
    <g id="text_8">
     <!-- Ingredients -->
     <g transform="translate(278.573281 40.740187)scale(0.1 -0.1)">
      <defs>
       <path id="DejaVuSans-49" d="M 628 4666 
L 1259 4666 
L 1259 0 
L 628 0 
L 628 4666 
z
" transform="scale(0.015625)"/>
       <path id="DejaVuSans-67" d="M 2906 1791 
Q 2906 2416 2648 2759 
Q 2391 3103 1925 3103 
Q 1463 3103 1205 2759 
Q 947 2416 947 1791 
Q 947 1169 1205 825 
Q 1463 481 1925 481 
Q 2391 481 2648 825 
Q 2906 1169 2906 1791 
z
M 3481 434 
Q 3481 -459 3084 -895 
Q 2688 -1331 1869 -1331 
Q 1566 -1331 1297 -1286 
Q 1028 -1241 775 -1147 
L 775 -588 
Q 1028 -725 1275 -790 
Q 1522 -856 1778 -856 
Q 2344 -856 2625 -561 
Q 2906 -266 2906 331 
L 2906 616 
Q 2728 306 2450 153 
Q 2172 0 1784 0 
Q 1141 0 747 490 
Q 353 981 353 1791 
Q 353 2603 747 3093 
Q 1141 3584 1784 3584 
Q 2172 3584 2450 3431 
Q 2728 3278 2906 2969 
L 2906 3500 
L 3481 3500 
L 3481 434 
z
" transform="scale(0.015625)"/>
       <path id="DejaVuSans-72" d="M 2631 2963 
Q 2534 3019 2420 3045 
Q 2306 3072 2169 3072 
Q 1681 3072 1420 2755 
Q 1159 2438 1159 1844 
L 1159 0 
L 581 0 
L 581 3500 
L 1159 3500 
L 1159 2956 
Q 1341 3275 1631 3429 
Q 1922 3584 2338 3584 
Q 2397 3584 2469 3576 
Q 2541 3569 2628 3553 
L 2631 2963 
z
" transform="scale(0.015625)"/>
       <path id="DejaVuSans-64" d="M 2906 2969 
L 2906 4863 
L 3481 4863 
L 3481 0 
L 2906 0 
L 2906 525 
Q 2725 213 2448 61 
Q 2172 -91 1784 -91 
Q 1150 -91 751 415 
Q 353 922 353 1747 
Q 353 2572 751 3078 
Q 1150 3584 1784 3584 
Q 2172 3584 2448 3432 
Q 2725 3281 2906 2969 
z
M 947 1747 
Q 947 1113 1208 752 
Q 1469 391 1925 391 
Q 2381 391 2643 752 
Q 2906 1113 2906 1747 
Q 2906 2381 2643 2742 
Q 2381 3103 1925 3103 
Q 1469 3103 1208 2742 
Q 947 2381 947 1747 
z
" transform="scale(0.015625)"/>
       <path id="DejaVuSans-69" d="M 603 3500 
L 1178 3500 
L 1178 0 
L 603 0 
L 603 3500 
z
M 603 4863 
L 1178 4863 
L 1178 4134 
L 603 4134 
L 603 4863 
z
" transform="scale(0.015625)"/>
       <path id="DejaVuSans-73" d="M 2834 3397 
L 2834 2853 
Q 2591 2978 2328 3040 
Q 2066 3103 1784 3103 
Q 1356 3103 1142 2972 
Q 928 2841 928 2578 
Q 928 2378 1081 2264 
Q 1234 2150 1697 2047 
L 1894 2003 
Q 2506 1872 2764 1633 
Q 3022 1394 3022 966 
Q 3022 478 2636 193 
Q 2250 -91 1575 -91 
Q 1294 -91 989 -36 
Q 684 19 347 128 
L 347 722 
Q 666 556 975 473 
Q 1284 391 1588 391 
Q 1994 391 2212 530 
Q 2431 669 2431 922 
Q 2431 1156 2273 1281 
Q 2116 1406 1581 1522 
L 1381 1569 
Q 847 1681 609 1914 
Q 372 2147 372 2553 
Q 372 3047 722 3315 
Q 1072 3584 1716 3584 
Q 2034 3584 2315 3537 
Q 2597 3491 2834 3397 
z
" transform="scale(0.015625)"/>
      </defs>
      <use xlink:href="#DejaVuSans-49"/>
      <use xlink:href="#DejaVuSans-6e" x="29.492188"/>
      <use xlink:href="#DejaVuSans-67" x="92.871094"/>
      <use xlink:href="#DejaVuSans-72" x="156.347656"/>
      <use xlink:href="#DejaVuSans-65" x="195.210938"/>
      <use xlink:href="#DejaVuSans-64" x="256.734375"/>
      <use xlink:href="#DejaVuSans-69" x="320.210938"/>
      <use xlink:href="#DejaVuSans-65" x="347.994141"/>
      <use xlink:href="#DejaVuSans-6e" x="409.517578"/>
      <use xlink:href="#DejaVuSans-74" x="472.896484"/>
      <use xlink:href="#DejaVuSans-73" x="512.105469"/>
     </g>
    </g>
    <g id="patch_9">
     <path d="M 201.313125 55.418313 
L 221.313125 55.418313 
L 221.313125 48.418313 
L 201.313125 48.418313 
z
" style="fill: #e24a33"/>
    </g>
    <g id="text_9">
     <!-- Change Approval for Purchase Order -->
     <g transform="translate(229.313125 55.418313)scale(0.1 -0.1)">
      <defs>
       <path id="DejaVuSans-43" d="M 4122 4306 
L 4122 3641 
Q 3803 3938 3442 4084 
Q 3081 4231 2675 4231 
Q 1875 4231 1450 3742 
Q 1025 3253 1025 2328 
Q 1025 1406 1450 917 
Q 1875 428 2675 428 
Q 3081 428 3442 575 
Q 3803 722 4122 1019 
L 4122 359 
Q 3791 134 3420 21 
Q 3050 -91 2638 -91 
Q 1578 -91 968 557 
Q 359 1206 359 2328 
Q 359 3453 968 4101 
Q 1578 4750 2638 4750 
Q 3056 4750 3426 4639 
Q 3797 4528 4122 4306 
z
" transform="scale(0.015625)"/>
       <path id="DejaVuSans-41" d="M 2188 4044 
L 1331 1722 
L 3047 1722 
L 2188 4044 
z
M 1831 4666 
L 2547 4666 
L 4325 0 
L 3669 0 
L 3244 1197 
L 1141 1197 
L 716 0 
L 50 0 
L 1831 4666 
z
" transform="scale(0.015625)"/>
       <path id="DejaVuSans-76" d="M 191 3500 
L 800 3500 
L 1894 563 
L 2988 3500 
L 3597 3500 
L 2284 0 
L 1503 0 
L 191 3500 
z
" transform="scale(0.015625)"/>
       <path id="DejaVuSans-6c" d="M 603 4863 
L 1178 4863 
L 1178 0 
L 603 0 
L 603 4863 
z
" transform="scale(0.015625)"/>
       <path id="DejaVuSans-66" d="M 2375 4863 
L 2375 4384 
L 1825 4384 
Q 1516 4384 1395 4259 
Q 1275 4134 1275 3809 
L 1275 3500 
L 2222 3500 
L 2222 3053 
L 1275 3053 
L 1275 0 
L 697 0 
L 697 3053 
L 147 3053 
L 147 3500 
L 697 3500 
L 697 3744 
Q 697 4328 969 4595 
Q 1241 4863 1831 4863 
L 2375 4863 
z
" transform="scale(0.015625)"/>
       <path id="DejaVuSans-50" d="M 1259 4147 
L 1259 2394 
L 2053 2394 
Q 2494 2394 2734 2622 
Q 2975 2850 2975 3272 
Q 2975 3691 2734 3919 
Q 2494 4147 2053 4147 
L 1259 4147 
z
M 628 4666 
L 2053 4666 
Q 2838 4666 3239 4311 
Q 3641 3956 3641 3272 
Q 3641 2581 3239 2228 
Q 2838 1875 2053 1875 
L 1259 1875 
L 1259 0 
L 628 0 
L 628 4666 
z
" transform="scale(0.015625)"/>
       <path id="DejaVuSans-75" d="M 544 1381 
L 544 3500 
L 1119 3500 
L 1119 1403 
Q 1119 906 1312 657 
Q 1506 409 1894 409 
Q 2359 409 2629 706 
Q 2900 1003 2900 1516 
L 2900 3500 
L 3475 3500 
L 3475 0 
L 2900 0 
L 2900 538 
Q 2691 219 2414 64 
Q 2138 -91 1772 -91 
Q 1169 -91 856 284 
Q 544 659 544 1381 
z
M 1991 3584 
L 1991 3584 
z
" transform="scale(0.015625)"/>
       <path id="DejaVuSans-4f" d="M 2522 4238 
Q 1834 4238 1429 3725 
Q 1025 3213 1025 2328 
Q 1025 1447 1429 934 
Q 1834 422 2522 422 
Q 3209 422 3611 934 
Q 4013 1447 4013 2328 
Q 4013 3213 3611 3725 
Q 3209 4238 2522 4238 
z
M 2522 4750 
Q 3503 4750 4090 4092 
Q 4678 3434 4678 2328 
Q 4678 1225 4090 567 
Q 3503 -91 2522 -91 
Q 1538 -91 948 565 
Q 359 1222 359 2328 
Q 359 3434 948 4092 
Q 1538 4750 2522 4750 
z
" transform="scale(0.015625)"/>
      </defs>
      <use xlink:href="#DejaVuSans-43"/>
      <use xlink:href="#DejaVuSans-68" x="69.824219"/>
      <use xlink:href="#DejaVuSans-61" x="133.203125"/>
      <use xlink:href="#DejaVuSans-6e" x="194.482422"/>
      <use xlink:href="#DejaVuSans-67" x="257.861328"/>
      <use xlink:href="#DejaVuSans-65" x="321.337891"/>
      <use xlink:href="#DejaVuSans-20" x="382.861328"/>
      <use xlink:href="#DejaVuSans-41" x="414.648438"/>
      <use xlink:href="#DejaVuSans-70" x="483.056641"/>
      <use xlink:href="#DejaVuSans-70" x="546.533203"/>
      <use xlink:href="#DejaVuSans-72" x="610.009766"/>
      <use xlink:href="#DejaVuSans-6f" x="648.873047"/>
      <use xlink:href="#DejaVuSans-76" x="710.054688"/>
      <use xlink:href="#DejaVuSans-61" x="769.234375"/>
      <use xlink:href="#DejaVuSans-6c" x="830.513672"/>
      <use xlink:href="#DejaVuSans-20" x="858.296875"/>
      <use xlink:href="#DejaVuSans-66" x="890.083984"/>
      <use xlink:href="#DejaVuSans-6f" x="925.289062"/>
      <use xlink:href="#DejaVuSans-72" x="986.470703"/>
      <use xlink:href="#DejaVuSans-20" x="1027.583984"/>
      <use xlink:href="#DejaVuSans-50" x="1059.371094"/>
      <use xlink:href="#DejaVuSans-75" x="1117.923828"/>
      <use xlink:href="#DejaVuSans-72" x="1181.302734"/>
      <use xlink:href="#DejaVuSans-63" x="1220.166016"/>
      <use xlink:href="#DejaVuSans-68" x="1275.146484"/>
      <use xlink:href="#DejaVuSans-61" x="1338.525391"/>
      <use xlink:href="#DejaVuSans-73" x="1399.804688"/>
      <use xlink:href="#DejaVuSans-65" x="1451.904297"/>
      <use xlink:href="#DejaVuSans-20" x="1513.427734"/>
      <use xlink:href="#DejaVuSans-4f" x="1545.214844"/>
      <use xlink:href="#DejaVuSans-72" x="1623.925781"/>
      <use xlink:href="#DejaVuSans-64" x="1663.289062"/>
      <use xlink:href="#DejaVuSans-65" x="1726.765625"/>
      <use xlink:href="#DejaVuSans-72" x="1788.289062"/>
     </g>
    </g>
    <g id="patch_10">
     <path d="M 201.313125 70.096438 
L 221.313125 70.096438 
L 221.313125 63.096438 
L 201.313125 63.096438 
z
" style="fill: #348abd"/>
    </g>
    <g id="text_10">
     <!-- Record Invoice Receipt -->
     <g transform="translate(229.313125 70.096438)scale(0.1 -0.1)">
      <defs>
       <path id="DejaVuSans-52" d="M 2841 2188 
Q 3044 2119 3236 1894 
Q 3428 1669 3622 1275 
L 4263 0 
L 3584 0 
L 2988 1197 
Q 2756 1666 2539 1819 
Q 2322 1972 1947 1972 
L 1259 1972 
L 1259 0 
L 628 0 
L 628 4666 
L 2053 4666 
Q 2853 4666 3247 4331 
Q 3641 3997 3641 3322 
Q 3641 2881 3436 2590 
Q 3231 2300 2841 2188 
z
M 1259 4147 
L 1259 2491 
L 2053 2491 
Q 2509 2491 2742 2702 
Q 2975 2913 2975 3322 
Q 2975 3731 2742 3939 
Q 2509 4147 2053 4147 
L 1259 4147 
z
" transform="scale(0.015625)"/>
      </defs>
      <use xlink:href="#DejaVuSans-52"/>
      <use xlink:href="#DejaVuSans-65" x="64.982422"/>
      <use xlink:href="#DejaVuSans-63" x="126.505859"/>
      <use xlink:href="#DejaVuSans-6f" x="181.486328"/>
      <use xlink:href="#DejaVuSans-72" x="242.667969"/>
      <use xlink:href="#DejaVuSans-64" x="282.03125"/>
      <use xlink:href="#DejaVuSans-20" x="345.507812"/>
      <use xlink:href="#DejaVuSans-49" x="377.294922"/>
      <use xlink:href="#DejaVuSans-6e" x="406.787109"/>
      <use xlink:href="#DejaVuSans-76" x="470.166016"/>
      <use xlink:href="#DejaVuSans-6f" x="529.345703"/>
      <use xlink:href="#DejaVuSans-69" x="590.527344"/>
      <use xlink:href="#DejaVuSans-63" x="618.310547"/>
      <use xlink:href="#DejaVuSans-65" x="673.291016"/>
      <use xlink:href="#DejaVuSans-20" x="734.814453"/>
      <use xlink:href="#DejaVuSans-52" x="766.601562"/>
      <use xlink:href="#DejaVuSans-65" x="831.583984"/>
      <use xlink:href="#DejaVuSans-63" x="893.107422"/>
      <use xlink:href="#DejaVuSans-65" x="948.087891"/>
      <use xlink:href="#DejaVuSans-69" x="1009.611328"/>
      <use xlink:href="#DejaVuSans-70" x="1037.394531"/>
      <use xlink:href="#DejaVuSans-74" x="1100.871094"/>
     </g>
    </g>
    <g id="patch_11">
     <path d="M 201.313125 84.774563 
L 221.313125 84.774563 
L 221.313125 77.774563 
L 201.313125 77.774563 
z
" style="fill: #988ed5"/>
    </g>
    <g id="text_11">
     <!-- Clear Invoice -->
     <g transform="translate(229.313125 84.774563)scale(0.1 -0.1)">
      <use xlink:href="#DejaVuSans-43"/>
      <use xlink:href="#DejaVuSans-6c" x="69.824219"/>
      <use xlink:href="#DejaVuSans-65" x="97.607422"/>
      <use xlink:href="#DejaVuSans-61" x="159.130859"/>
      <use xlink:href="#DejaVuSans-72" x="220.410156"/>
      <use xlink:href="#DejaVuSans-20" x="261.523438"/>
      <use xlink:href="#DejaVuSans-49" x="293.310547"/>
      <use xlink:href="#DejaVuSans-6e" x="322.802734"/>
      <use xlink:href="#DejaVuSans-76" x="386.181641"/>
      <use xlink:href="#DejaVuSans-6f" x="445.361328"/>
      <use xlink:href="#DejaVuSans-69" x="506.542969"/>
      <use xlink:href="#DejaVuSans-63" x="534.326172"/>
      <use xlink:href="#DejaVuSans-65" x="589.306641"/>
     </g>
    </g>
    <g id="patch_12">
     <path d="M 201.313125 99.452688 
L 221.313125 99.452688 
L 221.313125 92.452688 
L 201.313125 92.452688 
z
" style="fill: #777777"/>
    </g>
    <g id="text_12">
     <!-- Vendor creates invoice -->
     <g transform="translate(229.313125 99.452688)scale(0.1 -0.1)">
      <defs>
       <path id="DejaVuSans-56" d="M 1831 0 
L 50 4666 
L 709 4666 
L 2188 738 
L 3669 4666 
L 4325 4666 
L 2547 0 
L 1831 0 
z
" transform="scale(0.015625)"/>
      </defs>
      <use xlink:href="#DejaVuSans-56"/>
      <use xlink:href="#DejaVuSans-65" x="60.658203"/>
      <use xlink:href="#DejaVuSans-6e" x="122.181641"/>
      <use xlink:href="#DejaVuSans-64" x="185.560547"/>
      <use xlink:href="#DejaVuSans-6f" x="249.037109"/>
      <use xlink:href="#DejaVuSans-72" x="310.21875"/>
      <use xlink:href="#DejaVuSans-20" x="351.332031"/>
      <use xlink:href="#DejaVuSans-63" x="383.119141"/>
      <use xlink:href="#DejaVuSans-72" x="438.099609"/>
      <use xlink:href="#DejaVuSans-65" x="476.962891"/>
      <use xlink:href="#DejaVuSans-61" x="538.486328"/>
      <use xlink:href="#DejaVuSans-74" x="599.765625"/>
      <use xlink:href="#DejaVuSans-65" x="638.974609"/>
      <use xlink:href="#DejaVuSans-73" x="700.498047"/>
      <use xlink:href="#DejaVuSans-20" x="752.597656"/>
      <use xlink:href="#DejaVuSans-69" x="784.384766"/>
      <use xlink:href="#DejaVuSans-6e" x="812.167969"/>
      <use xlink:href="#DejaVuSans-76" x="875.546875"/>
      <use xlink:href="#DejaVuSans-6f" x="934.726562"/>
      <use xlink:href="#DejaVuSans-69" x="995.908203"/>
      <use xlink:href="#DejaVuSans-63" x="1023.691406"/>
      <use xlink:href="#DejaVuSans-65" x="1078.671875"/>
     </g>
    </g>
    <g id="patch_13">
     <path d="M 201.313125 114.130813 
L 221.313125 114.130813 
L 221.313125 107.130813 
L 201.313125 107.130813 
z
" style="fill: #fbc15e"/>
    </g>
    <g id="text_13">
     <!-- Create Purchase Order Item -->
     <g transform="translate(229.313125 114.130813)scale(0.1 -0.1)">
      <use xlink:href="#DejaVuSans-43"/>
      <use xlink:href="#DejaVuSans-72" x="69.824219"/>
      <use xlink:href="#DejaVuSans-65" x="108.6875"/>
      <use xlink:href="#DejaVuSans-61" x="170.210938"/>
      <use xlink:href="#DejaVuSans-74" x="231.490234"/>
      <use xlink:href="#DejaVuSans-65" x="270.699219"/>
      <use xlink:href="#DejaVuSans-20" x="332.222656"/>
      <use xlink:href="#DejaVuSans-50" x="364.009766"/>
      <use xlink:href="#DejaVuSans-75" x="422.5625"/>
      <use xlink:href="#DejaVuSans-72" x="485.941406"/>
      <use xlink:href="#DejaVuSans-63" x="524.804688"/>
      <use xlink:href="#DejaVuSans-68" x="579.785156"/>
      <use xlink:href="#DejaVuSans-61" x="643.164062"/>
      <use xlink:href="#DejaVuSans-73" x="704.443359"/>
      <use xlink:href="#DejaVuSans-65" x="756.542969"/>
      <use xlink:href="#DejaVuSans-20" x="818.066406"/>
      <use xlink:href="#DejaVuSans-4f" x="849.853516"/>
      <use xlink:href="#DejaVuSans-72" x="928.564453"/>
      <use xlink:href="#DejaVuSans-64" x="967.927734"/>
      <use xlink:href="#DejaVuSans-65" x="1031.404297"/>
      <use xlink:href="#DejaVuSans-72" x="1092.927734"/>
      <use xlink:href="#DejaVuSans-20" x="1134.041016"/>
      <use xlink:href="#DejaVuSans-49" x="1165.828125"/>
      <use xlink:href="#DejaVuSans-74" x="1195.320312"/>
      <use xlink:href="#DejaVuSans-65" x="1234.529297"/>
      <use xlink:href="#DejaVuSans-6d" x="1296.052734"/>
     </g>
    </g>
    <g id="patch_14">
     <path d="M 201.313125 128.808938 
L 221.313125 128.808938 
L 221.313125 121.808938 
L 201.313125 121.808938 
z
" style="fill: #8eba42"/>
    </g>
    <g id="text_14">
     <!-- others -->
     <g transform="translate(229.313125 128.808938)scale(0.1 -0.1)">
      <use xlink:href="#DejaVuSans-6f"/>
      <use xlink:href="#DejaVuSans-74" x="61.181641"/>
      <use xlink:href="#DejaVuSans-68" x="100.390625"/>
      <use xlink:href="#DejaVuSans-65" x="163.769531"/>
      <use xlink:href="#DejaVuSans-72" x="225.292969"/>
      <use xlink:href="#DejaVuSans-73" x="266.40625"/>
     </g>
    </g>
   </g>
  </g>
 </g>
</svg>
